<svg xmlns="http://www.w3.org/2000/svg" xmlns:xlink="http://www.w3.org/1999/xlink" width="856.069" height="481.085" viewBox="0 0 856.069 481.085"><defs><style>.a{fill:url(#a);}.b,.q{fill:none;}.b,.e,.k,.l,.m{stroke:#0e3239;stroke-width:4px;}.b,.d,.e,.f,.g,.j,.k,.l,.m{stroke-miterlimit:10;}.c{fill:#416159;}.d{fill:#162323;}.e{fill:#5e734e;}.f,.j,.n{fill:#fff;}.g,.l{fill:#c2d088;}.h,.p{fill:#0e3239;}.i,.m{fill:#182a2f;}.j{stroke:#5d0923;stroke-width:6px;}.k{fill:#193639;}.o,.p{stroke:none;}</style><linearGradient id="a" x1="-0.197" y1="0.732" x2="0.99" y2="0.377" gradientUnits="objectBoundingBox"><stop offset="0" stop-color="#5e734e"/><stop offset="0.995" stop-color="#9cb189"/></linearGradient></defs><g transform="translate(-177.707 -39.23)"><path class="a" d="M639.488,100.879c-22.112,41.336-153.908,9.769-173.179,70.532-14.467,45.616-84.4,79.768-105.837,129.019-50.986,117.139,12.092,208.059,138.884,219.462,82.506,7.42,173.347-85.573,236.064-59,117.987,50,256.408,21.394,223.006-52.984-16.361-36.433,50.335-101.79,48.173-138.888s-28.52-37.668-103.807-59.743c-28.292-8.3-51.591-11.842-40.856-84.856S700.031-12.3,639.488,100.879Z"/><path class="b" d="M584.614,313H330.735L264.382,478.092H982.846L960.2,436.362"/><path class="c" d="M898.849,423.5c3.9-5.833,7.859-11.465,12.021-17.083,10.9-14.712,20.029-30.89,30.426-46.024,5.244-7.633,10.431-15.366,16.066-22.663a220.838,220.838,0,0,0,15.947-22.681c7.616-12.932,11.386-28.369,18.062-41.953a122.048,122.048,0,0,1,9.072-15.857c2.451-3.528,5.317-7.573,9.482-9.08.762-.276,1.214,1.1.459,1.374-5.514,1.995-9.192,8.885-12.066,13.7a161.622,161.622,0,0,0-9.307,18.362c-.827,1.9-1.611,3.824-2.373,5.759a9.721,9.721,0,0,1,3.519-.291,32.149,32.149,0,0,1,4.17.391c11.856,1.965,22.144,9.289,32.422,16.584a.952.952,0,0,0,1.512-.349,90.084,90.084,0,0,0,4.277-16.961,1.348,1.348,0,0,0-.945-1.429q-5.582-1.62-11.153-3.321c-4.921-1.514-11.111-2.142-15.042-6.478a.438.438,0,0,1-.1-.472c2.457-4.034,9.863-2.435,14.058-1.641,4.386.831,8.717,2.139,13.064,3.348a.9.9,0,0,0,1.185-.842c.143-2.92.189-5.861.173-8.817a1.371,1.371,0,0,0-.938-1.255,64.873,64.873,0,0,1-11.14-4.808c-1.37-.743-1.23-2.761.192-2.831a41.859,41.859,0,0,1,10.583,1.039.9.9,0,0,0,1.11-.956c-.095-2.76-.212-5.524-.324-8.287a1.342,1.342,0,0,0-1.146-1.258,40.931,40.931,0,0,1-13.34-3.426c-.259-.12-.431-.458-.23-.665,2.551-2.638,7.122-2.328,10.791-1.894.862.1,1.722.232,2.582.38a.893.893,0,0,0,1.068-.954c-.074-2.748-.113-5.487-.093-8.212a1.328,1.328,0,0,0-1.272-1.32,12.142,12.142,0,0,1-6.647-1.453c-.2-.12-.311-.478-.136-.62,2.045-1.657,4.662-2.174,7.4-2.326a.882.882,0,0,0,.834-.88c.128-2.568.329-5.119.632-7.645a1.314,1.314,0,0,0-1.374-1.431c-5.307.705-10.613,1.432-15.89,2.251a.9.9,0,0,0-.746.994c.15,2.727.224,5.449.37,8.175.19,3.538,1.116,7.873-1.071,10.55a.367.367,0,0,1-.526-.038c-3.212-3.111-3.166-8.249-3.954-12.127-.346-1.7-.712-3.394-1.044-5.087a1.3,1.3,0,0,0-1.4-1.072c-4.554.815-9.073,1.731-13.541,2.789a.991.991,0,0,0-.55,1.466c.2.42.406.838.619,1.251,3.476,6.76,7.239,13.846,8,21.2a.326.326,0,0,1-.524.3c-3.84-2.365-5.987-7.081-8.542-10.685-2.442-3.446-4.775-6.956-7.063-10.495l-1.306-.574a140.9,140.9,0,0,0-15.545,5.52,1.093,1.093,0,0,0-.124,1.8c2.663,2.641,5.17,5.509,7.706,8.137,3.949,4.091,9.972,10.072,9.914,15.952,0,.19-.118.4-.335.363-5.232-.935-9.25-7.284-12.745-11.2a149.341,149.341,0,0,0-11-11.152,1.1,1.1,0,0,0-1.229-.231q-4.317,2.235-8.383,4.857a1.132,1.132,0,0,0,.006,1.741c4.612,4.6,10.06,8.43,15.064,12.513a57.063,57.063,0,0,1,9.121,8.841c1.427,1.83,3.174,4.132,3.659,6.378.384,1.782-.6,2.789-2.3,2.506-2.317-.385-4.673-2.425-6.541-3.987-8.521-7.125-16.319-15.407-24.656-22.839a1.06,1.06,0,0,0-1.355-.134q-1.41,1.121-2.774,2.3a62.914,62.914,0,0,0-6.067,5.978,1.205,1.205,0,0,0,.271,1.658c6.4,5.375,12.494,11.133,17,18.3.157.25.015.6-.269.559-3.848-.57-7.495-5.155-10.51-7.683s-6.01-5.077-9.009-7.624a1,1,0,0,0-1.519.1,38.553,38.553,0,0,0-2.019,3.507,39.851,39.851,0,0,0-2.347,5.74,1.292,1.292,0,0,0,.42,1.318q3.357,2.964,6.795,5.819c5.9,4.9,12.174,9.2,18.1,14.064a137.051,137.051,0,0,1,12.244,11.2c2.3,2.413,5.192,5.584,5.673,8.929a1.18,1.18,0,0,1-1.224,1.453c-3.161-.142-6.413-2.342-9.075-4.369-7.474-5.69-13.022-14.088-20.88-19.2-10.252-6.673-17.109-1.39-22.418,5.825,7.288,4.768,14.7,9.269,21.628,14.729,5.573,4.389,14.6,11.454,14.126,19.216a.564.564,0,0,1-.768.436c-9.381-2.849-17.464-9.359-25.527-15.491-4.64-3.53-8.976-8.544-13.757-12.338a140.53,140.53,0,0,0-7.225,13.667c3.5,1.258,6.819,3.2,8.99,6.689a.615.615,0,0,1-.486,1c-3.642.166-7.186-1.126-10.625-2.927q-1.665,3.891-3.182,7.878a55.391,55.391,0,0,1,11.564,5.18c6.941,3.964,14.377,9.487,18.545,16.794.222.389.112.932-.318.987-6.834.879-14.42-2.706-20.882-6.258a112.408,112.408,0,0,1-12.125-7.714c-2.033,6.013-3.891,12.128-5.664,18.269,9.43,4.316,19.5,9.135,25.525,18.4.24.369.1.954-.318.988-2.7.217-5.7-.885-8.383-1.833a135.769,135.769,0,0,1-13.031-5.537q-3.174-1.512-6.316-3.137c-1.608,5.646-3.71,12.367-5.326,19.443,1.784.827,3.525,1.719,5.167,2.576,4.213,2.2,10.053,5.329,12.393,10.006,1.711,3.42.118,6.92-3.059,7.628-4.561,1.016-10.367-2.4-14.518-5.044-.728-.463-1.468-.945-2.211-1.445-.534,6.543-.142,12.972,1.925,18.726,1.655,4.608,7.351,7.846,12.927,9.972C898.211,424.467,898.536,423.97,898.849,423.5Z"/><path class="c" d="M937.828,422.342a70.039,70.039,0,0,0,7.964-6.143c-6.719-3.061-13.247-6.381-17.182-13.224a.635.635,0,0,1,.319-.987c4.579-1.45,10.072.663,14.71,2.906a77.412,77.412,0,0,1,8.859,5.068q6.993-6.7,13.733-13.681c-8.4-4.2-17.365-7.7-21.136-17.119a.6.6,0,0,1,.4-.814c4.511-.855,9.72,1.8,14.053,4.021,4.361,2.24,8.561,4.892,12.842,7.337q4.9-5.355,9.575-10.927c-3.744-2.832-7.872-5.229-11.484-7.673-5.527-3.74-12.131-8.187-14.434-14.917a.6.6,0,0,1,.4-.815c6.134-1.006,12.77,2.465,18.418,6.021a149.471,149.471,0,0,1,13.28,9.71q1.518-1.955,3.007-3.937,6.055-8.1,11.454-16.761c-3.147-1.711-6.3-3.4-9.348-5.3-4.953-3.079-12.654-7.629-14.069-13.969-.08-.358.024-.765.4-.815,5.027-.673,10.515,1.459,15.4,3.859a64.852,64.852,0,0,1,12.517,7.919l.094-.164c2.2-3.946,6.085-8.93,6.916-13.612.874-4.922-1.884-4.587-6.679-7.446-2.685-1.6-5.324-3.33-7.948-5.06a13.029,13.029,0,0,1-4.012-3.709c-.653-1.023-.342-2.017.709-2.158,3.447-.465,7.886,2.483,11.028,4.02,3.851,1.884,7.6,4.061,11.385,6.106a.948.948,0,0,0,1.282-.253q.207-.313.408-.63a75.321,75.321,0,0,0,4.776-8.729,1.307,1.307,0,0,0-.743-1.657c-6.232-2.565-12.55-4.827-18.818-7.295a87.233,87.233,0,0,1-12.106-5.436,32.988,32.988,0,0,1-7.074-4.986,5.816,5.816,0,0,1-1.019-1.346c-1.71,4.462-3.329,8.973-5.058,13.432a107.176,107.176,0,0,1-12.6,22.661c-5.147,7.353-10.78,14.278-15.951,21.611-5.583,7.919-11.132,15.867-16.5,23.964-5.128,7.736-9.848,15.788-14.962,23.532-4.593,6.954-9.73,13.386-14.547,20.14-2.4,3.369-4.539,6.949-6.851,10.39a68.275,68.275,0,0,0,7.018,2.037,41.2,41.2,0,0,0,23.109-.891,14.617,14.617,0,0,1-4.074-4.71.672.672,0,0,1,.164-.932C929.016,418.59,933.651,419.861,937.828,422.342Z"/><g class="d"><path class="o" d="M 382.0687255859375 382.1369323730469 L 351.6867065429688 95.02538299560547 L 370.4723205566406 62.52682876586914 L 420.9067077636719 111.8979187011719 L 439.068603515625 283.52880859375 L 382.0687255859375 382.1369323730469 Z"/><path class="p" d="M 370.9144287109375 65.75836181640625 L 353.744140625 95.46240234375 L 383.4112854003906 375.8179931640625 L 437.0111694335938 283.091796875 L 418.9934997558594 112.8237915039063 L 370.9144287109375 65.75836181640625 M 370.0302124023438 59.29522705078125 L 422.8198852539063 110.971923828125 L 441.1260375976563 283.9660034179688 L 380.7262878417969 388.4557800292969 L 349.6292724609375 94.58819580078125 L 370.0302124023438 59.29522705078125 Z"/></g><g class="e" transform="translate(347.488 94.139) rotate(-6.577)"><rect class="o" width="66.435" height="296.187"/><rect class="q" x="2" y="2" width="62.435" height="292.187"/></g><g class="f"><path class="o" d="M 446.0036315917969 374.76513671875 L 415.62158203125 87.65358734130859 L 434.4072265625 55.15503311157227 L 484.8416137695313 104.526123046875 L 503.0035400390625 276.1570129394531 L 446.0036315917969 374.76513671875 Z"/><path class="p" d="M 434.8493041992188 58.38656616210938 L 417.6790161132813 88.09060668945313 L 447.34619140625 368.4462280273438 L 500.946044921875 275.719970703125 L 482.9283752441406 105.4519958496094 L 434.8493041992188 58.38656616210938 M 433.9651184082031 51.92343139648438 L 486.7547607421875 103.6001281738281 L 505.0609130859375 276.5941772460938 L 444.6611633300781 381.083984375 L 413.5641479492188 87.21640014648438 L 433.9651184082031 51.92343139648438 Z"/></g><path class="c" d="M842.551,286.516c11.28,5.39-16.891,36.542-16.891,36.542s36.518-10.7,43.036-20.7c2.819-4.326.509-15.582-1.528-20.6-2.208-5.438-15.333-18.408-7.578-24.219a86.947,86.947,0,0,1,5.134,8.132c2.886,5.143,5.377,10.5,7.907,15.862s5,10.719,7.094,16.191a88.4,88.4,0,0,1,4.777,16.735l3.885-.765a91.876,91.876,0,0,0-5.844-17.134c-2.431-5.482-5.205-10.756-8-15.986s-5.584-10.488-8.764-15.531a88.076,88.076,0,0,0-5.583-7.919,10.985,10.985,0,0,1,1.734-.873c5.533-2.2,13.4,11.261,17.095,15.743A24.454,24.454,0,0,0,894,280.854c5.426.882,16.853-3.62,20.63-7.615,5.136-5.432,6.611-21.565,10.276-28.08,8.185-14.549,4.673-39.278,4.673-39.278s-46.766,42.567-52.972,33.96c-3.248-4.505,30.206-22.333,40.865-30.028,2.9-2.094,6.478-9.166,6.52-12.745,0,0-11.89-24.658-24.8-35.578C894.425,157.465,877,150.113,877,150.113s-.834,22.082-2.425,29.243c-1.767,7.954-10.966,29.624-18.6,26.766-7.611-2.85,19.136-23.552,14.757-65.89a108.773,108.773,0,0,1-10.544-3.048c-5.508-2.406-20.593-12.4-20.593-12.4s5.659,9.673,6.538,13.264c3.228,13.19,1.246,56.292-8.686,53.617-8.154-2.2,1.534-47.772,1.534-47.772s-1.677-17.437-6.038-21.63c-4.756-4.57-25.924-7.524-25.924-7.524l7.7,19.825s13.59,23.207,2.088,27.5c-12.212,4.563-2.387-37.423-16.408-49.5,0,0-8.379,3.035-11.307,3.425-3.5.467-14.113-.412-14.113-.412l-3.388,10.011s-10.287,1.256-12.826,3.39c-4.79,4.024-7.894,17.138-10.232,22.835-1.765,4.3,16.45,15.914,23.152,19.391,8.445,4.381,36.008,9.575,33.168,18.655-1.849,5.916-24.683-2.32-24.683-2.32L742.863,165.9s4.109,44.568,6.67,57.171c.464,2.279,5.717,4.632,6.246,6.9,2.4,10.275,9.831,37.945,9.831,37.945,19.7,1.549,65.43-22.577,66.641-14.173,2.189,15.2-73.031,21.22-73.031,21.22s14.4,24.178,21.412,30.228c9.505,8.2,34.341,13.419,34.341,13.419s8.214-5.215,10-7.84C829.2,304.576,833.524,282.2,842.551,286.516Zm10.834-69.4c-2.1,3.636-5.075,5.847-6.647,4.94s-1.144-4.591.955-8.227,5.075-5.847,6.647-4.94S855.484,213.478,853.385,217.114Zm2.016,13.962c-1.239-1.954.567-5.319,4.032-7.517s7.28-2.4,8.519-.44-.566,5.319-4.032,7.517S856.64,233.03,855.4,231.076ZM882.712,251.8c-.072-1.741,8.15-3.5,18.364-3.921s18.554.645,18.626,2.386-8.15,3.5-18.364,3.921S882.785,253.542,882.712,251.8Zm-65.025-40.73c.3-1.79,3.9-2.671,8.044-1.969a11.82,11.82,0,0,1,6.121,2.649q.4.649.79,1.3a1.537,1.537,0,0,1,.034.563c-.3,1.789-3.905,2.671-8.044,1.969S817.383,212.861,817.687,211.071Zm14.74,26.822c-5.295.777-9.86-.45-10.2-2.739s3.685-4.775,8.981-5.551,9.86.45,10.2,2.739S837.723,237.117,832.427,237.893Zm5.06,11.9c-.558-1.433,1.677-3.641,4.992-4.931s6.455-1.175,7.013.259-1.677,3.641-4.993,4.931S838.045,251.227,837.487,249.794Zm-69.01-44.447c.3-2.444,11.013-3.135,23.925-1.543s23.135,4.867,22.833,7.312-11.013,3.136-23.925,1.543S768.175,207.793,768.477,205.347Zm21.967,33.4c-12.992-.679-23.454-2.573-23.367-4.23s10.689-2.449,23.681-1.769,23.454,2.574,23.367,4.23S803.436,239.431,790.444,238.751Zm27.618,46.992c-10.2,8.073-19.349,13.51-20.431,12.143s6.312-9.019,16.514-17.092,19.349-13.51,20.431-12.143S828.264,277.67,818.062,285.743Z"/><g class="d"><path class="o" d="M 468.3899841308594 452.8711242675781 L 471.0944213867188 164.1692199707031 L 493.4788818359375 134.036376953125 L 537.9262084960938 188.859375 L 536.3094482421875 361.4410095214844 L 468.3899841308594 452.8711242675781 Z"/><path class="p" d="M 493.5478515625 137.2972717285156 L 473.0881958007813 164.8390502929688 L 470.4473876953125 446.7476196289063 L 534.315673828125 360.7710571289063 L 535.9195556640625 189.5600891113281 L 493.5478515625 137.2972717285156 M 493.4097900390625 130.775390625 L 539.932861328125 188.1586303710938 L 538.3032836914063 362.1109619140625 L 466.33251953125 458.9946899414063 L 469.1005859375 163.4992370605469 L 493.4097900390625 130.775390625 Z"/></g><g class="e" transform="translate(467.025 162.807)"><rect class="o" width="66.435" height="296.187"/><rect class="q" x="2" y="2" width="62.435" height="292.187"/></g><g class="g"><path class="o" d="M 532.7484130859375 452.8711547851563 L 535.4529418945313 164.1692199707031 L 557.8373413085938 134.036376953125 L 602.28466796875 188.859375 L 600.6680297851563 361.4410095214844 L 532.7484130859375 452.8711547851563 Z"/><path class="p" d="M 557.9063720703125 137.2972717285156 L 537.4467163085938 164.8390502929688 L 534.8058471679688 446.7476196289063 L 598.6741943359375 360.7710571289063 L 600.2780151367188 189.5600891113281 L 557.9063720703125 137.2972717285156 M 557.768310546875 130.775390625 L 604.2913208007813 188.1586303710938 L 602.6618041992188 362.1109619140625 L 530.6909790039063 458.9946899414063 L 533.4591064453125 163.4992370605469 L 557.768310546875 130.775390625 Z"/></g><path class="b" d="M363.767,462.378h0c-21.583,0-39.08-6.539-39.08-33.6v-64.4c0-27.064,17.5-36.4,39.08-36.4h0c21.584,0,39.081,9.338,39.081,36.4v64.4C402.848,455.839,385.351,462.378,363.767,462.378Z"/><ellipse class="h" cx="22.592" cy="8.722" rx="22.592" ry="8.722" transform="translate(340.319 332.873)"/><path class="c" d="M353.977,282.065c-3.151,14.145-6.213,28.577-3.668,42.972q-5.818-4.449-11.861-8.651c3.458-6.221,4.478-14.7,5.371-21.546a105.065,105.065,0,0,0,.449-22.755c-.082-.938-1.593-1.208-1.809-.188-2.977,14.109-6.133,28.364-6.476,42.794q-5.493-3.736-11.145-7.272a109.638,109.638,0,0,0,3.62-46.445c-.112-.823-1.476-1.141-1.656-.173-2.76,14.835-4.414,30.236-3.478,45.328a.716.716,0,0,0-.6-.008q-4.309-2.642-8.7-5.165c1.6-6.409,1.367-13.631.755-20.1-.682-7.22-3.589-14.313-3.683-21.525-.013-1.013-1.622-.974-1.65.03-.224,8.1-.586,16.2-.618,24.3-.02,5.1.153,10.615,2.011,15.505q-3.294-1.838-6.626-3.614-.6-.73-1.144-1.492c1.446-15.394-5.488-30.158-6.635-45.387a.782.782,0,0,0-1.557.028,181.411,181.411,0,0,0,.763,27.716c.727,6.166,2.247,12.129,5.778,17.232a.488.488,0,0,0-.444-.1c-.133.032-.265.069-.4.1q-5.472-2.817-11.041-5.455a.529.529,0,0,0,.047-.134c.005-.04.008-.081.013-.121a.526.526,0,0,0,.052-.469c1.729-14.383-.394-29.833-3.009-43.991-.165-.9-1.444-.541-1.525.214-1.544,14.41-3.016,29.262,1.721,43.246-2.836-1.307-5.684-2.59-8.554-3.821.254-12.5-5.505-25.615-9.874-37.088a.807.807,0,0,0-1.564.22,77.382,77.382,0,0,0,2.213,18.349c1.472,5.9,4.149,11.38,5.994,17.151q-3.6-1.5-7.241-2.93a.6.6,0,0,0,.089-.374,194.124,194.124,0,0,0-6.649-36.093c-.23-.808-1.354-.538-1.426.2-1.124,11.558.039,24.491,5.259,35.206q-3.9-1.49-7.823-2.888c-1.332-13.746-3.669-27.466-6.233-41.046-.166-.884-1.475-.565-1.533.216a92.616,92.616,0,0,0,5.759,39.924l-.275.107c-2.406-.838-4.817-1.658-7.238-2.443,0-.009.007-.016.007-.025.584-7.409-1.114-14.987-2.839-22.179-1.947-8.123-5.771-16.074-6.768-24.353a.822.822,0,0,0-1.637.03c-.193,15.048,1.787,31.56,8.15,45.548-2.058-.647-4.119-1.282-6.186-1.891a.615.615,0,0,0,.015-.2,102.926,102.926,0,0,0-5.876-23.141c-3.068-7.943-7.276-15.442-9.431-23.693a.775.775,0,0,0-1.5.211c-.437,16.295,4.418,33.373,15.118,46.329q-2.242-.648-4.49-1.268-2.853-.783-5.736-1.538c-1.77-15.479-11.323-29.281-16.816-43.673-.271-.711-1.52-.64-1.457.205,1.087,14.519,5.605,31.127,15.458,42.741-3.9-1-7.835-1.947-11.79-2.811-1.786-12.772-9.186-23.412-16.539-33.952a.824.824,0,0,0-1.5.61c2.811,11.035,6.633,24.537,15.568,32.813q-4.431-.922-8.888-1.666l0-.011A217.1,217.1,0,0,0,179.18,232.3a.839.839,0,0,0-1.4.866c4.2,9.545,9.035,20.081,18.475,25.776l.123.122c-2.76-.4-5.521-.765-8.283-1.032-.585-.057-.676.85-.111.964,6.237,1.26,12.468,2.442,18.678,3.709a22.727,22.727,0,0,0-3.208.723,45.208,45.208,0,0,0-22.912,13.723c-.509.562.2,1.565.943,1.362,4.66-1.279,8.735-4.314,12.932-6.56,5.123-2.742,10.355-5.287,15.665-7.685a.922.922,0,0,0,.537-.741c3.843.813,7.677,1.669,11.5,2.617-3.962.893-7.9,1.931-11.83,2.91-3.6.9-8.014,1.325-11.156,3.278a.6.6,0,0,0,.491,1.086c8.413-1.741,18.021-1.221,25.05-6.612.764.2,1.529.387,2.291.593,2.125.575,4.24,1.18,6.353,1.8-4.98,1.415-9.88,3.082-14.943,4.295-5.245,1.256-10.3,2.669-14.864,5.5a.625.625,0,0,0,.348,1.162c5.958.3,11.6-1.314,17.223-2.995,5.53-1.653,10.846-3.575,15.415-7.015,1.667.5,3.336,1,5,1.525-10.317,3.422-20.4,7.956-30.486,11.819a.578.578,0,0,0,.177,1.135c12.614.047,23.969-5.175,34.237-11.7q3.358,1.1,6.695,2.263c-10.9,4.258-21.713,8.735-32.233,13.782a.5.5,0,0,0,.146.93c12.224,1.773,25.227-7.085,34.493-13.867q4.822,1.723,9.592,3.579a175.518,175.518,0,0,1-18.58,6.8,95.4,95.4,0,0,0-18.711,7.857.591.591,0,0,0,.329,1.1c12.476-1.389,28.72-4.508,37.149-14.293q.711-.4,1.39-.849,3.9,1.543,7.755,3.182c-6.244,2.4-12.313,5.687-18.514,8.2a134.34,134.34,0,0,0-18.684,8.947.58.58,0,0,0,.323,1.078c14.355-.7,28.685-8.184,39.2-17.23q4.638,2,9.215,4.133c-5.37,2.367-10.621,5.043-15.838,7.665-6.276,3.155-12.937,6.193-18.745,10.082a.721.721,0,0,0,.4,1.341c6.9-.122,13.335-2.771,19.314-5.861a85.282,85.282,0,0,0,17.726-11.875q4.73,2.256,9.391,4.639c-13.561,3.793-26.383,10.466-38.271,17.5a.549.549,0,0,0,.16,1.012c8.566,1.281,17.358-2.983,24.73-6.66,2.016-1.005,13.7-6.56,16.383-10.3q5.133,2.692,10.172,5.541A322.1,322.1,0,0,0,269.1,319.724a.762.762,0,0,0,.222,1.406c15.183,1.773,30.479-7.722,40.894-17.757.661-.248,1.32-.5,1.983-.745q4,2.3,7.938,4.683c-14.233,6.568-28.2,13.6-42.227,20.549a.575.575,0,0,0,.321,1.07c16.278-1.528,33-8.634,44.122-20.258q5.691,3.531,11.235,7.267c-6.787.963-13.807,3.958-19.926,6.463a139.882,139.882,0,0,0-22.873,12,.82.82,0,0,0,.457,1.524c16.8.331,32.614-7.85,44.827-18.289q5.7,3.936,11.187,8.107c-14.44,1.137-27.429,8.422-41.339,11.883a.808.808,0,0,0,.247,1.587c7.878.523,15.691-.671,23.432-1.942,7.646-1.256,15.283-3.82,21.119-8.871.1.076.2.15.3.227a.939.939,0,0,0,.3.232c6.382,4.98,12.6,10.154,18.71,15.463,1.021.886,2.488-.551,1.493-1.472q-8.874-8.214-18.508-15.725a25.2,25.2,0,0,0,1.3-6.983q.588-6.425.933-12.867.684-12.5.558-25.023A.933.933,0,0,0,353.977,282.065Z"/><path class="c" d="M353.977,282.065c-3.151,14.145-6.213,28.577-3.668,42.972q-5.818-4.449-11.861-8.651c3.458-6.221,4.478-14.7,5.371-21.546a105.065,105.065,0,0,0,.449-22.755c-.082-.938-1.593-1.208-1.809-.188-2.977,14.109-6.133,28.364-6.476,42.794q-5.493-3.736-11.145-7.272a109.638,109.638,0,0,0,3.62-46.445c-.112-.823-1.476-1.141-1.656-.173-2.76,14.835-4.414,30.236-3.478,45.328a.716.716,0,0,0-.6-.008q-4.309-2.642-8.7-5.165c1.6-6.409,1.367-13.631.755-20.1-.682-7.22-3.589-14.313-3.683-21.525-.013-1.013-1.622-.974-1.65.03-.224,8.1-.586,16.2-.618,24.3-.02,5.1.153,10.615,2.011,15.505q-3.294-1.838-6.626-3.614-.6-.73-1.144-1.492c1.446-15.394-5.488-30.158-6.635-45.387a.782.782,0,0,0-1.557.028,181.411,181.411,0,0,0,.763,27.716c.727,6.166,2.247,12.129,5.778,17.232a.488.488,0,0,0-.444-.1c-.133.032-.265.069-.4.1q-5.472-2.817-11.041-5.455a.529.529,0,0,0,.047-.134c.005-.04.008-.081.013-.121a.526.526,0,0,0,.052-.469c1.729-14.383-.394-29.833-3.009-43.991-.165-.9-1.444-.541-1.525.214-1.544,14.41-3.016,29.262,1.721,43.246-2.836-1.307-5.684-2.59-8.554-3.821.254-12.5-5.505-25.615-9.874-37.088a.807.807,0,0,0-1.564.22,77.382,77.382,0,0,0,2.213,18.349c1.472,5.9,4.149,11.38,5.994,17.151q-3.6-1.5-7.241-2.93a.6.6,0,0,0,.089-.374,194.124,194.124,0,0,0-6.649-36.093c-.23-.808-1.354-.538-1.426.2-1.124,11.558.039,24.491,5.259,35.206q-3.9-1.49-7.823-2.888c-1.332-13.746-3.669-27.466-6.233-41.046-.166-.884-1.475-.565-1.533.216a92.616,92.616,0,0,0,5.759,39.924l-.275.107c-2.406-.838-4.817-1.658-7.238-2.443,0-.009.007-.016.007-.025.584-7.409-1.114-14.987-2.839-22.179-1.947-8.123-5.771-16.074-6.768-24.353a.822.822,0,0,0-1.637.03c-.193,15.048,1.787,31.56,8.15,45.548-2.058-.647-4.119-1.282-6.186-1.891a.615.615,0,0,0,.015-.2,102.926,102.926,0,0,0-5.876-23.141c-3.068-7.943-7.276-15.442-9.431-23.693a.775.775,0,0,0-1.5.211c-.437,16.295,4.418,33.373,15.118,46.329q-2.242-.648-4.49-1.268-2.853-.783-5.736-1.538c-1.77-15.479-11.323-29.281-16.816-43.673-.271-.711-1.52-.64-1.457.205,1.087,14.519,5.605,31.127,15.458,42.741-3.9-1-7.835-1.947-11.79-2.811-1.786-12.772-9.186-23.412-16.539-33.952a.824.824,0,0,0-1.5.61c2.811,11.035,6.633,24.537,15.568,32.813q-4.431-.922-8.888-1.666l0-.011A217.1,217.1,0,0,0,179.18,232.3a.839.839,0,0,0-1.4.866c4.2,9.545,9.035,20.081,18.475,25.776l.123.122c-2.76-.4-5.521-.765-8.283-1.032-.585-.057-.676.85-.111.964,6.237,1.26,12.468,2.442,18.678,3.709a22.727,22.727,0,0,0-3.208.723,45.208,45.208,0,0,0-22.912,13.723c-.509.562.2,1.565.943,1.362,4.66-1.279,8.735-4.314,12.932-6.56,5.123-2.742,10.355-5.287,15.665-7.685a.922.922,0,0,0,.537-.741c3.843.813,7.677,1.669,11.5,2.617-3.962.893-7.9,1.931-11.83,2.91-3.6.9-8.014,1.325-11.156,3.278a.6.6,0,0,0,.491,1.086c8.413-1.741,18.021-1.221,25.05-6.612.764.2,1.529.387,2.291.593,2.125.575,4.24,1.18,6.353,1.8-4.98,1.415-9.88,3.082-14.943,4.295-5.245,1.256-10.3,2.669-14.864,5.5a.625.625,0,0,0,.348,1.162c5.958.3,11.6-1.314,17.223-2.995,5.53-1.653,10.846-3.575,15.415-7.015,1.667.5,3.336,1,5,1.525-10.317,3.422-20.4,7.956-30.486,11.819a.578.578,0,0,0,.177,1.135c12.614.047,23.969-5.175,34.237-11.7q3.358,1.1,6.695,2.263c-10.9,4.258-21.713,8.735-32.233,13.782a.5.5,0,0,0,.146.93c12.224,1.773,25.227-7.085,34.493-13.867q4.822,1.723,9.592,3.579a175.518,175.518,0,0,1-18.58,6.8,95.4,95.4,0,0,0-18.711,7.857.591.591,0,0,0,.329,1.1c12.476-1.389,28.72-4.508,37.149-14.293q.711-.4,1.39-.849,3.9,1.543,7.755,3.182c-6.244,2.4-12.313,5.687-18.514,8.2a134.34,134.34,0,0,0-18.684,8.947.58.58,0,0,0,.323,1.078c14.355-.7,28.685-8.184,39.2-17.23q4.638,2,9.215,4.133c-5.37,2.367-10.621,5.043-15.838,7.665-6.276,3.155-12.937,6.193-18.745,10.082a.721.721,0,0,0,.4,1.341c6.9-.122,13.335-2.771,19.314-5.861a85.282,85.282,0,0,0,17.726-11.875q4.73,2.256,9.391,4.639c-13.561,3.793-26.383,10.466-38.271,17.5a.549.549,0,0,0,.16,1.012c8.566,1.281,17.358-2.983,24.73-6.66,2.016-1.005,13.7-6.56,16.383-10.3q5.133,2.692,10.172,5.541A322.1,322.1,0,0,0,269.1,319.724a.762.762,0,0,0,.222,1.406c15.183,1.773,30.479-7.722,40.894-17.757.661-.248,1.32-.5,1.983-.745q4,2.3,7.938,4.683c-14.233,6.568-28.2,13.6-42.227,20.549a.575.575,0,0,0,.321,1.07c16.278-1.528,33-8.634,44.122-20.258q5.691,3.531,11.235,7.267c-6.787.963-13.807,3.958-19.926,6.463a139.882,139.882,0,0,0-22.873,12,.82.82,0,0,0,.457,1.524c16.8.331,32.614-7.85,44.827-18.289q5.7,3.936,11.187,8.107c-14.44,1.137-27.429,8.422-41.339,11.883a.808.808,0,0,0,.247,1.587c7.878.523,15.691-.671,23.432-1.942,7.646-1.256,15.283-3.82,21.119-8.871.1.076.2.15.3.227a.939.939,0,0,0,.3.232c6.382,4.98,12.6,10.154,18.71,15.463,1.021.886,2.488-.551,1.493-1.472q-8.874-8.214-18.508-15.725a25.2,25.2,0,0,0,1.3-6.983q.588-6.425.933-12.867.684-12.5.558-25.023A.933.933,0,0,0,353.977,282.065Z"/><path class="i" d="M397.765,286.829c-12.018,10.437-24.147,21.177-31.377,35.2q-2.141-7.308-4.638-14.533c7.087-3.365,13.535-10.134,18.8-15.56a119.012,119.012,0,0,0,15.317-19.521.965.965,0,0,0-1.449-1.233c-11.845,10.509-23.939,21.039-33.7,33.384q-2.325-6.5-4.921-12.909a125.065,125.065,0,0,0,33.614-38.247c.442-.782-.535-1.865-1.327-1.129-12.131,11.268-23.671,23.683-32.757,37.359a.734.734,0,0,0-.518-.363q-2.014-4.844-4.177-9.632c5.594-4.628,10.13-11.045,13.842-17.033,4.142-6.681,6.269-14.567,10.917-20.893.653-.89-.771-1.807-1.454-.95-5.505,6.907-11.136,13.74-16.476,20.763-3.363,4.424-6.83,9.32-8.422,14.67-1.105-2.363-2.229-4.718-3.391-7.057q-.045-.995-.016-1.974c11.356-12.531,15.011-29.467,24-43.387.562-.869-.718-1.705-1.373-.9a204.361,204.361,0,0,0-17.517,24.551c-3.411,5.791-6,11.875-6.279,18.4a.483.483,0,0,0-.324-.344c-.136-.051-.275-.1-.412-.148q-2.909-5.684-6.022-11.268a.61.61,0,0,0,.129-.089c.03-.031.06-.065.09-.1a.6.6,0,0,0,.354-.377c10.937-11.485,19.226-26.174,26.239-40.03.445-.879-.9-1.324-1.466-.715-10.795,11.617-21.818,23.662-26.872,38.621-1.609-2.812-3.243-5.611-4.931-8.378,8.418-10.717,12.016-25.526,15.743-38.085a.852.852,0,0,0-1.5-.733,85.869,85.869,0,0,0-10.112,17.263c-2.593,6.005-3.857,12.348-6.038,18.456q-2.148-3.438-4.375-6.826a.7.7,0,0,0,.323-.272A213.024,213.024,0,0,0,343.181,197.5c.33-.838-.825-1.267-1.371-.668-8.559,9.385-16.031,21.318-18.521,33.721q-2.41-3.6-4.908-7.135c7.858-12.74,14.826-26.051,21.5-39.374.435-.868-.913-1.363-1.475-.719a102.25,102.25,0,0,0-21.18,38.119l-.31-.069q-2.313-3.226-4.691-6.4c.007-.007.016-.009.022-.017,5.368-6.1,8.862-13.69,12.08-20.963,3.635-8.215,5.526-17.388,10.089-25.175a.862.862,0,0,0-1.442-.942c-10.039,12.971-19.149,28.5-22.792,44.422q-2.048-2.668-4.139-5.3a.67.67,0,0,0,.145-.165,111.551,111.551,0,0,0,10.07-23.594c2.543-8.721,3.8-17.728,7.342-26.176.353-.845-.9-1.389-1.445-.7-11.069,13.911-18.049,31.63-17.245,49.219q-1.524-1.889-3.072-3.756-1.966-2.367-3.978-4.727c8.613-14.5,9.36-32.153,14.025-47.913.23-.778-.9-1.455-1.4-.683-8.58,13.268-15.545,30.379-14.6,46.3-2.74-3.174-5.535-6.324-8.408-9.412,6.825-12.162,7.369-25.786,7.89-39.3a.887.887,0,0,0-1.7-.354c-4.795,11.256-10.328,25.255-7.988,37.732q-3.246-3.42-6.635-6.7l0-.012a219.238,219.238,0,0,0-.641-36.495.916.916,0,0,0-1.788-.076c-2.609,10.781-5.316,22.8-.843,33.331l.027.179c-2.135-1.982-4.3-3.928-6.525-5.792-.472-.4-1.145.339-.73.772,4.6,4.782,9.24,9.492,13.809,14.264a23.792,23.792,0,0,0-3.264-1.268,50.373,50.373,0,0,0-28.924-1.607.936.936,0,0,0-.074,1.742c4.892,1.642,10.425,1.411,15.549,1.938,6.253.643,12.471,1.522,18.662,2.575a1.071,1.071,0,0,0,.953-.327c2.808,2.977,5.581,5.988,8.281,9.07-4.031-1.565-8.132-2.987-12.2-4.461-3.715-1.346-7.836-3.584-11.85-3.742a.638.638,0,0,0-.286,1.235c8.457,3.457,16.471,9.587,26.12,9.053.534.624,1.075,1.24,1.6,1.87,1.47,1.755,2.913,3.531,4.346,5.315-5.259-1.713-10.613-3.159-15.811-5.1-5.384-2.007-10.709-3.767-16.534-4a.67.67,0,0,0-.459,1.215c4.983,3.783,10.946,5.711,16.941,7.574,5.892,1.83,11.776,3.3,18.005,3.01,1.12,1.422,2.244,2.842,3.344,4.278-11.216-3.121-22.959-5.138-34.262-7.738-.69-.159-1.226.655-.59,1.091,10.937,7.495,24.236,9.665,37.444,10.06q2.2,2.943,4.338,5.924c-12.27-2.739-24.61-5.236-37.069-7.064a.547.547,0,0,0-.482.895c9.465,8.765,26.582,8.747,39.088,8.325q3.064,4.35,5.993,8.781a189.577,189.577,0,0,1-20.618-5.065,103.932,103.932,0,0,0-21.424-4.225c-.622-.049-1.041.833-.435,1.15,11.759,6.166,27.93,13.053,41.678,9.525q.883.07,1.766.083,2.377,3.646,4.656,7.349c-7.005-1.6-14.438-2.331-21.475-3.813a147.468,147.468,0,0,0-22.115-3.261.621.621,0,0,0-.426,1.128c12.943,7.871,30.311,9.835,45.391,8.185q2.718,4.483,5.3,9.04c-6.222-1.116-12.542-1.892-18.8-2.694-7.527-.966-15.311-2.261-22.913-2.311a.774.774,0,0,0-.531,1.4c6.079,3.97,13.413,5.47,20.639,6.317a95.9,95.9,0,0,0,23.2.149q2.634,4.756,5.123,9.583c-14.28-4.716-29.806-6.49-44.755-7.4-.5-.03-.93.6-.525.976,6.608,6.175,17.05,7.663,25.872,8.822,2.413.317,16.22,2.394,21,.726q2.7,5.375,5.21,10.829a351.729,351.729,0,0,0-47.8-8.666c-.7-.08-1.3.858-.729,1.353,12.039,10.514,31.568,11.3,47.207,8.726.737.175,1.476.345,2.213.524,1.314,2.906,2.6,5.824,3.831,8.763-16.685-2.7-33.44-4.836-50.2-7.085-.625-.084-.983.813-.423,1.119,15.157,8.291,34.358,11.993,51.654,8.459q2.634,6.432,5,12.958c-6.533-3.173-14.6-4.717-21.566-6.155A154.6,154.6,0,0,0,308.487,295a.88.88,0,0,0-.6,1.6c14.392,10.217,33.509,12.448,50.976,10.588q2.375,6.792,4.41,13.66c-13.3-7.544-29.375-8.886-43.741-14.1a.875.875,0,0,0-.825,1.526c6.506,5.11,14.084,8.689,21.649,12.158,7.472,3.427,15.794,5.71,24.183,4.767.035.124.073.248.108.372a.916.916,0,0,0,.108.378c2.282,8.1,4.291,16.274,6.126,24.5.306,1.373,2.524.991,2.263-.4-1.552-8.259-3.5-16.469-5.778-24.612a29.1,29.1,0,0,0,5.707-5.306q4.727-5.238,9.252-10.636,8.795-10.467,16.9-21.43C399.855,287.208,398.6,286.1,397.765,286.829Z"/><path class="i" d="M397.765,286.829c-12.018,10.437-24.147,21.177-31.377,35.2q-2.141-7.308-4.638-14.533c7.087-3.365,13.535-10.134,18.8-15.56a119.012,119.012,0,0,0,15.317-19.521.965.965,0,0,0-1.449-1.233c-11.845,10.509-23.939,21.039-33.7,33.384q-2.325-6.5-4.921-12.909a125.065,125.065,0,0,0,33.614-38.247c.442-.782-.535-1.865-1.327-1.129-12.131,11.268-23.671,23.683-32.757,37.359a.734.734,0,0,0-.518-.363q-2.014-4.844-4.177-9.632c5.594-4.628,10.13-11.045,13.842-17.033,4.142-6.681,6.269-14.567,10.917-20.893.653-.89-.771-1.807-1.454-.95-5.505,6.907-11.136,13.74-16.476,20.763-3.363,4.424-6.83,9.32-8.422,14.67-1.105-2.363-2.229-4.718-3.391-7.057q-.045-.995-.016-1.974c11.356-12.531,15.011-29.467,24-43.387.562-.869-.718-1.705-1.373-.9a204.361,204.361,0,0,0-17.517,24.551c-3.411,5.791-6,11.875-6.279,18.4a.483.483,0,0,0-.324-.344c-.136-.051-.275-.1-.412-.148q-2.909-5.684-6.022-11.268a.61.61,0,0,0,.129-.089c.03-.031.06-.065.09-.1a.6.6,0,0,0,.354-.377c10.937-11.485,19.226-26.174,26.239-40.03.445-.879-.9-1.324-1.466-.715-10.795,11.617-21.818,23.662-26.872,38.621-1.609-2.812-3.243-5.611-4.931-8.378,8.418-10.717,12.016-25.526,15.743-38.085a.852.852,0,0,0-1.5-.733,85.869,85.869,0,0,0-10.112,17.263c-2.593,6.005-3.857,12.348-6.038,18.456q-2.148-3.438-4.375-6.826a.7.7,0,0,0,.323-.272A213.024,213.024,0,0,0,343.181,197.5c.33-.838-.825-1.267-1.371-.668-8.559,9.385-16.031,21.318-18.521,33.721q-2.41-3.6-4.908-7.135c7.858-12.74,14.826-26.051,21.5-39.374.435-.868-.913-1.363-1.475-.719a102.25,102.25,0,0,0-21.18,38.119l-.31-.069q-2.313-3.226-4.691-6.4c.007-.007.016-.009.022-.017,5.368-6.1,8.862-13.69,12.08-20.963,3.635-8.215,5.526-17.388,10.089-25.175a.862.862,0,0,0-1.442-.942c-10.039,12.971-19.149,28.5-22.792,44.422q-2.048-2.668-4.139-5.3a.67.67,0,0,0,.145-.165,111.551,111.551,0,0,0,10.07-23.594c2.543-8.721,3.8-17.728,7.342-26.176.353-.845-.9-1.389-1.445-.7-11.069,13.911-18.049,31.63-17.245,49.219q-1.524-1.889-3.072-3.756-1.966-2.367-3.978-4.727c8.613-14.5,9.36-32.153,14.025-47.913.23-.778-.9-1.455-1.4-.683-8.58,13.268-15.545,30.379-14.6,46.3-2.74-3.174-5.535-6.324-8.408-9.412,6.825-12.162,7.369-25.786,7.89-39.3a.887.887,0,0,0-1.7-.354c-4.795,11.256-10.328,25.255-7.988,37.732q-3.246-3.42-6.635-6.7l0-.012a219.238,219.238,0,0,0-.641-36.495.916.916,0,0,0-1.788-.076c-2.609,10.781-5.316,22.8-.843,33.331l.027.179c-2.135-1.982-4.3-3.928-6.525-5.792-.472-.4-1.145.339-.73.772,4.6,4.782,9.24,9.492,13.809,14.264a23.792,23.792,0,0,0-3.264-1.268,50.373,50.373,0,0,0-28.924-1.607.936.936,0,0,0-.074,1.742c4.892,1.642,10.425,1.411,15.549,1.938,6.253.643,12.471,1.522,18.662,2.575a1.071,1.071,0,0,0,.953-.327c2.808,2.977,5.581,5.988,8.281,9.07-4.031-1.565-8.132-2.987-12.2-4.461-3.715-1.346-7.836-3.584-11.85-3.742a.638.638,0,0,0-.286,1.235c8.457,3.457,16.471,9.587,26.12,9.053.534.624,1.075,1.24,1.6,1.87,1.47,1.755,2.913,3.531,4.346,5.315-5.259-1.713-10.613-3.159-15.811-5.1-5.384-2.007-10.709-3.767-16.534-4a.67.67,0,0,0-.459,1.215c4.983,3.783,10.946,5.711,16.941,7.574,5.892,1.83,11.776,3.3,18.005,3.01,1.12,1.422,2.244,2.842,3.344,4.278-11.216-3.121-22.959-5.138-34.262-7.738-.69-.159-1.226.655-.59,1.091,10.937,7.495,24.236,9.665,37.444,10.06q2.2,2.943,4.338,5.924c-12.27-2.739-24.61-5.236-37.069-7.064a.547.547,0,0,0-.482.895c9.465,8.765,26.582,8.747,39.088,8.325q3.064,4.35,5.993,8.781a189.577,189.577,0,0,1-20.618-5.065,103.932,103.932,0,0,0-21.424-4.225c-.622-.049-1.041.833-.435,1.15,11.759,6.166,27.93,13.053,41.678,9.525q.883.07,1.766.083,2.377,3.646,4.656,7.349c-7.005-1.6-14.438-2.331-21.475-3.813a147.468,147.468,0,0,0-22.115-3.261.621.621,0,0,0-.426,1.128c12.943,7.871,30.311,9.835,45.391,8.185q2.718,4.483,5.3,9.04c-6.222-1.116-12.542-1.892-18.8-2.694-7.527-.966-15.311-2.261-22.913-2.311a.774.774,0,0,0-.531,1.4c6.079,3.97,13.413,5.47,20.639,6.317a95.9,95.9,0,0,0,23.2.149q2.634,4.756,5.123,9.583c-14.28-4.716-29.806-6.49-44.755-7.4-.5-.03-.93.6-.525.976,6.608,6.175,17.05,7.663,25.872,8.822,2.413.317,16.22,2.394,21,.726q2.7,5.375,5.21,10.829a351.729,351.729,0,0,0-47.8-8.666c-.7-.08-1.3.858-.729,1.353,12.039,10.514,31.568,11.3,47.207,8.726.737.175,1.476.345,2.213.524,1.314,2.906,2.6,5.824,3.831,8.763-16.685-2.7-33.44-4.836-50.2-7.085-.625-.084-.983.813-.423,1.119,15.157,8.291,34.358,11.993,51.654,8.459q2.634,6.432,5,12.958c-6.533-3.173-14.6-4.717-21.566-6.155A154.6,154.6,0,0,0,308.487,295a.88.88,0,0,0-.6,1.6c14.392,10.217,33.509,12.448,50.976,10.588q2.375,6.792,4.41,13.66c-13.3-7.544-29.375-8.886-43.741-14.1a.875.875,0,0,0-.825,1.526c6.506,5.11,14.084,8.689,21.649,12.158,7.472,3.427,15.794,5.71,24.183,4.767.035.124.073.248.108.372a.916.916,0,0,0,.108.378c2.282,8.1,4.291,16.274,6.126,24.5.306,1.373,2.524.991,2.263-.4-1.552-8.259-3.5-16.469-5.778-24.612a29.1,29.1,0,0,0,5.707-5.306q4.727-5.238,9.252-10.636,8.795-10.467,16.9-21.43C399.855,287.208,398.6,286.1,397.765,286.829Z"/><rect class="j" width="325.207" height="224.116" rx="24.054" transform="translate(570.942 426.479) rotate(-90)"/><circle class="j" cx="8.763" cy="8.763" r="8.763" transform="translate(674.237 391.382)"/><line class="j" x2="227.464" transform="translate(569.268 377.121)"/><path class="b" d="M891.042,456.15h0c-29.824,0-54.9-11.26-58.248-40.895L815.949,266.413H965.79L949.3,415.122C946.014,444.816,920.917,456.15,891.042,456.15Z"/><path class="k" d="M968.35,251.352c-2.678-7.736-35.321-13.854-76.427-13.854s-75.363,6.118-78.041,13.854c0,0-.276,15.493-.276,16.084,0,8.2,34.742,14.849,77.6,14.849,40.128,0,73.138-5.829,77.179-13.3Z"/><path class="l" d="M963.277,233.438H819.116v19.016h.062c0,.033-.014.066-.014.1,0,7.615,32.261,13.789,72.057,13.789s72.056-6.174,72.056-13.789c0-.034-.012-.067-.013-.1h.013Z"/><ellipse class="m" cx="72.056" cy="13.789" rx="72.056" ry="13.789" transform="translate(819.483 219.099)"/><path class="n" d="M936.922,232.528c0,2.282-8.212,4.132-8.212,4.132V228.4S936.922,230.246,936.922,232.528Z"/></g></svg>