<svg xmlns="http://www.w3.org/2000/svg" width="229.517" height="129.816" viewBox="0 0 229.517 129.816"><defs><style>.a{fill:#fff;stroke:#5d0923;stroke-miterlimit:10;stroke-width:9px;}</style></defs><path class="a" d="M568.6,525.712c4.776.345,47.179,3.382,68.824,4.48.462.031,10.995.458,17.574-16.664.776-1.871,2.633-7.452,1.917-10.84l-.353-1.663,1.483-.833c.28-.163,35.532-20.047,88.838-46.994,7.127-4.453,10.675-8.742,9.491-11.484l-.056-.111c-1.633-3.231-8.538-4.823-11.793-3.967l-1.536.409-.142-.209c-4.193,1.207-18.452,6.994-29.967,11.663-36.692,14.881-36.991,14.566-38.643,12.828l-.819-.862.237-1.173c.119-.729,1.158-7.334-1.52-12.63a12.338,12.338,0,0,0-1.65-2.465c-2.676-3.087-7.011-4.521-12.871-4.251l-2.572.123.137-2.58a21.426,21.426,0,0,0-2.008-9.463,12.784,12.784,0,0,0-2.693-3.644c-3.039-2.8-7.5-3.809-13.319-3.014l-1.491.21-.8-1.3c-.234-.39-6.055-9.341-15.043-11.442-4.75-1.1-9.646-.088-14.582,3.014l-.268.157-.17.064c-1.647.589-40.612,15.058-59.9,41.991l-10.183,9.6" transform="translate(-531.632 -404.896)"/></svg>