<svg xmlns="http://www.w3.org/2000/svg" xmlns:xlink="http://www.w3.org/1999/xlink" width="725.782" height="438.71" viewBox="0 0 725.782 438.71"><defs><style>.a{fill:url(#a);}.b,.f,.j,.l,.p,.r{fill:none;}.b{stroke:#07282f;}.b,.e,.f,.g,.i,.j,.l,.p{stroke-miterlimit:10;}.b,.e,.f,.g,.j,.p{stroke-width:4px;}.c,.d{fill:#416159;}.d{opacity:0.2;}.e{fill:#193639;}.e,.f,.g{stroke:#0e3239;}.g,.k,.t{fill:#fff;}.h,.s{fill:#0e3239;}.i{fill:#5e734e;}.j{stroke:#fff;}.m{fill:#cfacbe;}.n{fill:#5d0923;}.o{fill:#f4f4f4;}.p{stroke:#f4f4f4;}.q,.s,.t{stroke:none;}</style><linearGradient id="a" y1="0.5" x2="1" y2="0.5" gradientUnits="objectBoundingBox"><stop offset="0.005" stop-color="#9cb189"/><stop offset="1" stop-color="#5e734e"/></linearGradient></defs><g transform="translate(-309.501 -73.304)"><path class="a" d="M1006.561,335.94c-1.507-77.881-64.765-141.005-142.649-142.374a146.724,146.724,0,0,0-18.59.851,28.768,28.768,0,0,1-28.03-14.121,145.288,145.288,0,0,0-216.5-40.688,72.163,72.163,0,0,1-45.514,15.429h-.269a78.765,78.765,0,0,0-71.089,44.82,19.552,19.552,0,0,1-17.7,11.191h-.477A145.276,145.276,0,0,0,320.5,353.442c-1.605,82.562,66.446,150.2,149,148.108A144.773,144.773,0,0,0,570.32,457.131a23.671,23.671,0,0,1,33.293-.677A96.9,96.9,0,0,0,738.8,454.117a23.73,23.73,0,0,1,31.651-1.957,145.261,145.261,0,0,0,236.106-116.22Z"/><path class="b" d="M838.806,415.641h91.807l59.045,94.372H350.333l77.656-94.372h34.859"/><path class="c" d="M913.38,402.4c-20.164-7.727-40.772-15.4-62.574-15.206q7.858-7.1,15.4-14.58c8.407,6.3,20.686,9.715,30.587,12.57a165.248,165.248,0,0,0,33.467,5.962c1.4.1,2.137-1.948.68-2.488-20.15-7.476-40.476-15.236-61.686-19.1q6.734-6.813,13.206-13.9a172.211,172.211,0,0,0,67.708,15.953c1.238.035,2.011-1.8.623-2.278-21.269-7.342-43.62-13.266-66.09-15.493a.979.979,0,0,0,.146-.841q4.854-5.415,9.553-10.97c9.1,3.741,19.8,5.108,29.485,5.768,10.8.736,21.913-1.67,32.571-.112a1.171,1.171,0,0,0,.324-2.318c-11.892-2.21-23.766-4.617-35.705-6.559-7.521-1.223-15.692-2.274-23.319-.819q3.444-4.18,6.8-8.429,1.213-.675,2.456-1.252c22.386,5.632,45.707-.616,68.427,1.347a1.1,1.1,0,0,0,.306-2.187c-13.517-2.622-27.285-4.794-41.055-5.428-9.257-.426-18.392.3-26.7,4.052a.663.663,0,0,0,.238-.6c-.017-.194-.042-.387-.06-.581q5.373-7,10.5-14.181a.786.786,0,0,0,.187.1c.058.016.117.03.175.047a.826.826,0,0,0,.681.182c20.832,5.791,44.095,6.441,65.562,6.1,1.361-.022,1.119-1.9.022-2.186-20.912-5.539-42.494-11.081-64.175-7.726,2.558-3.665,5.085-7.351,7.54-11.081,18.378,3.284,39.01-1.7,56.906-5.132a1.135,1.135,0,0,0,.023-2.242,121.471,121.471,0,0,0-27.559-1.2c-9.038.677-17.711,3.143-26.633,4.372q3.021-4.693,5.932-9.451a.943.943,0,0,0,.531.213,303.953,303.953,0,0,0,54.722-.851c1.242-.132,1.094-1.77.022-2.043-16.8-4.284-36.135-5.686-53.1-.888q3.065-5.106,6-10.277c20.573,1.356,41.332,1.3,61.935.894,1.341-.027,1.161-1.934.023-2.2a145.114,145.114,0,0,0-60.174-1.294c-.032-.137-.065-.274-.1-.411q2.656-4.758,5.214-9.561c.013,0,.021.013.034.016,10.8,2.554,22.355,1.952,33.349,1.223,12.416-.823,24.995-4.313,37.428-3.768a1.161,1.161,0,0,0,.321-2.3c-22.155-3.8-46.953-4.9-69,.735q2.118-4.1,4.165-8.218a1.009,1.009,0,0,0,.292.069,160.384,160.384,0,0,0,35.443-2.805c12.4-2.434,24.4-6.568,37.048-7.65a1.09,1.09,0,0,0,.023-2.153c-23.94-4.431-50.212-1.636-71.7,10.308q1.455-2.988,2.869-5.989,1.791-3.81,3.545-7.67c23.227,1.149,45.712-8.992,68.164-13.309,1.108-.214,1.283-1.978.022-2.088-21.66-1.882-47.164.552-66.488,11.625,2.339-5.23,4.616-10.512,6.769-15.849,19.239.493,36.58-7.374,53.763-15.2a1.169,1.169,0,0,0-.566-2.237c-16.9,1.348-37.671,3.536-51.867,14.106q2.348-5.986,4.435-12.054c.006,0,.011,0,.017,0a322.538,322.538,0,0,0,45.205-23.562,1.2,1.2,0,0,0-.966-2.167c-15.013,3.644-31.632,7.944-42.132,19.827-.07.047-.139.1-.208.143,1.21-3.769,2.357-7.551,3.365-11.355.214-.805-1.1-1.145-1.4-.382-3.246,8.438-6.377,16.885-9.626,25.283a30.81,30.81,0,0,0-.353-4.661,63.56,63.56,0,0,0-15.147-35.3,1.333,1.333,0,0,0-2.219,1c.851,6.825,4.42,13.241,6.8,19.644,2.905,7.816,5.495,15.737,7.851,23.734a1.377,1.377,0,0,0,.974.926c-2.054,5.19-4.17,10.357-6.419,15.484-.435-5.756-1.091-11.506-1.661-17.245-.52-5.246-.171-11.53-2.352-16.388a.9.9,0,0,0-1.713.433c.7,12.187-2.207,25.518,4.182,36.623-.462,1.023-.911,2.049-1.385,3.069-1.32,2.84-2.683,5.66-4.061,8.473-.979-7.3-2.348-14.555-3.011-21.928-.686-7.638-1.646-15.05-4.81-22.1a.941.941,0,0,0-1.791.215c-1.769,8.27-.642,16.544.587,24.815,1.208,8.13,2.86,16.024,6.918,23.227-1.112,2.217-2.218,4.437-3.361,6.639-2.753-15.249-7.2-30.431-10.653-45.456a.867.867,0,0,0-1.712-.017c-2.876,17.65,2.3,34.772,9.64,50.678q-2.373,4.443-4.828,8.843c-3.855-16.258-8.054-32.448-13.16-48.361a.764.764,0,0,0-1.4-.012c-5.335,16.7,4.839,36.98,12.782,51.543q-3.615,6.35-7.413,12.591a240.852,240.852,0,0,1-5.9-27.608,131.626,131.626,0,0,0-7.427-28.039c-.309-.768-1.658-.714-1.7.2-.727,17.793.26,41.268,12.819,55.363q.438,1.09.944,2.145-3.144,5.1-6.418,10.112c-2.154-9.3-5.651-18.573-7.973-27.842a186.257,186.257,0,0,0-9.041-28.257.872.872,0,0,0-1.662.2c-2.156,20.263,5.691,42.08,16.7,58.928q-3.988,6.024-8.147,11.933c-2.3-8.074-5.076-16.052-7.784-23.971-3.257-9.527-6.257-19.565-10.7-28.609a1.085,1.085,0,0,0-2.067.248c-1.355,9.687,1.122,19.319,4.349,28.415a120.636,120.636,0,0,0,13.575,27.6q-4.38,6.093-8.932,12.061c-2.579-19.876-9.57-39.392-17.3-57.684a.835.835,0,0,0-1.53-.013c-3.794,11.693.54,25,4.324,36.186,1.034,3.057,6.628,20.724,11.548,25.351q-5.114,6.555-10.436,12.943a445.043,445.043,0,0,0-17.523-62.084,1.157,1.157,0,0,0-2.122-.019c-5.994,20.843,4.61,44.485,17.1,61.418.219.984.444,1.967.658,2.952q-4.277,5.061-8.674,10.017c-6.523-21.468-13.79-42.666-20.919-63.939a.865.865,0,0,0-1.65.2c-1.367,23.149,5.4,48.226,20.068,66.524q-6.473,7.141-13.218,14.027c.089-9.728-2.768-20.259-5.1-29.413a194.934,194.934,0,0,0-12.614-34.838,1.234,1.234,0,0,0-2.35.282c-4.226,23.445,4.324,47.505,17.007,67.05q-7.075,7.059-14.448,13.763c1.535-20.484-6.321-40.377-8.333-60.665-.143-1.438-2.1-1.3-2.4-.025-2.524,10.907-2.5,22.127-2.347,33.263.151,11,2.235,22.293,8.388,31.649-.135.119-.267.241-.4.361a1.324,1.324,0,0,0-.409.364c-8.767,7.768-17.781,15.256-26.972,22.572a1.527,1.527,0,0,0,1.839,2.435q14.093-10.5,27.314-22.228a39.454,39.454,0,0,0,10.012,3.451q9.347,2.33,18.772,4.322Q894.2,402.139,912.7,404.9A1.311,1.311,0,0,0,913.38,402.4Z"/><path class="c" d="M913.38,402.4c-20.164-7.727-40.772-15.4-62.574-15.206q7.858-7.1,15.4-14.58c8.407,6.3,20.686,9.715,30.587,12.57a165.248,165.248,0,0,0,33.467,5.962c1.4.1,2.137-1.948.68-2.488-20.15-7.476-40.476-15.236-61.686-19.1q6.734-6.813,13.206-13.9a172.211,172.211,0,0,0,67.708,15.953c1.238.035,2.011-1.8.623-2.278-21.269-7.342-43.62-13.266-66.09-15.493a.979.979,0,0,0,.146-.841q4.854-5.415,9.553-10.97c9.1,3.741,19.8,5.108,29.485,5.768,10.8.736,21.913-1.67,32.571-.112a1.171,1.171,0,0,0,.324-2.318c-11.892-2.21-23.766-4.617-35.705-6.559-7.521-1.223-15.692-2.274-23.319-.819q3.444-4.18,6.8-8.429,1.213-.675,2.456-1.252c22.386,5.632,45.707-.616,68.427,1.347a1.1,1.1,0,0,0,.306-2.187c-13.517-2.622-27.285-4.794-41.055-5.428-9.257-.426-18.392.3-26.7,4.052a.663.663,0,0,0,.238-.6c-.017-.194-.042-.387-.06-.581q5.373-7,10.5-14.181a.786.786,0,0,0,.187.1c.058.016.117.03.175.047a.826.826,0,0,0,.681.182c20.832,5.791,44.095,6.441,65.562,6.1,1.361-.022,1.119-1.9.022-2.186-20.912-5.539-42.494-11.081-64.175-7.726,2.558-3.665,5.085-7.351,7.54-11.081,18.378,3.284,39.01-1.7,56.906-5.132a1.135,1.135,0,0,0,.023-2.242,121.471,121.471,0,0,0-27.559-1.2c-9.038.677-17.711,3.143-26.633,4.372q3.021-4.693,5.932-9.451a.943.943,0,0,0,.531.213,303.953,303.953,0,0,0,54.722-.851c1.242-.132,1.094-1.77.022-2.043-16.8-4.284-36.135-5.686-53.1-.888q3.065-5.106,6-10.277c20.573,1.356,41.332,1.3,61.935.894,1.341-.027,1.161-1.934.023-2.2a145.114,145.114,0,0,0-60.174-1.294c-.032-.137-.065-.274-.1-.411q2.656-4.758,5.214-9.561c.013,0,.021.013.034.016,10.8,2.554,22.355,1.952,33.349,1.223,12.416-.823,24.995-4.313,37.428-3.768a1.161,1.161,0,0,0,.321-2.3c-22.155-3.8-46.953-4.9-69,.735q2.118-4.1,4.165-8.218a1.009,1.009,0,0,0,.292.069,160.384,160.384,0,0,0,35.443-2.805c12.4-2.434,24.4-6.568,37.048-7.65a1.09,1.09,0,0,0,.023-2.153c-23.94-4.431-50.212-1.636-71.7,10.308q1.455-2.988,2.869-5.989,1.791-3.81,3.545-7.67c23.227,1.149,45.712-8.992,68.164-13.309,1.108-.214,1.283-1.978.022-2.088-21.66-1.882-47.164.552-66.488,11.625,2.339-5.23,4.616-10.512,6.769-15.849,19.239.493,36.58-7.374,53.763-15.2a1.169,1.169,0,0,0-.566-2.237c-16.9,1.348-37.671,3.536-51.867,14.106q2.348-5.986,4.435-12.054c.006,0,.011,0,.017,0a322.538,322.538,0,0,0,45.205-23.562,1.2,1.2,0,0,0-.966-2.167c-15.013,3.644-31.632,7.944-42.132,19.827-.07.047-.139.1-.208.143,1.21-3.769,2.357-7.551,3.365-11.355.214-.805-1.1-1.145-1.4-.382-3.246,8.438-6.377,16.885-9.626,25.283a30.81,30.81,0,0,0-.353-4.661,63.56,63.56,0,0,0-15.147-35.3,1.333,1.333,0,0,0-2.219,1c.851,6.825,4.42,13.241,6.8,19.644,2.905,7.816,5.495,15.737,7.851,23.734a1.377,1.377,0,0,0,.974.926c-2.054,5.19-4.17,10.357-6.419,15.484-.435-5.756-1.091-11.506-1.661-17.245-.52-5.246-.171-11.53-2.352-16.388a.9.9,0,0,0-1.713.433c.7,12.187-2.207,25.518,4.182,36.623-.462,1.023-.911,2.049-1.385,3.069-1.32,2.84-2.683,5.66-4.061,8.473-.979-7.3-2.348-14.555-3.011-21.928-.686-7.638-1.646-15.05-4.81-22.1a.941.941,0,0,0-1.791.215c-1.769,8.27-.642,16.544.587,24.815,1.208,8.13,2.86,16.024,6.918,23.227-1.112,2.217-2.218,4.437-3.361,6.639-2.753-15.249-7.2-30.431-10.653-45.456a.867.867,0,0,0-1.712-.017c-2.876,17.65,2.3,34.772,9.64,50.678q-2.373,4.443-4.828,8.843c-3.855-16.258-8.054-32.448-13.16-48.361a.764.764,0,0,0-1.4-.012c-5.335,16.7,4.839,36.98,12.782,51.543q-3.615,6.35-7.413,12.591a240.852,240.852,0,0,1-5.9-27.608,131.626,131.626,0,0,0-7.427-28.039c-.309-.768-1.658-.714-1.7.2-.727,17.793.26,41.268,12.819,55.363q.438,1.09.944,2.145-3.144,5.1-6.418,10.112c-2.154-9.3-5.651-18.573-7.973-27.842a186.257,186.257,0,0,0-9.041-28.257.872.872,0,0,0-1.662.2c-2.156,20.263,5.691,42.08,16.7,58.928q-3.988,6.024-8.147,11.933c-2.3-8.074-5.076-16.052-7.784-23.971-3.257-9.527-6.257-19.565-10.7-28.609a1.085,1.085,0,0,0-2.067.248c-1.355,9.687,1.122,19.319,4.349,28.415a120.636,120.636,0,0,0,13.575,27.6q-4.38,6.093-8.932,12.061c-2.579-19.876-9.57-39.392-17.3-57.684a.835.835,0,0,0-1.53-.013c-3.794,11.693.54,25,4.324,36.186,1.034,3.057,6.628,20.724,11.548,25.351q-5.114,6.555-10.436,12.943a445.043,445.043,0,0,0-17.523-62.084,1.157,1.157,0,0,0-2.122-.019c-5.994,20.843,4.61,44.485,17.1,61.418.219.984.444,1.967.658,2.952q-4.277,5.061-8.674,10.017c-6.523-21.468-13.79-42.666-20.919-63.939a.865.865,0,0,0-1.65.2c-1.367,23.149,5.4,48.226,20.068,66.524q-6.473,7.141-13.218,14.027c.089-9.728-2.768-20.259-5.1-29.413a194.934,194.934,0,0,0-12.614-34.838,1.234,1.234,0,0,0-2.35.282c-4.226,23.445,4.324,47.505,17.007,67.05q-7.075,7.059-14.448,13.763c1.535-20.484-6.321-40.377-8.333-60.665-.143-1.438-2.1-1.3-2.4-.025-2.524,10.907-2.5,22.127-2.347,33.263.151,11,2.235,22.293,8.388,31.649-.135.119-.267.241-.4.361a1.324,1.324,0,0,0-.409.364c-8.767,7.768-17.781,15.256-26.972,22.572a1.527,1.527,0,0,0,1.839,2.435q14.093-10.5,27.314-22.228a39.454,39.454,0,0,0,10.012,3.451q9.347,2.33,18.772,4.322Q894.2,402.139,912.7,404.9A1.311,1.311,0,0,0,913.38,402.4Z"/><path class="d" d="M913.38,402.4c-20.164-7.727-40.772-15.4-62.574-15.206q7.858-7.1,15.4-14.58c8.407,6.3,20.686,9.715,30.587,12.57a165.248,165.248,0,0,0,33.467,5.962c1.4.1,2.137-1.948.68-2.488-20.15-7.476-40.476-15.236-61.686-19.1q6.734-6.813,13.206-13.9a172.211,172.211,0,0,0,67.708,15.953c1.238.035,2.011-1.8.623-2.278-21.269-7.342-43.62-13.266-66.09-15.493a.979.979,0,0,0,.146-.841q4.854-5.415,9.553-10.97c9.1,3.741,19.8,5.108,29.485,5.768,10.8.736,21.913-1.67,32.571-.112a1.171,1.171,0,0,0,.324-2.318c-11.892-2.21-23.766-4.617-35.705-6.559-7.521-1.223-15.692-2.274-23.319-.819q3.444-4.18,6.8-8.429,1.213-.675,2.456-1.252c22.386,5.632,45.707-.616,68.427,1.347a1.1,1.1,0,0,0,.306-2.187c-13.517-2.622-27.285-4.794-41.055-5.428-9.257-.426-18.392.3-26.7,4.052a.663.663,0,0,0,.238-.6c-.017-.194-.042-.387-.06-.581q5.373-7,10.5-14.181a.786.786,0,0,0,.187.1c.058.016.117.03.175.047a.826.826,0,0,0,.681.182c20.832,5.791,44.095,6.441,65.562,6.1,1.361-.022,1.119-1.9.022-2.186-20.912-5.539-42.494-11.081-64.175-7.726,2.558-3.665,5.085-7.351,7.54-11.081,18.378,3.284,39.01-1.7,56.906-5.132a1.135,1.135,0,0,0,.023-2.242,121.471,121.471,0,0,0-27.559-1.2c-9.038.677-17.711,3.143-26.633,4.372q3.021-4.693,5.932-9.451a.943.943,0,0,0,.531.213,303.953,303.953,0,0,0,54.722-.851c1.242-.132,1.094-1.77.022-2.043-16.8-4.284-36.135-5.686-53.1-.888q3.065-5.106,6-10.277c20.573,1.356,41.332,1.3,61.935.894,1.341-.027,1.161-1.934.023-2.2a145.114,145.114,0,0,0-60.174-1.294c-.032-.137-.065-.274-.1-.411q2.656-4.758,5.214-9.561c.013,0,.021.013.034.016,10.8,2.554,22.355,1.952,33.349,1.223,12.416-.823,24.995-4.313,37.428-3.768a1.161,1.161,0,0,0,.321-2.3c-22.155-3.8-46.953-4.9-69,.735q2.118-4.1,4.165-8.218a1.009,1.009,0,0,0,.292.069,160.384,160.384,0,0,0,35.443-2.805c12.4-2.434,24.4-6.568,37.048-7.65a1.09,1.09,0,0,0,.023-2.153c-23.94-4.431-50.212-1.636-71.7,10.308q1.455-2.988,2.869-5.989,1.791-3.81,3.545-7.67c23.227,1.149,45.712-8.992,68.164-13.309,1.108-.214,1.283-1.978.022-2.088-21.66-1.882-47.164.552-66.488,11.625,2.339-5.23,4.616-10.512,6.769-15.849,19.239.493,36.58-7.374,53.763-15.2a1.169,1.169,0,0,0-.566-2.237c-16.9,1.348-37.671,3.536-51.867,14.106q2.348-5.986,4.435-12.054c.006,0,.011,0,.017,0a322.538,322.538,0,0,0,45.205-23.562,1.2,1.2,0,0,0-.966-2.167c-15.013,3.644-31.632,7.944-42.132,19.827-.07.047-.139.1-.208.143,1.21-3.769,2.357-7.551,3.365-11.355.214-.805-1.1-1.145-1.4-.382-3.246,8.438-6.377,16.885-9.626,25.283a30.81,30.81,0,0,0-.353-4.661,63.56,63.56,0,0,0-15.147-35.3,1.333,1.333,0,0,0-2.219,1c.851,6.825,4.42,13.241,6.8,19.644,2.905,7.816,5.495,15.737,7.851,23.734a1.377,1.377,0,0,0,.974.926c-2.054,5.19-4.17,10.357-6.419,15.484-.435-5.756-1.091-11.506-1.661-17.245-.52-5.246-.171-11.53-2.352-16.388a.9.9,0,0,0-1.713.433c.7,12.187-2.207,25.518,4.182,36.623-.462,1.023-.911,2.049-1.385,3.069-1.32,2.84-2.683,5.66-4.061,8.473-.979-7.3-2.348-14.555-3.011-21.928-.686-7.638-1.646-15.05-4.81-22.1a.941.941,0,0,0-1.791.215c-1.769,8.27-.642,16.544.587,24.815,1.208,8.13,2.86,16.024,6.918,23.227-1.112,2.217-2.218,4.437-3.361,6.639-2.753-15.249-7.2-30.431-10.653-45.456a.867.867,0,0,0-1.712-.017c-2.876,17.65,2.3,34.772,9.64,50.678q-2.373,4.443-4.828,8.843c-3.855-16.258-8.054-32.448-13.16-48.361a.764.764,0,0,0-1.4-.012c-5.335,16.7,4.839,36.98,12.782,51.543q-3.615,6.35-7.413,12.591a240.852,240.852,0,0,1-5.9-27.608,131.626,131.626,0,0,0-7.427-28.039c-.309-.768-1.658-.714-1.7.2-.727,17.793.26,41.268,12.819,55.363q.438,1.09.944,2.145-3.144,5.1-6.418,10.112c-2.154-9.3-5.651-18.573-7.973-27.842a186.257,186.257,0,0,0-9.041-28.257.872.872,0,0,0-1.662.2c-2.156,20.263,5.691,42.08,16.7,58.928q-3.988,6.024-8.147,11.933c-2.3-8.074-5.076-16.052-7.784-23.971-3.257-9.527-6.257-19.565-10.7-28.609a1.085,1.085,0,0,0-2.067.248c-1.355,9.687,1.122,19.319,4.349,28.415a120.636,120.636,0,0,0,13.575,27.6q-4.38,6.093-8.932,12.061c-2.579-19.876-9.57-39.392-17.3-57.684a.835.835,0,0,0-1.53-.013c-3.794,11.693.54,25,4.324,36.186,1.034,3.057,6.628,20.724,11.548,25.351q-5.114,6.555-10.436,12.943a445.043,445.043,0,0,0-17.523-62.084,1.157,1.157,0,0,0-2.122-.019c-5.994,20.843,4.61,44.485,17.1,61.418.219.984.444,1.967.658,2.952q-4.277,5.061-8.674,10.017c-6.523-21.468-13.79-42.666-20.919-63.939a.865.865,0,0,0-1.65.2c-1.367,23.149,5.4,48.226,20.068,66.524q-6.473,7.141-13.218,14.027c.089-9.728-2.768-20.259-5.1-29.413a194.934,194.934,0,0,0-12.614-34.838,1.234,1.234,0,0,0-2.35.282c-4.226,23.445,4.324,47.505,17.007,67.05q-7.075,7.059-14.448,13.763c1.535-20.484-6.321-40.377-8.333-60.665-.143-1.438-2.1-1.3-2.4-.025-2.524,10.907-2.5,22.127-2.347,33.263.151,11,2.235,22.293,8.388,31.649-.135.119-.267.241-.4.361a1.324,1.324,0,0,0-.409.364c-8.767,7.768-17.781,15.256-26.972,22.572a1.527,1.527,0,0,0,1.839,2.435q14.093-10.5,27.314-22.228a39.454,39.454,0,0,0,10.012,3.451q9.347,2.33,18.772,4.322Q894.2,402.139,912.7,404.9A1.311,1.311,0,0,0,913.38,402.4Z"/><path class="c" d="M586.576,327.628c-13.3,22.259-26.63,45.056-30.907,70.887q-6.781-10.764-14.068-21.23c9.188-8.645,15.763-22.466,21.185-33.59a198.5,198.5,0,0,0,13.961-38.361c.414-1.637-1.862-2.931-2.8-1.319-13,22.295-26.38,44.739-35.327,69.034q-6.671-9.374-13.718-18.492A206.8,206.8,0,0,0,557.75,277.75c.3-1.458-1.713-2.751-2.566-1.208-13.076,23.646-24.7,48.865-31.972,74.989a1.172,1.172,0,0,0-.965-.347q-5.4-6.859-11.006-13.567c6.3-9.991,10.132-22.372,12.911-33.69,3.1-12.627,2.548-26.268,6.591-38.556a1.406,1.406,0,0,0-2.675-.861c-5.069,13.612-10.368,27.162-15.13,40.885-3,8.646-5.93,18.1-5.783,27.419q-4.234-4.938-8.567-9.791-.549-1.575-.975-3.164c11.285-25.321,8.707-54.2,15.72-80.673a1.327,1.327,0,0,0-2.524-.813c-5.892,15.449-11.3,31.289-14.9,47.449-2.416,10.862-3.437,21.82-.72,32.428a.8.8,0,0,0-.66-.406c-.232-.02-.466-.03-.7-.049q-7.173-7.8-14.608-15.352a.977.977,0,0,0,.154-.2c.031-.065.06-.132.092-.2a.993.993,0,0,0,.356-.768c11.152-23.449,16.723-50.836,20.748-76.3.255-1.615-2.011-1.716-2.581-.479-10.87,23.6-21.882,47.984-22.389,74.327-3.807-3.783-7.646-7.533-11.553-11.207,7.68-21.064,6.039-46.5,5.677-68.381a1.364,1.364,0,0,0-2.648-.491,145.974,145.974,0,0,0-7.111,32.356c-1.065,10.832.062,21.6-.325,32.41q-4.93-4.543-9.956-8.969a1.128,1.128,0,0,0,.361-.585,365.008,365.008,0,0,0,10.29-64.913c.1-1.5-1.868-1.659-2.413-.447-8.535,18.989-14.186,41.575-12.013,62.639q-5.408-4.68-10.919-9.22c5.852-24.059,10.071-48.629,13.843-73.086.246-1.592-2.047-1.773-2.594-.481a174.268,174.268,0,0,0-13.953,70.921l-.506.029q-5.079-4.125-10.234-8.142c.007-.015.019-.022.026-.037,5.25-12.25,6.923-26.044,8.331-39.2,1.59-14.859.058-30.46,3.268-45.057a1.394,1.394,0,0,0-2.653-.854c-9.066,25.426-15.485,54.535-13.375,81.783q-4.407-3.353-8.863-6.624a1.149,1.149,0,0,0,.142-.331,192.658,192.658,0,0,0,4-42.509c-.32-15.172-2.733-30.219-1.4-45.408a1.309,1.309,0,0,0-2.542-.471c-10.184,27.406-12.3,59.064-2.607,86.956q-3.234-2.339-6.494-4.632-4.136-2.9-8.341-5.777c6.154-27.24-1.2-55.935-1.674-83.387-.023-1.355-2.075-1.926-2.465-.457-6.7,25.235-9.084,55.909.028,81.057-5.706-3.847-11.484-7.632-17.353-11.28,4.555-22.658-1.173-44.8-6.881-66.74a1.4,1.4,0,0,0-2.764.207c-1.895,20.276-3.593,45.3,5.981,64.273q-6.6-4.014-13.345-7.735a.156.156,0,0,0,0-.022,387.307,387.307,0,0,0-18.542-58.342,1.444,1.444,0,0,0-2.763.7c1.211,18.514,2.867,39.061,14.758,53.937l.126.276c-4.209-2.211-8.446-4.348-12.738-6.326-.909-.419-1.583,1.068-.741,1.573,9.313,5.584,18.66,11.03,27.924,16.609a36.957,36.957,0,0,0-5.588-.546,76.336,76.336,0,0,0-44.882,10.633,1.6,1.6,0,0,0,.726,2.832c8.249.4,16.577-2.5,24.643-3.99,9.846-1.824,19.752-3.252,29.7-4.389a1.652,1.652,0,0,0,1.3-.961c5.716,3.5,11.393,7.072,16.993,10.79-6.9-.673-13.837-1.084-20.744-1.6-6.313-.467-13.676-2.178-19.873-.6a1.075,1.075,0,0,0,.159,2.116c14.561,1.691,29.732,7.878,44.189,2.613,1.114.758,2.236,1.5,3.345,2.272,3.087,2.148,6.142,4.342,9.185,6.553-8.843-.349-17.7-.226-26.563-.965-9.177-.765-18.144-1.159-27.138,1.129a1.13,1.13,0,0,0-.115,2.163c9.419,3.8,19.44,4.175,29.478,4.428,9.867.249,19.548-.076,28.906-3.389,2.393,1.773,4.791,3.54,7.16,5.346-18.607.11-37.486,2.233-55.974,3.219a1.042,1.042,0,0,0-.374,2.023c20.286,7.046,41.611,4.456,61.943-.943q4.768,3.725,9.466,7.537c-20.03,1.2-40.05,2.829-59.929,5.585a.918.918,0,0,0-.3,1.657c18.654,9.76,44.748,1.91,63.616-4.481q6.765,5.588,13.365,11.369a288.989,288.989,0,0,1-33.879,1.283,158.07,158.07,0,0,0-34.7,3c-.972.206-1.186,1.813-.109,2.047,20.9,4.533,48.874,8.211,68.142-3.737q1.38-.293,2.733-.674,5.381,4.771,10.638,9.681c-11.454.627-23.139,2.851-34.584,3.685-11.891.866-23.67,2.119-35.295,4.862a1.048,1.048,0,0,0-.107,2.008c23.527,6.733,50.956,1.953,73.16-7.587q6.3,5.963,12.435,12.1c-10.025,1.051-20.037,2.691-29.965,4.26-11.943,1.887-24.437,3.364-36.055,6.755a1.3,1.3,0,0,0-.133,2.5c11.181,3.6,23.087,2.662,34.514.721,11.96-2.031,24.33-5.29,35.455-10.361q6.306,6.439,12.426,13.057c-24.047-1.053-48.578,3.189-71.813,8.555a1,1,0,0,0-.331,1.806c13.05,6.9,29.689,4.523,43.7,2.356,3.831-.593,25.886-3.564,32.376-8.429q6.7,7.4,13.157,15.018a534.466,534.466,0,0,0-77.065,7.914c-1.1.189-1.561,1.971-.46,2.506,23.421,11.394,53.578,3.73,76.189-7.546,1.209-.056,2.418-.119,3.628-.169,3.4,4.07,6.768,8.17,10.059,12.33-26.744,3.285-53.322,7.506-79.96,11.548a1.039,1.039,0,0,0-.106,1.993c27.1,6.4,58.166,3.571,82.842-10.008q7.111,9.132,13.866,18.533c-11.49-2.113-24.538-.908-35.849-.036a234.155,234.155,0,0,0-43.819,7.73,1.482,1.482,0,0,0-.151,2.839c26.864,9.84,57.091,4.691,82.832-6.278q6.89,9.828,13.3,19.933c-23.917-6.044-49.072-.857-73.488-2.665-1.732-.128-1.974,2.216-.525,2.829,12.382,5.237,25.66,7.526,38.867,9.644,13.044,2.092,26.834,1.957,39.172-3.39.114.184.231.365.345.549a1.583,1.583,0,0,0,.346.559c7.381,11.975,14.377,24.185,21.136,36.568a1.833,1.833,0,0,0,3.26-1.673q-9.513-18.838-20.658-36.9c2.7-3.3,4.388-7.158,6.149-11.132q4.686-10.576,8.989-21.316,8.375-20.834,15.456-42.149A1.575,1.575,0,0,0,586.576,327.628Z"/><path class="c" d="M586.576,327.628c-13.3,22.259-26.63,45.056-30.907,70.887q-6.781-10.764-14.068-21.23c9.188-8.645,15.763-22.466,21.185-33.59a198.5,198.5,0,0,0,13.961-38.361c.414-1.637-1.862-2.931-2.8-1.319-13,22.295-26.38,44.739-35.327,69.034q-6.671-9.374-13.718-18.492A206.8,206.8,0,0,0,557.75,277.75c.3-1.458-1.713-2.751-2.566-1.208-13.076,23.646-24.7,48.865-31.972,74.989a1.172,1.172,0,0,0-.965-.347q-5.4-6.859-11.006-13.567c6.3-9.991,10.132-22.372,12.911-33.69,3.1-12.627,2.548-26.268,6.591-38.556a1.406,1.406,0,0,0-2.675-.861c-5.069,13.612-10.368,27.162-15.13,40.885-3,8.646-5.93,18.1-5.783,27.419q-4.234-4.938-8.567-9.791-.549-1.575-.975-3.164c11.285-25.321,8.707-54.2,15.72-80.673a1.327,1.327,0,0,0-2.524-.813c-5.892,15.449-11.3,31.289-14.9,47.449-2.416,10.862-3.437,21.82-.72,32.428a.8.8,0,0,0-.66-.406c-.232-.02-.466-.03-.7-.049q-7.173-7.8-14.608-15.352a.977.977,0,0,0,.154-.2c.031-.065.06-.132.092-.2a.993.993,0,0,0,.356-.768c11.152-23.449,16.723-50.836,20.748-76.3.255-1.615-2.011-1.716-2.581-.479-10.87,23.6-21.882,47.984-22.389,74.327-3.807-3.783-7.646-7.533-11.553-11.207,7.68-21.064,6.039-46.5,5.677-68.381a1.364,1.364,0,0,0-2.648-.491,145.974,145.974,0,0,0-7.111,32.356c-1.065,10.832.062,21.6-.325,32.41q-4.93-4.543-9.956-8.969a1.128,1.128,0,0,0,.361-.585,365.008,365.008,0,0,0,10.29-64.913c.1-1.5-1.868-1.659-2.413-.447-8.535,18.989-14.186,41.575-12.013,62.639q-5.408-4.68-10.919-9.22c5.852-24.059,10.071-48.629,13.843-73.086.246-1.592-2.047-1.773-2.594-.481a174.268,174.268,0,0,0-13.953,70.921l-.506.029q-5.079-4.125-10.234-8.142c.007-.015.019-.022.026-.037,5.25-12.25,6.923-26.044,8.331-39.2,1.59-14.859.058-30.46,3.268-45.057a1.394,1.394,0,0,0-2.653-.854c-9.066,25.426-15.485,54.535-13.375,81.783q-4.407-3.353-8.863-6.624a1.149,1.149,0,0,0,.142-.331,192.658,192.658,0,0,0,4-42.509c-.32-15.172-2.733-30.219-1.4-45.408a1.309,1.309,0,0,0-2.542-.471c-10.184,27.406-12.3,59.064-2.607,86.956q-3.234-2.339-6.494-4.632-4.136-2.9-8.341-5.777c6.154-27.24-1.2-55.935-1.674-83.387-.023-1.355-2.075-1.926-2.465-.457-6.7,25.235-9.084,55.909.028,81.057-5.706-3.847-11.484-7.632-17.353-11.28,4.555-22.658-1.173-44.8-6.881-66.74a1.4,1.4,0,0,0-2.764.207c-1.895,20.276-3.593,45.3,5.981,64.273q-6.6-4.014-13.345-7.735a.156.156,0,0,0,0-.022,387.307,387.307,0,0,0-18.542-58.342,1.444,1.444,0,0,0-2.763.7c1.211,18.514,2.867,39.061,14.758,53.937l.126.276c-4.209-2.211-8.446-4.348-12.738-6.326-.909-.419-1.583,1.068-.741,1.573,9.313,5.584,18.66,11.03,27.924,16.609a36.957,36.957,0,0,0-5.588-.546,76.336,76.336,0,0,0-44.882,10.633,1.6,1.6,0,0,0,.726,2.832c8.249.4,16.577-2.5,24.643-3.99,9.846-1.824,19.752-3.252,29.7-4.389a1.652,1.652,0,0,0,1.3-.961c5.716,3.5,11.393,7.072,16.993,10.79-6.9-.673-13.837-1.084-20.744-1.6-6.313-.467-13.676-2.178-19.873-.6a1.075,1.075,0,0,0,.159,2.116c14.561,1.691,29.732,7.878,44.189,2.613,1.114.758,2.236,1.5,3.345,2.272,3.087,2.148,6.142,4.342,9.185,6.553-8.843-.349-17.7-.226-26.563-.965-9.177-.765-18.144-1.159-27.138,1.129a1.13,1.13,0,0,0-.115,2.163c9.419,3.8,19.44,4.175,29.478,4.428,9.867.249,19.548-.076,28.906-3.389,2.393,1.773,4.791,3.54,7.16,5.346-18.607.11-37.486,2.233-55.974,3.219a1.042,1.042,0,0,0-.374,2.023c20.286,7.046,41.611,4.456,61.943-.943q4.768,3.725,9.466,7.537c-20.03,1.2-40.05,2.829-59.929,5.585a.918.918,0,0,0-.3,1.657c18.654,9.76,44.748,1.91,63.616-4.481q6.765,5.588,13.365,11.369a288.989,288.989,0,0,1-33.879,1.283,158.07,158.07,0,0,0-34.7,3c-.972.206-1.186,1.813-.109,2.047,20.9,4.533,48.874,8.211,68.142-3.737q1.38-.293,2.733-.674,5.381,4.771,10.638,9.681c-11.454.627-23.139,2.851-34.584,3.685-11.891.866-23.67,2.119-35.295,4.862a1.048,1.048,0,0,0-.107,2.008c23.527,6.733,50.956,1.953,73.16-7.587q6.3,5.963,12.435,12.1c-10.025,1.051-20.037,2.691-29.965,4.26-11.943,1.887-24.437,3.364-36.055,6.755a1.3,1.3,0,0,0-.133,2.5c11.181,3.6,23.087,2.662,34.514.721,11.96-2.031,24.33-5.29,35.455-10.361q6.306,6.439,12.426,13.057c-24.047-1.053-48.578,3.189-71.813,8.555a1,1,0,0,0-.331,1.806c13.05,6.9,29.689,4.523,43.7,2.356,3.831-.593,25.886-3.564,32.376-8.429q6.7,7.4,13.157,15.018a534.466,534.466,0,0,0-77.065,7.914c-1.1.189-1.561,1.971-.46,2.506,23.421,11.394,53.578,3.73,76.189-7.546,1.209-.056,2.418-.119,3.628-.169,3.4,4.07,6.768,8.17,10.059,12.33-26.744,3.285-53.322,7.506-79.96,11.548a1.039,1.039,0,0,0-.106,1.993c27.1,6.4,58.166,3.571,82.842-10.008q7.111,9.132,13.866,18.533c-11.49-2.113-24.538-.908-35.849-.036a234.155,234.155,0,0,0-43.819,7.73,1.482,1.482,0,0,0-.151,2.839c26.864,9.84,57.091,4.691,82.832-6.278q6.89,9.828,13.3,19.933c-23.917-6.044-49.072-.857-73.488-2.665-1.732-.128-1.974,2.216-.525,2.829,12.382,5.237,25.66,7.526,38.867,9.644,13.044,2.092,26.834,1.957,39.172-3.39.114.184.231.365.345.549a1.583,1.583,0,0,0,.346.559c7.381,11.975,14.377,24.185,21.136,36.568a1.833,1.833,0,0,0,3.26-1.673q-9.513-18.838-20.658-36.9c2.7-3.3,4.388-7.158,6.149-11.132q4.686-10.576,8.989-21.316,8.375-20.834,15.456-42.149A1.575,1.575,0,0,0,586.576,327.628Z"/><path class="d" d="M586.576,327.628c-13.3,22.259-26.63,45.056-30.907,70.887q-6.781-10.764-14.068-21.23c9.188-8.645,15.763-22.466,21.185-33.59a198.5,198.5,0,0,0,13.961-38.361c.414-1.637-1.862-2.931-2.8-1.319-13,22.295-26.38,44.739-35.327,69.034q-6.671-9.374-13.718-18.492A206.8,206.8,0,0,0,557.75,277.75c.3-1.458-1.713-2.751-2.566-1.208-13.076,23.646-24.7,48.865-31.972,74.989a1.172,1.172,0,0,0-.965-.347q-5.4-6.859-11.006-13.567c6.3-9.991,10.132-22.372,12.911-33.69,3.1-12.627,2.548-26.268,6.591-38.556a1.406,1.406,0,0,0-2.675-.861c-5.069,13.612-10.368,27.162-15.13,40.885-3,8.646-5.93,18.1-5.783,27.419q-4.234-4.938-8.567-9.791-.549-1.575-.975-3.164c11.285-25.321,8.707-54.2,15.72-80.673a1.327,1.327,0,0,0-2.524-.813c-5.892,15.449-11.3,31.289-14.9,47.449-2.416,10.862-3.437,21.82-.72,32.428a.8.8,0,0,0-.66-.406c-.232-.02-.466-.03-.7-.049q-7.173-7.8-14.608-15.352a.977.977,0,0,0,.154-.2c.031-.065.06-.132.092-.2a.993.993,0,0,0,.356-.768c11.152-23.449,16.723-50.836,20.748-76.3.255-1.615-2.011-1.716-2.581-.479-10.87,23.6-21.882,47.984-22.389,74.327-3.807-3.783-7.646-7.533-11.553-11.207,7.68-21.064,6.039-46.5,5.677-68.381a1.364,1.364,0,0,0-2.648-.491,145.974,145.974,0,0,0-7.111,32.356c-1.065,10.832.062,21.6-.325,32.41q-4.93-4.543-9.956-8.969a1.128,1.128,0,0,0,.361-.585,365.008,365.008,0,0,0,10.29-64.913c.1-1.5-1.868-1.659-2.413-.447-8.535,18.989-14.186,41.575-12.013,62.639q-5.408-4.68-10.919-9.22c5.852-24.059,10.071-48.629,13.843-73.086.246-1.592-2.047-1.773-2.594-.481a174.268,174.268,0,0,0-13.953,70.921l-.506.029q-5.079-4.125-10.234-8.142c.007-.015.019-.022.026-.037,5.25-12.25,6.923-26.044,8.331-39.2,1.59-14.859.058-30.46,3.268-45.057a1.394,1.394,0,0,0-2.653-.854c-9.066,25.426-15.485,54.535-13.375,81.783q-4.407-3.353-8.863-6.624a1.149,1.149,0,0,0,.142-.331,192.658,192.658,0,0,0,4-42.509c-.32-15.172-2.733-30.219-1.4-45.408a1.309,1.309,0,0,0-2.542-.471c-10.184,27.406-12.3,59.064-2.607,86.956q-3.234-2.339-6.494-4.632-4.136-2.9-8.341-5.777c6.154-27.24-1.2-55.935-1.674-83.387-.023-1.355-2.075-1.926-2.465-.457-6.7,25.235-9.084,55.909.028,81.057-5.706-3.847-11.484-7.632-17.353-11.28,4.555-22.658-1.173-44.8-6.881-66.74a1.4,1.4,0,0,0-2.764.207c-1.895,20.276-3.593,45.3,5.981,64.273q-6.6-4.014-13.345-7.735a.156.156,0,0,0,0-.022,387.307,387.307,0,0,0-18.542-58.342,1.444,1.444,0,0,0-2.763.7c1.211,18.514,2.867,39.061,14.758,53.937l.126.276c-4.209-2.211-8.446-4.348-12.738-6.326-.909-.419-1.583,1.068-.741,1.573,9.313,5.584,18.66,11.03,27.924,16.609a36.957,36.957,0,0,0-5.588-.546,76.336,76.336,0,0,0-44.882,10.633,1.6,1.6,0,0,0,.726,2.832c8.249.4,16.577-2.5,24.643-3.99,9.846-1.824,19.752-3.252,29.7-4.389a1.652,1.652,0,0,0,1.3-.961c5.716,3.5,11.393,7.072,16.993,10.79-6.9-.673-13.837-1.084-20.744-1.6-6.313-.467-13.676-2.178-19.873-.6a1.075,1.075,0,0,0,.159,2.116c14.561,1.691,29.732,7.878,44.189,2.613,1.114.758,2.236,1.5,3.345,2.272,3.087,2.148,6.142,4.342,9.185,6.553-8.843-.349-17.7-.226-26.563-.965-9.177-.765-18.144-1.159-27.138,1.129a1.13,1.13,0,0,0-.115,2.163c9.419,3.8,19.44,4.175,29.478,4.428,9.867.249,19.548-.076,28.906-3.389,2.393,1.773,4.791,3.54,7.16,5.346-18.607.11-37.486,2.233-55.974,3.219a1.042,1.042,0,0,0-.374,2.023c20.286,7.046,41.611,4.456,61.943-.943q4.768,3.725,9.466,7.537c-20.03,1.2-40.05,2.829-59.929,5.585a.918.918,0,0,0-.3,1.657c18.654,9.76,44.748,1.91,63.616-4.481q6.765,5.588,13.365,11.369a288.989,288.989,0,0,1-33.879,1.283,158.07,158.07,0,0,0-34.7,3c-.972.206-1.186,1.813-.109,2.047,20.9,4.533,48.874,8.211,68.142-3.737q1.38-.293,2.733-.674,5.381,4.771,10.638,9.681c-11.454.627-23.139,2.851-34.584,3.685-11.891.866-23.67,2.119-35.295,4.862a1.048,1.048,0,0,0-.107,2.008c23.527,6.733,50.956,1.953,73.16-7.587q6.3,5.963,12.435,12.1c-10.025,1.051-20.037,2.691-29.965,4.26-11.943,1.887-24.437,3.364-36.055,6.755a1.3,1.3,0,0,0-.133,2.5c11.181,3.6,23.087,2.662,34.514.721,11.96-2.031,24.33-5.29,35.455-10.361q6.306,6.439,12.426,13.057c-24.047-1.053-48.578,3.189-71.813,8.555a1,1,0,0,0-.331,1.806c13.05,6.9,29.689,4.523,43.7,2.356,3.831-.593,25.886-3.564,32.376-8.429q6.7,7.4,13.157,15.018a534.466,534.466,0,0,0-77.065,7.914c-1.1.189-1.561,1.971-.46,2.506,23.421,11.394,53.578,3.73,76.189-7.546,1.209-.056,2.418-.119,3.628-.169,3.4,4.07,6.768,8.17,10.059,12.33-26.744,3.285-53.322,7.506-79.96,11.548a1.039,1.039,0,0,0-.106,1.993c27.1,6.4,58.166,3.571,82.842-10.008q7.111,9.132,13.866,18.533c-11.49-2.113-24.538-.908-35.849-.036a234.155,234.155,0,0,0-43.819,7.73,1.482,1.482,0,0,0-.151,2.839c26.864,9.84,57.091,4.691,82.832-6.278q6.89,9.828,13.3,19.933c-23.917-6.044-49.072-.857-73.488-2.665-1.732-.128-1.974,2.216-.525,2.829,12.382,5.237,25.66,7.526,38.867,9.644,13.044,2.092,26.834,1.957,39.172-3.39.114.184.231.365.345.549a1.583,1.583,0,0,0,.346.559c7.381,11.975,14.377,24.185,21.136,36.568a1.833,1.833,0,0,0,3.26-1.673q-9.513-18.838-20.658-36.9c2.7-3.3,4.388-7.158,6.149-11.132q4.686-10.576,8.989-21.316,8.375-20.834,15.456-42.149A1.575,1.575,0,0,0,586.576,327.628Z"/><path class="e" d="M795.654,442l109.728-39.3-3.115-278.158-109.728,39.3Z"/><path class="e" d="M577.285,443.494l109.728-39.3L683.9,126.034l-109.728,39.3Z"/><path class="f" d="M796.624,442l-110.58-36.834L682.928,127l110.58,36.834Z"/><path class="f" d="M578.835,442l-110.58-36.834L465.14,127l110.58,36.834Z"/><g class="g" transform="translate(389.077 497.13) rotate(-93.077)"><rect class="q" width="50.78" height="129.882"/><rect class="r" x="2" y="2" width="46.78" height="125.882"/></g><path class="h" d="M386.723,444.625l2.353,52.5L378.7,477.361l-.981-42.236Z"/><g class="i"><path class="q" d="M 386.4463195800781 444.5440673828125 L 381.2354736328125 436.55712890625 L 502.7857360839844 430.0226135253906 L 511.3095092773438 437.8314819335938 L 386.4463195800781 444.5440673828125 Z"/><path class="s" d="M 502.0541687011719 432.0648498535156 L 384.8049926757813 438.3681030273438 L 387.490966796875 442.4850158691406 L 506.4477844238281 436.0899353027344 L 502.0541687011719 432.0648498535156 M 503.5172729492188 427.9804077148438 L 516.1712036132813 439.572998046875 L 385.4016723632813 446.6031188964844 L 377.6658935546875 434.7461242675781 L 503.5172729492188 427.9804077148438 Z"/></g><g class="j" transform="translate(882.679 334.636)"><rect class="q" width="50.78" height="129.882"/><rect class="r" x="2" y="2" width="46.78" height="125.882"/></g><path class="k" d="M935.2,335.092l-52.556-.443,20.292-9.306,42.229,1.268Z"/><g class="l"><path class="q" d="M945.611,452.606l-12.249,12.019L933.3,333.667l12.252-7.094Z"/><path class="t" d="M 937.357421875 455.1007080078125 L 941.610595703125 450.9274291992188 L 941.5534057617188 333.5089416503906 L 937.2993774414063 335.9721069335938 L 937.357421875 455.1007080078125 M 933.362060546875 464.6250305175781 L 933.2982788085938 333.6666870117188 L 945.550048828125 326.5726623535156 L 945.6113891601563 452.6057434082031 L 933.362060546875 464.6250305175781 Z"/></g><path class="m" d="M584.74,455.322l-8.712,3.319-8.815,7.036s-7.778,5.617-12.134,6.031-6.222,1.867-3.941,3.319,12.86.9,12.86.9h29.868s8.471.341,9.716-1.734-1.73-6.43-1.834-9.645,1.834-4.044,1.834-4.044l1.07-5.186Z"/><path class="m" d="M846.585,461.539s6.652,3.947,7.689,5.036,5.139,4.874,6.124,5.6,11.512,3.208,12.756,3.756a3,3,0,0,1,1.245,3.319c-.391.519-14.779-.23-14.779-.23s-19.549-2.437-24.423-4.511c-2.385-4.3,0-11.512,0-11.512s1.089-4.2,3.733-3.734A65.144,65.144,0,0,1,846.585,461.539Z"/><path class="n" d="M730.97,254.231c17.5-.277,29.478,10.167,32.357,12.756,9.116,8.2,12.4,17.506,17.423,31.735a293.863,293.863,0,0,1,10.578,35.78c3.517,14.783,2.58,17.921,4.978,23.645,4.287,10.233,6.643,10.542,13.69,23.335,3.239,5.88,4.134,4.389,16.489,32.357,10.133,22.935,6.256,18.139,8.712,24.268a130.67,130.67,0,0,0,7.467,16.178c.908,1.64,6.723,7.268,3.111,7.467-6.2.342-9.682,15.668-10.578,12.757a105.518,105.518,0,0,0-7.519-18.131c-1.8-3.506-1.8-3.506-10.838-17.027-9.833-14.71-12.682-14.891-19.289-27.275-5.1-9.552-5.267-6.21-10.268-15.66-7.744-14.638-12.141-17.958-19.082-31.83-1.221-2.44-3.51-5.991-7.674-18.884-2.325-7.2-6.417-11.348-10.268-18.045-3.87-6.731-4-10.035-7.467-10.267-5.915-.4-10.843,8.174-18.978,22.515-15.217,26.823-22.09,35.354-45.425,59a124.554,124.554,0,0,0-15.245,18.356c-7.54,10.783-8.224,11.61-9.334,12.756-7.691,7.948-11.234,5.835-24.579,14.623-13.935,9.177-14.2,14.2-23.023,15.557-4.009.615-8.853.33-10.579,3.422-1.668,2.99.425,6.508-1.866,9.334-1.131,1.394-1.708,3.389-3.423,2.9-2.663-.755-3.177-5.443-6.222-9.749-3.689-5.215-7.836-4.854-8.09-7.467-.326-3.365,6.4-5.532,15.246-11.2,6.169-3.953,10.439-7.925,18.978-15.867,8.523-7.926,12.784-11.89,17.735-18.356,4.587-5.994,6.27-7.64,13.067-12.757,3.7-2.786,13.682-16.451,15.556-18.978,8.568-11.552,5.134-7.535,9.023-18.357,11.521-32.063,11.046-22.06,15.556-35.779,7.467-22.713,6.845-37.024,23.335-58.8C705.463,267.3,708.532,254.586,730.97,254.231Z"/><path class="m" d="M726.2,254.438c-1.659-1.348-6.119,2.593-17.942,3.526s-34.846,3.423-34.846,3.423L647.9,257.653l-18.046-9.022-3.733-7.779s1.244-49.78,0-63.469-4.045-34.536-4.045-34.536-4.356-23.023-4.356-23.956-.311-18.357,0-19.6-8.985-23.646-14.137-25.513a6.128,6.128,0,0,0-8.575,5.29c0,3.111,3.423,15.556,3.423,18.045s-1.867,2.178-3.423.622-5.6-8.089-5.6-8.089-2.178,0-2.178,2.8,3.734,9.956,3.734,9.956,3.733,8.4,7.778,11.512,4.082,9.022,4.841,14.312,2.352,28.934,0,35.468,2.626,33.291,2.626,33.291l.311,23.645s-4.978,16.49-5.6,24.579.622,23.957.622,23.957,1.244,9.334.311,10.267-9.645,0-9.645,0,.994-4.354.683-6.532-3.172-4.668-5.661-3.735-15.246-1.7-15.246-1.7a111.034,111.034,0,0,0-17.811.148A48.433,48.433,0,0,0,539,272.587s-10.578,4.356-11.822,12.756-1.245,9.334,0,13.379,4.666,6.534,0,8.711-9.956,4.045-7.467,10.579,4.822,11.511,9.178,11.823c2.1.15,7.281-.271,10.422-1.867,3.37-1.712,5.74-6.04,6.223-6.845a4.244,4.244,0,0,1,2.148-1.7,12.7,12.7,0,0,0,2.986,4.5,21.75,21.75,0,0,0,4.044,3.111c3.075,2.064,4.775,3.205,7.312,3.89,2.7.728,5.514.718,5.6.311.056-.267-1.086-.574-3.267-1.556-2.256-1.016-1.954-1.1-8.245-4.667a13.532,13.532,0,0,1-3.266-2.178,10.462,10.462,0,0,1-2.414-3.6,9.84,9.84,0,0,1,4.28,2.2c4.978,4.045,12.6,3.111,14.779,2.178s8.945-4.745,11.823-7.778,2.955-6.845,3.422-7.467,5.289-.311,6.534.311,5.911,9.334,6.533,10.267,3.112,2.178,2.8,5.912-1.353,13.376-1.555,19.6-.934,12.056.389,23.412c.387,3.328,5.317,12.754,5.211,18.59s.037,11.2-1.07,16.178,1,19.882,1.692,28.831c1.037,13.482,3.941,28.935,3.734,31.32s-4.356,5.808-4.356,5.808l-10.267,4.667-13.379,2.667s-8.711,2.514-8.711,3.448,15.556-.2,15.556-.2h10.267l13.068-1.244s7.674-2.178,8.4-4.667-.518-8.815-.518-8.815,1.748-12.03,2.222-20.12,0-56.936,0-56.936-.1-17.105.267-24.786c.407-8.511-.43-13.483-.267-14.727s2.341-7.238,7.008-7.975,15.867,2.167,22.712.612,9.023-9.438,12.756-11.3,10.89-2.489,14-1.866,16.8,1.694,27.379,1.555c31.735-.622,27.379-48.536,28.313-57.558S727.858,255.786,726.2,254.438Z"/><path class="o" d="M647.9,257.653c.933-1.348,27.794.415,28.934,2.074s5.186,15.349,3.112,30.906-2.053,34.925-4.345,36.493-7.021-.483-10.251,1.433-4.5,2.923-7.756,7.594c-5.2,7.457-25.126,8.62-30.955,3.752-5.524-4.613-17.651-15.35-19.912-16.293l-7.444-3.107c.686.286-4.745-.212-5.651-1.352s-.65-6.291,0-7.346,9.951,4.027,9.951,4.027l9.574,4.045s20.915,11.078,25.927.207c8.608-18.668-24.06-35.883-24.06-35.883s-11.883-6.7-12.838-7.862-.846-4.735-.434-5.437,10.99,4.172,10.99,4.172,7.467,3.63,14.727,2.8,8.788-.137,13.974-4.285S646.965,259,647.9,257.653Z"/><path class="p" d="M529.711,308.985c.348,2.593.374,4.243,3.071,6.732s10.2,4.261,10.2,4.261"/><path class="p" d="M531.786,305.874c-.351-.247-1.131,5.23,4.563,8.6a32.258,32.258,0,0,0,6.637,2.8"/><path class="p" d="M709.573,297.181l2.522-.429,3.526-3.215"/></g></svg>