<svg xmlns="http://www.w3.org/2000/svg" xmlns:xlink="http://www.w3.org/1999/xlink" width="703.303" height="459.486" viewBox="0 0 703.303 459.486"><defs><style>.a{fill:url(#a);}.b,.h,.j,.m,.o{fill:none;}.b{stroke:#07282f;}.b,.g,.h,.i,.j,.m,.o{stroke-miterlimit:10;}.b,.f,.h,.i,.j,.m,.o{stroke-width:4px;}.c{fill:#b4c0d3;}.d,.i{fill:#5e734e;}.e{fill:#416159;}.f,.g{fill:#7b9069;}.f,.h{stroke:#ebf1fb;}.f{stroke-linejoin:bevel;}.i,.j{stroke:#0e3239;}.k{fill:#0e3239;}.l{fill:#2b5d63;}.m{stroke:#b4c0d3;}.n{fill:#5d0923;}.o{stroke:#fff;}.p,.q{stroke:none;}.q{fill:#ebf1fb;}</style><linearGradient id="a" y1="0.5" x2="1" y2="0.5" gradientUnits="objectBoundingBox"><stop offset="0.005" stop-color="#9cb189"/><stop offset="1" stop-color="#5e734e"/></linearGradient></defs><g transform="translate(-287.206 -50.173)"><path class="a" d="M590.739,101.144c-20,40-146.9,5.336-163.648,64.5-12.571,44.416-78.5,76.033-97.633,123.827C283.947,403.146,346.782,494.22,468.341,508.933c79.1,9.575,163.393-79.272,224.1-51.425,114.209,52.388,245.781,28.12,211.781-45.88-16.655-36.248,59.711-78.269,42.219-135.12-16-52-28.316-37.8-100.919-61.57-27.284-8.934-49.452-56.116-41.419-84.5C816.676,86.021,645.5-8.376,590.739,101.144Z"/><path class="b" d="M803.064,305.975c50.415,15.888,82.077,38.832,82.077,64.346,0,47.959-111.87,86.837-249.869,86.837S385.4,418.28,385.4,370.321c0-23.979,27.967-45.688,73.185-61.4"/><path class="c" d="M745,111.371a33.041,33.041,0,0,1-5.49,2.389l-6.465,4.831c.2-.008.4-.016.608-.022a21.069,21.069,0,0,1,3.662.189c2.381.368,4.246,1.351,3.51,3.515-.639,1.889-2.664,1.569-4.812.649a31.924,31.924,0,0,1-4.9-2.778l-1.031.851-4.8,3.96-1.792,1.628c.192-.025.389-.05.594-.073a17.016,17.016,0,0,1,3.636-.08c2.417.235,4.352,1.108,3.735,3.292-.556,1.88-2.537,1.764-4.722,1a31.2,31.2,0,0,1-5.079-2.472l-1,.906-2.292,2.082-3.918,3.912a21.885,21.885,0,0,1,4.22-.413c2.39.044,4.356.769,3.92,3.033-.377,1.976-2.413,1.934-4.647,1.306a31.8,31.8,0,0,1-5.248-2.173l-.95.948-5.824,6.383c.193-.046.389-.092.593-.137a21.1,21.1,0,0,1,3.632-.5c2.409-.088,4.428.524,4.11,2.791-.274,1.978-2.326,2.047-4.608,1.546a31.582,31.582,0,0,1-5.336-1.811l-.856,1.03-3.977,4.784-1.46,1.932c.184-.061.373-.122.57-.182a17.1,17.1,0,0,1,3.559-.754c2.419-.219,4.484.276,4.282,2.54-.2,1.955-2.169,2.208-4.458,1.865a31.153,31.153,0,0,1-5.45-1.491l-.813,1.075-1.868,2.47-3.134,4.565a21.8,21.8,0,0,1,4.073-1.181c2.358-.4,4.425-.046,4.411,2.261-.009,2.012-2.019,2.346-4.331,2.138A31.585,31.585,0,0,1,689.3,166l-.762,1.109-4.559,7.336c.181-.08.366-.16.558-.242a21.081,21.081,0,0,1,3.48-1.159c2.352-.526,4.449-.294,4.55,1.994.091,1.995-1.914,2.439-4.249,2.364a31.818,31.818,0,0,1-5.577-.808l-.654,1.168h0l-3.039,5.429-1.084,2.165c.171-.093.345-.188.528-.283a17.136,17.136,0,0,1,3.362-1.389c2.339-.656,4.459-.545,4.673,1.718.162,1.958-1.731,2.565-4.044,2.644a31.166,31.166,0,0,1-5.63-.472l-.6,1.205-1.387,2.769-2.248,5.06a21.769,21.769,0,0,1,3.788-1.9c2.247-.821,4.342-.852,4.749,1.418.36,1.979-1.555,2.673-3.865,2.891a31.623,31.623,0,0,1-5.679-.138l-.545,1.227-3.137,8.05c.163-.112.33-.225.5-.341a21.079,21.079,0,0,1,3.208-1.777c2.216-.948,4.319-1.1,4.838,1.125.457,1.944-1.432,2.746-3.742,3.1a31.821,31.821,0,0,1-5.629.232l-.427,1.268-1.984,5.9-.662,2.329q.225-.184.466-.375a17.018,17.018,0,0,1,3.045-1.988c2.178-1.077,4.282-1.359,4.911.823.52,1.892-1.223,2.837-3.481,3.344a31.237,31.237,0,0,1-5.619.582l-.368,1.3-.847,2.978-1.256,5.393a21.765,21.765,0,0,1,3.362-2.583c2.052-1.226,4.1-1.647,4.931.5.726,1.874-1.023,2.912-3.251,3.561a31.93,31.93,0,0,1-5.6.934l-.308,1.322-1.178-.274.3-1.3a25.371,25.371,0,0,1-4.626-3.262c-1.705-1.6-2.773-3.487-1.267-4.964,1.72-1.681,3.325-.191,4.6,1.907a26.078,26.078,0,0,1,1.856,3.888l1.264-5.426.854-3.006.368-1.295a25.8,25.8,0,0,1-4.441-3.562c-1.606-1.708-2.62-3.679-.94-5.029,1.883-1.546,3.361.032,4.45,2.19a32.172,32.172,0,0,1,1.418,3.423c.069.2.134.39.2.578l.666-2.344,1.992-5.923.433-1.286a25.42,25.42,0,0,1-4.222-3.84c-1.472-1.8-2.272-3.792-.566-5.055,1.947-1.436,3.338.237,4.315,2.469a23.948,23.948,0,0,1,1.156,3.489c.052.2.1.394.144.583l3.149-8.085.564.22-.553-.245.543-1.222a25.466,25.466,0,0,1-3.929-4.077c-1.374-1.891-2.07-3.942-.314-5.107,2-1.324,3.3.437,4.164,2.736a25.986,25.986,0,0,1,1.092,4.167l2.262-5.09,1.4-2.794.6-1.2a25.836,25.836,0,0,1-3.7-4.326c-1.263-1.976-1.892-4.1.007-5.111,2.134-1.169,3.3.654,3.968,2.976a31.822,31.822,0,0,1,.758,3.626c.031.208.059.408.085.6l1.09-2.178,3.052-5.454.528.295-.528-.295.663-1.183a25.506,25.506,0,0,1-3.443-4.551c-1.117-2.036-1.538-4.144.369-5.07,2.177-1.053,3.238.845,3.789,3.218a23.7,23.7,0,0,1,.5,3.642c.014.207.025.4.034.6l4.579-7.369.514.319-.5-.342.757-1.1a25.507,25.507,0,0,1-3.118-4.726c-1.006-2.11-1.316-4.252.623-5.076,2.212-.936,3.168,1.032,3.6,3.449a25.955,25.955,0,0,1,.313,4.295l3.153-4.591,1.884-2.492.813-1.074a25.9,25.9,0,0,1-2.851-4.927c-.881-2.173-1.114-4.373.938-5.024,2.312-.762,3.122,1.243,3.36,3.648a31.739,31.739,0,0,1,.085,3.7c-.008.211-.017.412-.027.61l1.469-1.943,3.995-4.807.867-1.043a25.485,25.485,0,0,1-2.556-5.1c-.726-2.206-.754-4.355,1.291-4.919,2.332-.639,3.029,1.422,3.137,3.856a23.79,23.79,0,0,1-.177,3.672c-.024.206-.049.4-.075.6l5.847-6.409.447.407-.428-.428.947-.944a25.389,25.389,0,0,1-2.2-5.218c-.6-2.259-.512-4.423,1.546-4.878,2.347-.515,2.924,1.6,2.9,4.051a25.885,25.885,0,0,1-.48,4.281l3.942-3.935,2.312-2.1,1-.9a25.843,25.843,0,0,1-1.89-5.371c-.463-2.3-.284-4.506,1.856-4.766,2.417-.32,2.838,1.8,2.624,4.209a32.337,32.337,0,0,1-.6,3.655c-.046.206-.092.4-.139.6l1.8-1.639,4.82-3.978,1.046-.864a25.388,25.388,0,0,1-1.556-5.492c-.3-2.3.081-4.421,2.2-4.592,2.414-.19,2.707,1.967,2.355,4.379a23.97,23.97,0,0,1-.865,3.573c-.063.2-.126.386-.188.572l6.452-4.823c.122-.224.28-.507.472-.835.24-.392.544-.843.876-1.317a21.027,21.027,0,0,1,2.338-2.824c1.718-1.69,3.62-2.6,4.916-.716C748.49,108.764,747.023,110.2,745,111.371Z"/><path class="d" d="M698.611,306.542c-4.655-6.6-9.1-13.17-13.479-19.957-11.466-17.772-24.813-34.256-36.818-51.665-6.056-8.781-12.222-17.542-17.851-26.6a294.574,294.574,0,0,0-17.9-26.482c-10.586-13.516-24.6-23.945-36.058-36.723a158.557,158.557,0,0,1-13.05-16.288c-2.792-4.088-5.978-8.834-6.365-13.924-.071-.931,1.382-.846,1.452.076.513,6.738,6.251,13.533,10.182,18.606a206.535,206.535,0,0,0,15.42,17.576c1.632,1.673,3.3,3.309,4.977,4.927a11.8,11.8,0,0,1,.626-3.9,35.89,35.89,0,0,1,1.456-4.309c4.968-11.9,14.732-19.9,24.465-27.908a1.169,1.169,0,0,0,.051-1.765,104.6,104.6,0,0,0-15.358-11.6,1.17,1.17,0,0,0-1.631.422q-3.013,5.314-6.1,10.586c-2.74,4.651-4.947,11.03-10.17,13.451a.412.412,0,0,1-.486-.083c-3.281-4.3.183-11.584,2.037-15.754,1.938-4.359,4.326-8.462,6.621-12.624a1.174,1.174,0,0,0-.512-1.619c-2.8-1.361-5.64-2.627-8.513-3.833a1.176,1.176,0,0,0-1.46.487A61.641,61.641,0,0,1,572.6,107.6a1.576,1.576,0,0,1-2.7-1.377A46.734,46.734,0,0,1,573.647,95.3a1.17,1.17,0,0,0-.642-1.585c-2.7-1.04-5.416-2.058-8.126-3.08a1.165,1.165,0,0,0-1.518.708,42.138,42.138,0,0,1-6.768,12.888.412.412,0,0,1-.705-.029c-1.9-3.827-.422-8.6.947-12.355.322-.882.67-1.75,1.036-2.611a1.167,1.167,0,0,0-.651-1.54c-2.686-1.057-5.355-2.149-7.995-3.3a1.166,1.166,0,0,0-1.609.817,12.739,12.739,0,0,1-3.126,6.527.409.409,0,0,1-.637-.11,16.407,16.407,0,0,1-.348-8.9,1.165,1.165,0,0,0-.639-1.259c-2.459-1.2-4.883-2.47-7.257-3.841a1.169,1.169,0,0,0-1.743.882c-.686,5.983-1.35,11.973-1.917,17.971a1.172,1.172,0,0,0,.772,1.211c2.686.967,5.347,2.014,8.031,2.985,3.483,1.259,7.929,2.06,9.963,5.513a.412.412,0,0,1-.173.548c-3.848,2.157-8.823-.018-12.79-.776-1.738-.332-3.478-.641-5.208-.985a1.171,1.171,0,0,0-1.4,1.059c-.384,5.22-.661,10.445-.788,15.674a1.176,1.176,0,0,0,1.281,1.2c.46-.042.918-.089,1.374-.146,7.459-.931,15.308-2.036,22.643.2a.41.41,0,0,1,.155.685c-3.286,3.14-8.418,3.491-12.576,4.74-3.975,1.194-7.984,2.243-12.009,3.233-.335.435-.56.727-.894,1.163a187.2,187.2,0,0,0,1.344,18.952,1.169,1.169,0,0,0,1.717.879c3.251-1.764,6.681-3.265,9.887-4.9,4.99-2.542,12.35-6.526,18.042-4.033a.416.416,0,0,1,.266.51c-2.258,5.224-9.458,6.907-14.159,9.034a124.706,124.706,0,0,0-13.666,7.188,1.177,1.177,0,0,0-.54,1.222q1.055,5.553,2.55,11a1.176,1.176,0,0,0,1.691.714c5.656-3.044,10.779-7.3,16.033-10.979a47.816,47.816,0,0,1,10.936-6.123c2.145-.774,4.83-1.695,7.135-1.285a2.344,2.344,0,0,1,1.84,3.5c-.973,2.326-3.56,4.008-5.558,5.365-9.116,6.19-19.167,11.126-28.533,16.992a1.177,1.177,0,0,0-.479,1.4q.723,1.976,1.519,3.928a87.07,87.07,0,0,0,4.237,8.978,1.169,1.169,0,0,0,1.679.4c6.868-4.637,14.031-8.793,22.153-10.66a.41.41,0,0,1,.473.52c-1.546,3.89-6.938,5.9-10.17,8.092s-6.479,4.345-9.725,6.507a1.175,1.175,0,0,0-.292,1.672q1.357,1.871,2.882,3.615a49.3,49.3,0,0,0,4.966,4.891,1.171,1.171,0,0,0,1.388.1q3.743-2.374,7.4-4.88c6.281-4.3,12.071-9.249,18.323-13.594a115.208,115.208,0,0,1,14.031-8.5c2.936-1.469,6.76-3.258,10.131-2.391a1.526,1.526,0,0,1,1.143,1.291,1.545,1.545,0,0,1-.049.623c-.953,3.331-3.928,5.908-6.582,7.924-7.453,5.661-17.036,8.137-24.028,14.448-9.122,8.233-5.765,17.772-.132,26.449,6.509-5.843,12.789-11.925,19.878-17.1,5.7-4.16,14.886-10.915,22.3-7.2a.733.733,0,0,1,.224,1c-5.186,8.881-13.591,14.856-21.624,20.966-4.623,3.516-10.61,6.09-15.526,9.649,3.572,4.662,7.4,9.111,11.4,13.4,2.125-3.236,4.866-5.987,8.812-6.872a.737.737,0,0,1,.843.932,21.571,21.571,0,0,1-5.583,10.183q3.347,3.4,6.824,6.671A52.357,52.357,0,0,1,613.743,253c5.639-5.8,12.919-11.493,21.087-12.94a.733.733,0,0,1,.876.749c-.911,7.692-6.349,14.345-11.464,19.8a99.611,99.611,0,0,1-10.617,9.811c5.312,4.668,10.767,9.189,16.271,13.632,6.623-8.327,13.9-17.129,24.451-19.759a.73.73,0,0,1,.876.749c-.485,2.982-2.33,5.75-3.942,8.231a129.211,129.211,0,0,1-8.738,11.684q-2.288,2.778-4.675,5.475c5.065,4.06,11.046,9.1,17.5,13.755,1.263-1.571,2.578-3.07,3.834-4.476,3.223-3.608,7.767-8.576,12.911-9.151A6.071,6.071,0,0,1,678.724,297c-.192,5.311-5.008,10.124-8.643,13.482-.637.589-1.3,1.183-1.973,1.774,6.212,3.278,12.554,5.517,18.672,5.681,4.9.132,9.513-4.637,13.016-9.737C699.382,307.626,698.984,307.071,698.611,306.542Z"/><path class="d" d="M707.545,264.264a97.205,97.205,0,0,0-3.907-11.081c-4.705,5.938-9.613,11.565-17.27,12.954a.739.739,0,0,1-.876-.75c-.225-5.51,3.244-10.526,6.618-14.572a70.043,70.043,0,0,1,7.206-7.4q-4.7-10.271-9.735-20.386c-6.243,7.268-11.96,15.435-22.071,15.584a.733.733,0,0,1-.688-.764c.335-5.191,4.252-9.68,7.53-13.406,3.3-3.75,6.959-7.157,10.437-10.736q-3.934-7.467-8.135-14.788c-3.715,2.844-7.108,6.279-10.412,9.141-5.056,4.38-11.077,9.622-18.2,9.307a.736.736,0,0,1-.688-.764c.607-6.994,5.689-12.674,10.6-17.261A129.4,129.4,0,0,1,670.8,189.116q-1.5-2.437-3.044-4.854-6.3-9.846-13.313-19.216c-2.473,2.668-4.93,5.352-7.552,7.834-4.267,4.038-10.671,10.414-17.19,9.309a.745.745,0,0,1-.688-.764c.644-5.67,4.13-10.674,7.721-14.923a57.617,57.617,0,0,1,10.918-10.147l-.136-.168c-3.261-3.991-7.1-10.219-11.427-13.048-4.551-2.973-4.937.123-8.951,4.083-2.246,2.216-4.606,4.331-6.963,6.43a10.988,10.988,0,0,1-4.635,2.768,1.457,1.457,0,0,1-1.912-1.654c.44-3.888,4.446-7.429,6.749-10.163,2.822-3.35,5.9-6.465,8.865-9.682a1.175,1.175,0,0,0,.086-1.48c-.168-.234-.336-.466-.506-.7a97.347,97.347,0,0,0-7.24-8.732,1.171,1.171,0,0,0-1.8.111c-4.1,5.622-7.925,11.461-11.938,17.162a82.4,82.4,0,0,1-8.4,10.733,28.864,28.864,0,0,1-6.665,5.524,4.846,4.846,0,0,1-1.569.535c3.889,3.68,7.849,7.282,11.73,10.981a138.5,138.5,0,0,1,18.742,22.89c5.809,8.561,11.076,17.467,16.86,26.044,6.245,9.263,12.527,18.5,19,27.606,6.186,8.7,12.782,17.091,18.979,25.779,5.565,7.8,10.481,15.971,15.794,23.93,2.65,3.97,5.573,7.743,8.316,11.645a69.58,69.58,0,0,0,3.789-6.684,48.94,48.94,0,0,0,5.1-25.149,12.165,12.165,0,0,1-5.623,2.421.749.749,0,0,1-.862-.562C701.629,272.161,704.059,267.717,707.545,264.264Z"/><path class="e" d="M494.509,294.082c-4.112-1.173-8.129-2.4-12.19-3.747-10.634-3.516-21.615-5.875-32.351-9.061-5.416-1.608-10.87-3.17-16.2-5.034a155.9,155.9,0,0,0-16.181-4.969c-8.857-2.053-18.1-1.7-27.071-3.154a83.759,83.759,0,0,1-10.794-2.377c-2.509-.757-5.4-1.655-7.252-3.624-.339-.36.289-.808.624-.452,2.451,2.608,7.075,3.5,10.382,4.286a109.039,109.039,0,0,0,12.2,2.12c1.229.148,2.459.27,3.689.378a6.272,6.272,0,0,1-1.036-1.814,19.185,19.185,0,0,1-.833-2.26c-1.907-6.558-.542-13.1.81-19.637a.619.619,0,0,0-.565-.745,55.418,55.418,0,0,0-10.188.321.621.621,0,0,0-.533.716c.35,2.129.689,4.259,1,6.393.416,2.828,1.626,6.191.278,8.925a.218.218,0,0,1-.228.127c-2.783-.683-3.775-4.836-4.4-7.171-.649-2.441-1.029-4.926-1.466-7.4a.621.621,0,0,0-.749-.5c-1.606.368-3.2.791-4.784,1.249a.623.623,0,0,0-.44.686,32.669,32.669,0,0,1,.2,6.612.834.834,0,0,1-1.57.329,24.734,24.734,0,0,1-2.087-5.744.62.62,0,0,0-.792-.441c-1.46.47-2.916.952-4.374,1.431a.618.618,0,0,0-.39.8,22.318,22.318,0,0,1,1.494,7.563.218.218,0,0,1-.3.222c-2.057-.945-3.033-3.405-3.717-5.408-.16-.47-.3-.944-.441-1.421a.618.618,0,0,0-.78-.418c-1.459.457-2.922.894-4.392,1.3a.617.617,0,0,0-.391.872,6.757,6.757,0,0,1,.881,3.729.217.217,0,0,1-.3.167,8.694,8.694,0,0,1-3.1-3.553.616.616,0,0,0-.681-.306c-1.413.323-2.835.6-4.269.829a.619.619,0,0,0-.425.943c1.706,2.694,3.423,5.384,5.183,8.045a.62.62,0,0,0,.721.243c1.428-.494,2.873-.947,4.3-1.439,1.855-.638,3.954-1.786,5.94-1.039a.218.218,0,0,1,.111.284c-.869,2.168-3.643,2.925-5.531,3.931-.826.441-1.647.892-2.474,1.325a.62.62,0,0,0-.226.9q2.366,3.418,4.885,6.723a.622.622,0,0,0,.925.067c.176-.17.35-.341.518-.516,2.766-2.864,5.635-5.928,9.4-7.446a.217.217,0,0,1,.291.231c-.311,2.387-2.31,4.237-3.609,6.134-1.242,1.814-2.546,3.579-3.876,5.325.006.29.011.486.018.776a99.19,99.19,0,0,0,6.854,7.367.619.619,0,0,0,1-.209c.753-1.807,1.668-3.566,2.447-5.3,1.212-2.707,2.922-6.8,6.1-7.66a.221.221,0,0,1,.279.122c.8,2.9-1.6,5.991-2.835,8.431a66.13,66.13,0,0,0-3.244,7.505.626.626,0,0,0,.183.684q2.281,1.938,4.708,3.686a.622.622,0,0,0,.934-.267,89.02,89.02,0,0,0,2.961-9.856,25.323,25.323,0,0,1,2.473-6.159,7.885,7.885,0,0,1,2.514-2.9,1.241,1.241,0,0,1,1.921.831c.373,1.282-.135,2.836-.508,4.059-1.7,5.582-4.2,10.958-6.114,16.489a.621.621,0,0,0,.267.735q.954.574,1.931,1.115a46.12,46.12,0,0,0,4.731,2.293.619.619,0,0,0,.824-.4c1.29-4.194,2.861-8.288,5.589-11.757a.217.217,0,0,1,.368.057c.656,2.118-.9,4.74-1.5,6.716s-1.226,3.945-1.846,5.915a.621.621,0,0,0,.435.786c.788.213,1.584.393,2.39.533a26.2,26.2,0,0,0,3.673.366.621.621,0,0,0,.6-.422q.753-2.223,1.43-4.472c1.159-3.862,1.9-7.825,3.035-11.7a60.973,60.973,0,0,1,2.96-8.167c.722-1.581,1.7-3.59,3.382-4.352a.811.811,0,0,1,1.087.425c.714,1.69.344,3.741-.08,5.454-1.191,4.811-4.318,9.017-5.1,13.943-1.024,6.426,3.53,9.243,8.737,10.948a137.074,137.074,0,0,1,2.511-13.657c.966-3.609,2.509-9.448,6.8-10.379a.387.387,0,0,1,.426.339c.814,5.385-.665,10.642-1.946,15.831-.737,2.986-2.349,6.037-3.193,9.138,3.022.735,6.077,1.3,9.154,1.735a7.708,7.708,0,0,1,1.349-5.762.39.39,0,0,1,.657.1,11.425,11.425,0,0,1,1.083,6.054q2.508.288,5.031.482a27.675,27.675,0,0,1-.106-6.892c.4-4.267,1.5-9.032,4.392-12.344a.388.388,0,0,1,.61.018c2.181,3.474,2.151,8.024,1.857,11.975a52.958,52.958,0,0,1-1.116,7.573c3.741.159,7.493.21,11.238.212-.037-5.635.037-11.682,3.513-16.273a.386.386,0,0,1,.61.018,12.044,12.044,0,0,1,1.111,4.7,68.615,68.615,0,0,1,.281,7.721c-.013,1.27-.046,2.541-.107,3.811,3.437-.01,7.577.078,11.785-.145,0-1.068.042-2.123.093-3.12.129-2.558.351-6.117,2.281-8.063a3.214,3.214,0,0,1,4.865.454c1.687,2.254,1.3,5.838.919,8.431-.067.455-.142.919-.224,1.387a23.033,23.033,0,0,0,9.586-3.864c2.064-1.575,2.381-5.074,2.129-8.341C495.187,294.272,494.839,294.176,494.509,294.082Z"/><path class="e" d="M484.14,273.683a51.6,51.6,0,0,0-5.294-3.269c.034,4.011-.119,7.962-2.814,11.08a.392.392,0,0,1-.611-.018c-1.924-2.2-2.161-5.417-2.115-8.207a37.08,37.08,0,0,1,.51-5.447q-5.349-2.673-10.789-5.169c-.158,5.072.2,10.339-3.919,13.761a.388.388,0,0,1-.538-.086c-1.587-2.252-1.464-5.4-1.351-8.03.114-2.643.489-5.263.734-7.894-2.736-1.181-5.49-2.319-8.269-3.393-.587,2.407-.843,4.951-1.254,7.229-.629,3.486-1.369,7.649-4.411,9.888a.39.39,0,0,1-.538-.087c-2.075-3.085-1.867-7.116-1.368-10.638a68.616,68.616,0,0,1,1.9-8.487c-.954-.336-1.909-.668-2.868-.989q-5.871-1.964-11.875-3.5c-.133,1.922-.254,3.845-.51,5.74-.417,3.084-.938,7.84-3.993,9.551a.393.393,0,0,1-.537-.086c-1.619-2.551-1.845-5.773-1.777-8.718a30.513,30.513,0,0,1,1.128-7.812l-.112-.024c-2.671-.562-6.322-1.855-9.048-1.581-2.864.287-1.994,1.692-2.333,4.658-.189,1.66-.459,3.317-.733,4.965a5.814,5.814,0,0,1-.991,2.682.772.772,0,0,1-1.338-.046c-1.111-1.749-.636-4.541-.6-6.433.049-2.319.284-4.627.436-6.938a.622.622,0,0,0-.457-.639c-.146-.041-.293-.081-.44-.119a51.576,51.576,0,0,0-5.887-1.194.621.621,0,0,0-.706.644c.18,3.68.543,7.359.784,11.043a43.609,43.609,0,0,1,.1,7.217,15.241,15.241,0,0,1-.911,4.493,2.538,2.538,0,0,1-.469.742c2.826.224,5.656.393,8.486.628A73.336,73.336,0,0,1,424.7,272.41c5.24,1.6,10.371,3.519,15.607,5.133,5.653,1.743,11.314,3.463,17.009,5.065,5.441,1.531,10.95,2.8,16.392,4.319,4.887,1.367,9.63,3.1,14.465,4.616,2.412.756,4.871,1.339,7.3,2.036a36.773,36.773,0,0,0-.659-4.014,25.924,25.924,0,0,0-6.257-12.063,6.437,6.437,0,0,1-1.514,2.867.4.4,0,0,1-.542.055C484.325,278.9,483.85,276.265,484.14,273.683Z"/><path class="f" d="M514.163,305.051l-83.2-22.317V161.93l83.2,22.317Z"/><g class="g"><path class="p" d="M 516.1627807617188 302.4435119628906 L 516.1627807617188 185.7814178466797 L 595.3667602539063 164.5372161865234 L 595.3667602539063 281.1993103027344 L 516.1627807617188 302.4435119628906 Z"/><path class="q" d="M 518.1627807617188 299.8363952636719 L 593.3667602539063 279.6650390625 L 593.3667602539063 167.1443481445313 L 518.1627807617188 187.3156890869141 L 518.1627807617188 299.8363952636719 M 514.1627807617188 305.0506591796875 L 514.1627807617188 184.2471923828125 L 597.3667602539063 161.9300842285156 L 597.3667602539063 282.7335510253906 L 514.1627807617188 305.0506591796875 Z"/></g><path class="h" d="M432.218,161.93l83.2-17.466,81.945,17.466"/><path class="h" d="M514.163,184.247,503.968,233.49l-83.816-27.844,10.806-43.716"/><path class="h" d="M514.792,184.247l10.195,49.243L608.8,205.646,598,161.93"/><path class="i" d="M761.876,312.423,639.112,264.811l21.769-88.05,122.764,47.612Z"/><path class="i" d="M761.876,312.423,892.683,327.5l21.769-88.05L783.645,224.372Z"/><path class="j" d="M662.8,177.234,792.731,195.85l121.72,43.6"/><path class="j" d="M783.191,224.846,758.782,256.9l-122.7-51.871,24.344-27.792"/><path class="j" d="M786.085,224.758l6.661,39.733,132.735,11.281-8.589-35.934"/><ellipse class="k" cx="42.354" cy="14.063" rx="42.354" ry="14.063" transform="translate(294.374 400.586)"/><path class="j" d="M384.249,418.085c0,16.67-21.276,33.16-47.521,33.16s-47.522-16.49-47.522-33.16,21.276-23.1,47.522-23.1S384.249,401.416,384.249,418.085Z"/><circle class="j" cx="5.13" cy="5.13" r="5.13" transform="translate(375.947 442.942)"/><circle class="j" cx="3.059" cy="3.059" r="3.059" transform="translate(388.5 436.549)"/><circle class="j" cx="2.508" cy="2.508" r="2.508" transform="translate(391.559 448.186)"/><path class="j" d="M989.3,121.341S947.669,89.923,923.326,132.2s-38.6,51.281-65.139,46.625S813.2,204.542,813.2,204.542"/><circle class="k" cx="9.204" cy="9.204" r="9.204" transform="translate(804 195.337)"/><circle class="l" cx="20.68" cy="20.68" r="20.68" transform="translate(791.694 364.921)"/><circle class="c" cx="4.95" cy="4.95" r="4.95" transform="translate(816.574 371.667)"/><circle class="m" cx="12.393" cy="12.393" r="12.393" transform="translate(435.31 342.086)"/><circle class="c" cx="2.966" cy="2.966" r="2.966" transform="translate(441.798 348.21)"/><path class="n" d="M495.553,315.131s-7.789,14.743-7.511,20.585-4.45,23.923-4.45,23.923L478.028,374.1,455.5,393.575h16.412s28.374-3.338,30.321-4.172,6.676,2.5,13.63,5.563a64.773,64.773,0,0,0,28.374,4.729,70.782,70.782,0,0,0,18.916-4.729l15.021-3.894,6.676-1.947,13.074,4.45s29.486,13.075,56.469,13.075,65.37,1.947,96.247-15.3,36.213-22.424,39.223-36.719c3.976-18.89,4.256-47.539-28.568-73.965s-76.354-50.9-129.156-44.258c-43.242,5.443-89.849,36.441-89.849,36.441l-30.321,20.306s-5.007-.278-6.4-.556-8.623-.556-8.623-.556l-4.173,3.06.835,11.4,3.616,7.232Z"/><path class="o" d="M493.008,295.269s-4.59,2.5,0,11.683,0,12.517,0,12.517-6.676,15.02-5.842,23.782-5.841,22.114-5.841,22.114L469.642,380.8l-17.106,14.186h14.186s24.2-2.921,32.127-4.59,4.59,1.669,22.531,4.59,32.127,3.755,39.637,0,17.941-3.755,23.783-9.6a22.212,22.212,0,0,0,6.258-17.524c-.417-4.172-.417-10.848-5.424-14.186s5.516-7.3,5.516-7.3.325,10.634,5.332,16.476,13.769,20.027,25.035,20.444,29.623-2.086,32.961-6.676"/><path class="o" d="M543.306,389.774,549.8,383.1l3.711-1.669"/><path class="o" d="M562.407,348.485l-.927,7.132.927,4.856"/></g></svg>