<svg xmlns="http://www.w3.org/2000/svg" width="235.503" height="235.17" viewBox="0 0 235.503 235.17"><defs><style>.a{fill:#fff;}.a,.b{stroke:#5d0923;stroke-miterlimit:10;stroke-width:6px;}.b{fill:none;}</style></defs><g transform="translate(-686.848 -263.41)"><path class="a" d="M910.564,441.627l.16-.161L753.683,284.425l-62.592-16.772,16.771,62.593L865.4,486.793a31.948,31.948,0,0,0,45.167-45.166Z"/><path class="b" d="M708.554,330.938a10.8,10.8,0,0,0,15.273-15.274A10.8,10.8,0,0,0,739.1,300.39a10.8,10.8,0,0,0,15.274-15.273"/><line class="b" x2="128.715" y2="128.715" transform="translate(739.104 329.829)"/><line class="b" x2="128.715" y2="128.715" transform="translate(755.349 313.584)"/><path class="b" d="M691.09,267.653l4.176,15.583,11.408-11.408Z"/><line class="b" x1="42.803" y2="42.803" transform="translate(867.761 441.627)"/></g></svg>