<svg xmlns="http://www.w3.org/2000/svg" width="82" height="82" viewBox="0 0 82 82"><defs><style>.a{fill:#5d0e2c;}.b,.c,.e{fill:none;}.b{stroke:#fff;stroke-width:2px;}.d,.f{stroke:none;}.f{fill:#fff;}</style></defs><g transform="translate(-9405 -1728)"><circle class="a" cx="41" cy="41" r="41" transform="translate(9405 1728)"/><g class="b" transform="translate(9427 1752)"><path class="d" d="M0,0H39a0,0,0,0,1,0,0V38a7,7,0,0,1-7,7H7a7,7,0,0,1-7-7V0A0,0,0,0,1,0,0Z"/><path class="e" d="M2,1H37a1,1,0,0,1,1,1V38a6,6,0,0,1-6,6H7a6,6,0,0,1-6-6V2A1,1,0,0,1,2,1Z"/></g><g class="b" transform="translate(9422 1746)"><rect class="d" width="49" height="8" rx="4"/><rect class="e" x="1" y="1" width="47" height="6" rx="3"/></g><g class="c" transform="translate(9438.909 1740.779)"><path class="d" d="M0,0H15.2V6.421H0Z"/><path class="f" d="M 1.999996185302734 2.000003814697266 L 1.999996185302734 4.421023368835449 L 13.19601631164551 4.421023368835449 L 13.19601631164551 2.000003814697266 L 1.999996185302734 2.000003814697266 M -3.814697265625e-06 3.814697265625e-06 L 15.19601631164551 3.814697265625e-06 L 15.19601631164551 6.421023368835449 L -3.814697265625e-06 6.421023368835449 L -3.814697265625e-06 3.814697265625e-06 Z"/></g><line class="b" y2="24.4" transform="translate(9447.042 1761.684)"/><line class="b" y2="24.4" transform="translate(9439.337 1761.684)"/><line class="b" y2="24.4" transform="translate(9454.747 1761.684)"/></g></svg>