<svg xmlns="http://www.w3.org/2000/svg" width="189.109" height="125.925" viewBox="0 0 189.109 125.925"><defs><style>.a{fill:#fff;}.a,.b{stroke:#5d0923;stroke-miterlimit:10;stroke-width:6px;}.b{fill:none;stroke-linecap:round;}</style></defs><g transform="translate(-709.76 -529.612)"><path class="a" d="M832.685,592.575a59.962,59.962,0,1,1-59.962-59.962,47.744,47.744,0,0,1,8.836.646C804.4,537.225,832.685,559.627,832.685,592.575Z"/><path class="b" d="M825.117,621.557c10.64-14.213,18.108-16.674,23.14-15.925,11.594,1.724,14.254,21.082,27.2,23.212,7.3,1.2,14.269-3.666,19.178-8.2"/><path class="b" d="M748.765,630.38a62.015,62.015,0,0,1,43.841-75.959"/><path class="b" d="M742.1,627.066a62.015,62.015,0,0,1,27.516-83.274"/><path class="b" d="M799.406,616.356a62.015,62.015,0,0,0-76.668-42.587"/><path class="b" d="M803.414,610.088a62.015,62.015,0,0,0-66.432-57.258"/></g></svg>