<svg xmlns="http://www.w3.org/2000/svg" xmlns:xlink="http://www.w3.org/1999/xlink" width="867.944" height="354.356" viewBox="0 0 867.944 354.356"><defs><style>.a,.b{fill:none;}.a,.j,.k,.l{stroke:#0e3239;}.a,.b,.j,.k,.l{stroke-miterlimit:10;}.a,.d,.e,.j,.k,.l{stroke-width:4px;}.b{stroke:#5d0923;}.c{fill:url(#a);}.d,.e{fill:#7b9069;stroke-linejoin:bevel;}.d{stroke:#ebf1fb;}.e{stroke:#193639;}.f{fill:#0e3239;}.g{fill:#416159;}.h,.l{fill:#182a2f;}.i{fill:url(#b);}.j{fill:#193639;}.k{fill:#637b5c;}.m{fill:#fff;}</style><linearGradient id="a" x1="0.026" y1="0.631" x2="0.941" y2="0.414" gradientUnits="objectBoundingBox"><stop offset="0" stop-color="#5e734e"/><stop offset="0.995" stop-color="#9cb189"/></linearGradient><linearGradient id="b" x1="-0.003" y1="0.671" x2="0.991" y2="0.394" xlink:href="#a"/></defs><g transform="translate(-247.939 -146)"><g transform="translate(61.131 109.489)"><path class="a" d="M452.7,291H410.487L367.553,426.19H832.428l-37.89-90.715" transform="translate(21.982 -46.097)"/><g transform="translate(475.872 36.511)"><g transform="translate(0 2.858)"><line class="b" x2="316.886"/><g transform="translate(0 16.377)"><line class="b" x2="316.886"/></g><g transform="translate(0 32.755)"><line class="b" x2="316.886"/></g><g transform="translate(0 49.132)"><line class="b" x2="316.886"/></g><g transform="translate(0 65.509)"><line class="b" x2="316.886"/></g><g transform="translate(0 81.887)"><line class="b" x2="316.886"/></g><g transform="translate(0 98.264)"><line class="b" x2="316.886"/></g><g transform="translate(0 114.641)"><line class="b" x2="316.886"/></g><g transform="translate(0 131.019)"><line class="b" x2="316.886"/></g><g transform="translate(0 147.396)"><line class="b" x2="316.886"/></g><g transform="translate(0 163.773)"><line class="b" x2="316.886"/></g><g transform="translate(0 180.151)"><line class="b" x2="316.886"/></g><g transform="translate(0 196.528)"><line class="b" x2="316.886"/></g><g transform="translate(0 212.905)"><line class="b" x2="316.886"/></g><g transform="translate(0 229.283)"><line class="b" x2="316.886"/></g><g transform="translate(0 245.66)"><line class="b" x2="316.886"/></g><g transform="translate(0 262.037)"><line class="b" x2="316.886"/></g><g transform="translate(0 278.415)"><line class="b" x2="316.886"/></g><g transform="translate(0 294.792)"><line class="b" x2="316.886"/></g><g transform="translate(0 311.169)"><line class="b" x2="316.886"/></g></g><g transform="translate(2.858)"><g transform="translate(311.169)"><line class="b" y2="316.886"/></g><g transform="translate(294.792)"><line class="b" y2="316.886"/></g><g transform="translate(278.415)"><line class="b" y2="316.886"/></g><g transform="translate(262.037)"><line class="b" y2="316.886"/></g><g transform="translate(245.66)"><line class="b" y2="316.886"/></g><g transform="translate(229.283)"><line class="b" y2="316.886"/></g><g transform="translate(212.905)"><line class="b" y2="316.886"/></g><g transform="translate(196.528)"><line class="b" y2="316.886"/></g><g transform="translate(180.151)"><line class="b" y2="316.886"/></g><g transform="translate(163.773)"><line class="b" y2="316.886"/></g><g transform="translate(147.396)"><line class="b" y2="316.886"/></g><g transform="translate(131.019)"><line class="b" y2="316.886"/></g><g transform="translate(114.641)"><line class="b" y2="316.886"/></g><g transform="translate(98.264)"><line class="b" y2="316.886"/></g><g transform="translate(81.887)"><line class="b" y2="316.886"/></g><g transform="translate(65.509)"><line class="b" y2="316.886"/></g><g transform="translate(49.132)"><line class="b" y2="316.886"/></g><g transform="translate(32.755)"><line class="b" y2="316.886"/></g><g transform="translate(16.377)"><line class="b" y2="316.886"/></g><line class="b" y2="316.886"/></g></g></g><g transform="translate(118.207 101.858)"><path class="c" d="M358.271,228.681q.3-3.957.308-7.994A102.7,102.7,0,1,0,290.673,317.4a59.3,59.3,0,1,0,67.6-88.715Z" transform="translate(-5.24 -13.077)"/><g transform="translate(235.737 59.809)"><path class="d" d="M278.586,64.757l-10.614,18.36L284.146,236l31.424-54.359-9.521-90Z" transform="translate(-266.858 -60.923)"/><rect class="d" width="34.562" height="154.088" transform="matrix(0.993, -0.115, 0.115, 0.993, 0, 21.961)"/><path class="d" d="M321.511,59.809,310.9,78.17l16.173,152.882,31.424-54.359-9.521-90Z" transform="translate(-276.521 -59.809)"/></g><g transform="translate(300.659 100.832)"><path class="e" d="M364.409,112.75l-12.647,17.024L350.318,283.5l37.443-50.4.85-90.5Z" transform="translate(-350.318 -112.75)"/><rect class="e" width="34.562" height="154.088" transform="translate(0.362 16.664)"/><path class="e" d="M407.618,112.751l-12.647,17.024L393.527,283.5l37.443-50.4.85-90.5Z" transform="translate(-360.045 -112.75)"/></g><g transform="translate(129.731 101.048)"><path class="a" d="M306.987,405.647h0c-16.724,0-30.282-5.068-30.282-26.038l0-49.9c0-20.971,13.559-28.206,30.283-28.206h0c16.725,0,30.282,7.237,30.282,28.208l0,49.9C337.27,400.582,323.712,405.648,306.987,405.647Z" transform="translate(-162.818 -155.457)"/><ellipse class="f" cx="17.506" cy="6.759" rx="17.506" ry="6.759" transform="translate(126.002 149.839)"/><g transform="translate(0 63.31)"><path class="g" d="M266.318,241.891c-2.442,10.961-4.815,22.144-2.843,33.3q-4.509-3.447-9.191-6.7c2.68-4.82,3.471-11.389,4.163-16.695a81.412,81.412,0,0,0,.349-17.632c-.064-.727-1.235-.937-1.4-.146-2.308,10.933-4.754,21.978-5.02,33.16q-4.255-2.9-8.635-5.635a84.973,84.973,0,0,0,2.806-35.99c-.087-.637-1.144-.884-1.283-.134-2.139,11.5-3.421,23.429-2.7,35.124a.562.562,0,0,0-.467-.006q-3.338-2.047-6.741-4c1.239-4.966,1.059-10.562.586-15.577-.529-5.595-2.781-11.092-2.854-16.679-.01-.785-1.257-.756-1.279.023-.174,6.273-.455,12.552-.48,18.827-.015,3.953.119,8.225,1.558,12.014q-2.552-1.424-5.134-2.8-.468-.567-.886-1.156c1.121-11.928-4.252-23.369-5.141-35.17a.606.606,0,0,0-1.206.022,140.688,140.688,0,0,0,.59,21.477c.563,4.777,1.741,9.4,4.477,13.352a.378.378,0,0,0-.344-.073c-.1.024-.205.053-.308.077q-4.24-2.183-8.555-4.227a.409.409,0,0,0,.036-.1c0-.031.006-.062.01-.094a.407.407,0,0,0,.04-.363c1.34-11.145-.3-23.117-2.33-34.088-.129-.7-1.119-.419-1.182.166-1.2,11.166-2.339,22.675,1.332,33.51-2.2-1.013-4.4-2.007-6.628-2.961.2-9.684-4.265-19.849-7.65-28.74a.626.626,0,0,0-1.213.17,59.961,59.961,0,0,0,1.715,14.218c1.14,4.576,3.215,8.819,4.644,13.29q-2.793-1.166-5.611-2.27a.468.468,0,0,0,.07-.29,150.432,150.432,0,0,0-5.152-27.969c-.177-.625-1.049-.416-1.1.155-.872,8.956.029,18.978,4.074,27.281q-3.02-1.155-6.062-2.238c-1.032-10.652-2.843-21.284-4.829-31.806-.129-.685-1.143-.438-1.188.167a71.754,71.754,0,0,0,4.462,30.936l-.214.083c-1.864-.649-3.733-1.285-5.608-1.893,0-.007,0-.012.005-.019.453-5.741-.863-11.613-2.2-17.186-1.509-6.294-4.472-12.455-5.244-18.871a.637.637,0,0,0-1.268.022c-.15,11.66,1.384,24.456,6.315,35.3-1.6-.5-3.193-.993-4.794-1.465a.455.455,0,0,0,.012-.155,79.714,79.714,0,0,0-4.553-17.931c-2.377-6.156-5.637-11.966-7.306-18.36a.6.6,0,0,0-1.165.164c-.339,12.626,3.423,25.859,11.714,35.9q-1.738-.5-3.48-.983-2.21-.608-4.444-1.193c-1.372-11.994-8.774-22.689-13.03-33.841-.21-.551-1.178-.5-1.129.159.842,11.25,4.342,24.12,11.977,33.12-3.024-.773-6.071-1.509-9.136-2.179-1.384-9.9-7.118-18.142-12.815-26.309a.638.638,0,0,0-1.159.472c2.177,8.552,5.139,19.013,12.063,25.427q-3.434-.715-6.887-1.291l0-.009a168.2,168.2,0,0,0-16.6-21.243.65.65,0,0,0-1.086.671c3.254,7.4,7,15.561,14.315,19.974l.1.095c-2.139-.314-4.278-.594-6.418-.8-.453-.043-.524.659-.086.747,4.833.977,9.661,1.893,14.473,2.875a17.505,17.505,0,0,0-2.486.56,35.028,35.028,0,0,0-17.755,10.633c-.394.435.158,1.213.732,1.055,3.611-.991,6.769-3.342,10.021-5.083,3.97-2.125,8.024-4.1,12.139-5.954a.714.714,0,0,0,.416-.574c2.978.63,5.949,1.293,8.91,2.029-3.07.691-6.118,1.5-9.168,2.254-2.786.694-6.209,1.026-8.645,2.539a.466.466,0,0,0,.381.842c6.518-1.349,13.964-.946,19.411-5.124.592.153,1.184.3,1.775.46,1.647.445,3.285.914,4.922,1.391-3.859,1.1-7.656,2.388-11.579,3.327-4.063.973-7.983,2.068-11.517,4.263a.484.484,0,0,0,.27.9c4.616.234,8.986-1.017,13.345-2.32,4.285-1.281,8.405-2.77,11.946-5.435,1.292.389,2.585.776,3.871,1.182-8,2.652-15.81,6.164-23.624,9.158a.447.447,0,0,0,.137.879c9.774.037,18.573-4.008,26.53-9.064q2.6.854,5.188,1.754c-8.446,3.3-16.826,6.767-24.978,10.679a.389.389,0,0,0,.114.72c9.471,1.375,19.547-5.489,26.727-10.744q3.738,1.336,7.433,2.773a135.827,135.827,0,0,1-14.4,5.272,73.922,73.922,0,0,0-14.5,6.087.458.458,0,0,0,.255.852c9.667-1.076,22.255-3.492,28.786-11.074q.552-.313,1.077-.659,3.022,1.2,6.009,2.466c-4.838,1.861-9.541,4.407-14.346,6.352a104.012,104.012,0,0,0-14.478,6.932.449.449,0,0,0,.25.835c11.123-.545,22.227-6.342,30.379-13.35q3.593,1.553,7.14,3.2c-4.161,1.834-8.23,3.908-12.273,5.939-4.863,2.445-10.025,4.8-14.526,7.812a.559.559,0,0,0,.311,1.038c5.345-.095,10.332-2.147,14.966-4.541a66.088,66.088,0,0,0,13.736-9.2q3.665,1.748,7.277,3.595c-10.508,2.939-20.444,8.109-29.655,13.557a.426.426,0,0,0,.124.785c6.638.992,13.45-2.311,19.163-5.161,1.562-.779,10.619-5.082,12.695-7.98q3.976,2.086,7.882,4.293a249.643,249.643,0,0,0-32.012,14.032.59.59,0,0,0,.172,1.089c11.765,1.375,23.618-5.982,31.688-13.758.513-.192,1.024-.387,1.537-.577,2.066,1.186,4.12,2.391,6.151,3.629-11.03,5.089-21.849,10.538-32.722,15.922a.446.446,0,0,0,.249.829c12.613-1.184,25.57-6.69,34.189-15.7q4.41,2.736,8.706,5.632c-5.258.745-10.7,3.066-15.439,5.007a108.426,108.426,0,0,0-17.725,9.3.635.635,0,0,0,.353,1.181c13.019.257,25.273-6.081,34.736-14.171q4.417,3.051,8.669,6.283c-11.189.881-21.254,6.525-32.034,9.207-.764.19-.522,1.182.192,1.229,6.1.406,12.159-.519,18.157-1.5,5.925-.973,11.842-2.96,16.365-6.873.077.059.153.116.229.176a.728.728,0,0,0,.232.18c4.945,3.86,9.76,7.869,14.5,11.982.79.687,1.927-.427,1.157-1.14q-6.877-6.366-14.341-12.186a19.527,19.527,0,0,0,1-5.411q.457-4.978.724-9.97.53-9.688.432-19.391A.723.723,0,0,0,266.318,241.891Z" transform="translate(-129.731 -194.733)"/><path class="g" d="M266.318,241.891c-2.442,10.961-4.815,22.144-2.843,33.3q-4.509-3.447-9.191-6.7c2.68-4.82,3.471-11.389,4.163-16.695a81.412,81.412,0,0,0,.349-17.632c-.064-.727-1.235-.937-1.4-.146-2.308,10.933-4.754,21.978-5.02,33.16q-4.255-2.9-8.635-5.635a84.973,84.973,0,0,0,2.806-35.99c-.087-.637-1.144-.884-1.283-.134-2.139,11.5-3.421,23.429-2.7,35.124a.562.562,0,0,0-.467-.006q-3.338-2.047-6.741-4c1.239-4.966,1.059-10.562.586-15.577-.529-5.595-2.781-11.092-2.854-16.679-.01-.785-1.257-.756-1.279.023-.174,6.273-.455,12.552-.48,18.827-.015,3.953.119,8.225,1.558,12.014q-2.552-1.424-5.134-2.8-.468-.567-.886-1.156c1.121-11.928-4.252-23.369-5.141-35.17a.606.606,0,0,0-1.206.022,140.688,140.688,0,0,0,.59,21.477c.563,4.777,1.741,9.4,4.477,13.352a.378.378,0,0,0-.344-.073c-.1.024-.205.053-.308.077q-4.24-2.183-8.555-4.227a.409.409,0,0,0,.036-.1c0-.031.006-.062.01-.094a.407.407,0,0,0,.04-.363c1.34-11.145-.3-23.117-2.33-34.088-.129-.7-1.119-.419-1.182.166-1.2,11.166-2.339,22.675,1.332,33.51-2.2-1.013-4.4-2.007-6.628-2.961.2-9.684-4.265-19.849-7.65-28.74a.626.626,0,0,0-1.213.17,59.961,59.961,0,0,0,1.715,14.218c1.14,4.576,3.215,8.819,4.644,13.29q-2.793-1.166-5.611-2.27a.468.468,0,0,0,.07-.29,150.432,150.432,0,0,0-5.152-27.969c-.177-.625-1.049-.416-1.1.155-.872,8.956.029,18.978,4.074,27.281q-3.02-1.155-6.062-2.238c-1.032-10.652-2.843-21.284-4.829-31.806-.129-.685-1.143-.438-1.188.167a71.754,71.754,0,0,0,4.462,30.936l-.214.083c-1.864-.649-3.733-1.285-5.608-1.893,0-.007,0-.012.005-.019.453-5.741-.863-11.613-2.2-17.186-1.509-6.294-4.472-12.455-5.244-18.871a.637.637,0,0,0-1.268.022c-.15,11.66,1.384,24.456,6.315,35.3-1.6-.5-3.193-.993-4.794-1.465a.455.455,0,0,0,.012-.155,79.714,79.714,0,0,0-4.553-17.931c-2.377-6.156-5.637-11.966-7.306-18.36a.6.6,0,0,0-1.165.164c-.339,12.626,3.423,25.859,11.714,35.9q-1.738-.5-3.48-.983-2.21-.608-4.444-1.193c-1.372-11.994-8.774-22.689-13.03-33.841-.21-.551-1.178-.5-1.129.159.842,11.25,4.342,24.12,11.977,33.12-3.024-.773-6.071-1.509-9.136-2.179-1.384-9.9-7.118-18.142-12.815-26.309a.638.638,0,0,0-1.159.472c2.177,8.552,5.139,19.013,12.063,25.427q-3.434-.715-6.887-1.291l0-.009a168.2,168.2,0,0,0-16.6-21.243.65.65,0,0,0-1.086.671c3.254,7.4,7,15.561,14.315,19.974l.1.095c-2.139-.314-4.278-.594-6.418-.8-.453-.043-.524.659-.086.747,4.833.977,9.661,1.893,14.473,2.875a17.505,17.505,0,0,0-2.486.56,35.028,35.028,0,0,0-17.755,10.633c-.394.435.158,1.213.732,1.055,3.611-.991,6.769-3.342,10.021-5.083,3.97-2.125,8.024-4.1,12.139-5.954a.714.714,0,0,0,.416-.574c2.978.63,5.949,1.293,8.91,2.029-3.07.691-6.118,1.5-9.168,2.254-2.786.694-6.209,1.026-8.645,2.539a.466.466,0,0,0,.381.842c6.518-1.349,13.964-.946,19.411-5.124.592.153,1.184.3,1.775.46,1.647.445,3.285.914,4.922,1.391-3.859,1.1-7.656,2.388-11.579,3.327-4.063.973-7.983,2.068-11.517,4.263a.484.484,0,0,0,.27.9c4.616.234,8.986-1.017,13.345-2.32,4.285-1.281,8.405-2.77,11.946-5.435,1.292.389,2.585.776,3.871,1.182-8,2.652-15.81,6.164-23.624,9.158a.447.447,0,0,0,.137.879c9.774.037,18.573-4.008,26.53-9.064q2.6.854,5.188,1.754c-8.446,3.3-16.826,6.767-24.978,10.679a.389.389,0,0,0,.114.72c9.471,1.375,19.547-5.489,26.727-10.744q3.738,1.336,7.433,2.773a135.827,135.827,0,0,1-14.4,5.272,73.922,73.922,0,0,0-14.5,6.087.458.458,0,0,0,.255.852c9.667-1.076,22.255-3.492,28.786-11.074q.552-.313,1.077-.659,3.022,1.2,6.009,2.466c-4.838,1.861-9.541,4.407-14.346,6.352a104.012,104.012,0,0,0-14.478,6.932.449.449,0,0,0,.25.835c11.123-.545,22.227-6.342,30.379-13.35q3.593,1.553,7.14,3.2c-4.161,1.834-8.23,3.908-12.273,5.939-4.863,2.445-10.025,4.8-14.526,7.812a.559.559,0,0,0,.311,1.038c5.345-.095,10.332-2.147,14.966-4.541a66.088,66.088,0,0,0,13.736-9.2q3.665,1.748,7.277,3.595c-10.508,2.939-20.444,8.109-29.655,13.557a.426.426,0,0,0,.124.785c6.638.992,13.45-2.311,19.163-5.161,1.562-.779,10.619-5.082,12.695-7.98q3.976,2.086,7.882,4.293a249.643,249.643,0,0,0-32.012,14.032.59.59,0,0,0,.172,1.089c11.765,1.375,23.618-5.982,31.688-13.758.513-.192,1.024-.387,1.537-.577,2.066,1.186,4.12,2.391,6.151,3.629-11.03,5.089-21.849,10.538-32.722,15.922a.446.446,0,0,0,.249.829c12.613-1.184,25.57-6.69,34.189-15.7q4.41,2.736,8.706,5.632c-5.258.745-10.7,3.066-15.439,5.007a108.426,108.426,0,0,0-17.725,9.3.635.635,0,0,0,.353,1.181c13.019.257,25.273-6.081,34.736-14.171q4.417,3.051,8.669,6.283c-11.189.881-21.254,6.525-32.034,9.207-.764.19-.522,1.182.192,1.229,6.1.406,12.159-.519,18.157-1.5,5.925-.973,11.842-2.96,16.365-6.873.077.059.153.116.229.176a.728.728,0,0,0,.232.18c4.945,3.86,9.76,7.869,14.5,11.982.79.687,1.927-.427,1.157-1.14q-6.877-6.366-14.341-12.186a19.527,19.527,0,0,0,1-5.411q.457-4.978.724-9.97.53-9.688.432-19.391A.723.723,0,0,0,266.318,241.891Z" transform="translate(-129.731 -194.733)"/></g><g transform="translate(55.666)"><path class="h" d="M316.421,227.191c-9.313,8.087-18.712,16.41-24.314,27.274q-1.659-5.663-3.595-11.261C294,240.6,299,235.351,303.083,231.147a92.221,92.221,0,0,0,11.869-15.126.748.748,0,0,0-1.123-.955c-9.178,8.143-18.55,16.3-26.117,25.868q-1.8-5.033-3.812-10a96.9,96.9,0,0,0,26.048-29.636c.342-.606-.415-1.445-1.028-.875-9.4,8.731-18.343,18.351-25.384,28.948a.571.571,0,0,0-.4-.281q-1.561-3.752-3.237-7.464c4.335-3.586,7.85-8.558,10.727-13.2,3.21-5.177,4.858-11.288,8.459-16.19.507-.689-.6-1.4-1.127-.735-4.265,5.351-8.629,10.646-12.767,16.088-2.607,3.429-5.292,7.222-6.526,11.367-.857-1.831-1.728-3.656-2.628-5.469q-.035-.769-.012-1.529c8.8-9.71,11.632-22.833,18.6-33.62.436-.673-.556-1.321-1.064-.694a158.506,158.506,0,0,0-13.574,19.024c-2.643,4.487-4.651,9.2-4.866,14.256a.375.375,0,0,0-.251-.267c-.105-.04-.213-.075-.319-.115q-2.255-4.4-4.666-8.731a.5.5,0,0,0,.1-.069l.071-.075a.467.467,0,0,0,.274-.293c8.476-8.9,14.9-20.281,20.334-31.018.345-.681-.7-1.026-1.137-.554-8.365,9-16.906,18.335-20.823,29.926-1.247-2.179-2.514-4.348-3.822-6.492,6.524-8.3,9.312-19.78,12.2-29.511a.66.66,0,0,0-1.166-.568,66.535,66.535,0,0,0-7.836,13.377c-2.01,4.652-2.989,9.568-4.68,14.3q-1.663-2.664-3.389-5.289a.539.539,0,0,0,.25-.211,165.122,165.122,0,0,0,13.866-27.364c.256-.649-.639-.983-1.062-.518-6.633,7.273-12.423,16.519-14.352,26.13q-1.868-2.788-3.8-5.529c6.09-9.872,11.489-20.186,16.665-30.51.337-.672-.707-1.055-1.142-.556a79.231,79.231,0,0,0-16.413,29.537l-.24-.053q-1.792-2.5-3.635-4.961c.005-.005.012-.007.018-.013,4.159-4.725,6.866-10.608,9.361-16.244,2.817-6.365,4.283-13.474,7.819-19.508a.668.668,0,0,0-1.117-.73c-7.78,10.051-14.84,22.083-17.662,34.421q-1.587-2.067-3.207-4.106a.552.552,0,0,0,.112-.128,86.5,86.5,0,0,0,7.8-18.283c1.971-6.758,2.947-13.737,5.689-20.283.274-.655-.7-1.077-1.119-.546-8.578,10.779-13.987,24.509-13.364,38.138q-1.182-1.463-2.381-2.911-1.523-1.833-3.082-3.663c6.675-11.24,7.254-24.914,10.868-37.126.178-.6-.7-1.127-1.086-.529-6.648,10.28-12.046,23.539-11.311,35.877-2.123-2.459-4.289-4.9-6.515-7.293,5.289-9.424,5.711-19.981,6.115-30.45a.688.688,0,0,0-1.318-.274c-3.716,8.722-8,19.57-6.19,29.238q-2.515-2.65-5.141-5.192l0-.009a169.967,169.967,0,0,0-.5-28.279.71.71,0,0,0-1.385-.059c-2.022,8.354-4.12,17.667-.654,25.828.006.046.013.093.02.139-1.654-1.536-3.33-3.044-5.056-4.489-.365-.305-.887.263-.565.6,3.562,3.705,7.16,7.355,10.7,11.053a18.438,18.438,0,0,0-2.529-.983,39.042,39.042,0,0,0-22.413-1.246.725.725,0,0,0-.057,1.35c3.79,1.272,8.078,1.093,12.048,1.5,4.845.5,9.664,1.18,14.461,2a.83.83,0,0,0,.738-.253c2.176,2.308,4.325,4.64,6.416,7.028-3.123-1.213-6.3-2.315-9.45-3.457-2.879-1.044-6.072-2.777-9.182-2.9a.494.494,0,0,0-.222.957c6.553,2.68,12.763,7.43,20.239,7.017.415.483.834.961,1.242,1.449,1.14,1.36,2.258,2.736,3.368,4.118-4.075-1.327-8.224-2.448-12.252-3.949-4.172-1.555-8.3-2.92-12.812-3.1a.519.519,0,0,0-.356.941c3.861,2.931,8.481,4.425,13.126,5.869,4.566,1.418,9.126,2.558,13.952,2.332.869,1.1,1.74,2.2,2.592,3.316-8.692-2.419-17.791-3.982-26.549-6-.535-.122-.951.508-.457.845,8.475,5.809,18.78,7.49,29.015,7.8q1.7,2.28,3.361,4.59c-9.508-2.122-19.07-4.058-28.724-5.475a.424.424,0,0,0-.374.694c7.334,6.792,20.6,6.778,30.289,6.452q2.375,3.371,4.644,6.8a147.085,147.085,0,0,1-15.977-3.925,80.485,80.485,0,0,0-16.6-3.275c-.482-.038-.806.645-.337.891,9.112,4.778,21.642,10.115,32.3,7.382q.685.053,1.368.064,1.842,2.826,3.608,5.7c-5.428-1.241-11.188-1.807-16.641-2.955a114.186,114.186,0,0,0-17.137-2.528.481.481,0,0,0-.33.874c10.029,6.1,23.487,7.621,35.173,6.343q2.106,3.475,4.108,7c-4.821-.864-9.719-1.466-14.567-2.088-5.833-.749-11.865-1.751-17.756-1.791a.6.6,0,0,0-.411,1.087c4.71,3.077,10.393,4.239,15.992,4.895a74.233,74.233,0,0,0,17.98.116q2.041,3.686,3.97,7.426c-11.065-3.655-23.1-5.03-34.68-5.736-.391-.024-.721.462-.407.755,5.12,4.786,13.212,5.939,20.048,6.838,1.869.246,12.569,1.855,16.274.563q2.089,4.165,4.037,8.391a272.55,272.55,0,0,0-37.04-6.717c-.54-.062-1,.666-.564,1.048,9.329,8.148,24.461,8.755,36.579,6.762.572.136,1.145.268,1.716.407,1.017,2.252,2.014,4.513,2.968,6.79-12.929-2.092-25.912-3.748-38.9-5.492-.485-.065-.762.631-.328.868,11.744,6.424,26.623,9.294,40.025,6.555q2.041,4.985,3.877,10.041c-5.062-2.459-11.315-3.655-16.711-4.769a119.792,119.792,0,0,0-21.511-2.389.682.682,0,0,0-.467,1.236c11.151,7.917,25.965,9.646,39.5,8.205q1.84,5.263,3.416,10.586c-10.307-5.846-22.761-6.886-33.893-10.924a.678.678,0,0,0-.64,1.182c5.042,3.96,10.913,6.733,16.775,9.422,5.79,2.655,12.238,4.425,18.739,3.694.027.1.057.192.084.289a.717.717,0,0,0,.084.293c1.768,6.278,3.325,12.61,4.746,18.986.237,1.065,1.957.768,1.754-.308-1.2-6.4-2.709-12.762-4.477-19.071A22.556,22.556,0,0,0,297.284,253q3.662-4.06,7.169-8.242,6.816-8.111,13.1-16.6C318.041,227.484,317.068,226.628,316.421,227.191Z" transform="translate(-201.569 -113.029)"/><path class="h" d="M316.421,227.191c-9.313,8.087-18.712,16.41-24.314,27.274q-1.659-5.663-3.595-11.261C294,240.6,299,235.351,303.083,231.147a92.221,92.221,0,0,0,11.869-15.126.748.748,0,0,0-1.123-.955c-9.178,8.143-18.55,16.3-26.117,25.868q-1.8-5.033-3.812-10a96.9,96.9,0,0,0,26.048-29.636c.342-.606-.415-1.445-1.028-.875-9.4,8.731-18.343,18.351-25.384,28.948a.571.571,0,0,0-.4-.281q-1.561-3.752-3.237-7.464c4.335-3.586,7.85-8.558,10.727-13.2,3.21-5.177,4.858-11.288,8.459-16.19.507-.689-.6-1.4-1.127-.735-4.265,5.351-8.629,10.646-12.767,16.088-2.607,3.429-5.292,7.222-6.526,11.367-.857-1.831-1.728-3.656-2.628-5.469q-.035-.769-.012-1.529c8.8-9.71,11.632-22.833,18.6-33.62.436-.673-.556-1.321-1.064-.694a158.506,158.506,0,0,0-13.574,19.024c-2.643,4.487-4.651,9.2-4.866,14.256a.375.375,0,0,0-.251-.267c-.105-.04-.213-.075-.319-.115q-2.255-4.4-4.666-8.731a.5.5,0,0,0,.1-.069l.071-.075a.467.467,0,0,0,.274-.293c8.476-8.9,14.9-20.281,20.334-31.018.345-.681-.7-1.026-1.137-.554-8.365,9-16.906,18.335-20.823,29.926-1.247-2.179-2.514-4.348-3.822-6.492,6.524-8.3,9.312-19.78,12.2-29.511a.66.66,0,0,0-1.166-.568,66.535,66.535,0,0,0-7.836,13.377c-2.01,4.652-2.989,9.568-4.68,14.3q-1.663-2.664-3.389-5.289a.539.539,0,0,0,.25-.211,165.122,165.122,0,0,0,13.866-27.364c.256-.649-.639-.983-1.062-.518-6.633,7.273-12.423,16.519-14.352,26.13q-1.868-2.788-3.8-5.529c6.09-9.872,11.489-20.186,16.665-30.51.337-.672-.707-1.055-1.142-.556a79.231,79.231,0,0,0-16.413,29.537l-.24-.053q-1.792-2.5-3.635-4.961c.005-.005.012-.007.018-.013,4.159-4.725,6.866-10.608,9.361-16.244,2.817-6.365,4.283-13.474,7.819-19.508a.668.668,0,0,0-1.117-.73c-7.78,10.051-14.84,22.083-17.662,34.421q-1.587-2.067-3.207-4.106a.552.552,0,0,0,.112-.128,86.5,86.5,0,0,0,7.8-18.283c1.971-6.758,2.947-13.737,5.689-20.283.274-.655-.7-1.077-1.119-.546-8.578,10.779-13.987,24.509-13.364,38.138q-1.182-1.463-2.381-2.911-1.523-1.833-3.082-3.663c6.675-11.24,7.254-24.914,10.868-37.126.178-.6-.7-1.127-1.086-.529-6.648,10.28-12.046,23.539-11.311,35.877-2.123-2.459-4.289-4.9-6.515-7.293,5.289-9.424,5.711-19.981,6.115-30.45a.688.688,0,0,0-1.318-.274c-3.716,8.722-8,19.57-6.19,29.238q-2.515-2.65-5.141-5.192l0-.009a169.967,169.967,0,0,0-.5-28.279.71.71,0,0,0-1.385-.059c-2.022,8.354-4.12,17.667-.654,25.828.006.046.013.093.02.139-1.654-1.536-3.33-3.044-5.056-4.489-.365-.305-.887.263-.565.6,3.562,3.705,7.16,7.355,10.7,11.053a18.438,18.438,0,0,0-2.529-.983,39.042,39.042,0,0,0-22.413-1.246.725.725,0,0,0-.057,1.35c3.79,1.272,8.078,1.093,12.048,1.5,4.845.5,9.664,1.18,14.461,2a.83.83,0,0,0,.738-.253c2.176,2.308,4.325,4.64,6.416,7.028-3.123-1.213-6.3-2.315-9.45-3.457-2.879-1.044-6.072-2.777-9.182-2.9a.494.494,0,0,0-.222.957c6.553,2.68,12.763,7.43,20.239,7.017.415.483.834.961,1.242,1.449,1.14,1.36,2.258,2.736,3.368,4.118-4.075-1.327-8.224-2.448-12.252-3.949-4.172-1.555-8.3-2.92-12.812-3.1a.519.519,0,0,0-.356.941c3.861,2.931,8.481,4.425,13.126,5.869,4.566,1.418,9.126,2.558,13.952,2.332.869,1.1,1.74,2.2,2.592,3.316-8.692-2.419-17.791-3.982-26.549-6-.535-.122-.951.508-.457.845,8.475,5.809,18.78,7.49,29.015,7.8q1.7,2.28,3.361,4.59c-9.508-2.122-19.07-4.058-28.724-5.475a.424.424,0,0,0-.374.694c7.334,6.792,20.6,6.778,30.289,6.452q2.375,3.371,4.644,6.8a147.085,147.085,0,0,1-15.977-3.925,80.485,80.485,0,0,0-16.6-3.275c-.482-.038-.806.645-.337.891,9.112,4.778,21.642,10.115,32.3,7.382q.685.053,1.368.064,1.842,2.826,3.608,5.7c-5.428-1.241-11.188-1.807-16.641-2.955a114.186,114.186,0,0,0-17.137-2.528.481.481,0,0,0-.33.874c10.029,6.1,23.487,7.621,35.173,6.343q2.106,3.475,4.108,7c-4.821-.864-9.719-1.466-14.567-2.088-5.833-.749-11.865-1.751-17.756-1.791a.6.6,0,0,0-.411,1.087c4.71,3.077,10.393,4.239,15.992,4.895a74.233,74.233,0,0,0,17.98.116q2.041,3.686,3.97,7.426c-11.065-3.655-23.1-5.03-34.68-5.736-.391-.024-.721.462-.407.755,5.12,4.786,13.212,5.939,20.048,6.838,1.869.246,12.569,1.855,16.274.563q2.089,4.165,4.037,8.391a272.55,272.55,0,0,0-37.04-6.717c-.54-.062-1,.666-.564,1.048,9.329,8.148,24.461,8.755,36.579,6.762.572.136,1.145.268,1.716.407,1.017,2.252,2.014,4.513,2.968,6.79-12.929-2.092-25.912-3.748-38.9-5.492-.485-.065-.762.631-.328.868,11.744,6.424,26.623,9.294,40.025,6.555q2.041,4.985,3.877,10.041c-5.062-2.459-11.315-3.655-16.711-4.769a119.792,119.792,0,0,0-21.511-2.389.682.682,0,0,0-.467,1.236c11.151,7.917,25.965,9.646,39.5,8.205q1.84,5.263,3.416,10.586c-10.307-5.846-22.761-6.886-33.893-10.924a.678.678,0,0,0-.64,1.182c5.042,3.96,10.913,6.733,16.775,9.422,5.79,2.655,12.238,4.425,18.739,3.694.027.1.057.192.084.289a.717.717,0,0,0,.084.293c1.768,6.278,3.325,12.61,4.746,18.986.237,1.065,1.957.768,1.754-.308-1.2-6.4-2.709-12.762-4.477-19.071A22.556,22.556,0,0,0,297.284,253q3.662-4.06,7.169-8.242,6.816-8.111,13.1-16.6C318.041,227.484,317.068,226.628,316.421,227.191Z" transform="translate(-201.569 -113.029)"/></g></g></g><g transform="translate(-37.816 173.12)"><path class="i" d="M1109.675,107.071A102.2,102.2,0,0,0,967.464,132.9q-2.273,3.283-4.254,6.677a1.573,1.573,0,0,1-1.361.784h-.022a21.361,21.361,0,0,0-21.367,21.38v.041a4.847,4.847,0,0,1-3.677,4.727,58.958,58.958,0,1,0,44.032,108,11.506,11.506,0,0,1,12.417.562l.066.045a102.2,102.2,0,1,0,116.378-168.044Z"/><path class="f" d="M981.179,316.393c-1.086,8.092-26.1-3.161-26.1-3.161s13.977,20.547,21.5,22.59c3.254.884,9.785-2.812,12.492-5.084,2.936-2.464,8.361-13.224,13.53-9.572a56.648,56.648,0,0,1-4.023,4.824c-2.617,2.825-5.447,5.449-8.27,8.1s-5.659,5.257-8.638,7.659a57.749,57.749,0,0,1-9.441,6.328l1.255,2.26a59.91,59.91,0,0,0,9.475-7.071c2.919-2.611,5.639-5.393,8.328-8.181s5.4-5.575,7.892-8.563a57.584,57.584,0,0,0,3.8-5.059,7.119,7.119,0,0,1,.891.9c2.476,3-4.308,10.587-6.352,13.784a15.967,15.967,0,0,0-2.5,11.081c.54,3.549,5.632,9.747,8.873,11.292,4.406,2.1,14.728-.22,19.513.749,10.684,2.166,25.347-4.98,25.347-4.98s-35.84-20.518-31.737-26.1c2.148-2.922,19.942,14.288,26.863,19.368,1.885,1.383,7,2.186,9.229,1.493,0,0,12.937-12.339,17.131-22.555,1.546-3.766,2.617-16.073,2.617-16.073s-13.89,3.914-18.66,4.363c-5.3.5-20.611-.868-20.366-6.184s18.477,7.165,43.909-4.055a70.961,70.961,0,0,1-.222-7.165c.389-3.9,3.573-15.287,3.573-15.287s-4.876,5.458-6.931,6.726c-7.548,4.654-34.732,12.074-35.063,5.364-.272-5.508,30-8.636,30-8.636s10.5-4.542,12.229-8.094c1.886-3.872-.527-17.621-.527-17.621l-10.775,8.767s-11.694,13.1-16.673,6.819c-5.286-6.673,22.777-9,27.467-20.133a61.826,61.826,0,0,1-4.4-6.339c-.992-2.08-2.577-8.853-2.577-8.853l-6.9-.1s-2.845-6.141-4.681-7.29c-3.463-2.169-12.235-1.465-16.245-1.774-3.027-.234-6.588,13.417-7.4,18.279-1.027,6.128,1.278,24.3-4.936,24.357-4.047.039-3.512-15.805-3.512-15.805l5.962-27.531s-26.872,11.5-34.189,15.622c-1.324.746-1.731,4.483-3.033,5.266-5.9,3.551-21.607,13.726-21.607,13.726,2.993,12.554,27.164,36.128,22.185,38.569-9.008,4.412-27.846-41.125-27.846-41.125s-12.134,13.8-14.487,19.373c-3.188,7.553-1.446,24.035-1.446,24.035s4.89,4.058,6.88,4.644C967.275,311.719,982.048,309.918,981.179,316.393Zm45.3-7.2c-2.681-.575-4.653-1.98-4.4-3.139s2.623-1.633,5.3-1.058,4.652,1.98,4.4,3.139S1029.164,309.77,1026.483,309.2Zm-8.272,4.056c.965-1.163,3.419-.717,5.48,1s2.95,4.044,1.984,5.205-3.419.717-5.481-1S1017.245,314.413,1018.211,313.251Zm-7.4,21.132c1.068-.395,3.809,4.363,6.122,10.625s3.324,11.659,2.257,12.054-3.809-4.363-6.123-10.625S1009.746,334.777,1010.813,334.384Zm12.259-48.586c1.173-.17,2.444,1.891,2.839,4.6a7.716,7.716,0,0,1-.418,4.336l-.65.752a.987.987,0,0,1-.343.134c-1.173.171-2.443-1.891-2.838-4.6S1021.9,285.969,1023.072,285.8Zm-13.709,14.545c-1.546-3.135-1.7-6.218-.344-6.886s3.707,1.331,5.252,4.467,1.7,6.218.344,6.886S1010.908,303.478,1009.363,300.343Zm-6.38,5.533c.778-.634,2.6.312,4.067,2.113s2.026,3.775,1.247,4.41-2.6-.312-4.067-2.113S1002.2,306.51,1002.983,305.876Zm13.769-51.807c1.579-.3,4.159,6.215,5.761,14.558s1.62,15.354.04,15.656-4.16-6.214-5.762-14.558S1015.171,254.372,1016.752,254.068ZM1000.4,274.425c-2.186-8.21-3.109-15.092-2.062-15.371s3.668,6.151,5.853,14.361,3.109,15.092,2.062,15.371S1002.588,282.635,1000.4,274.425Zm-23.66,26.6c-7.065-4.719-12.279-9.312-11.647-10.259s6.872,2.113,13.937,6.832,12.279,9.313,11.647,10.259S983.808,305.74,976.743,301.02Z" transform="translate(-14.519 -32.441)"/><g transform="translate(977.551 119.172)"><path class="a" d="M1060.21,311.8h0c-21.8,0-40.133-8.232-42.584-29.9l-12.314-108.815h109.545l-12.052,108.717C1100.4,303.515,1082.051,311.8,1060.21,311.8Z" transform="translate(-1003.599 -138.499)"/><path class="j" d="M1116.219,155.782c-1.959-5.656-25.822-10.128-55.875-10.128s-55.1,4.472-57.054,10.128c0,0-.2,11.326-.2,11.758,0,6,25.4,10.855,56.73,10.855,29.336,0,53.469-4.261,56.424-9.725Z" transform="translate(-1003.089 -132.202)"/><path class="k" d="M1113.709,141.8H1008.317v13.9h.045c0,.025-.009.049-.009.073,0,5.568,23.585,10.081,52.679,10.081s52.678-4.514,52.678-10.081c0-.024-.009-.049-.01-.073h.01Z" transform="translate(-1004.289 -131.318)"/><ellipse class="l" cx="52.679" cy="10.08" rx="52.679" ry="10.08" transform="translate(4.296)"/><path class="m" d="M1118.308,140.038c0,1.668-6,3.021-6,3.021v-6.041S1118.308,138.37,1118.308,140.038Z" transform="translate(-1028.155 -130.22)"/></g></g></g></svg>