<svg xmlns="http://www.w3.org/2000/svg" xmlns:xlink="http://www.w3.org/1999/xlink" width="897.385" height="574.077" viewBox="0 0 897.385 574.077"><defs><style>.a{fill:url(#a);}.b{fill:url(#b);}.c,.g{fill:none;}.c,.d{stroke:#04181d;}.c,.d,.g,.h,.i,.j,.k{stroke-miterlimit:10;}.c,.d,.h,.i,.j,.k{stroke-width:4px;}.d,.j,.l{fill:#fff;}.e{fill:#04181d;}.f{fill:#f4f4f4;}.g{stroke:#5d0923;}.h{fill:#7b9069;}.h,.i,.j,.k{stroke:#0e3239;}.i{fill:#193639;}.k{fill:#182a2f;}</style><linearGradient id="a" x1="0.181" y1="-12.567" x2="1.266" y2="-12.024" gradientUnits="objectBoundingBox"><stop offset="0.252" stop-color="#5e734e"/><stop offset="0.995" stop-color="#9cb189"/></linearGradient><linearGradient id="b" x1="0.328" y1="-9.702" x2="1.413" y2="-9.159" xlink:href="#a"/></defs><g transform="translate(-207.633 -19.805)"><ellipse class="a" cx="143.118" cy="144.229" rx="143.118" ry="144.229" transform="translate(720.608 325.462) rotate(-64.144)"/><ellipse class="b" cx="173.405" cy="174.751" rx="173.405" ry="174.751" transform="translate(207.633 441.462) rotate(-64.144)"/><path class="c" d="M951.158,357.4l-540,.613L360,486h646Z"/><path class="d" d="M910.293,407.389h0c22.562,0,40.851-6.836,40.85-35.125l0-67.321c0-28.289-18.29-38.05-40.852-38.049h0c-22.561,0-40.85,9.763-40.849,38.052l0,67.32C869.443,400.555,887.732,407.389,910.293,407.389Z"/><ellipse class="e" cx="23.615" cy="9.118" rx="23.615" ry="9.118" transform="translate(885.966 277.273)"/><path class="e" d="M830.61,224.018a31.1,31.1,0,0,1,3.338-4.08,31.954,31.954,0,0,1,14.712-7.786,1.578,1.578,0,0,0,.956-.943c.835-2.657,1.59-5.34,2.441-8.252l-14.394-1.6a6.392,6.392,0,0,1,2-.353q5.4-.174,10.8-.318c1.857-.049,3.622.564,5.511-.821,1.443-1.058,3.632-1.245,5.53-1.474.938-.113,1.97.554,3.154.93-1.539-2.7-2.958-5.2-4.378-7.689l.389-.392,2.372,1.547c-1.065-3.091-2.031-5.893-3-8.695l.5-.177c1.568,3.9,3.15,7.783,4.7,11.687.478,1.206,1.094,1.985,2.56,1.487a7.993,7.993,0,0,1,2.654-.638c1.368.038,2.945-1.6,4.322.451.218-1.526.025-3.032.25-4.473,1.222-7.843,2.494-15.68,3.879-23.5a2.929,2.929,0,0,0-1.5-3.4,47.794,47.794,0,0,1-4.608-2.945c-1.426-1.141-2.651-1.548-4.084-.145a6.453,6.453,0,0,1-1.416.669l1.88-2.779c-3.082-1.616-5.9-3.657-9.595-3.315a11.771,11.771,0,0,1-3.2-.017c-2.3-.43-4.56-1.038-6.837-1.574l.158-.647a28.446,28.446,0,0,1,4.466,1.162,8.2,8.2,0,0,0,7.089-.277c3.077-1.4,6.289-2.356,9.752-1.752.667.117,1.336.226,2.489.421a17.093,17.093,0,0,1-2.083-2.473c-.815-1.535-1.881-1.757-3.542-1.485-2.387.39-4.843.352-6.848-1.656,2.561,1.308,4.9.672,7.657-.719a19.32,19.32,0,0,0-3.24-2.251c-1.935-.805-3.981-1.346-5.989-1.97a2.425,2.425,0,0,0-1.13-.12c-4.785.943-9.54,2.09-14.358,2.8-2.217.326-4.558-.188-6.842-.321l.049-.551a42.156,42.156,0,0,0,6.046-.063,45.9,45.9,0,0,0,5.884-1.672c.543-.157,1.113-.225,1.659-.374,1.128-.309,2.578-.314,3.306-1.037a61.169,61.169,0,0,0,4.629-5.748c-4.6-5.145-9.266-10.38-13.945-15.606-2.075-2.316-4.093-4.689-6.274-6.9a96.608,96.608,0,0,0-8.712-8.278,50.181,50.181,0,0,0-8.129-4.688,31.494,31.494,0,0,1-11.167-10.305,4.656,4.656,0,0,1,1.539.916,44.032,44.032,0,0,0,12.454,8.475c8.079,3.575,15.005,8.842,21.585,14.553,3.577,3.1,7.763,4.062,12.287,5.089a36.82,36.82,0,0,0-2.143-3.374c-5.8-7.23-11.387-14.651-17.541-21.568-5.471-6.148-11.625-11.685-17.4-17.57-3.453-3.519-6.8-7.149-10.1-10.806-1.216-1.345-2.189-2.91-3.273-4.374l.391-.326a7.46,7.46,0,0,1,1.143.942c3.684,4.522,8.8,6.889,13.958,9.1,8.682,3.712,16.23,9.15,23.217,15.339A157.224,157.224,0,0,1,858.535,99.54a135.063,135.063,0,0,1,15.045,19.638c1.356,2.194,1.391,2.172,3.775,1.117q-.5-1.53-1-3.059c-1.478-4.475-2.676-9.069-4.5-13.4-2.909-6.906-6.289-13.613-9.362-20.452a25.017,25.017,0,0,1-2.5-9.864,12.742,12.742,0,0,0-1.114-4.747c-2.167-4.948-4.572-9.791-6.766-14.727-1.852-4.166-3.546-8.4-3.547-13.091a2.615,2.615,0,0,0-.949-1.618,38.373,38.373,0,0,0-11.044-6.533c2.124-1.2,4.11-2.438,6.264-1.931a18.348,18.348,0,0,1,7.009,2.853c4.845,3.78,9.429,7.913,13.937,12.1,4.274,3.97,8.382,8.127,12.45,12.312C881.294,63.349,886.46,68.486,891.185,74a90.459,90.459,0,0,1,13.64,22.323c.946,2.122,1.934,4.225,2.9,6.337-.488-3.045-1.312-5.991-1.848-8.988-1.251-7-2.21-14.057-3.572-21.035-1.676-8.584-3.407-17.172-5.567-25.643A158.507,158.507,0,0,0,891.2,30.744a7.2,7.2,0,0,0-2.79-3.7,97.054,97.054,0,0,0-9.843-4.243c-1.855-.741-3.777-1.313-5.669-1.962,3.436-1.349,6.559-1.486,9.852.249a42.731,42.731,0,0,1,9.343,6.678c3.691,3.455,7.348,6.984,10.675,10.783,4.84,5.529,7.05,12.446,9.325,19.276.877,2.631,1.679,5.288,2.515,7.933l.191-.069.522-11.622c3.191,13.085,2.953,26.471,3.508,39.876,1.373-.776,2.553-1.471,3.759-2.117,1.146-.615,2.318-1.179,3.731-1.893-1.615,2.4-3.123,4.429-4.4,6.6a26.08,26.08,0,0,0-3.132,6.372c-.6,2.293-.347,4.807-.467,7.224a4.808,4.808,0,0,0,1.047-1.809,68.318,68.318,0,0,1,11.033-21.138,130.022,130.022,0,0,1,13.381-15.126,53.724,53.724,0,0,1,21.572-12.458,44.048,44.048,0,0,1,15.107-2.1c1.008.066,2.005.3,3.449.527-11.689,4.761-23.482,7.81-34.249,13.508a40.484,40.484,0,0,1,15.1-3.683c5.237-.35,10.439-.866,15.471,1.169-2.548.321-5.124.314-7.629.735-4.424.744-8.791,1.824-13.206,2.628-12,2.185-21.249,8.661-28.3,18.353a88.374,88.374,0,0,0-10.349,19.049c-1.163,2.882-2.417,5.915-2.643,8.953-.653,8.778-.721,17.6-1.19,26.392-.192,3.588-.841,7.15-1.242,10.727a24,24,0,0,0-.013,2.542l5.451-6.215c-1.448,1.97-2.84,3.987-4.365,5.9a6.213,6.213,0,0,0-1.551,4.55c.311,4.227.516,8.461,1.082,12.638,1.6-5.441,3.109-10.914,4.853-16.31.8-2.471,2.1-4.776,3.095-7.188a9.022,9.022,0,0,0,.336-2.086l-.506-.132-3.006,2.693c1.114-2.456,2.958-3.595,4.667-2.7a12.949,12.949,0,0,0,1.26-3.462c.254-4.138.145-8.3.427-12.434.271-3.985.833-7.965,2.8-11.553,2.609-4.764,5.241-9.516,7.934-14.233A35.362,35.362,0,0,1,950.7,94.475c3.169-1.9,6.639-.891,9.136,3.477-1.683-.615-3.331-1.368-5.058-1.817-3.787-.985-5.155-.374-6.248,3.436-1.485,5.177-2.581,10.464-3.834,15.707a11.288,11.288,0,0,0-.279,1.671,12.346,12.346,0,0,0-.01,1.308c2.839-3.976,5.675-8.14,8.712-12.153A43.827,43.827,0,0,1,970.012,92.47c2.173-1,4.537-1.661,6.546-2.907,9.078-5.634,18.151-11.164,29.172-12.179a7,7,0,0,1,5.612,1.694c-5.781,4.333-12.323,6.893-18.679,9.811l8.345,3.987a.811.811,0,0,1-.765.252c-3.665-.778-7.323-1.589-11-2.321a3.315,3.315,0,0,0-1.851.2c-7.1,3.074-14.775,5.016-20.614,10.585-3.41,3.252-7.1,6.217-10.385,9.59-3.36,3.456-6.321,7.3-9.548,10.884-2.984,3.319-3.817,7.472-4.953,11.488,2.246-.405,4.351-.76,6.441-1.187a1.8,1.8,0,0,0,.844-.722,78.474,78.474,0,0,1,19.878-18.628,3.757,3.757,0,0,0,1.209-1.537c1.533-3.268,3.008-6.564,4.5-9.851l.568.255-4.7,10.162c6.315-3.494,12.623-5.96,19.586-6.519a26.255,26.255,0,0,1,14.453,2.918,11.851,11.851,0,0,1,1.651,1.248l-.43.432a11.366,11.366,0,0,0-2.119-1.355c-1.187-.441-2.567-1.149-3.672-.9-8.782,2-17.014,5.111-23.3,12.057-4.052,4.479-8.388,8.7-12.464,13.159-2.46,2.692-4.664,5.617-7.1,8.576a18.448,18.448,0,0,0,2.553-.448c3.619-1.2,7.28-2.31,10.01-5.264.926-1,2.167-1.7,3.184-2.628,2.512-2.287,5.507-4.059,6.771-7.588a9.059,9.059,0,0,1,4.853-4.927l-5.04,6.39c6.5-2.821,12.373-6.445,19.147-8.156a101.166,101.166,0,0,1-13.4,7.665c-3.65,1.633-7.543,2.634-9.78,6.352-.111.184-.355.285-.522.44q-3.537,3.279-7.07,6.564l.285.341c2.784-1.741,5.611-3.417,8.339-5.24,2.7-1.805,5.311-3.743,7.941-5.651,2.611-1.894,5.2-3.824,7.792-5.738l.327.421a126.71,126.71,0,0,1-26.307,24.068,14.614,14.614,0,0,0,4-1.349c4.932-2.611,9.772-5.4,14.752-7.914a19.041,19.041,0,0,1,11.46-1.783c2.2.312,4.417.543,6.634.7a11.277,11.277,0,0,0,2.358-.316,16.474,16.474,0,0,1-3.889,2.1c-3.982,1.676-8.057,3.16-11.931,5.056-6.405,3.134-12.512,6.927-19.053,9.721a97.324,97.324,0,0,0-23.539,14.207,7.824,7.824,0,0,0-2.537,2.674c-1.253,3.208-2.183,6.542-3.182,9.648a32.348,32.348,0,0,1,4.838,1.8,1.646,1.646,0,0,0,2.523-.564c1.146-1.507,2.3-3.012,3.486-4.486a36.472,36.472,0,0,0,3.152-3.811c1.11-1.844,1.81-3.929,2.843-5.826,2.119-3.891,4.228-7.818,8.071-10.1-1.295,3.183-2.648,6.511-4,9.838a8.42,8.42,0,0,0,2.11-1.25,95.575,95.575,0,0,1,8.308-5.7c5.781-3.189,11.678-6.179,17.632-9.033a73.824,73.824,0,0,1,8.047-2.818l.219.56a14.976,14.976,0,0,1-1.408.857q-7.014,3.3-14.043,6.575c-6.828,3.171-13.344,6.844-18.995,11.888-.972.867-2.252,1.705-2.662,2.823-1.072,2.929-1.742,6.006-2.628,9.227,2.963-1.306,5.758-2.342,8.362-3.734,3.911-2.09,7.73-4.362,11.514-6.677,6.8-4.159,14.3-4.586,21.919-4.087a77.277,77.277,0,0,1,8.7,1.53l-.03.488c-1.465.217-2.925.469-4.394.644-3.293.393-6.669.414-9.871,1.174-13.438,3.189-26.27,7.85-37.344,16.445a3.851,3.851,0,0,0-1.116,1.194c-1.484,2.966-1.866,5.886.537,8.635.328.377.458.924.775,1.315a1.661,1.661,0,0,0,.927.606c1.532.211,3.077.457,4.375-.807a6.372,6.372,0,0,1,1.462-.817l.208.292-1.652,1.883,3.642,2.206c-2.66.38-5-1.85-7.147.638l7.162,1.98-.124.437-5.653-.891-.156.568c2.286,2.114,6.123.918,8.385,3.518l-6.881-1.708,1.012,1.949a14.8,14.8,0,0,0-1.459-.626c-1.456-.4-3.032-1.318-4.358-1.046a57.94,57.94,0,0,0-8.02,2.718,1.856,1.856,0,0,0-1.066.783c-.787,2.065-1.475,4.167-2.319,6.614a27.655,27.655,0,0,1,13.174-2.309c1.306.055,2.725.4,3.9.021,2.494-.81,4.861-2.011,7.28-3.051l.221.108-3.917,3.79c6.592,3.25,6.592,3.25,7.114,4.577-2.189-.979-4.615-2.193-7.145-3.126a4.15,4.15,0,0,0-2.935.2c-7.007,3.413-13.962,6.931-20.919,10.447a3.085,3.085,0,0,0-1.4,1.177c-.9,1.888-1.648,3.844-2.569,6.051h5.062a34.352,34.352,0,0,1-4.754,1.268c-1.112.267-1.933,2.335-1.76,4.051,3.819-2.049,7.686-4.094,11.52-6.2a15.007,15.007,0,0,0,3.677-2.375,22.269,22.269,0,0,1,9.8-6.069,11.976,11.976,0,0,1,10.016,1.174c.209.127.32.417.505.671l-1.533,1.132c9.006-.043,17.391,1.2,25.131,5.165,7.779,3.982,14.237,9.414,18.014,17.509-1.281-1.4-2.309-3.038-3.552-4.491-3.386-3.957-7.822-6.348-12.532-8.408-10.864-4.753-22.242-5.947-33.924-5.2a7.33,7.33,0,0,0-2.185.925,2.378,2.378,0,0,0,1.47.391c5.321.126,10.641.284,15.962.375a30.348,30.348,0,0,1,14.763,3.755,45.4,45.4,0,0,1,3.836,2.711l-.272.312-9.761-2.962-.255.579c8.189,3.346,13.442,9.51,16.969,17.389a26.145,26.145,0,0,1-5.283-3.1c-5.4-4.076-10.747-8.266-17.231-10.516-4.911-1.705-9.556-4.325-15.24-1.658-7.7,3.614-15.778,6.421-23.6,9.783a8.158,8.158,0,0,0-3.413,3.384,91.044,91.044,0,0,0-7.611,18.759c-1.377,4.456-2.9,8.878-3.116,13.6H927.7q.666-8.746,1.333-17.494c.243-3.145.47-6.291.761-9.431.194-2.1.487-4.191.736-6.286l-.6-.2c-.857,2.387-2.132,4.715-2.48,7.173a110.178,110.178,0,0,0-1,13.7c-.065,4.176.352,8.36.556,12.54h-1.734q-.225-10.1-.45-20.194l-.636-.076a26.486,26.486,0,0,0-.947,4.936c-.023,5.111.182,10.223.3,15.334H903.067q-.671-8.214-1.34-16.428c-.261-3.259-.483-6.521-.744-9.78-.1-1.222-.255-2.44-.391-3.721-1.445,2.064-1.082,4.271-1.007,6.466.265,7.82.476,15.642.707,23.463h-3.815l-1.929-10.1-.455.089a11.757,11.757,0,0,0,1.083,6.548c.529.977.424,2.3.607,3.462h-3.816q-1.281-5.385-2.563-10.77a8.573,8.573,0,0,0-1.1-2.989l2.281,13.759H888.5c-.926-3.63-2.018-7.227-2.738-10.9-1.14-5.821-2.82-11.269-7.787-15.1-1.011-.78-1.814-1.728-2.967.209.5-2.212-.965-2.674-2.225-3.214-4.526-1.937-8.958-1.872-13.22.779-2.631,1.637-5.25,3.294-8.077,5.07a9.952,9.952,0,0,1,6.293-7.028c2.977-1.1,6.246-1.4,9.48-2.079a31.78,31.78,0,0,0-2.714-2c-1.292-.766-2.089-2.907-3.869-2.163-1.458.609-2.593,2-3.849,3.073a5.43,5.43,0,0,0-.6.828c-.9,1.137-1.8,2.267-2.856,3.595-.208-5.028,2.469-7.515,6.925-8.832-.6-.5-.986-.8-1.346-1.134-2.363-2.17-4.788-4.279-7.066-6.535-4.447-4.4-8.777-8.938-14.845-11.187a7.839,7.839,0,0,1-1.133-.7c3.417.1,8.026,2.228,10.837,5.005A123.685,123.685,0,0,0,860.7,246.061a6.742,6.742,0,0,0,4.869,1.5,10.332,10.332,0,0,1,7.246,2.056c.392.286.844.49,1.507.868-.55-2.727,1.136-3.034,2.753-3.068-2.181-5.538-4.674-10.93-6.416-16.555-1.758-5.677-2.771-11.584-4.18-17.69-2.308.121-5,.14-7.663.434-2.708.3-5.393.832-8.069,1.357a1.459,1.459,0,0,0-.933,1.043,30.765,30.765,0,0,0,.495,4.762c.552,2.794.559,4.185-.048,5.27-.472-3.34-.987-6.987-1.519-10.755a45.821,45.821,0,0,0-12.31,4.872c-2.019,1.157-3.906,2.543-5.853,3.826Zm56.307-18.367c-.416-2.349-.71-4.724-1.234-7.047a8.2,8.2,0,0,0-1.388-2.868c-1.5-2.081-3.123-4.072-4.929-6.4-.668,3.774-1.4,7.435-1.937,11.125-.3,2.034-.18,4.125-.41,6.172a3.255,3.255,0,0,0,1.191,3.021c2.995,2.675,5.982,5.36,9.166,8.216C888.873,213.3,887.6,209.5,886.917,205.651Zm14.123-86.115c1.773-2.492,1.16-4.555-.212-7.116-3.5-6.525-6.5-13.314-9.826-19.933-3.173-6.311-6.959-13.616-14.327-21.855,2.67,5.626,5.368,11.239,8,16.881,2.7,5.774,5.456,11.523,7.955,17.383,2.486,5.831,4.682,11.786,7.069,17.849A15.676,15.676,0,0,1,901.04,119.536Zm35.9,123.111c-1.308,1.843-1.732,4.391-2.271,6.689-1.087,4.635-2.05,9.3-2.926,13.984-.46,2.463-.643,4.978-.925,7.473a20.928,20.928,0,0,0-.135,4.241c1.207-3.512,2.319-7.061,3.65-10.526,1.182-3.076,2.684-6.028,3.9-9.093a51.477,51.477,0,0,0,1.788-5.823c1.083-4.1,3.45-7.5,5.782-10.93.223-.326.457-.645.665-.981a1.776,1.776,0,0,0,.136-.429A12.039,12.039,0,0,0,936.943,242.647Zm-52.53-59.821a7.134,7.134,0,0,0,.908,1.432c1.476,2.477,2.942,4.96,4.424,7.462a60.586,60.586,0,0,0,.443-17.355,2.748,2.748,0,0,0-1.141-1.578c-1.191-.877-2.486-1.613-3.88-2.5A18.768,18.768,0,0,0,884.413,182.826Zm-20.1,23.2c-2.758-.895-5.552-1.684-8.351-2.442a1.857,1.857,0,0,0-2.449.985c-1.154,2.353-2.419,4.653-3.752,7.191l17.517-1.227C867.391,208.115,866.6,206.768,864.309,206.023Zm9.352-139.188c-5.519-6.833-11.18-13.554-16.875-20.243a25.6,25.6,0,0,0-3.879-3.311c-.272-.213-.8-.1-1.2-.145.011.45-.158,1.033.061,1.329,1.869,2.527,3.705,5.089,5.745,7.474,5.777,6.751,12.1,13.05,17.074,20.64C874.856,70.576,874.932,68.409,873.661,66.835ZM937.044,206.3a10.8,10.8,0,0,0,4.053-7.189,61.433,61.433,0,0,0,.552-6.751c-2.265,2.079-5.909,2.812-6.021,7.069-.035,1.33-1.479,2.566-1.99,3.951-1.144,3.1-2.106,6.276-3.142,9.42l.331.064C932.876,210.643,934.669,208.084,937.044,206.3Zm-49.327,48.111a8.411,8.411,0,0,0,1.271,8.323,14.892,14.892,0,0,1,2.654,6.747c.314,2.2.877,4.371,1.331,6.555l.525-.078c-.155-2.037-.375-4.073-.426-6.113-.017-.666.652-1.367.59-2.012-.3-3.181-.732-6.35-1.142-9.521a16.5,16.5,0,0,1-.484-3.206c.168-2.219-1.245-3.147-2.982-4.138C888.577,252.2,888.153,253.3,887.717,254.409Zm-1.883-9.891a33.471,33.471,0,0,1,1.3-4.436c1.394-3.192.53-6.036-1.072-8.8-2.03-3.5-4.13-6.954-6.2-10.428l-.529.235Zm39.245-4.326a12.076,12.076,0,0,0-.457,4.7c.113,3.027.424,6.046.641,9.07.106,1.479.185,2.961.286,4.6,1.653-1.968,2.927-13.468,2.4-20.99C926.85,238.52,925.477,239.167,925.079,240.192Zm26.631-24.023a37.483,37.483,0,0,0-4.5,2.032c-2.152,1.074-2.639,1.827-3.185,4.7l17.1-7.817C957.723,213.844,954.715,215.139,951.71,216.169Zm-86.749-82.393,1.322-.485c-2.07-3.495-4-6.984-6.2-10.293-.5-.755-1.91-1-2.955-1.275a22.825,22.825,0,0,0-3.225-.39ZM896.11,257.464l-.588-.057a28.711,28.711,0,0,0-.757,3.635c-.382,4.724.714,9.31,1.452,13.926.492,3.079,1,6.155,1.494,9.233l.369.009Q897.094,270.836,896.11,257.464Zm.773-128.089c-2.795-7.36-5.618-14.709-8.575-22.013.882,4.755.946,9.664,3.636,14,1.853,2.987,3.209,6.282,4.788,9.44l.28-.007A5.336,5.336,0,0,0,896.883,129.375Zm1.963,108.407a80.375,80.375,0,0,0-.808-8.035,8.528,8.528,0,0,0-2.213,7.551c.363,2.53.717,5.061,1.112,7.853C899.147,242.933,898.856,240.254,898.846,237.782Zm49.5-104.264c-2.939-.463-4.888.972-6.8,2.346-.391.281-.259,1.276-.391,1.938-.321,1.6-.656,3.2-.985,4.8l.456.31Zm-83.573,10.168-4.94-5.551-3.95,4.462Zm81.441,56.764a2.851,2.851,0,0,0,.279-4.456c-.322-.231-.633-.477-.949-.716-2.636,1.737-3.056,4.629-4.094,7.431C943.191,201.889,944.732,201.227,946.214,200.45Zm-53.85,12.472,3.724-.247c.209-2.8-.2-5.461-3.262-7.846C892.658,207.776,892.514,210.3,892.364,212.922Zm3.862,8.957a1.819,1.819,0,0,0,.839-2.506,9.359,9.359,0,0,0-4.547-4.824c.862,2.943.373,5.92,2.034,8.558A17.629,17.629,0,0,1,896.226,221.879Zm36.49,14.4-1.809.261c-.575,5.3-1.136,10.469-1.645,15.163C932.52,247.428,931.347,241.612,932.716,236.282Zm-33.344-65.908c.343,1.257,1.586,2.268,2.413,3.369,1.723-1.042,1.578-2.308.831-3.636-1.07-1.9-2.188-3.783-3.285-5.673l-.439.174A29.5,29.5,0,0,0,899.372,170.374ZM888.993,210.14c.47-2.27.809-4.114,1.24-5.937.607-2.574-1.448-3.586-3.238-4.926C887.634,202.748,888.272,206.219,888.993,210.14ZM960.354,236.9a4.486,4.486,0,0,0-3.715.691c-1.962,1.556-3.984,3.036-5.868,4.757l11.764-5.047C961.7,237.143,961.029,237,960.354,236.9Zm-38.337-68.1.432.218c1.326-2.466,2.626-4.946,3.989-7.391.826-1.481,1.963-2.837,1.6-4.709-.072-.376-.2-.741-.3-1.111l-.4-.082Q924.682,162.261,922.017,168.8Zm15.034,66.927-3.066.418-1.165,8.626.69.132C934.639,241.978,935.767,239.053,937.051,235.726Zm-31.268,41.687.631-.056-2.175-23.693-.614-.03Q904.7,265.523,905.783,277.413ZM860.6,200.734c-2.36-1.411-2.4-1.349-4.511.613l8.305,2.514.161-.276C863.239,202.627,861.988,201.564,860.6,200.734Zm29.767,9.609c-1.137,3.489-.334,8.69,1.948,10.379C891.619,217.023,890.971,213.572,890.365,210.343Zm46.675,7.247c4.322-.541,5.722-1.69,5.769-4.969C940.906,214.465,938.162,214.948,937.04,217.59Zm-41.485-33.678,1.98-4.175-3.418-2.871C894.627,179.369,895.05,181.437,895.555,183.912Zm42.461,45.88c-1.409,1.348-3.819,1.494-3.717,4.08C937.408,234.333,938,233.713,938.016,229.792Zm-54.171-12.979,3.48,4.911C887.637,218.139,887.146,217.464,883.845,216.813Zm24.345-82.722V128.6l-.191-.076c-.611,1.789-1.221,3.578-1.9,5.565ZM892.752,282.936c.352-3.867-1.279-7.269-2.548-10.634Zm-4.033-63.1.461,5.684C890.864,224.55,890.455,221.262,888.719,219.832Zm-3.28,45.78-.693.137,2,9.539.5-.1Zm38.712-10.344-.421-.023v7.926l.421-.011ZM869.878,140.314l.262-.168c-.972-1.746-1.9-3.519-2.961-5.209-.158-.252-.934-.116-1.641-.18Zm39.543,111.5c-1.312,2.789-.626,5.521,0,8.218Zm22.653,1.722c.478-2.046.956-4.093,1.541-6.6C931.839,249.158,931.822,251.314,932.074,253.534Zm-33.861-83.709c-.16-1.661-.295-3.062-.431-4.482C896.492,167.459,896.524,168.224,898.213,169.825Zm-16.325-21.854-2.735-3.356C879.125,146.84,879.742,147.959,881.888,147.971Zm71.981,54.848c-1.157-1.5-1.717-1.393-3.039.717Zm-57.557-42.261-.91.021.174,3.015.736.033Zm-4.75,62.04.5,3.409C893.462,224.555,893.4,224.062,891.562,222.6Z"/><rect class="f" width="387.214" height="387.214" transform="translate(489.393 55.393)"/><line class="g" x2="386.981" transform="translate(489.51 59)"/><line class="g" x2="386.981" transform="translate(489.51 79)"/><line class="g" x2="386.981" transform="translate(489.51 99)"/><line class="g" x2="386.981" transform="translate(489.51 119)"/><line class="g" x2="386.981" transform="translate(489.51 139)"/><line class="g" x2="386.981" transform="translate(489.51 159)"/><line class="g" x2="386.981" transform="translate(489.51 179)"/><line class="g" x2="386.981" transform="translate(489.51 199)"/><line class="g" x2="386.981" transform="translate(489.51 219)"/><line class="g" x2="386.981" transform="translate(489.51 239)"/><line class="g" x2="386.981" transform="translate(489.51 259)"/><line class="g" x2="386.981" transform="translate(489.51 279)"/><line class="g" x2="386.981" transform="translate(489.51 299)"/><line class="g" x2="386.981" transform="translate(489.51 319)"/><line class="g" x2="386.981" transform="translate(489.51 339)"/><line class="g" x2="386.981" transform="translate(489.51 359)"/><line class="g" x2="386.981" transform="translate(489.51 379)"/><line class="g" x2="386.981" transform="translate(489.51 399)"/><line class="g" x2="386.981" transform="translate(489.51 419)"/><line class="g" x2="386.981" transform="translate(489.51 439)"/><line class="g" y2="386.981" transform="translate(873 55.51)"/><line class="g" y2="386.981" transform="translate(853 55.51)"/><line class="g" y2="386.981" transform="translate(833 55.51)"/><line class="g" y2="386.981" transform="translate(813 55.51)"/><line class="g" y2="386.981" transform="translate(793 55.51)"/><line class="g" y2="386.981" transform="translate(773 55.51)"/><line class="g" y2="386.981" transform="translate(753 55.51)"/><line class="g" y2="386.981" transform="translate(733 55.51)"/><line class="g" y2="386.981" transform="translate(713 55.51)"/><line class="g" y2="386.981" transform="translate(693 55.51)"/><line class="g" y2="386.981" transform="translate(673 55.51)"/><line class="g" y2="386.981" transform="translate(653 55.51)"/><line class="g" y2="386.981" transform="translate(633 55.51)"/><line class="g" y2="386.981" transform="translate(613 55.51)"/><line class="g" y2="386.981" transform="translate(593 55.51)"/><line class="g" y2="386.981" transform="translate(573 55.51)"/><line class="g" y2="386.981" transform="translate(553 55.51)"/><line class="g" y2="386.981" transform="translate(533 55.51)"/><line class="g" y2="386.981" transform="translate(513 55.51)"/><line class="g" y2="386.981" transform="translate(493 55.51)"/><path class="d" d="M473.753,427.744c0,21.953-17.61,35.936-39.562,35.936s-39.934-13.983-39.934-35.936a39.748,39.748,0,0,1,79.5,0Z"/><ellipse class="e" cx="22.522" cy="8.696" rx="22.522" ry="8.696" transform="translate(410.886 395.219)"/><path class="e" d="M541.578,261.813a28.193,28.193,0,0,1-3.449,7.534c-1.712,3.016-2.986,6.279-4.685,9.3-2.57,4.574-5.544,8.869-9.775,12.128a2.269,2.269,0,0,1-3.008.21,4.533,4.533,0,0,0-1.838-.226,2.189,2.189,0,0,0-.881.219c-2.531,1.063-5.028.684-7.561-.052-2.817-.818-5.665-1.529-8.511-2.244a2.511,2.511,0,0,0-1.331.062c-1.148.377-2.238.963-3.4,1.241a20.57,20.57,0,0,1-5.132.826,8.6,8.6,0,0,0-5.368,1.98c-.913.648-1.936,1.145-2.819,1.826a9.641,9.641,0,0,0-2.227,2.148,18.927,18.927,0,0,1-7.531,6.272,3.342,3.342,0,0,1-3.723-.5c-1.632-1.388-3.189-2.867-4.747-4.339a15.4,15.4,0,0,1-1.233-1.486l-.2.119a2.61,2.61,0,0,0,.178.522,38.4,38.4,0,0,1,3.967,9.6,1.359,1.359,0,0,0,1.177,1.109,22.583,22.583,0,0,0,6.752.46c1.886-.067,3.767-.524,5.646-.495,5.083.077,10.167.27,15.245.513a67.723,67.723,0,0,1,14.208,2.1c4.486,1.194,8.919,2.589,13.41,3.76a63.779,63.779,0,0,0,6.942,1.291,5.29,5.29,0,0,0,3.323-.835l1.677.633c-.558.036-.572.483-.4,1.126a1.93,1.93,0,0,1-2.1,2.624c-1.7-.178-3.368-.609-5.045-.956-4.075-.844-8.154-1.674-12.218-2.57-1.76-.388-3.491-.912-5.228-1.4a2.6,2.6,0,0,0-1.842.085,13.113,13.113,0,0,1-2.2.536c.427,2.018,5.319,8.307,11.837,15.5-1.1-.077-2.206-.133-3.306-.236-.812-.076-1.617-.221-2.427-.324a8.361,8.361,0,0,1-4.347-1.373,5.724,5.724,0,0,0-4.073-1.218c-1.457.137-2.553-.815-3.766-1.439a41.439,41.439,0,0,0-5.626-2.609,51.066,51.066,0,0,1-8.915-4.085,5.038,5.038,0,0,0-1.514-.6c-2.582-.482-5.185-.855-7.756-1.387a14.562,14.562,0,0,1-3.044-1.14,1.044,1.044,0,0,0-1.5.31,16.487,16.487,0,0,1-3.184,2.554c-1.479.949-3.079,1.707-4.592,2.607a5.064,5.064,0,0,1-3.442.623,24.8,24.8,0,0,0-7.95.281c-2.239.471-3.55,2.07-5.034,3.453a33.483,33.483,0,0,0-9.473,14.523,50.065,50.065,0,0,0-1.679,8.887c-.373,3.066-.413,6.172-.6,9.261-.014.239,0,.481,0,.721l.229.166a16.91,16.91,0,0,0,1.906-2.533,7.493,7.493,0,0,1,2.027-2.152,12.232,12.232,0,0,1,1.329-.9l-2.166-1.34a7.229,7.229,0,0,1,4.28-1.414,1.879,1.879,0,0,0,1.625-1.137,15.946,15.946,0,0,1,2.5-3.141,1.562,1.562,0,0,1,1.27-.315,7.2,7.2,0,0,0,5.259-1.114,38.271,38.271,0,0,0,3.424-1.957,3.976,3.976,0,0,1,4.881-.053c1.921,1.307,4.118,1.789,6.231,2.567,2.148.793,4.22.335,6.327.065,1.67-.214,3.339-.447,5-.714a4.221,4.221,0,0,1,3.26.574c1.708,1.214,3.554.718,5.381.517,1.368-.151,2.736-.309,4.1-.489a2.42,2.42,0,0,1,2.346.951,5.473,5.473,0,0,0,.563.606,3.083,3.083,0,0,1,1.055,3.147c3.8,1.04,5.967,4.122,8.474,6.7,1.156,1.187,1.827,2.847,2.822,4.461-1.538-.006-.313,1.249-1.178,1.6-.766-.7-1.549-1.525-2.443-2.2-.686-.521-1.531-.828-2.266-1.291-.465-.293-.823-.755-1.293-1.036a1.733,1.733,0,0,0-1.221-.336c-.25.1-.4.742-.4,1.143,0,.755-.3.753-.829.48-1.675-.871-3.342-1.76-5.031-2.605a12.522,12.522,0,0,0-1.842-.705c-.99-.312-1.99-.595-3-.858a1.788,1.788,0,0,0-.894-.03q-2.148.617-4.276,1.307c-2.434.794-4.851,1.641-7.3,2.4a2.28,2.28,0,0,1-1.359-.206c-.86-.342-1.678-.79-2.523-1.171-1.238-.557-2.489-1.086-3.728-1.642-1.774-.8-3.539-1.612-5.314-2.4a11.519,11.519,0,0,0-1.51-.564c-1.334-.384-2.061.6-2.858,1.351-.781.733-1.516,1.517-2.24,2.307a4.779,4.779,0,0,1-3.32,1.518,10.541,10.541,0,0,1-6.436-1.715l-2.357-1.414a18.4,18.4,0,0,0-7.6,12.406c-.224,1.6-.4,3.214-.619,4.819-.081.606,2,28.8.582,28.971.142,2.394.281,4.734.429,7.222-3.485-.256-4.983-.457-8.4-.709-.261-1.964-1.46-11.944-1.467-12.779-.014-1.624-.02-3.248-.07-4.871-.008-.265-1.377-21.3-1.744-22.136-.776-1.762.124-3.557-.209-5.316a4.545,4.545,0,0,1-.031-.56c-.131.017-.233,0-.29.042-2.652,2-5.869,2.8-8.871,4.01-2.771,1.118-5.782.932-8.723.6-2.291-.261-4.624-.6-6.508-2.005a23.631,23.631,0,0,1-3.03-3.244c-.117-.13-.163-.343-.3-.432-2.1-1.386-2.288-3.447-1.871-5.626.281-1.465.809-2.881,1.2-4.327a.915.915,0,0,1,1.226-.758,57.984,57.984,0,0,1,6.277,1.647,42.658,42.658,0,0,0,8.13,1.741c1.9.31,3.786.667,5.685.964.535.084,1.1-.028,1.638.05,1.541.223,3.074.507,4.614.745.444.069.9.06,1.506.1-.188-1.145-.285-2.188-.537-3.192a27.049,27.049,0,0,0-5.969-11.285,48.77,48.77,0,0,0-9.036-8.128,2.9,2.9,0,0,0-2.228-.573,7.485,7.485,0,0,1-6.992-2.354,15.521,15.521,0,0,0-2.761-2.263c-1.813-1.179-3.121-.918-4.478.762a5.922,5.922,0,0,0-.966,1.444c-.733,1.844-2.255,2.7-3.951,3.444a24.322,24.322,0,0,1-13.029,1.756,5.758,5.758,0,0,1-3.532-2.1,1.223,1.223,0,0,0-1.438-.35c-4.452,1.229-8.9,2.494-13.39,3.561a41.2,41.2,0,0,1-6.192.755,3.849,3.849,0,0,1-4.071-2.232c-.2-.407-.666-.682-1-1.026-1.3-1.335-.79-2.532-.08-3.844a5.092,5.092,0,0,1,4.384-2.7c2.807-.223,5.616-.47,8.429-.564a91.958,91.958,0,0,0,14.907-1.91,52.192,52.192,0,0,1,16.633-.91c1.762.216,3.361-.439,5.011-.876,1.887-.5,3.8-.91,5.715-1.288a6.48,6.48,0,0,1,1.651.109c.8-.966,1.122-1.143,2.439-.511,2.33,1.118,4.627,2.32,6.85,3.634a9.733,9.733,0,0,1,2.028,2.084c1.053,1.189,2.044,2.435,3.135,3.588a2.174,2.174,0,0,0,1.287.516c1.035.1,2.085.044,3.12.145a2.27,2.27,0,0,1,1.96,1.691,2.4,2.4,0,0,1-1.387,2.51c-.667-1.173-1.051-1.321-1.731-.519a1.385,1.385,0,0,0-.163,1.281,7.251,7.251,0,0,0,1.706,1.859,6.9,6.9,0,0,1,2.635,3.082,1.558,1.558,0,0,0,.838.73,14.081,14.081,0,0,0-.01-1.744c-.431-3.4-.766-6.814-1.383-10.178a27.536,27.536,0,0,0-3.341-8.387c-2.391-4.274-5.763-7.77-9.1-11.289a1.191,1.191,0,0,0-1.03-.226c-1.558.532-3.093,1.13-4.618,1.749-.242.1-.421.4-.574.649a9.234,9.234,0,0,0-.462.942l-.308-.006c-.233-1.451-.535-2.894-.678-4.353-.125-1.28-.047-1.287-1.243-1.451-.246,1.4-.447,2.792-.748,4.167a2.635,2.635,0,0,1-2.137,2.16c-1.7.477-3.2-.019-4.753-.346-3.74-.791-7.023-2.48-9.143-5.754a23.425,23.425,0,0,1-2.031-4.968.791.791,0,0,0-.785-.642c-1.562-.259-3.107-.628-4.665-.915a1.719,1.719,0,0,0-1,.1c-3.622,1.764-7.253,3.514-10.832,5.362a8.447,8.447,0,0,0-3.511,2.674,5.294,5.294,0,0,1-1.951,1.4c-.851.463-1.786.771-2.652,1.211a2.94,2.94,0,0,1-3.751-.538q-2.355-2.239-4.7-4.49c-.132-.127-.276-.242-.412-.367a3.527,3.527,0,0,0-4.761-.3c-.077.05-.147.11-.226.157-2.954,1.742-4.491,1.783-7.6-.848a32.283,32.283,0,0,1-3.746-4.278,13.742,13.742,0,0,0-4.926-4.258,14.684,14.684,0,0,0-4.332-1.045,7.34,7.34,0,0,1-2.972-1.417c-2.246-1.56-4.409-3.239-6.616-4.856a1.886,1.886,0,0,0-.828-.376c-1.078-.129-1.219-.931-1.364-1.763-.1-.56-.229-1.115-.345-1.672v-.736l.457-.91a5.872,5.872,0,0,0,.628.666c1.346,1.02,2.738,2.122,4.511,1.985,5.282-.4,10.55-.974,15.83-1.411a132.625,132.625,0,0,1,24.508.479c4.829.5,9.645,1.261,14.416,2.171a77.4,77.4,0,0,1,16.325,4.729c4.867,2.107,9.586,4.557,14.367,6.861a47.138,47.138,0,0,1,8.873,5.248,6.9,6.9,0,0,0,5.724,1.543,4.387,4.387,0,0,1,.794-.007c.481,1.057-.227,1.352-1.156,1.6,1.241,2.458,3.411,3.908,5.17,5.748a1,1,0,0,0,0-.664c-.688-1.7-1.34-3.411-2.1-5.079a86.216,86.216,0,0,0-6.672-12.407,1.909,1.909,0,0,0-1.821-1.041,5.516,5.516,0,0,1-5.481-3.107,9.243,9.243,0,0,0-1.8-2.417,62.207,62.207,0,0,1-8.652-10.675c-1.482-2.231-2.529-4.765-4.565-6.631-.716-.655-1.258-1.5-1.911-2.229a3.007,3.007,0,0,0-.851-.656c-2.315-1.183-4.622-2.384-6.97-3.5a53.407,53.407,0,0,0-6.777-2.973,58.35,58.35,0,0,0-7.467-1.524c-2.652-.464-5.36-.67-7.972-1.293-3.05-.728-6.052-1.7-9.019-2.732a16.157,16.157,0,0,0-5.762-1.243,3.77,3.77,0,0,1-3.91-2.75,40.149,40.149,0,0,0-1.651-5.117c-1.151-2.369-2.637-4.573-3.925-6.878a8.022,8.022,0,0,1-1.2-2.809,5.193,5.193,0,0,0-1.056-2.821,1.594,1.594,0,0,1-.3-1.569,9.507,9.507,0,0,0,0-2.366c0-.024-.036-.048-.047-.061l-.663-.179c-.328-2.9,1.957-3.322,3.658-4.221l2.367,2.585.2-.15-.175-2.37a36.632,36.632,0,0,1,4.865.789c2.54.764,5.027,1.718,7.5,2.691a32.906,32.906,0,0,1,10.193,5.752c1.776,1.589,3.519,3.216,5.257,4.846s3.467,3.3,5.2,4.954c.764.726,1.537,1.444,2.31,2.16,1.007.932,2.009,1.868,3.029,2.785.812.73,1.722,1.364,2.458,2.161,1.91,2.069,3.737,4.214,5.622,6.307a9.309,9.309,0,0,0,1.955,1.884c1.671,1,3.439,1.836,5.178,2.72A42.06,42.06,0,0,0,398.4,267.4c3.083,1.05,6.264,1.812,9.407,2.684,1.169.324,2.354.588,3.519.925,2.488.72,3.5,1.958,3.427,4.971a21.564,21.564,0,0,0,1.39,7.606,12.547,12.547,0,0,0,1.6,3.767,16.059,16.059,0,0,1,2.985,8.049,2.111,2.111,0,0,0,.481,1.207q2.736,2.481,5.572,4.85c.877.733,1.849,1.351,2.81,2.044.44-1.075.88-1.988,1.182-2.945a6.137,6.137,0,0,0,.356-2.207,3.857,3.857,0,0,1,1.17-3.4,8.9,8.9,0,0,0,1.116-1.34c2.152-2.962,4.23-5.981,6.463-8.881a18.11,18.11,0,0,0,2.823-4.774c.926-2.518,1.816-5.05,2.71-7.58a14.983,14.983,0,0,1,.605-1.89c.677-1.319,1.475-2.576,2.174-3.885,1.338-2.5,2.667-5.013,3.956-7.542,3.83-7.514,7.414-15.156,11.8-22.381,2.886-4.757,5.633-9.6,8.527-14.352,1.047-1.719,1.819-2.064,3.608-1.138a14.087,14.087,0,0,0,2.249.961,11.067,11.067,0,0,1,7.069,6.365,20.367,20.367,0,0,1,1.725,7.741c.04,1.928.081,3.859.212,5.782.134,1.952.414,3.893.562,5.844.116,1.526.159,3.059.18,4.589a41.772,41.772,0,0,1-.074,4.67,6.2,6.2,0,0,1-.9,3.02,7.459,7.459,0,0,0-1.1,2.605,26.489,26.489,0,0,1-1.513,4.194c-.277.566-1.1.864-1.679,1.283a2.154,2.154,0,0,0-.543.4,15.379,15.379,0,0,1-10.351,6.813,2.319,2.319,0,0,0-2.126,2.629c.1,1.613.29,3.22.45,4.931,1.147-.458,2.253-.867,3.331-1.339q3.831-1.676,7.64-3.4c2.525-1.152,4.991-2.448,7.558-3.5,4.525-1.846,9.119-3.522,13.664-5.321a94.928,94.928,0,0,1,22.08-6.213,9.654,9.654,0,0,0,2.889-.74,12.948,12.948,0,0,0,3.577-2.64,19.259,19.259,0,0,1,3.448-2.73,5.288,5.288,0,0,1,2.708-.9c.519.006,1.024.941,1.542,1.452a3.516,3.516,0,0,0,.384.283l-.5.311c2.6,1.791,2.6,1.791,3.019,3.354Zm-94.837,58.578a31.618,31.618,0,0,0,7.64-2.987q5.092-2.51,10.2-4.992a2.124,2.124,0,0,0,1.164-2.219,1.9,1.9,0,0,0-1.355-.995c-2.641-.234-5.13-1.83-7.906-.9-.287.1-.659-.076-.993-.106-1.5-.134-2.934-.1-3.91,1.343-.445.655-1.033,1.22-1.431,1.9a8.565,8.565,0,0,1-5.705,3.967,1.588,1.588,0,0,0-.865.679,49.961,49.961,0,0,0-5.317,12.63c-.123.447-.194.909-.289,1.363l.231.136a5.376,5.376,0,0,0,.8-.775,30.119,30.119,0,0,1,5.55-5.822,9.416,9.416,0,0,1,1.757-1.286C447.536,321.7,447.647,321.4,446.741,320.391Z"/><path class="h" d="M937.077,463.3h0c-14.738,0-27.126-5.564-28.784-20.209l-8.323-73.551h74.045l-8.146,73.486C964.242,457.7,951.841,463.3,937.077,463.3Z"/><path class="i" d="M975.28,362.1c-1.324-3.823-17.454-6.846-37.767-6.846s-37.241,3.023-38.565,6.846c0,0-.136,7.656-.136,7.948,0,4.053,17.168,7.338,38.346,7.338,19.829,0,36.141-2.881,38.138-6.574Z"/><path class="j" d="M972.773,353.251H901.535v9.4h.03c0,.016-.006.033-.006.049,0,3.763,15.942,6.814,35.607,6.814s35.607-3.051,35.607-6.814c0-.016-.006-.033-.007-.049h.007Z"/><ellipse class="k" cx="35.607" cy="6.814" rx="35.607" ry="6.814" transform="translate(901.716 346.165)"/><path class="l" d="M959.75,352.8c0,1.128-4.059,2.042-4.059,2.042v-4.084S959.75,351.674,959.75,352.8Z"/></g></svg>