<svg xmlns="http://www.w3.org/2000/svg" xmlns:xlink="http://www.w3.org/1999/xlink" width="535.977" height="611.458" viewBox="0 0 535.977 611.458"><defs><style>.a{fill:url(#a);}.b{fill:#7b9069;stroke:#ebf1fb;stroke-linejoin:bevel;}.b,.e{stroke-width:2.705px;}.c,.e,.j{fill:none;}.c,.e{stroke:#06181d;}.c,.e,.g,.j,.l{stroke-miterlimit:10;}.c{stroke-width:1.803px;}.d{fill:#06181d;}.f{fill:#b7c7d0;}.g,.k,.l{fill:#fff;}.g,.l{stroke:#04181d;}.g{stroke-width:3.362px;}.h{fill:#04181d;}.i{fill:#172e31;}.j{stroke:#fff;stroke-width:2.052px;}.l{stroke-width:4px;}.m{fill:#416159;}</style><linearGradient id="a" x1="-2.58" y1="0.38" x2="-1.643" y2="0.38" gradientUnits="objectBoundingBox"><stop offset="0" stop-color="#5e734e"/><stop offset="0.995" stop-color="#9cb189"/></linearGradient></defs><g transform="translate(-3177.252 -4791.889)"><path class="a" d="M3343.385,5156.856q.5.188.991.381a8,8,0,0,0,10.412-4.668l.031-.08c36.528-96.5,144.977-144.7,241.272-106.706,92.813,36.618,140.135,141.592,106.113,235.387-35.3,97.315-143.232,146.659-239.728,110.131a186.956,186.956,0,0,1-21.5-9.726c-26.272-13.955-57.8-15-84.16-1.21a122.382,122.382,0,0,1-99.635,6.3c-62.366-23.187-95.122-92.93-73.041-155.7A122.726,122.726,0,0,1,3343.385,5156.856Z"/><path class="b" d="M3456.036,5252.662c.444.838,12.949,55.386,15.918,56.389,12.428,4.2,108.114,6.812,110.913,6.012.611-.175,5.711-34.663,6.312-34.867,3.429-12.063-.076-26.077.3-27.052,4.653-12.071-6.52-35.341-6.742-39.582-.225-4.313-.408-7.165-2.228-10.3-1.672-2.886-3.8-4.423-13.645-10.025-11.239-6.4-11.873-6.34-14.2-8.494a35.574,35.574,0,0,1-8.772-13.228c-1.852-4.509-4.084-9.941-2.507-16.013.551-2.12,1.007-2.165,4.039-7.519,5.3-9.358,7.947-14.037,8.493-18.937.656-5.888-1.141-10.07.975-11.279,1.669-.953,3.381,1.31,5.152.7,5.071-1.756,6.613-25.7-4.734-33.417-.574-.391-4.568-1.426-12.532-3.482-11.139-2.874-14.843-3.683-16.848-1.671-1.8,1.811-.168,3.832-1.811,5.988-3.221,4.227-11.228-1.3-20.329,1.671-6.244,2.037-9.884,7.057-15.873,15.316-3.677,5.071-4.861,8.338-5.431,10.3a62.745,62.745,0,0,0-1.392,8.633c-.737,5.811-.518,7.134-.279,8.076.707,2.782,1.812,3.131,2.089,5.709.245,2.285-.515,3.015-1.114,6.127a24.925,24.925,0,0,0,3.063,17.684c.456.747,1.1,1.7,1.95,3.341.234.454.959,1.882,1.81,4.038,1.473,3.735,1.2,4.279,2.088,5.152,1.1,1.085,2.486,1.2,4.874,1.393a14.8,14.8,0,0,0,8.772-1.532c1.692-.963,2.158-1.794,2.785-1.532.784.329.582,1.849.557,7.937-.013,3.077.035,3.581-.418,4.317-1.162,1.887-3.573,1.973-6.126,2.645-2.255.594-2.983,1.213-9.469,5.292-13.821,8.691-12.517,7.14-15.456,9.468-6.2,4.908-9.571,9.885-14.481,17.127-5.832,8.6-6.705,12.49-6.962,13.785a37.118,37.118,0,0,0-.139,11.835C3454.949,5245.255,3455.553,5248.336,3456.036,5252.662Z" transform="translate(0 -3)"/><path class="c" d="M3706.929,5365.274H3233.982l56.83-50.808H3647.73Z"/><path class="d" d="M3554.937,5345.089l-171.73-16.907-5.671-84.5a6.986,6.986,0,0,1,7.656-7.421l157.631,15.519a6.987,6.987,0,0,1,6.287,6.485Z"/><path class="e" d="M3554.042,5345l-167.258-16.467,20.9-19.617,167.258,16.466Z"/><path class="f" d="M3455.925,5331.156c.047-.062.127-.119.135-.184a.752.752,0,0,1,.479-.637,15.482,15.482,0,0,1,4.767-1.568,5.2,5.2,0,0,1,2.509.328,8.881,8.881,0,0,0,1.011.374,1.785,1.785,0,0,0,.645-.013c1.057-.132,2.111-.281,3.169-.411.7-.086,1.408-.138,2.11-.223.848-.1,1.693-.238,2.541-.339.737-.088,1.478-.142,2.216-.222,1-.11,2-.236,3-.344.566-.061,1.136-.1,1.7-.149.962-.089,1.923-.186,2.884-.276.325-.03.65-.056.976-.073,1.4-.075,2.8-.152,4.207-.214a14.227,14.227,0,0,1,7.039,1.537q4.5,2.226,9,4.473c.031.016.061.034.092.051.772.424.81.56.412,1.356-.168.335-.314.681-.476,1.019a.344.344,0,0,1-.548.171c-.852-.508-1.706-1.013-2.552-1.53a2.294,2.294,0,0,1-.416-.37,18.762,18.762,0,0,0-4.2-3.182,22.926,22.926,0,0,0-4.313-1.98,11.866,11.866,0,0,0-4.87-.427c-2.989.3-5.971.66-8.955,1.009-1.211.141-2.418.315-3.627.474q-3.207.421-6.413.844c-.425.056-.849.121-1.335.191.269.237.518.426.731.65q1.227,1.288,2.432,2.6a.641.641,0,0,0,.718.246,5.105,5.105,0,0,1,2.514.193c.735.19,1.448.464,2.177.68a.484.484,0,0,0,.4-.065,9.894,9.894,0,0,1,4.926-2.334,9.774,9.774,0,0,1,3.2.056c3.015.421,5.62,1.858,8.247,3.255a22.328,22.328,0,0,0,4.562,2.008,5.4,5.4,0,0,0,1.4.076,3.755,3.755,0,0,0,1.55-.2,5.434,5.434,0,0,1,.951-.155c.969-.215,1.932-.46,2.9-.67,1.415-.307,2.836-.586,4.25-.894.826-.18,1.645-.394,2.467-.594,1.206-.293,2.411-.595,3.619-.881,1.467-.346,2.932-.7,4.406-1.013,1.96-.412,3.929-.786,5.9-1.171,1.091-.213,2.177-.465,3.278-.609a7.927,7.927,0,0,1,3.787.212,3.643,3.643,0,0,1,1.215.745,38.19,38.19,0,0,1,4.053,4.795,1.036,1.036,0,0,1,.183.9c-.1.478-.228.954-.374,1.422-.159.512-.561.623-.927.231a4.952,4.952,0,0,1-1.316-2,9.356,9.356,0,0,0-1.544-3.195,19.513,19.513,0,0,0-1.348-1.473,2.245,2.245,0,0,0-2.185-.383c-1.281.2-2.539.548-3.807.831-2.128.474-4.263.918-6.384,1.422-3.26.775-6.513,1.584-9.767,2.389-2.288.566-4.572,1.148-6.856,1.729-.476.121-.938.307-1.418.4-.737.145-1.489.217-2.228.36s-1.482.335-2.22.514a.384.384,0,0,0-.343.373c-.093.943-.231,1.881-.322,2.824a17,17,0,0,1-1.571,6.346,6.79,6.79,0,0,1-1.524,1.921,7.2,7.2,0,0,1-1.736,1.339,6.749,6.749,0,0,1-2.424.662,1.143,1.143,0,0,0-.232.06h-.706c-.554-.078-1.114-.128-1.662-.239a12,12,0,0,1-7.793-5.45,23.383,23.383,0,0,1-3.1-7.418,6.384,6.384,0,0,1-.274-2.778,1.07,1.07,0,0,0-.912-1.337c-.433-.1-.867-.194-1.3-.282-.57-.114-1.141-.219-1.765-.339.152.485.251.909.417,1.3.281.669.607,1.318.911,1.978a3.425,3.425,0,0,1,.373,1.831,11.238,11.238,0,0,1-1.616,4.49,6.314,6.314,0,0,1-3.165,2.786,4.5,4.5,0,0,1-3.983-.341,10.638,10.638,0,0,1-4.054-4.251,25.652,25.652,0,0,1-2.767-8.424,47.132,47.132,0,0,0-1.128-4.671Zm37.876,14c-.129-.9-.2-1.816-.4-2.7a9.345,9.345,0,0,0-3.486-5.342,13.413,13.413,0,0,0-8.944-2.952,4.455,4.455,0,0,0-2.25.573,3.289,3.289,0,0,0-1.19,1.606c-.686,1.641-.85,2.9.574,4.357a5.016,5.016,0,0,1,1.478,2.354c.216.983.375,1.98.513,2.978a10.815,10.815,0,0,0,.641,2.83,6.428,6.428,0,0,0,3.25,3.264,8.862,8.862,0,0,0,5.405.961,3.393,3.393,0,0,0,2.157-.964,7.076,7.076,0,0,0,1.019-1.5A14.285,14.285,0,0,0,3493.8,5345.152Zm-34.874-13.123c-.014.036-.03.067-.039.1a11.648,11.648,0,0,0-.1,4.815,18.872,18.872,0,0,0,1.352,4.932,14.678,14.678,0,0,0,2.63,4.223,7.335,7.335,0,0,0,2.662,1.968,1.944,1.944,0,0,0,2.6-.479,4.274,4.274,0,0,0,1.086-1.863,14.486,14.486,0,0,0,.445-6.152,12.726,12.726,0,0,0-1.273-4.307,10.269,10.269,0,0,0-3.385-3.883.767.767,0,0,0-.43-.185c-.74.082-1.478.193-2.214.306C3461.16,5331.671,3460.061,5331.85,3458.927,5332.029Z"/><path class="g" d="M3354.789,5320.558h0c10.18,0,18.432-3.183,18.432-16.359v-31.353c0-13.175-8.253-17.721-18.433-17.721h0c-10.18,0-18.433,4.547-18.432,17.722V5304.2C3336.356,5317.376,3344.609,5320.559,3354.789,5320.558Z"/><ellipse class="h" cx="13.083" cy="4.737" rx="13.083" ry="4.737" transform="translate(3341.262 5259.31)"/><path class="h" d="M3347.8,5261.035a8.3,8.3,0,0,0-.208-1.337,1.414,1.414,0,0,1,.228-1.7c.266-.284-.079-1.187-.214-1.795a25.091,25.091,0,0,1-.94-4.111c-.143-2.986-.035-5.984-.031-8.977,0-.671,0-1.342,0-2.27-2.466,1.752-4.139,4.006-6.752,5.141a2.778,2.778,0,0,1-.191-.725c.113-2.143.307-4.284.356-6.429a38.194,38.194,0,0,0-.165-5.382,37.472,37.472,0,0,0-1.15-5.778c-.6-2.1-1.438-4.127-2.179-6.184a.764.764,0,0,0-.221-.32c-.319-.261-.653-.5-.981-.752a4.481,4.481,0,0,0-.131,1.143,41.448,41.448,0,0,1,.835,7.918c-.1,2.068-.007,4.144-.043,6.216a9.186,9.186,0,0,1-3.748,7.491,15.119,15.119,0,0,1-4.873,2.908c-1.485.432-3.027.666-4.54,1-.747.166-1.487.366-2.3.567-.231-1.025.64-1.471,1.087-2.091.606-.839,1.364-1.566,1.968-2.406A9.325,9.325,0,0,0,3325,5238.4c.252-2.728.378-5.468.55-8.2,0-.043-.075-.092-.3-.353a36.893,36.893,0,0,0-1.938,4.769c-.574,2.238-.666,4.6-1.269,6.829a9.492,9.492,0,0,1-4.967,5.884c-3.4,1.876-6.621,4.061-9.924,6.107a4.84,4.84,0,0,1-.643.285,2.236,2.236,0,0,1-.232-.722,27.858,27.858,0,0,0,.188-3.769,11.564,11.564,0,0,0-.941-3.411c-1.421-3.292-3.021-6.508-4.392-9.819a4.413,4.413,0,0,1,.719-4.05,12.111,12.111,0,0,1,1.8-1.754,1.11,1.11,0,0,0,.338-.62c.183-2.656.34-5.314.5-7.968l-2.606.587c.275-1.253.6-2.391.758-3.551.154-1.125.075-2.281.212-3.41.158-1.3.5-2.575.65-3.874a9.425,9.425,0,0,0-.054-2.587c-.121-.724-.739-.854-1.161-.24a4.583,4.583,0,0,0-1.224,2.857c.119,2.243-.707,4.312-1.209,6.451a11.459,11.459,0,0,1-3.335,5.451c-1.018,1.036-1.93,2.187-3.017,3.142a11.393,11.393,0,0,1-5.295,2.2c-1.29.286-2.623.425-3.873.827a21.547,21.547,0,0,0-3.007,1.52,9.27,9.27,0,0,1,1.044-1.566,32.035,32.035,0,0,1,2.973-2.623c1.068-.812,3.6-4.83,3.544-6.191a7.063,7.063,0,0,0-2.939,2.719c-1.384,1.859-2.665,3.8-3.984,5.7a19.364,19.364,0,0,0-1.183,1.779,4.332,4.332,0,0,1-2.874,2.283c-2.686.6-4.658,2.327-6.713,3.943a4.261,4.261,0,0,1-3.265,1.129c.471-1.795.948-3.6-.075-5.365-.68-1.171-1.472-2.281-2.1-3.479a12.755,12.755,0,0,1-1.349-3.289c-.328-1.649.573-3.028,1.6-4.221,2.912-3.372,6.75-4.971,11.048-5.74a71.772,71.772,0,0,0,8.291-2.026c-2.146-.105-4.3-.354-6.436-.257a11.518,11.518,0,0,0-3.373,1.091c-2.458.946-4.894,1.948-7.349,2.9-1.713.665-3.441,1.29-5.166,1.925-.2.076-.427.1-.869.209,0-1.178-.051-2.251.012-3.318.1-1.708.352-3.409.4-5.116a4.688,4.688,0,0,1,2.158-4,2.511,2.511,0,0,0,.8-1.177,10.789,10.789,0,0,1,2.231-4.145,16.828,16.828,0,0,0,1.5-1.891,21.882,21.882,0,0,1,5.43-5.611c.567-.372.853-1.159,1.294-1.736a8.13,8.13,0,0,1,3.956-3.045,4.369,4.369,0,0,0,1.861-1.19,13.089,13.089,0,0,1,5.582-3.4,15.661,15.661,0,0,0,2.767-1.553c2.229-1.375,4.823-1.767,7.378-2.2a81.7,81.7,0,0,0,8.187-1.543,6.317,6.317,0,0,1,5.5.893,4.921,4.921,0,0,0,3.281.614c-1.486-1.262-2.713-2.483-4.116-3.449a8.41,8.41,0,0,1-3.075-3.759,27.464,27.464,0,0,1-1.5-4.846,2.672,2.672,0,0,1,.634-1.976c1.09-1.265,1.16-2.8,1.539-4.288.367-1.441.676-3.026,2.1-3.886a2,2,0,0,1,1.5-.061c2.631.936,5.164,2.341,7.866,2.824,2.611.466,4.947,1.685,7.53,2.093.283.044.565.091,1.081.175a5.332,5.332,0,0,0-.7-.725c-2.738-1.774-5.488-3.528-8.226-5.3-.513-.332-.952-.793-1.488-1.076-1.349-.712-2.764-1.3-4.092-2.05-.824-.464-1.758-.964-1.672-2.17a.869.869,0,0,1,.219-.593c1.578-1.12,3.137-2.278,4.786-3.286a1.443,1.443,0,0,1,2.376,1.085c.134,1.918,1.452,2.657,2.852,3.453,1.782,1.014,3.534,2.082,5.283,3.151a5.763,5.763,0,0,1,.832.763l.223-.154c-.451-.655-.9-1.314-1.354-1.963-1.317-1.866-3.206-3.069-4.989-4.418a10.008,10.008,0,0,1-2.1-2.51c-.412-.621-.053-1.083.734-1.154a8.193,8.193,0,0,1,3.8.606c1.844.724,2.589.525,3.82-.991.42-.518.715-.68,1.336-.268a6.074,6.074,0,0,0,4.518.583,15.762,15.762,0,0,1,5.121.282,26.007,26.007,0,0,0,3.853.292c-1.728-2.873-4.085-5.358-3.618-9.115-.632-.4-1.375-.9-2.156-1.341a4.472,4.472,0,0,1-2.337-4.107,25.769,25.769,0,0,1,.439-4.132,1.747,1.747,0,0,0-.318-1.591c-.923-1.161-1.624-2.5-2.546-3.66a15.308,15.308,0,0,0-2.518-2.51,68.531,68.531,0,0,0-5.625-4.081c-3.147-1.984-6.4-3.808-9.591-5.714-1.974-1.176-3.972-2.319-5.887-3.586a53.282,53.282,0,0,0-9.63-5.077,33.818,33.818,0,0,1-4.6-2.418,60.324,60.324,0,0,0-10.513-4.943c-3.58-1.275-7.207-2.418-10.812-3.625-.307-.1-.6-.258-.9-.373-2.915-1.107-5.822-2.236-8.752-3.3-.988-.359-2.039-.543-3.053-.833a1.45,1.45,0,0,1-.79-.579c.676.082,1.363.113,2.027.254a5.96,5.96,0,0,0,4.874-1,7.438,7.438,0,0,1,5.44-1.258c2.33.347,4.674.6,7.067.9l-2.988-1.876.009-.21c.956.114,1.927.157,2.865.355a10.933,10.933,0,0,0,5.789-.083c2.884-.958,5.454-.131,7.861,1.357a46.757,46.757,0,0,0,12.9,5.306,34.166,34.166,0,0,1,4.612,1.261,58.378,58.378,0,0,1,6.068,3.073,62.113,62.113,0,0,0,9.3,3.948,11.733,11.733,0,0,1,4.428,2.331,29.83,29.83,0,0,0,4.7,3.412c1.877,1.334,3.716,2.721,5.588,4.06.737.528,1.515,1,2.286,1.48.516.32,1.139.708.812,1.336-.166.318-.942.512-1.4.446a4.649,4.649,0,0,0-3.45.937,4.439,4.439,0,0,0-.757.92c.357.18.744.557,1.066.507,2.109-.323,4.534.306,6.069-1.975,1.585,1.937,3.248,3.737,4.631,5.73a18.051,18.051,0,0,0,4.85,4.263,25.052,25.052,0,0,1,3.131,2.625,30.054,30.054,0,0,1,2.148,2.615c.777-1.162.668-1.775-.3-2.711-1.066-1.028-2.08-2.115-3.057-3.23-1.1-1.254-2.132-2.566-3.193-3.854l-.358.312a2.469,2.469,0,0,1,.526.275c1.179,1.034,2.681.848,4.068,1.093,1.114.2,2.238.347,3.347.57a3.111,3.111,0,0,1,.839.533c1.619-5.92,3.384-11.854,6.311-17.334a114.587,114.587,0,0,1,10.226-15.558c-1.815-.02-3.507-.134-4.4,1.924-.282-.716-.282-.716.585-1.736-1.039,0-1.978.016-2.916,0-3.5-.071-6.706-1.279-9.9-2.548-1.2-.476-2.368-1.049-3.6-1.4-2-.572-2.831-2.041-3.21-3.876-.546-2.64.155-4.1,2.489-5.6a6.769,6.769,0,0,0,1.242-1.211c.393-.432.821-.675,1.371-.342a19.588,19.588,0,0,0,7.727,2.4c.545.074,1.083.192,1.624.29l.148-.4a10.5,10.5,0,0,0-1.349-.648c-2.331-.741-4.674-1.444-7.009-2.17a5.472,5.472,0,0,1-.984-.4c-.6-.327-.747-1.045-.216-1.394,2.28-1.5,3.832-3.7,5.658-5.637a20.519,20.519,0,0,1,2.626-2.017c.441,1.54,1.633.975,2.467,1.171,3.408.8,6.419-.676,9.478-1.817.424-.158.845-.323,1.269-.481.023-.009.059.017.23.074-.819,1.417.484,1.783,1.2,2.567a22.719,22.719,0,0,1,1.678,2.708,14.444,14.444,0,0,0,1.562,1.922c.733.766,1.532,1.469,2.314,2.188.238.219.513.4.77.6l.29-.19c-.538-1.424-1.044-2.861-1.624-4.268a5.334,5.334,0,0,0-2.258-2.79,4.819,4.819,0,0,1-2.554-2.848,5.467,5.467,0,0,1,3.834-.148,19.14,19.14,0,0,0,9.61-.567,17.1,17.1,0,0,1,3.041-.31c-1.084,2.7-.771,5.244-.281,7.781.053.274.5.472.767.705.205-.25.555-.481.591-.754.137-1.028.131-2.074.255-3.1.167-1.379.357-2.758.631-4.119.158-.782.812-1.016,1.714-.716,1.837.611,3.638,1.365,5.511,1.829a56.432,56.432,0,0,0,5.834.974,4.782,4.782,0,0,1,3.124,1.489c-2.134.173-3.5,1.755-5.292,2.535l.016.251c.3.124.675.426.9.341a15.324,15.324,0,0,1,2.908-.43,6.329,6.329,0,0,1,2.906.237,4.317,4.317,0,0,0,1.853.039c3.586-.67,7.149-1.466,10.746-2.063a30.518,30.518,0,0,1,5.233-.276,1.932,1.932,0,0,1,1.5.814,3.8,3.8,0,0,1-.054,1.922c-.016.116-.4.235-.618.261a38.885,38.885,0,0,0-4.1.595h4.511c-.2.532-2.176.889-5.034,1l3.377,1.661-.122.269a4.33,4.33,0,0,1-.861-.332c-1.938-1.26-4.056-1.134-6.212-.889-2.708.308-5.423.554-8.134.841a2.377,2.377,0,0,0-1.205.448l9.428-.611-.007.111c-1.453.637-2.883,1.336-4.368,1.888a11.209,11.209,0,0,1-2.958.686c-1.913.156-3.839.229-5.758.2a48.293,48.293,0,0,1-5.14-.379,5.92,5.92,0,0,0-3.461.78,9.091,9.091,0,0,1-1.6.556c-1.193.337-2.393.647-3.691,1l13.952,4.042a3.551,3.551,0,0,1-.557.376c-2.98,1.044-5.96,2.09-8.947,3.114a10.213,10.213,0,0,1-7.582-.416c-1.442-.616-2.952-1.075-4.433-1.6a2.407,2.407,0,0,1-.644-.208c-1.809-1.38-3.094.118-4.76.8,2.844,1.349,6.049,1.11,8.743,3.241-1.916.538-3.564,1.137-5.265,1.448-2.452.448-4.938.733-7.42.989a11.433,11.433,0,0,1-2.717-.174,1.881,1.881,0,0,0-1.9.844c-2.063,2.883-4.144,5.754-6.117,8.7a59.553,59.553,0,0,0-3.553,5.954c-1.142,2.234-2.108,4.563-3.057,6.888-.794,1.946-1.514,3.927-2.155,5.928-.7,2.178-1.267,4.4-1.892,6.6-.123.433-.273.861-.368,1.3-.206.949.383,1.44,1.357,1.53,1.5.139,2.982.472,4.468.741,1.336.241,2.664.536,4,.752,2.4.387,4.825.617,7.193,1.129,2.255.487,4.351.6,6.3-.887a1.3,1.3,0,0,1,1.019-.173c1.373.414,2.829.67,3.848,1.861.169.2.589.214.9.246.905.092,1.82.1,2.718.239a2.317,2.317,0,0,1,1.163.69c-6.727,1.415-13.471,2.561-19.987,5.065a4.545,4.545,0,0,0,4.309.176c2.107-1.439,4.39-1.113,6.686-.8a2.561,2.561,0,0,1,1.039.208c1.144.767,1.751.153,2.554-.659a12.278,12.278,0,0,1,2.629-1.569c1.553-.912,3.137-1.776,4.635-2.77,1.534-1.019,2.985-2.163,4.464-3.264a11.621,11.621,0,0,1,6.706-2.258,28.722,28.722,0,0,0,9.709-2.155,9.166,9.166,0,0,1,8.792.669,14.333,14.333,0,0,0,7.491,2.563c2.082.04,4.168.171,6.239.383a6.39,6.39,0,0,1,2.447.784,8.317,8.317,0,0,1,2.429,1.928,9.885,9.885,0,0,1,1.187,2.683c.031.082-.289.392-.485.442a4.838,4.838,0,0,1-1.08.02c.98,1.59-.064,2.984-.144,4.428-.086,1.546.241,2.233,1.724,2.658a3.374,3.374,0,0,1,.868.6l-.128.367c-.624,0-1.25.011-1.874,0a78.949,78.949,0,0,0-8.4-.108,17.51,17.51,0,0,0-5.163,1.7,13.729,13.729,0,0,1-9.458.824,12.835,12.835,0,0,1-2.4-.919,4.356,4.356,0,0,0-3.249-.328c-1.4.352-2.837.538-4.258.8-.215.04-.424.115-.69.189,1.933,2,3.311,4.444,5.792,5.788.085.046.144.154.23.18,2.38.709,3.391,3.032,5.2,4.414a.974.974,0,0,1,.254.409.32.32,0,0,1,0,.191c-3.447,0-6.88.007-10.313,0-3.065-.008-5.992-.535-8.442-2.539a7.894,7.894,0,0,1-1.218-1.638c-.156-.22-.282-.658-.424-.659a21.593,21.593,0,0,0-5.581.218l-.015.272c.772.081,1.543.171,2.316.24.9.081,1.816.1,2.712.23.641.094,1.053.5.661,1.179-1.186,2.063-2.454,4.081-4.769,5.063a4.622,4.622,0,0,1-3.237-.179c-1.167-.358-2.358-.638-3.524-1-1.133-.351-1.5.592-2.306,1.275.968.327,1.793.6,2.615.884.638.218,1.288.409,1.906.674.767.328.809.894.064,1.316a8.418,8.418,0,0,1-2.136.922c-1.972.465-3.977.791-5.951,1.251a1.988,1.988,0,0,0-1.13.813c-2.4,3.924-4.825,7.835-7.1,11.832a59.457,59.457,0,0,0-5.316,12.546c-1.379,4.67-2.65,9.371-3.969,14.059a3.16,3.16,0,0,0-.083,2.087,3.707,3.707,0,0,1-.4,2.137,19.591,19.591,0,0,0-.775,7.886c.185-1.123.358-2.249.557-3.37.479-2.708,2.179-4.552,4.31-6.1a33.819,33.819,0,0,0,5.086-3.877c1.63-1.749,3.672-2.245,5.747-2.838a19.409,19.409,0,0,0,6.134-3.258,7.7,7.7,0,0,1,4.416-1.527l-.862,1.6a2.849,2.849,0,0,1,3.052-.388c3.57,1.4,7.126.942,10.717.1,1.382-.322,2.816-.422,4.227-.624l.094.369a14.552,14.552,0,0,1-1.332.624c-2.515.894-3.611,2.888-4.171,5.312-.5,2.162-1.019,4.321-1.5,6.488a5.821,5.821,0,0,0-.012,1.225l.412.1a9.072,9.072,0,0,0,.685-1.175c.735-1.82,1.519-3.628,2.131-5.49.949-2.888,3.338-3.339,5.778-2.909a40.638,40.638,0,0,1,5.5,1.482c2.4.783,4.81.534,7.245.34a22.627,22.627,0,0,1,3.836.1c-4.283,1.842-8.539,3.65-11.365,7.725a2.948,2.948,0,0,0,.834-.266c1.435-1,2.833-2.049,4.275-3.036,1.092-.748,2.256-1.392,3.346-2.142,2.525-1.737,4.983-1.454,7.385.208a29.269,29.269,0,0,0,7.527,4.172c1.011.327,2,.714,2.98,1.137a5.951,5.951,0,0,1,1.045.681l-5.957.669.012.2c1.264,0,2.529.033,3.792-.008a7.515,7.515,0,0,1,5.61,1.988,62.256,62.256,0,0,0,5.75,4.6c1.052.752,2.335,1.178,3.514,1.922a11.378,11.378,0,0,1-2.376-.146,2.383,2.383,0,0,0-2.252.508,1.026,1.026,0,0,1-1.4.126c-1.745-1.372-3.889-1.517-5.935-1.884-2.689-.481-5.407-.795-8.113-1.177-1.335-.189-2.669-.4-4.009-.535a13.585,13.585,0,0,0-1.891.076c4.78,2.394,9.97,3.335,14.866,4.954-2.012.371-4,.8-6,1.09a12.7,12.7,0,0,1-6.323-.709c-3.87-1.456-7.73-2.938-11.608-4.372-2.394-.885-4.892-.781-7.391-.718a36.531,36.531,0,0,0,14.331,6.4l0,.26c-1,.092-2.014.117-3,.291-1.716.3-3.4.84-5.127,1.015a22.814,22.814,0,0,1-4.522-.139,48.373,48.373,0,0,1-5.19-.769,15.71,15.71,0,0,1-8.272-4.435,1.716,1.716,0,0,0-2.349-.441,9.454,9.454,0,0,1-2.124.553c2.657,3.454,6.632,4.874,10.257,7.377-1.192.184-2.1.353-3.021.46-1.322.154-2.657.216-3.974.4-1.76.25-3.5.623-5.261.871-2.646.372-5.187.18-7.412-1.553a4.983,4.983,0,0,1-2.256-3.772c-1.237.031-1.9.733-1.614,1.791.317,1.174.759,2.314,1.181,3.573a13.638,13.638,0,0,1-5.062-.314,3.773,3.773,0,0,1-.831-.234,3.452,3.452,0,0,0-4.208.855,42.921,42.921,0,0,0-3.8,3.781c-1.119,1.355-1.964,2.933-2.964,4.388a50.985,50.985,0,0,0-5.759,11.13,8.4,8.4,0,0,0-.237,2.512q-.222,5.274-.407,10.549c-.04,1.181-.01,2.363-.012,3.545h-9.816c.13-1.32.233-2.644.4-3.96.155-1.238.488-2.462.545-3.7.137-2.964.167-5.933.221-8.9a14.935,14.935,0,0,0-.061-2.971c-.616-3.3-1.339-6.576-2.023-9.872a2.919,2.919,0,0,0-.521.435c-1.1,1.484-2.2,2.969-3.255,4.48a1.693,1.693,0,0,0-.187.915c-.015,5.326-.047,10.651,0,15.976a6.885,6.885,0,0,0,.571,3.3,8.032,8.032,0,0,1,.776,4.3Zm9.938-104.626c-.355.9.47,1.61.745,2.428.623,1.86,1.33,3.7,2.1,5.5.966,2.271.859,4.647.74,7a8.309,8.309,0,0,1-2.754,6.08,3.021,3.021,0,0,0-1.332,3.069,1.433,1.433,0,0,1-.008.2c.065,2.673.048,5.352.22,8.019.168,2.6.939,5.147.8,7.794-.016.292.4.675.7.9,1.1.839,2.228,1.633,3.35,2.439.645.464,1.3.917,1.834,1.3.217-1.529.614-3.4.721-5.284.223-3.9.331-7.815.411-11.725.08-3.879.063-7.759.1-11.639.028-3.068.084-6.136.1-9.2.018-2.56,0-5.12,0-7.68l-.214-.192c-.266,1.795-1.577,1.908-2.8,1.807C3360.9,5157.094,3359.365,5156.7,3357.74,5156.409Zm9.807,3.241c.155,5.493.4,11.188.452,16.884.048,5.724-.1,11.449-.163,16.916a104.463,104.463,0,0,1,6.259-17.122,127.157,127.157,0,0,1,9.7-15.891c-2.066-.185-3.91-.33-5.75-.52a24.5,24.5,0,0,0-6.307-.232A26.24,26.24,0,0,1,3367.547,5159.65Zm.324,54.865c-.136,1.195-.276,2.223-.366,3.255-.169,1.94-.315,3.882-.461,5.825a13.662,13.662,0,0,1-.133,2.134,34.229,34.229,0,0,0-1.052,9.034c.032,1.055.005,2.112.005,2.842,1.529-2.432,3.14-5.174,4.932-7.793a29.1,29.1,0,0,1,6.756-7.054c-2.149-1.307-4.324-2.417-5.75-4.656l6.749-.755c-2.069-.26-4.147-.307-6.21-.509C3370.639,5216.672,3368.924,5216.383,3367.871,5214.515Zm-14.933-32.616c-3.979,1.5-7.829,2.611-11.9.2l1.027,2.975c1.651-.359,3.2-.716,4.756-1.029a2.469,2.469,0,0,1,3.015,1.758c.316.942-.753,1.28-1.3,1.813a4.984,4.984,0,0,1-.515.448c-1.15.843-2.185,1.976-4.027,1.439a4.372,4.372,0,0,1,.127,3.7,1.8,1.8,0,0,0-.035.96c.483,1.937,1,3.865,1.45,5.576,1.173-1,2.246-2.334,3.637-3a17.7,17.7,0,0,1,4.495-.924c0-1.008-.01-2.086,0-3.164a24.4,24.4,0,0,0,.049-2.975c-.176-1.569-.573-3.113-.76-4.682A27.187,27.187,0,0,1,3352.938,5181.9Zm9.242,59.054a15.235,15.235,0,0,1-.256-2.089c.045-3.584.043-7.173.251-10.749.1-1.805.665-3.579.935-5.379.263-1.751.418-3.519.62-5.279a20.163,20.163,0,0,0-2.139,3.059,22.163,22.163,0,0,0-1.766,3.77c-.3.931-.04,2.037-.3,2.989-.838,3.025-.3,5.946.3,8.92a75.418,75.418,0,0,1,1.135,7.85c.231,2.42.219,4.863.314,7.3a11.893,11.893,0,0,0,.035-7.8C3360.877,5242.345,3360.816,5241.668,3362.18,5240.953Zm-18.14-91.782a52.989,52.989,0,0,0-3.118,4.44,18.386,18.386,0,0,0-1.531,4.027c-.269.924.075,1.311.989,1.057a6.755,6.755,0,0,0,1.946-1.288c.561-.416,1.088-.877,1.768-1.43a3.849,3.849,0,0,1,.663-1.051c1.04-.935,2.23-.414,3.478-.231a12.074,12.074,0,0,0-1.46-2.522C3345.929,5151.125,3344.963,5150.173,3344.04,5149.171Zm-4.325,36.965a14.408,14.408,0,0,1-2.234-7.545c.224,3.481-1.635,5.311-4.5,6.09l-.373,3.83Zm52.993,9.828a5.463,5.463,0,0,0-1.522,4.255c0,.256-.106.514-.092.767a42.022,42.022,0,0,0,.322,4.218c.074.46.682.834,1.046,1.247a6.713,6.713,0,0,0,.672-1.475c.249-1.294.437-2.606.558-3.919A7.23,7.23,0,0,0,3392.708,5195.964Zm-21.133-128.893a11.789,11.789,0,0,0,3.629,4.611c1.387,1,2.755,2.024,4.151,3.01.165.116.454.056.686.077-.02-.256.046-.564-.074-.759a32.6,32.6,0,0,0-1.8-2.737A12.164,12.164,0,0,0,3371.575,5067.071Zm-14.435,72.307c.379-.593.3-1.022-.429-1.48-1.17-.732-2.234-1.634-3.333-2.477-2.412-1.85-5.365-2.43-8.133-3.627A38.9,38.9,0,0,0,3357.14,5139.378Zm-45.448,86.932c1.871-1.076,3.757-2.128,5.606-3.242a7.6,7.6,0,0,0,1.8-1.45,1.375,1.375,0,0,0,.178-1.278,1.471,1.471,0,0,0-1.23-.467,5.742,5.742,0,0,0-1.9.706C3313.892,5221.841,3312.693,5223.99,3311.692,5226.31Zm-24.514-33.7.057.522c1.213-.188,2.42-.458,3.64-.542a13.062,13.062,0,0,1,3.724.069c2.821.64,5.589,1.515,8.387,2.261.893.239,1.815.372,2.724.554l.111-.387a27.017,27.017,0,0,0-8.535-3.241A26.3,26.3,0,0,0,3287.178,5192.611Zm62.289-66-.1.388a4.463,4.463,0,0,1,.565.51c.788.991,2.516,1.13,2.551,2.808,0,.072.119.156.2.208.859.557,1.689,1.171,2.591,1.647,1.041.55,2.147.978,3.3,1.493.277-.393.231-.825-.285-1.254a13.469,13.469,0,0,1-1.113-1.105,12.551,12.551,0,0,0-5.382-3.662,11.483,11.483,0,0,1-1.425-.766A5.686,5.686,0,0,0,3349.467,5126.607Zm26.883,14.809.012.263a2.13,2.13,0,0,0,.759.145c1.41-.288,2.81-.626,4.217-.932a17.792,17.792,0,0,1,6.9-.635,32.839,32.839,0,0,0,3.857.23,8.68,8.68,0,0,0-2.524-1.282,8.033,8.033,0,0,0-4.575-.29c-1.937.577-3.877,1.14-5.818,1.7C3378.238,5140.891,3377.293,5141.15,3376.35,5141.416Zm-45.619,35.034c-1.129-1.1-10.044-.966-12.639.006C3322.324,5178.284,3326.4,5177,3330.731,5176.45Zm-13.33,36.281c1.466,0,2.884.048,4.3-.018a11.006,11.006,0,0,0,2.371-.427,1.026,1.026,0,0,0,.571-.689c.036-.174-.247-.518-.466-.626a7.659,7.659,0,0,0-4.742-.358C3318.136,5210.818,3317.907,5211.921,3317.4,5212.731Zm-35.841-9.87.022.247a13.558,13.558,0,0,0,2.575-.025,23.608,23.608,0,0,1,9.164.18,10.64,10.64,0,0,0,2,.019l.032-.394c-.282-.075-.56-.172-.846-.223-1.876-.331-3.772-.571-5.626-1C3286.235,5201.064,3283.933,5202.1,3281.56,5202.861Zm29.708-35.868-.064.27a2.736,2.736,0,0,0,.61.311,22.048,22.048,0,0,0,2.941.574,26.435,26.435,0,0,1,8.166,1.887,20.88,20.88,0,0,0,2.192.632,1.658,1.658,0,0,0-1.481-1.492c-3.32-.762-6.648-1.491-9.988-2.16A12.281,12.281,0,0,0,3311.268,5166.993Zm70.468-14.417c1.463.579,2.744,1.191,4.089,1.587,1.324.389,2.905,1.393,3.6-.871C3386.095,5151.777,3384.482,5151.6,3381.736,5152.576Zm-60.866-46.431c1.119-3.227-1.156-8.529-3.381-9.079a12.424,12.424,0,0,1,1.007,2.025c.6,1.972,1.068,3.984,1.644,5.963A4.371,4.371,0,0,0,3320.87,5106.145Zm27.847,111.23a27.989,27.989,0,0,0,2.669,10.416C3351.956,5223.926,3350.5,5220.6,3348.717,5217.375Zm6.473-8.854c-.023-1.024-.058-1.788-1.176-2.013a11.4,11.4,0,0,0-6.281.5,3.487,3.487,0,0,0-.783.567A22.916,22.916,0,0,1,3355.19,5208.521Zm-53.324-116.174-.434.4a13.277,13.277,0,0,1,1.5,1.067,7.926,7.926,0,0,1,1.455,1.671c.67,1.131,1.21,2.34,1.81,3.513.239.466.542.808,1.147.511-.487-1.2-1.023-2.332-1.419-3.517C3305.245,5093.973,3303.682,5093.031,3301.866,5092.347Zm104.1,36.637c.045-.009-.056-.012-.131.03a1.5,1.5,0,0,0-.392.28c-1.226,1.358-2.521,2.664-3.631,4.111a6.972,6.972,0,0,0-.96,2.463c-.082.308.216.716.34,1.078a3.741,3.741,0,0,0,.746-.873,16.172,16.172,0,0,1,.774-2.257C3403.73,5132.149,3404.886,5130.563,3405.962,5128.984Zm-108.43,72.151a13.494,13.494,0,0,0,6.037,1.213,2.654,2.654,0,0,0,.627-.34c-.175-.195-.322-.519-.53-.565-1.47-.321-2.946-.644-4.438-.831C3298.757,5200.552,3298.234,5200.9,3297.532,5201.135Zm48.067-60.31c.429,1.117,6.849,2.86,8.713,2.371A36.432,36.432,0,0,0,3345.6,5140.825Zm72.184-13.668c-3.11.273-5.342,2.41-7.264,5.03Zm-69.489,32.611-.269-.226c-2.015.352-4.624,3.68-4.726,5.246ZM3406,5208.617c0-.789-.592-1.011-1.1-1.078-.277-.036-.709.314-.9.6a1.932,1.932,0,0,0-.377,1.25,2.265,2.265,0,0,0,.8,1.173.916.916,0,0,0,.881-.194A11.189,11.189,0,0,0,3406,5208.617ZM3331.512,5103.5c-.117.584-.2,1.046-.3,1.5-.21.875-.477,1.739-.635,2.623-.044.246.211.545.328.82.225-.146.52-.243.66-.447a8.179,8.179,0,0,0,.541-1.118A2.867,2.867,0,0,0,3331.512,5103.5Zm58.456-29.676a3.065,3.065,0,0,0,1.448,2.509,1.429,1.429,0,0,0,1.138-.058c.113-.045.1-.642,0-.934A2.3,2.3,0,0,0,3389.968,5073.828Zm-7.679,130.535-3.616-4.754C3378.666,5201.834,3380.655,5204.558,3382.289,5204.363Zm-97.53-115.455,5.435,4.336A7.528,7.528,0,0,0,3284.759,5088.908Zm33.647,112c-.618-.13-1.07-.089-1.27-.293-.736-.753-1.3-.255-1.975.1l1.806,1.744Zm53.427-62.249c1.874.017,3.3-.968,4.7-2.029A7.021,7.021,0,0,0,3371.833,5138.659Zm-8.558-.941c.908,1.206,1.548,2.5,3.094,3.026A5.047,5.047,0,0,0,3363.275,5137.718Zm-29.786,74.766a1.49,1.49,0,0,0-1.946-.873c-.25.049-.438.416-.655.638.241.225.493.648.722.636A10.973,10.973,0,0,0,3333.489,5212.484Zm-2.7-18.532.267-.329c-.28-.336-.5-.845-.85-.974-.8-.291-1.453.184-2.247.8Zm6.994-69.351-2.457-1.3-.169.247,1.741,2.218Zm-20.944,61.956.4-.341a7.39,7.39,0,0,0-3.064-2.769Zm109.448-52.125.222.524a20.662,20.662,0,0,0,3.638-2.033l-.106-.222Zm-119.906,52.146-.163.245,3.7,1.987.208-.4Zm56.461-58.162c-.684,1.469-.5,1.809,1.2,2.2Zm-23.351,40.349c-1.034.046-.97.931-1.255,1.508-.037.073.186.274.288.416.332-.448.684-.883.982-1.353C3339.59,5169.21,3339.5,5168.978,3339.5,5168.765Zm10.96-14.657.612,1.756,1.011-1.213Zm72.011-23.725-.157-.247-3.187,2.045.137.215Zm-8.006,8.626,1.528-1.146C3414.728,5137.475,3414.347,5137.773,3414.46,5139.009Zm-82.289,81.1-1.588,1.264C3331.747,5221.749,3332.225,5221.357,3332.171,5220.108Zm47.425-74.971.069.5,2.2-.363-.048-.324Z"/><path class="i" d="M3307.539,5316.553s-3.342,6.327-3.223,8.833-1.909,10.266-1.909,10.266l-2.388,6.207-9.668,8.355h7.042s12.175-1.432,13.011-1.79,2.865,1.074,5.849,2.387a27.791,27.791,0,0,0,12.175,2.029,30.38,30.38,0,0,0,8.117-2.029l6.446-1.671,2.864-.836,5.61,1.91s12.653,5.61,24.231,5.61,28.051.836,41.3-6.565,15.539-9.622,16.83-15.756c1.706-8.106,1.826-20.4-12.259-31.739s-32.763-21.842-55.421-18.991c-18.555,2.336-38.554,15.637-38.554,15.637l-13.011,8.714s-2.149-.12-2.746-.239-3.7-.239-3.7-.239l-1.79,1.313.358,4.894,1.551,3.1Z"/><path class="j" d="M3306.447,5308.031s-1.969,1.074,0,5.013,0,5.371,0,5.371-2.865,6.445-2.506,10.205-2.507,9.489-2.507,9.489l-5.013,6.624-7.341,6.088h6.088s10.384-1.254,13.786-1.97,1.969.716,9.668,1.97,13.786,1.611,17.008,0,7.7-1.612,10.205-4.118a9.531,9.531,0,0,0,2.686-7.52c-.179-1.79-.179-4.655-2.328-6.087s2.367-3.131,2.367-3.131.14,4.563,2.288,7.07,5.909,8.594,10.743,8.773,12.711-.9,14.144-2.865"/><path class="j" d="M3328.03,5348.583l2.785-2.865,1.592-.716"/><path class="j" d="M3336.227,5330.866l-.4,3.06.4,2.084"/><path class="k" d="M3548.276,4819.063a4.281,4.281,0,0,1-3.789,2.287h-1.335l-1.477,5.559a1.49,1.49,0,0,1-.536.8v96.553h-2.808v-96.539a1.475,1.475,0,0,1-.565-.82l-1.463-5.556h-1.448a4.28,4.28,0,0,1-3.8-2.3l-10.9-20.9a4.281,4.281,0,0,1,3.8-6.262h31.531a4.281,4.281,0,0,1,3.788,6.276Z"/><ellipse class="k" cx="78.48" cy="64.925" rx="78.48" ry="64.925" transform="translate(3461.24 4913.496)"/><ellipse class="d" cx="52.082" cy="21.404" rx="52.082" ry="21.404" transform="translate(3487.638 4993.403)"/><path class="l" d="M3611.841,5361.6h0c-14.244,0-25.791-3.651-25.79-18.76v-35.956c0-15.109,11.547-20.322,25.791-20.322h0c14.244,0,25.791,5.214,25.79,20.324v35.956C3637.632,5357.954,3626.085,5361.6,3611.841,5361.6Z"/><ellipse class="h" cx="14.909" cy="4.87" rx="14.909" ry="4.87" transform="translate(3596.979 5291.109)"/><path class="m" d="M3652.045,5190.407c-.025-.029-.108-.014-.181-.012v.237C3651.931,5190.555,3652.074,5190.441,3652.045,5190.407Z"/><path class="m" d="M3651.888,5191.305c.009-.035,0-.05-.024-.057v.166A1.058,1.058,0,0,1,3651.888,5191.305Z"/><path class="h" d="M3651.648,5191.23c.044.039.163,0,.216.018v-.068C3651.728,5191.192,3651.622,5191.207,3651.648,5191.23Z"/><path class="h" d="M3651.864,5190.7v-.066c-.029.034-.047.062-.024.07C3651.845,5190.7,3651.857,5190.7,3651.864,5190.7Z"/><path class="h" d="M3651.757,5190.366c.019.027.061.03.107.029v-.112C3651.791,5190.305,3651.732,5190.331,3651.757,5190.366Z"/><path class="h" d="M3651.864,5191.5v-.089A.234.234,0,0,0,3651.864,5191.5Z"/><path class="h" d="M3651.531,5191.826c.014.109-.431.075-.335.157s.543.076.556.206-.082.288,0,.26.005.2.081.165a.2.2,0,0,0,.031-.022v-.741C3651.7,5191.856,3651.518,5191.721,3651.531,5191.826Z"/><path class="h" d="M3624.668,5294.812h-24.78a3.244,3.244,0,0,0,.146-.721,16.073,16.073,0,0,1-.1-2.238c.261-2.249.616-4.487.925-6.73a2.08,2.08,0,0,0-.019-.7c-.173-.8-.335-1.606-.567-2.39q-2.188-7.371-4.422-14.727a.885.885,0,0,0-.578-.521c-2.179-.35-4.359-.712-6.553-.947a4.232,4.232,0,0,1-2.3-1.023,20.447,20.447,0,0,0-2.879-1.95c-.564-.311-1.167-.422-1.167-1.249a1.571,1.571,0,0,1,1.058-1.7,4.679,4.679,0,0,1,1.655-.193,13.986,13.986,0,0,1,7.595,3.156c.606.488,1.248.93,1.874,1.393l.224-.218a8.939,8.939,0,0,0-.69-.809c-.736-.683-1.562-1.281-2.23-2.023a16.553,16.553,0,0,0-4.649-3.777,8.065,8.065,0,0,1-2.03-1.7c-.6-.643-.492-.987.289-1.4.746-.4,1.5-.771,2.3-1.177-.207-.178-.36-.32-.524-.448a6.557,6.557,0,0,1-2.778-3.492.784.784,0,0,0-.427-.423,51.227,51.227,0,0,1-8.226-4.324c-1.312-.883-2.686-1.673-4-2.552-.715-.477-1.325-1.119-2.059-1.561-.616-.37-.694-.73-.267-1.359a12.455,12.455,0,0,1,1.9.99,25.605,25.605,0,0,0,6.457,4.016c1.048.385,2.076.823,3.113,1.237l.041-.1-5.231-4.6,1.523-.906c-.152-.107-.221-.161-.3-.207a18.653,18.653,0,0,0-8.523-2.314c-2.8-.232-5.612-.258-8.42-.353-3.953-.133-7.906-.269-11.86-.359-2.569-.058-5.008-1.066-7.6-.975a3.788,3.788,0,0,1-1.172-.2q-3.815-1.128-7.62-2.285a19.4,19.4,0,0,0-2.6-.777c-1.634-.251-3.3-.278-4.934-.55-2.157-.36-4.3-.828-6.429-1.321-1.65-.382-3.4-.566-4.773-1.683-1.047-.855-1.969-1.863-2.97-2.777a4.578,4.578,0,0,1-1.734-3.467c0-.07-.09-.14-.138-.21v-.7a2.326,2.326,0,0,1,.667-.442,56.868,56.868,0,0,1,6.264-1.338,32.67,32.67,0,0,1,4.969.181c.618.025,1.237,0,1.657,0,.285-1.644.529-3.206.833-4.756.217-1.108.323-1.148,1.473-1.264a6.789,6.789,0,0,0,1.309-.242,15.046,15.046,0,0,1,4.453-.78,10.613,10.613,0,0,1,6.076,1.617c.846.562,1.579,1.292,2.394,1.9a1.046,1.046,0,0,0,.713.129c.273-.578.8-.556,1.3-.664.841-.18,1.668-.42,2.5-.634a4.969,4.969,0,0,1,1.087-.26c2.092-.039,3.439.048,3.805,2.533a8.618,8.618,0,0,0,2.295,4.866,8.923,8.923,0,0,1,2.337,4.386,8.866,8.866,0,0,0,.478,1.23l1.009-1.115c-.218-.224-.373-.4-.545-.558-1.921-1.766-2.284-5.651-1.285-7.288.838-1.374,1.725-2.719,2.626-4.053a.666.666,0,0,1,.633-.072c1.7,1.011,3.378,2.058,5.067,3.088.184.112.461.3.59.234.7-.34,1.36-.749,2.172-1.212-1.313-1.3-2.569-2.551-3.847-3.782-.131-.125-.393-.114-.595-.165l-3.521-.89a1.645,1.645,0,0,1-1.293-1.6,3.513,3.513,0,0,1,2.237-.274c3.328.438,5.882,2.383,8.427,4.343l.731.569a1.625,1.625,0,0,0-.174-.855,8.739,8.739,0,0,1-.839-5.248,10.468,10.468,0,0,1,3.683-5.972,1.369,1.369,0,0,1,1.339-.341,6.682,6.682,0,0,1,3.707,1.834,2.124,2.124,0,0,1,.588,1.126c.108,1.235.1,2.48.142,3.721a3.811,3.811,0,0,0,.071.473l.185.057a12.1,12.1,0,0,1,5.334-6.007c.38.018.715.058,1.049.046,1.217-.045,2.438-.206,3.648-.144a35.516,35.516,0,0,1,10.546,2.423c.585.216,1.182.4,1.774.6l.153-.246c-.248-.31-.472-.644-.749-.927-.778-.8-1.409-1.782-.743-3.034.458.349.874.718,1.339,1.009a17.881,17.881,0,0,0,5.911,2.741c.676.137.927-.04,1.095-.636a6.636,6.636,0,0,1,1.7-3.032,23.285,23.285,0,0,1,1.949-1.52c-.285-.175-.5-.321-.724-.442a16.774,16.774,0,0,0-2.478-1.28c-3.312-1.1-6.633-2.18-9.988-3.14-1.861-.532-3.82-.717-5.689-1.227a23.2,23.2,0,0,0-7.7-.939.97.97,0,0,1-1.059-.521c-.556-1.17-1.1-2.343-1.664-3.541.362-.157.59-.277.832-.357.863-.289,1.722-.592,2.6-.836a8.224,8.224,0,0,1,2.425-.53,63.849,63.849,0,0,1,6.768.574,30.383,30.383,0,0,1,12.247,4.789,12.174,12.174,0,0,1,4.015,3.971,2.088,2.088,0,0,1,.142,1.389c-.093.406-.225.721.216.928.671.316,1.351.2,1.555-.246a18.764,18.764,0,0,1,1.086-2.416,4.287,4.287,0,0,0,.613-2.391c.008-.793.113-1.585.1-2.376a1.974,1.974,0,0,0-.344-.994c-.558-.834-1.185-1.621-1.756-2.447-.557-.8-1.054-1.65-1.634-2.436a1.035,1.035,0,0,0-.774-.338,11.361,11.361,0,0,1-5.19-1.246q-3.008-1.323-6.048-2.575a26.586,26.586,0,0,1-7.02-4.15c-.573-.479-1.057-1.07-1.649-1.521a13.13,13.13,0,0,1-3.744-4.745,2.247,2.247,0,0,1-.084-.6c3.938-.063,7.676-1.449,11.61-.985a3.786,3.786,0,0,0-1.285-.523,7.4,7.4,0,0,1-4.733-2.869,6.328,6.328,0,0,1-1.612-3.039,1.067,1.067,0,0,1,.372-1.1c1.7-1.461,3.788-1.784,5.876-1.97a19.728,19.728,0,0,1,4.411.132,24.625,24.625,0,0,1,5.091,1.132,9.5,9.5,0,0,1,5.346,3.976c.587,1.025,1.225,2.056.686,3.354a1.062,1.062,0,0,0,.288.919,18.672,18.672,0,0,1,2.63,3.6c.037.054.1.107.1.164.031.368.027.369.535.39.128-2.14.266-4.282.369-6.426.008-.178-.2-.388-.343-.546-.509-.548-1.222-.8-1.769-1.372-.94-.989-1.734-2.063-2.567-3.13-1.656-2.118-3.434-4.141-5.14-6.22-1.276-1.555-2.538-3.122-3.769-4.713-.883-1.141-1.692-2.339-2.56-3.492-.5-.664-1.049-1.288-1.705-2.087,2.979.759,5.077,2.634,7.4,4.159a1.422,1.422,0,0,0-.108-.776c-1.709-2.972-.119-7.554,1.909-9.427a4.617,4.617,0,0,1,1.733-1.134,5.28,5.28,0,0,1,3.252.026c1.927.707,3.985,1.175,5.44,2.879.089-.172.166-.309.233-.45.578-1.222,1.087-2.481,1.743-3.659a11.519,11.519,0,0,1,6.622-5.5c.132-.044.234-.181.351-.275h2.111c.041,2.53.095,5.059.111,7.588a5.361,5.361,0,0,1-.207,1.809c-.638,1.778-1.347,3.532-2.067,5.278a14.249,14.249,0,0,1-4.374,6.174,5.161,5.161,0,0,0-1.86,2.817c-.034.111-.1.215-.126.327-.264,1.04-.522,2.082-.782,3.123l.215.107c.214-.164.417-.348.645-.49a12.954,12.954,0,0,1,2.929-1.742c3.566-1.031,7.16-2,10.959-1.349a8.978,8.978,0,0,1,4.162,1.7.978.978,0,0,1,.358.5c.372,1.755.145,3.4-1.515,4.548a16.523,16.523,0,0,1-2.7,1.291c-.7.313-1.423.584-2.135.874l.107.283c3.094-.9,6.326-1.317,9.431-2.988.085,1.313.188,2.465.211,3.619a.816.816,0,0,1-.476.628,9.689,9.689,0,0,0-3.662,1.686c-1.232.8-2.332,1.81-3.585,2.569-2.735,1.655-5.541,3.193-8.3,4.812a39.475,39.475,0,0,1-3.819,2.352,8.207,8.207,0,0,0-3.725,3.572,10.2,10.2,0,0,0-.537,1.205,3.809,3.809,0,0,0,1.12-.468,49.254,49.254,0,0,1,4.583-2.413,13.7,13.7,0,0,0,5.858-4.311,11.581,11.581,0,0,1,1.7-1.483l1.907,3.315c-.179.12-.239.156-.293.2a18.146,18.146,0,0,0-2.569,2.042c-1.675,1.888-3.161,3.941-4.826,5.837-2.382,2.711-4.88,5.32-7.268,8.025a4.438,4.438,0,0,0-.938,2c-.042.206.793.562,1.189.894a.755.755,0,0,0,1.017.057c.571-.4,1.144-.812,1.673-1.268.769-.662,1.5-1.368,2.3-2.1.885,1.144,1.631,2.185,2.455,3.158a19.375,19.375,0,0,1,3.334,4.661,3.975,3.975,0,0,1,.389,1.728c-.115,1.9-1.823,2.394-3.112,3.165a10.368,10.368,0,0,1-2.638.881c-1.664.446-3.343.839-5.012,1.273a3.631,3.631,0,0,0-.7.351c.594.252,1.133.286,1.619.466a8.39,8.39,0,0,1,1.474.8c.6.377.784.326.97-.377.13-.49.228-.989.336-1.465,1.6.426,3.144.8,4.659,1.258.608.183.967.068,1.231-.481a.709.709,0,0,1,.264-.315c.132-.069.4-.134.439-.079a.962.962,0,0,1,.176.564c-.006.137-.15.282-.259.4-.386.413-.186.694.177.979a27.688,27.688,0,0,1,2.171,1.767,14.9,14.9,0,0,1,4.653,8.5,6.565,6.565,0,0,0,.236.82l4.632-2.22a1.51,1.51,0,0,0-.094-.346c-.847-2-1.641-4.022-2.567-5.983q-1.542-3.269-3.293-6.436c-.766-1.384-1.722-2.662-2.554-4.012a.774.774,0,0,1,.08-.706c.373-.461.414-1.222,1.165-1.345.054-.009.12.066.183.1.968.462,1.975.858,2.9,1.4a19.734,19.734,0,0,1,4.952,4.307,14.36,14.36,0,0,1,3.361,8.173c.066.644.122,1.29.178,1.894,1.392,0,2.723.021,4.053-.019a1.163,1.163,0,0,0,.684-.422c.947-1.063,1.873-2.145,2.793-3.232a.8.8,0,0,0,.2-.5,9.683,9.683,0,0,0-.276-2.43,11.4,11.4,0,0,0-1.29-2.207c-.422-.672-.835-1.352-1.31-1.985-1.627-2.168-3.371-4.253-4.893-6.491a4.768,4.768,0,0,1-.232-5.719,6.555,6.555,0,0,1,2.291-1.748c.353-.19.971.069,1.455.18a11.083,11.083,0,0,1,1.539.469c1.122.437,2.23.907,3.365,1.372.052-.723.106-1.483.161-2.243a10.176,10.176,0,0,1,2.136-6.039,10.374,10.374,0,0,1,5.113-3.3,1.2,1.2,0,0,1,.954.135,29.139,29.139,0,0,1,2.27,2.1c.845.861,1.641,1.771,2.5,2.7.13-.219.233-.394.338-.568a13.829,13.829,0,0,1,3.777-4.385c2.445-1.715,5.267-2.6,8.017-3.64a.7.7,0,0,1,.624.243c.728,1.242,1.466,2.484,2.1,3.777.541,1.112.474,1.076,1.753.957,1.575-.146,3.162-.168,4.921-.252a6.408,6.408,0,0,1-.584.931c-.815.873-1.661,1.717-2.488,2.579-2.821,2.941-5.615,5.909-8.468,8.819-1.473,1.5-3.027,2.93-4.581,4.352-1.133,1.038-2.329,2.008-3.487,3.021a1.511,1.511,0,0,0-.46.584c-.24.706-.435,1.428-.631,2.148a11.214,11.214,0,0,1-2,3.978c-.951,1.217-2.453,1.357-3.806,1.753a6.936,6.936,0,0,1-1.246.141l-1.063.1c.031.519.205.991.04,1.213a5.418,5.418,0,0,1-1.2.935c-1.428,1.061-2.951,2.016-4.259,3.207-2.179,1.984-4.226,4.113-6.314,6.195-.488.486-.918,1.03-1.363,1.534.53.5,1.04.913,1.464,1.4.3.352.541.83.063,1.237-1.119.952-2.245,1.9-3.4,2.8-.684.536-1.431.991-2.235,1.541,2.557.805,4.9,1.711,7.564,1.435-.405,1.7-.641,3.259-2.11,4.232a.78.78,0,0,0-.2.651c.191,1.153.4,2.305.662,3.442.184.793.467,1.562.75,2.486.357-.4.6-.642.819-.91,1.126-1.377,2.257-2.752,3.363-4.146.357-.45.7-.637,1.24-.3a10,10,0,0,0,.984.5c1.147-.678.979-1.552.558-2.479-.531-1.169-1.01-2.361-1.579-3.511-.746-1.508-1.538-3-2.352-4.469a11.808,11.808,0,0,0-1-1.344c2.671.909,4.8,2.676,7.162,4.223.133-.4.246-.718.351-1.043a17.551,17.551,0,0,1,3.062-5.642.744.744,0,0,1,1.18-.189,20.092,20.092,0,0,1,1.916,1.52c1.034,1,2,2.072,3.024,3.138a1.579,1.579,0,0,0,.2-.314c.659-1.794,1.294-3.6,1.974-5.384.147-.384.408-.971.686-1.014.892-.138,1.261-.8,1.753-1.37a11.3,11.3,0,0,1,8.9-4.165.773.773,0,0,1,.586.415,10.69,10.69,0,0,1,.653,4.685c-.123.875-.217,1.754-.347,2.817a17.483,17.483,0,0,1,7.035-3.441c2.957-.671,6.8-.918,7.617-.5-.276.309-.551.659-.868.966a36.164,36.164,0,0,0-2.832,2.721,20.858,20.858,0,0,1-4.894,4.382c-.442.28-.881.565-1.5.962,1.056.493.923,1.272.966,2.058a3.925,3.925,0,0,0,.61,1.665c.4.682.982,1.258,1.373,1.944.736,1.286.343,3.061-.844,3.529a9.72,9.72,0,0,1-3.35.854,39.67,39.67,0,0,1-5.577-.5,12,12,0,0,1-2.541-.725c-.975-.362-1.64.447-2.492.568a8.424,8.424,0,0,0-2.647.8c-2.19,1.133-4.322,2.377-6.472,3.585-1.757.987-3.556,1.911-5.242,3.007a30.549,30.549,0,0,0-3.425,2.76c-.691.607-1.245,1.369-1.934,1.979-.556.492-1.3.78-1.824,1.3-2.681,2.682-5.317,5.408-7.964,8.124-.033.034,0,.128,0,.342l3.121-.869a24.747,24.747,0,0,1-1.168,2.592,5.924,5.924,0,0,1-1.529,1.862,17.151,17.151,0,0,0-4.936,5.4c-.291.486-.608.957-.982,1.543l6.548.434a7.963,7.963,0,0,1-1.837,5.3c-1.35,1.667-2.887,3.187-4.389,4.725a18.523,18.523,0,0,1-2.589,2.309,26.193,26.193,0,0,1-6.742,3.836,1.075,1.075,0,0,0-.543.577c-.574,1.385-1.116,2.784-1.656,4.182-.2.513-.36,1.039-.531,1.537Zm-36.753-74.43.057.161c1.536.351,3.068.722,4.611,1.038a1.431,1.431,0,0,0,.923-.171,15.374,15.374,0,0,1,4.619-1.716.839.839,0,0,1,.685.339,3.355,3.355,0,0,1,.523,2.744,3.438,3.438,0,0,1,.539.063c1.4.416,2.819.789,4.193,1.282a1.006,1.006,0,0,1,.626,1.479c-.195.549-.053.746.537.79,1.027.075,2.047.233,3.162.368-.033.074.04-.025.056-.133.1-.677.175-1.356.268-2.033a1.231,1.231,0,0,0-.783-1.46,21.988,21.988,0,0,1-2.823-1.663c-1.709-1.162-3.427-2.32-5.05-3.594-1.372-1.078-2.63-2.3-3.912-3.492-.751-.7-1.441-1.459-2.179-2.17a2.517,2.517,0,0,0-.631-.324c-.024.146-.036.171-.029.191.069.2.14.393.214.588a3.881,3.881,0,0,1-.787,4.418,15.991,15.991,0,0,1-2.372,1.846C3589.58,5219.466,3588.733,5219.9,3587.915,5220.382Zm-4.351-3.619a42.47,42.47,0,0,1,3.374-3.113c1.429-1.066,3.011-1.927,4.523-2.884.306-.193.594-.415.89-.624l0-.271c1.23.791,2.488,1.544,3.685,2.383,1.788,1.253,3.623,2.336,5.906,2.3.283-.005.566.037.949.065a6.064,6.064,0,0,0-3.587-2.983c-5.241-1.616-10.466-3.285-15.7-4.917-.687-.214-1.4-.334-2.106-.5l-.1.169c.258.408.5.826.777,1.221a3.112,3.112,0,0,1,.182,3.552c-.774,1.389-1.553,2.774-2.323,4.165a3.118,3.118,0,0,0-.156.532A3.871,3.871,0,0,1,3583.564,5216.763Zm16.005-44.221a3.37,3.37,0,0,0,.483.374,18.529,18.529,0,0,1,5.477,4.437c2.149,2.388,3.226,5.053,1.823,8.262a1.129,1.129,0,0,0,.214.91c.563.759,1.205,1.458,1.794,2.2a4.848,4.848,0,0,1,.494.839,2.567,2.567,0,0,1,.139.477c.108-.171.294-.335.312-.515.2-2.109.379-4.221.561-6.332a30.582,30.582,0,0,0,.246-3.189c-.031-1.528.525-3.215-.97-4.435-.065-.054-.074-.172-.13-.244-.906-1.18-1.811-2.361-2.726-3.535a.771.771,0,0,0-1.051-.2,5.857,5.857,0,0,1-1.61.432C3602.983,5172.218,3601.334,5172.363,3599.569,5172.542Zm-8.805,51.2c-1.685-.318-3.241-.624-4.8-.89a.779.779,0,0,0-.572.269c-.664.726-1.286,1.49-1.945,2.22a13.966,13.966,0,0,0-2.873,4.779c-.369,1.058-.273,1.267.575,1.95a3.985,3.985,0,0,1,1.7,3.906,1.734,1.734,0,0,0,.542,1.165,4.023,4.023,0,0,0,1.1.614c.441-.614.887-1.209,1.294-1.829.07-.106-.014-.32-.039-.482a7.048,7.048,0,0,1-.257-1.764,12.827,12.827,0,0,1,2.557-6.221C3588.923,5226.252,3589.807,5225.046,3590.764,5223.74Zm33.505-56.849-.051-.141a1.357,1.357,0,0,0-.241-.025c-1.538.121-3.074.28-4.614.355a8.567,8.567,0,0,1-2.292-.159,1,1,0,0,0-1.138.367,16.079,16.079,0,0,0-2.8,5.365,6.111,6.111,0,0,0-.412,1.454c-.114,1.162-.176,2.332-.2,3.5-.033,1.37-.008,2.741-.008,4.2l1.547-1.781c-.275-.423-.65-.735-.623-1.006a7.586,7.586,0,0,1,.552-2.708,21.9,21.9,0,0,1,2.559-3.834,18.871,18.871,0,0,1,6.867-5.1C3623.706,5167.244,3623.982,5167.055,3624.269,5166.891Zm-55.284,67.614a3.693,3.693,0,0,0-3.3-1.343,11.747,11.747,0,0,1-6.7-2.138c-.842-.523-1.679-1.055-2.494-1.567,0,1.224,0,2.364,0,3.5a1.029,1.029,0,0,0,.115.326,1.821,1.821,0,0,0,1.5,1.073,23.168,23.168,0,0,0,6.172.951C3566.178,5235.256,3569.269,5234.879,3568.985,5234.5Zm42.733-67.848c.086-.4.13-.526.14-.659.111-1.491.246-2.981.305-4.475a5.263,5.263,0,0,0-.246-1.554c-.234-.866-.556-1.709-.784-2.576-.13-.5-.24-.963-.8-1.123-.863-.246-1.741-.445-2.59-.732a11.56,11.56,0,0,1-1.439-.714.822.822,0,0,0,.2.589,14.7,14.7,0,0,1,2.8,4.887c.409,1.234.678,2.465-.573,3.409Zm-18.768,80.5c-1.061-1.1-.915-2.38-.578-3.685-.6-.652-1.2-1.305-1.814-1.95a1.045,1.045,0,0,0-.161.113l-1.316-1.919a4.341,4.341,0,0,0-1.922,3.595,3.045,3.045,0,0,0,1.07,1.854c1.063.819,2.3,1.4,3.449,2.122A.858.858,0,0,0,3592.95,5247.161Zm35.191-.873c2.895-1.3,5.509-2.8,8.52-2.84-.36-1.185-.692-2.29-1.039-3.391-.028-.09-.183-.227-.236-.21-.82.271-1.768.05-2.488.74a13.634,13.634,0,0,1-2.562,2.179C3628.952,5243.544,3628.648,5244.83,3628.141,5246.288Zm-21.934-1.976a11.153,11.153,0,0,0-4.729-3.118c-.494,1.15-1.013,2.319-1.484,3.508a.7.7,0,0,0,.229.589c.716.6,1.454,1.18,2.212,1.727a.673.673,0,0,0,.625.04C3604.116,5246.173,3605.141,5245.251,3606.207,5244.312Zm11.05-25.145c-1.478.5-1.92,2.036-2.705,3.157,1.5.9,2.925,1.731,4.323,2.6a2,2,0,0,0,2.24-.058C3619.857,5223.01,3618.6,5221.149,3617.257,5219.167Zm-5.935,58.04-.255-.023c-.2.291-.582.588-.573.872a13.05,13.05,0,0,0,.336,2.695c.516,2.1,1.113,4.186,1.686,6.275a7.626,7.626,0,0,0,.3.759l.218-.04c.174-1.6.4-3.2.495-4.8a4.435,4.435,0,0,0-.418-1.646c-.1-.283-.4-.493-.513-.774C3612.149,5279.427,3611.743,5278.314,3611.322,5277.207Zm9.932-26.962c.49-.077,1-.134,1.5-.245.178-.04.454-.2.466-.326a9.311,9.311,0,0,0,.048-1.974,18.2,18.2,0,0,0-.528-2.453c-.238-.89-.945-1.094-1.639-.475a9.244,9.244,0,0,0-1.256,1.316,1.023,1.023,0,0,0-.115.856C3620.186,5248.037,3620.716,5249.1,3621.254,5250.245Zm3.732-15.214c1.29-.665,2.528-1.3,3.757-1.947a.494.494,0,0,0,.209-.329,2.774,2.774,0,0,0-1.958-2.309.615.615,0,0,0-.269.055c-.816.347-1.634.688-2.438,1.059-.122.056-.272.291-.242.4C3624.336,5232.978,3624.662,5233.99,3624.986,5235.031Zm-12.236,40.594c-.16.151-.312.238-.373.367-.092.2-.237.495-.157.622.6.947,1.242,1.862,1.9,2.827a2.991,2.991,0,0,0,.146-.445c.251-1.354.45-2.719.753-4.06a2.765,2.765,0,0,0-.4-2.265c-.2-.306-.4-.617-.71-1.1a4.128,4.128,0,0,0-.821.926c-.278.637-.391,1.344-.646,1.993C3612.262,5274.951,3612.2,5275.324,3612.75,5275.625Zm-16.009-42.03c.535.33,1.007.587,1.438.9.332.241.54.163.849-.068,1.285-.962,2.6-1.882,3.905-2.821.121-.087.227-.194.436-.374-.553-.259-1.024-.453-1.468-.695a1.042,1.042,0,0,0-1.279.073c-1.17.887-2.378,1.724-3.565,2.589A2.334,2.334,0,0,0,3596.741,5233.6Zm5.639,48.717c1.145-.552,1.327-.836.98-1.7-.783-1.945-1.6-3.877-2.42-5.806a3.743,3.743,0,0,0-.506-.692l-.223.1Zm-7.766-36.185c-.5.765-.9,1.376-1.286,2-.055.09.009.259.031.39.108.637.2,1.279.344,1.908a.794.794,0,0,0,.383.519c.127.049.423-.12.527-.272.461-.673.9-1.365,1.3-2.075a.822.822,0,0,0,.073-.688C3595.621,5247.352,3595.176,5246.843,3594.614,5246.127Z"/></g></svg>