<svg xmlns="http://www.w3.org/2000/svg" xmlns:xlink="http://www.w3.org/1999/xlink" width="435.576" height="409.432" viewBox="0 0 435.576 409.432"><defs><style>.a{fill:url(#a);}.b{fill:#7b9069;stroke:#ebf1fb;stroke-linejoin:bevel;}.b,.c,.e,.g,.l,.m,.n,.o{stroke-width:2px;}.c,.i,.l{fill:#fff;}.c{stroke:#04181d;}.c,.e,.g,.k,.l,.m,.n,.o{stroke-miterlimit:10;}.d{fill:#04181d;}.e,.g,.k{fill:none;}.e,.k{stroke:#06181d;}.f{fill:#172e31;}.g{stroke:#fff;}.h{fill:#416159;}.j{fill:#06181d;}.k{stroke-width:3px;}.l,.m,.n,.o{stroke:#0f3339;}.m{fill:#193639;}.n{fill:#c1cf87;}.o{fill:#182a2f;}.p{fill:#b7c7d0;}</style><linearGradient id="a" x1="0.188" y1="-0.492" x2="1.126" y2="-0.492" gradientUnits="objectBoundingBox"><stop offset="0" stop-color="#5e734e"/><stop offset="0.995" stop-color="#9cb189"/></linearGradient></defs><g transform="translate(-1441.336 -764.092)"><path class="a" d="M1742.107,1014.123q-.4.153-.8.309a6.49,6.49,0,0,1-8.449-3.787l-.024-.065a150.3,150.3,0,0,0-195.776-86.585c-75.311,29.713-113.71,114.892-86.1,191a150.406,150.406,0,0,0,211.967,81.472c21.319-11.323,46.9-12.168,68.29-.982a99.3,99.3,0,0,0,80.847,5.116c50.606-18.815,77.185-75.406,59.268-126.337A99.583,99.583,0,0,0,1742.107,1014.123Z" transform="translate(0 -40.61)"/><path class="b" d="M1670.276,1117.12c2.636-5.273,36.615-74.694,40.423-77.916s13.767-5.566,17.575-6.151.585-6.737.585-9.08.293-19.333,5.272-32.514,8.788-23.141,13.768-26.948a26.882,26.882,0,0,1,15.524-5.273c5.128.081,15.252,2.613,19.061,7.593s11.752,23.4,12.889,30.953c1.367,9.081,5.544,22.674,4.959,28.532s7.909,5.859,11.424,7.909,7.908,15.525,8.2,25.484-.293,58.584-1.172,61.513-4.979,9.959-6.444,13.474-2.636,5.565-1.464,9.666,4.979,12.6,5.273,16.7a3,3,0,0,1-.123,1.017" transform="translate(-61.247 -52.895)"/><g transform="translate(1484.098 867.177)"><g transform="translate(24.173 155.036)"><path class="c" d="M1555.654,1194.112h0c-11.9.324-21.651-3.135-22.072-18.538l-1-36.656c-.419-15.4,9.084-20.982,20.986-21.306h0c11.9-.324,21.7,4.728,22.115,20.132l1,36.656C1577.1,1189.8,1567.556,1193.788,1555.654,1194.112Z" transform="translate(-1532.571 -1117.597)"/><ellipse class="d" cx="15.301" cy="5.54" rx="15.301" ry="5.54" transform="translate(6.355 5.31) rotate(-1.56)"/></g><path class="d" d="M1537.755,1071.966a11.542,11.542,0,0,0-.5-2.685c-.163-.6-.249-1.224-.394-1.831-.084-.351-.241-.683-.328-1.033-.214-.873-.394-1.754-.611-2.625-.121-.488-.3-.961-.431-1.448-.132-.506-.177-1.042-.358-1.528a3.938,3.938,0,0,0-.523-1.356c-.022-.026-.017-.073-.028-.108q-.27-.835-.542-1.669c-.1-.293-.189-.586-.294-.876-.159-.44-.324-.879-.49-1.317-.213-.568-.421-1.139-.645-1.7-.193-.485-.415-.959-.608-1.444-.18-.45-.323-.915-.513-1.362s-.408-.869-.623-1.3c-.338-.675-.66-1.36-1.035-2.015a7.438,7.438,0,0,0-.991-1.436c-.521-.549-1.142-1-1.709-1.509-.206-.184-.379-.406-.573-.6-.366-.375-.732-.748-1.1-1.116-.838-.83-1.719-1.621-2.509-2.495-.8-.891-1.512-1.869-2.279-2.8a15.5,15.5,0,0,0-2.1-2.376c-.267-.216-.45-.533-.7-.777-.264-.262-.555-.5-.841-.735a18.616,18.616,0,0,0-1.823-1.493,27.6,27.6,0,0,1-3.056-2.9c-.11-.1-.216-.2-.351-.318.079-.183.1-.461.463-.208.113.079.315.03.509.041-.014-.121.008-.232-.037-.282a6.856,6.856,0,0,0-.911-.942c-.659-.494-.848-1.294-1.329-1.9-.141-.178.112-.49.359-.413.269.083.383-.084.566-.185a.735.735,0,0,1,.535-.085,7.589,7.589,0,0,1,.919.494c.727.4,1.449.806,2.185,1.186a21.209,21.209,0,0,0,1.951.936,12.674,12.674,0,0,1,1.648.989,7.6,7.6,0,0,0,.983.393l-.266,1.357c.793.259,1.58.519,2.369.77a2,2,0,0,0,.34.025c.185.025.429,0,.542.1.368.348.837.272,1.256.4a5.993,5.993,0,0,1,1.068.522c.377.2.746.416,1.118.624.177.1.362.188.53.3a4.642,4.642,0,0,0,1.089.54c.377.132.66.516,1,.761.255.18.623.253.8.483a2.489,2.489,0,0,0,.967.605,1.381,1.381,0,0,1,.765,1.353,10.426,10.426,0,0,0,.033,1.07c.03.307-.134.669.235.9.054.034.014.217.017.332l.1-.055q.387.588.775,1.177a1.865,1.865,0,0,0,.16.233c.23.26.471.511.7.773.181.209.33.449.525.642a2.35,2.35,0,0,1,.543,1.934,2.32,2.32,0,0,1-.055.484c-.052.2-.161.391-.2.595-.059.28,0,.619-.132.844a11.345,11.345,0,0,1-1.083,1.455c-.113.134-.351.162-.56.251a4.232,4.232,0,0,1,0,.961c-.037.26.275.575.444.859.058.1.176.16.225.259.244.5.5.994.705,1.507.229.56.407,1.141.62,1.707.072.19.2.359.28.547.248.574.473,1.158.732,1.726.171.377.4.728.572,1.1.11.235.141.508.264.734a4.019,4.019,0,0,0,.472.59c.029.034.083.059.091.1a5.512,5.512,0,0,0,1.078,2.093,3.854,3.854,0,0,1,.667,1.386c.038.162.173.324.231.522.208.7.468,1.387.723,2.073.211.571.438,1.139.669,1.7.29.709.549,1.436.9,2.113a5.344,5.344,0,0,1,.5,1.717,1.393,1.393,0,0,0,.165.356l.135-.041c-.007-.282-.006-.565-.026-.847-.023-.327-.085-.653-.094-.98-.1-3.4-.183-6.808-.288-10.211-.05-1.6-.115-3.2-.212-4.805-.08-1.326-.215-2.649-.333-3.972-.1-1.158-.2-2.317-.33-3.473-.058-.535-.188-1.061-.262-1.594-.081-.587-.127-1.179-.2-1.766-.153-1.2-.317-2.393-.472-3.59-.042-.326-.076-.653-.108-.98-.112-1.155-.189-2.317-.342-3.467-.141-1.056-.363-2.1-.552-3.151-.011-.06-.046-.116-.057-.177a10.793,10.793,0,0,0-.4-2.036c-.164-.411-.115-.819-.243-1.215s-.154-.838-.255-1.251c-.2-.8-.412-1.6-.624-2.4q-.277-1.041-.564-2.077c-.151-.538-.316-1.071-.469-1.608-.13-.457-.241-.92-.379-1.374-.158-.519-.341-1.031-.508-1.547-.1-.315-.2-.633-.288-.953-.134-.492-.227-1-.392-1.478a7.009,7.009,0,0,0-.486-.949c-.016-.03-.054-.054-.058-.084a1.493,1.493,0,0,0-.229-.727,10.3,10.3,0,0,1-.527-1.337c-.331-.684-.719-1.339-1.074-2.011-.159-.3-.282-.62-.443-.92-.31-.579-.642-1.147-.953-1.725-.292-.542-.523-1.123-.863-1.634-.669-1.006-1.385-1.98-2.1-2.956q-.7-.957-1.441-1.88a7.167,7.167,0,0,1-.746-.828,2.227,2.227,0,0,0-.531-.694,3.079,3.079,0,0,0-.445-.241c.042-.437-.382-.72-.7-1.04-.629-.628-1.278-1.239-1.946-1.825-.9-.789-1.818-1.553-2.738-2.317-.683-.566-1.379-1.117-2.072-1.67-.452-.36-.911-.713-1.367-1.068-.421-.327-.838-.658-1.263-.978-.874-.66-1.758-1.305-2.626-1.973-.71-.547-1.39-1.135-2.107-1.672-.639-.477-1.313-.906-1.97-1.359-.305-.211-.606-.43-.907-.648-.7-.5-1.4-.991-2.082-1.5-.4-.3-.78-.639-1.172-.956-.458-.37-.931-.723-1.376-1.108-.6-.522-1.173-1.086-1.785-1.6a1.283,1.283,0,0,1-.529-1.042c0-.133-.12-.269-.192-.4-.131-.236-.116-.466.151-.549a1.64,1.64,0,0,1,.781-.056c.108.021.167.291.224.574,1.231-.081,2.461-.2,3.693-.227.66-.015,1.309-.318,1.99-.016a13.288,13.288,0,0,0,2.44.577c.14.033.271.232.346.384a.869.869,0,0,1,.021.415c-.023.372.125.516.5.637.929.3,1.83.689,2.734,1.065.814.339,1.6.756,2.431,1.048.728.256,1.5.372,2.251.579.611.169,1.21.383,1.816.572a3.369,3.369,0,0,0,.471.119c.536.086.663.335.532.851a3.828,3.828,0,0,0-.136,1.258.983.983,0,0,0,.463.614,5.955,5.955,0,0,0,1.582.765c.794.191,1.471.649,2.255.844a3.327,3.327,0,0,1,.941.454c.187.119.415.293.128.572-.057.056-.012.217.07.252.649.554,1.316,1.088,1.942,1.666s1.206,1.2,1.812,1.8a11.6,11.6,0,0,0,1.2,1.125c.631.465,1.107,1.084,1.7,1.584.306.258.593.542.921.77a2.342,2.342,0,0,0,.639.2l.032.32.416.026c.026.2.069.42.271.264a2.023,2.023,0,0,0,.282.334c.619.469,1.241.934,1.877,1.38.1.069.271.029.43.041-.04.252.045.416.29.646.349.327.747.559,1.111.847a.239.239,0,0,1,.07.087c.1.23.194.46.3.71a1.875,1.875,0,0,1,.678-.063c.132.04.2.288.343.419a3.029,3.029,0,0,0-.15-1.686,19.33,19.33,0,0,0-.672-2.295c-.143-.331-.08-.718-.278-.96-.312-.382-.192-.809-.3-1.206a3.511,3.511,0,0,0-.468-.921,11.664,11.664,0,0,1-.994-2.352c-.322-.9-.746-1.759-1.125-2.635-.222-.514-.435-1.032-.675-1.536a1.642,1.642,0,0,0-.353-.455,5.456,5.456,0,0,1-.973-1.79c-.339-.717-.5-1.523-.877-2.218a19.064,19.064,0,0,1-1.016-3.163,20.051,20.051,0,0,1-.484-2.428c-.161-.808-.339-1.612-.5-2.419-.05-.246-.064-.5-.117-.745a7.524,7.524,0,0,0-.225-.826c-.295-.858-.613-1.707-.9-2.568-.193-.579-.324-1.179-.524-1.755-.227-.653-.5-1.29-.751-1.935a.139.139,0,0,1-.01-.037,18.976,18.976,0,0,0-.741-2.8,8.709,8.709,0,0,0-.609-1.635,20.665,20.665,0,0,1-.89-2.333c-.141-.449-.119-.947-.219-1.412a4.2,4.2,0,0,0-.334-.818c-.123-.267-.266-.526-.393-.792-.22-.461-.454-.917-.648-1.389-.212-.517-.387-1.05-.575-1.578-.087-.245-.184-.489-.247-.74-.129-.52-.228-1.046-.358-1.565s-.282-1.017-.414-1.527c-.141-.542-.244-1.1-.41-1.629-.15-.481-.369-.94-.548-1.411a3.461,3.461,0,0,1-.416-1.557c.013-.146-.217-.3-.274-.47-.166-.495-.295-1-.451-1.5-.065-.206-.176-.4-.242-.606-.181-.555-.315-1.129-.529-1.671-.446-1.13-.986-2.225-1.386-3.37a12.216,12.216,0,0,1-.874-4.368,2.18,2.18,0,0,1,1.766-2.33c.288-.076.568-.092.694-.488a.567.567,0,0,1,.774-.263,3.931,3.931,0,0,0,1.885.441c.135-.016.293.113.434.188.481.256.962.514,1.437.782a.454.454,0,0,1,.154.209c.242.54.787.729,1.2,1.07.738.606,1.443,1.251,2.154,1.889a7.277,7.277,0,0,1,1.139,1.1,5.89,5.89,0,0,0,.977.934,13.986,13.986,0,0,1,1.321,1.6c.305.371.627.727.936,1.095.716.851,1.436,1.7,2.139,2.561.187.229.309.509.476.754.2.3.424.589.637.882.228.314.449.632.686.939.066.086.173.141.208.225.1.168.187.342.295.5.421.626.83,1.262,1.281,1.865.429.573.912,1.1,1.358,1.664a5.639,5.639,0,0,1,.317.536c.21.337.408.683.648,1,.141.185.692-.041.8-.318a.863.863,0,0,0,.075-.327,6.288,6.288,0,0,1,.625-2.315c.115-.312.192-.638.287-.957a3.193,3.193,0,0,1,.111-.355c.431-1.013.874-2.02,1.293-3.038a1.772,1.772,0,0,0,.036-.543c.52-.1.366-.625.555-.942a12.525,12.525,0,0,0,.634-1.37,3.732,3.732,0,0,1,.241-.605,7.554,7.554,0,0,0,1.106-2.143,6.374,6.374,0,0,1,.7-1.24c.183-.325.35-.659.52-.99s.345-.676.506-1.019c.067-.143.1-.3.155-.451a6.926,6.926,0,0,1,.6-1.519,1.562,1.562,0,0,0,.187-.653l.092.06a9.542,9.542,0,0,0,.616-.947c.291-.582.517-1.2.81-1.781.206-.41.511-.771.71-1.184a11.028,11.028,0,0,0,.445-1.25,8.1,8.1,0,0,1,.785-1.418,7.469,7.469,0,0,0,.506-.889,1.428,1.428,0,0,0,0-.554,3.554,3.554,0,0,0,.46-.528c.279-.479.528-.975.776-1.47.034-.066-.01-.169-.013-.255s-.034-.19.006-.24c.161-.2.371-.362.511-.572a1.586,1.586,0,0,0,.235-.607c.057-.346-.007-.67.421-.912.27-.154.382-.613.525-.953.119-.28.147-.555.487-.741.254-.14.4-.512.547-.8.236-.455.416-.939.663-1.387.089-.162.3-.255.456-.382.045-.037.124-.085.121-.122a3.045,3.045,0,0,1,.189-.889c.07-.353.208-.443.419-.425.307-.426.549-.825.854-1.169a2.228,2.228,0,0,0,.617-1.346c.382-.171.732-.325.764-.877a1.02,1.02,0,0,1,.685-.931,1.615,1.615,0,0,0,.52-.418c.282-.285.508-.245.64.117.045.126.128.31.225.333.582.138.515.729.765,1.088a7.539,7.539,0,0,0,1.4,1.951c.056.042.067.147.125.183a1.172,1.172,0,0,0,.476.235c.262.018.381-.179.376-.434-.01-.5-.033-.994-.037-1.491a3.112,3.112,0,0,1,.416-1.472c.13-.25.185-.539.3-.8a.912.912,0,0,0,.124-.583c.249.078.392.039.495-.241.094-.258.286-.079.407.059s.277.416.34.4c.334-.108.74-.164.891-.551a4.786,4.786,0,0,0,.275-.994.726.726,0,0,1,.988-.522,1.527,1.527,0,0,0,.506.229,1.24,1.24,0,0,1,.975.845.721.721,0,0,0,.829.415c.427-.135.855-.264,1.275-.418a.527.527,0,0,0,.31-.256.962.962,0,0,1,.672-.686.292.292,0,0,0,.16-.094.541.541,0,0,1,.74-.251c.185.1.261.4.386.617l-.075.081.653-.049.053.116a.863.863,0,0,0-.362.991l.566-.015a6.759,6.759,0,0,0-.558.609,1.6,1.6,0,0,0-.23.533,8.49,8.49,0,0,0-.271,1.313,10.09,10.09,0,0,1-.421,1.616c-.03.12-.032.275-.109.35a1.306,1.306,0,0,0-.307,1.181,1.117,1.117,0,0,1-.331,1,.3.3,0,0,0-.094.158c-.046.411-.1.822-.121,1.234a11.023,11.023,0,0,1-.136,2.334c-.154.552-.118,1.1-.236,1.638a10.979,10.979,0,0,0-.118,1.626,1.646,1.646,0,0,1-.051.249c-.111.5-.208,1-.337,1.49a14.3,14.3,0,0,1-.438,1.458c-.2.533-.451,1.049-.7,1.562-.155.323-.38.615-.509.945-.216.555-.387,1.129-.565,1.7-.292.934-.557,1.876-.868,2.8-.133.4-.381.757-.525,1.152-.291.8-.541,1.614-.822,2.417a1.911,1.911,0,0,1-.252.367,8.114,8.114,0,0,0-.642,1.446,9.33,9.33,0,0,1-1.454,2.667,13.982,13.982,0,0,0-.9,1.326c-.2.29-.4.577-.6.864-.3.436-.582.892-.919,1.3a7.908,7.908,0,0,1-.776.67c-.19.176-.353.381-.527.573l.116.151c.306-.145.62-.274.915-.438.379-.21.751-.436,1.11-.678.585-.394,1.161-.8,1.734-1.211.687-.492,1.365-1,2.052-1.488.43-.308.892-.575,1.3-.912.348-.291.628-.661.952-.983a2.615,2.615,0,0,1,.432-.307c.206-.135.421-.255.622-.4a.432.432,0,0,0,.189-.23c.046-.3.252-.391.5-.511a3.073,3.073,0,0,0,.629-.565c.176-.162.352-.325.538-.475.048-.038.134-.026.283-.05-.336.521-.623.985-.931,1.436a8.623,8.623,0,0,0-.62.841,2.634,2.634,0,0,0-.121.786,1.423,1.423,0,0,0-.141.327c-.1.484-.139.981-.268,1.456a9.12,9.12,0,0,1-.529,1.426,4.136,4.136,0,0,0-.382,2.172,21.789,21.789,0,0,1-.063,2.954c-.007.143-.2.269-.285.416a5.271,5.271,0,0,0-.827,1.583,15.159,15.159,0,0,0,.089,2.35c.007.59-.069,1.181-.108,1.772a5.417,5.417,0,0,1-.6,1.992,1.185,1.185,0,0,1-.431.525c-.472.255-.47.74-.513,1.123a8.049,8.049,0,0,0-.13,2.352,2.034,2.034,0,0,1-.082.618c-.011.074-.053.158-.031.22.2.561-.249.866-.5,1.235a5.109,5.109,0,0,1-.686.767c-.1.1-.3.1-.4.2-.545.539-1.063,1.106-1.614,1.64-.23.223-.53.374-.776.583-.217.185-.4.408-.6.61-.447.444-.907.877-1.344,1.331-.263.274-.487.583-.736.87s-.515.556-.755.848-.459.607-.688.91a.958.958,0,0,1-.159.191,3.875,3.875,0,0,0-.8.622c-.457.623-.831,1.306-1.264,1.946a7.558,7.558,0,0,1-.9,1.14c-.214.212-.6.258-.8.476a1.885,1.885,0,0,0-.363.835c-.154.667-.292,1.34-.385,2.017a5.1,5.1,0,0,0-.2,2.472,1.859,1.859,0,0,0,.354-.225c.274-.273.525-.566.795-.843.069-.07.206-.171.253-.146.107.056.239.173.252.279a1.445,1.445,0,0,0,.6.931c.195.171.271.47.451.666a9.852,9.852,0,0,0,2.106,1.571c.776.484,1.532,1,2.268,1.547.716.529,1.395,1.109,2.093,1.662a.648.648,0,0,0,.4.127.908.908,0,0,0-.1-.305q-.591-.689-1.2-1.358c-.462-.506-.94-1-1.395-1.506a10.893,10.893,0,0,1-.689-.885c-.526-.73-1.04-1.467-1.564-2.2a3.406,3.406,0,0,1-.717-1.632,5.837,5.837,0,0,0-.332-1.338c-.26-.721.221-1.052.674-1.409.187-.147.387-.277.575-.422.28-.217.545-.134.635.185a8.256,8.256,0,0,0,.35,1.058,6.427,6.427,0,0,0,.584,1.081,7.729,7.729,0,0,0,.725.789c.151.163.3.332.5.564,0,0,.182-.039.19-.1a.745.745,0,0,0-.058-.5,5.651,5.651,0,0,1-1.319-3.2c-.045-.655.06-.881.71-1.079,1-.3,2.033-.525,3.025-.858a16.658,16.658,0,0,0,1.726-.825c.241-.113.5-.2.746-.289.733-.269,1.465-.542,2.2-.8.41-.143.841-.231,1.247-.385.624-.236,1.231-.514,1.851-.761a12.823,12.823,0,0,0,1.428-.548,7.5,7.5,0,0,1,1.605-.568,2.488,2.488,0,0,1,.915-.146c.148.017.282.3.389.487a3.488,3.488,0,0,1,.211.536c.043.116.143.25.115.347-.181.647.262,1.152.375,1.729a3.976,3.976,0,0,0,.172.575c.015.042.088.062.2.132-.167-1.1-.323-2.134-.484-3.193.346-.04.365-.309.4-.584.038-.328.18-.377.44-.176a2.007,2.007,0,0,1,.3.212,1.628,1.628,0,0,1,.339.492,1.85,1.85,0,0,1,.027.551l.134.038a1.523,1.523,0,0,0,.149-.342c.072-.415.255-.516.56-.252a3.138,3.138,0,0,0,2.267.729,17.324,17.324,0,0,1,2.116.094,3.607,3.607,0,0,1,.792.271.691.691,0,0,0,.909-.334c.367.233.378.317.058.542-.577.406-1.166.8-1.74,1.207a.87.87,0,0,0-.291.422,21.9,21.9,0,0,0,2.74-.52c.322.01.476.236.606.528a3.588,3.588,0,0,1,.227,2.771,1.176,1.176,0,0,0-.03.413c.02.823.067,1.646.058,2.467a2.953,2.953,0,0,1-.211.9,4.468,4.468,0,0,1-.513,1.22,3.2,3.2,0,0,0-.406,1.559,3.31,3.31,0,0,1-.276.649c-.218.526-.427,1.055-.648,1.579a1.8,1.8,0,0,1-1.239,1.038c-.775.225-1.548.458-2.33.653-1.111.277-2.229.525-3.347.776-.159.035-.334-.005-.495.028-.211.045-.413.132-.622.192a1.96,1.96,0,0,1-.292.056c-.5.067-1,.122-1.5.2-.084.014-.151.139-.225.212l.056.105c.36-.042.72-.1,1.082-.121.5-.031,1-.006,1.5-.053,1.154-.11,2.3-.257,3.459-.372.446-.044.9-.033,1.343-.062.4-.026.91.064,1.186-.143.514-.385,1.158.013,1.6-.451a.9.9,0,0,1-.981.476c-.261-.031-.383.083-.512.325a3.707,3.707,0,0,1-2.347,2.085,2.711,2.711,0,0,0-.786.489c-.4.279-.789.567-1.176.86-.312.236-.6.514-.927.723-.566.359-1.157.68-1.739,1.014a21.021,21.021,0,0,1-2.047,1.15c-.994.432-2.034.753-3.052,1.13a3.33,3.33,0,0,0-.446.247l.072.175c.5-.108,1-.2,1.493-.329.7-.181,1.406-.36,2.092-.593.656-.222,1.288-.516,1.934-.771a6.524,6.524,0,0,0,1.573-.644c.323-.247.717-.255,1.008-.507.064-.056.193-.045.293-.048.018,0,.06.119.056.12-.092.051-.194.087-.285.14-.345.2-.686.405-1.094.646l.471.29c-.335.574-.637,1.15-1,1.684a1.59,1.59,0,0,1-.612.4,12.579,12.579,0,0,0-2.287,1.61,14.349,14.349,0,0,1-1.3.847c-.345.226-.692.451-1.024.694-.676.5-1.344,1-2.011,1.512-.23.175-.445.372-.674.549-.444.344-.9.673-1.34,1.023-.316.251-.608.534-.925.784-.26.2-.549.372-.812.574-.35.267-.686.551-1.029.827q-1.242,1-2.483,2a2.775,2.775,0,0,0-.343.337c-.193.222-.549.267-.692.437a1.594,1.594,0,0,1-1.185.446,4.966,4.966,0,0,1-.651.023l-.4.435-1.209,3.6.1.089a1.666,1.666,0,0,0,.388-.15,2.518,2.518,0,0,0,.773-.684c.146-.23.511-.326.784-.47.468-.247.94-.484,1.493-.769.138.036.241.187.321.457a5.548,5.548,0,0,0,1.185,1.968c.421.5.836,1,1.258,1.493.132.155.279.3.418.444l.129-.076a3.12,3.12,0,0,0-.217-.612,3.948,3.948,0,0,0-.44-.5c-.03-.036-.023-.1-.037-.151a1,1,0,0,0-.113-.373c-.2-.241-.439-.453-.664-.678.253-.343-.045-.618-.143-.909-.222-.662-.489-1.31-.713-1.971-.089-.264.326-.717.594-.789.45-.121.884-.3,1.324-.458a1.382,1.382,0,0,1,.135-.069c.442-.105.883-.228,1.33-.3a21.515,21.515,0,0,1,2.239-.324,10.465,10.465,0,0,1,3.519.059,4.155,4.155,0,0,0,.49.047c1.065.158,2.127.331,3.194.476.4.054.814.031,1.22.07a.669.669,0,0,1,.4.165,15.713,15.713,0,0,0,1.454,1.336,7.02,7.02,0,0,1,1.1,1.447,5.315,5.315,0,0,1,.318.6c.2.391.085.632-.361.736-.161.037-.317.1-.476.145l.023.133c.288.053.576.106.863.162a1.116,1.116,0,0,1,.324.083,2.1,2.1,0,0,1,.661,1.972,1.2,1.2,0,0,1-.321.35,4.647,4.647,0,0,1-1.517.875,8.88,8.88,0,0,0-.972.331c-.827.411-1.682.132-2.51.261-.088.013-.189-.016-.265.018a1.511,1.511,0,0,0-.271.2c.1.055.2.158.3.158,1.617-.009,3.235-.034,4.852-.049a4.655,4.655,0,0,1,.494.04c-.062.509-.1.961-.174,1.409a8.981,8.981,0,0,1-.3,1.5c-.072.214-.372.355-.578.516a3.007,3.007,0,0,1-.359.211l.277.467a1.079,1.079,0,0,1-.329.1c-.583,0-1.166-.045-1.746-.017a4.725,4.725,0,0,0-1.877.449c-.08.039-.1.2-.162.331a9.008,9.008,0,0,0,1.122-.042c.232-.037.446-.189.7-.239.031.4-.288.449-.484.6-.376.28-.773.531-1.16.8-.29.2-.588.388-.864.605-.35.277-.681.577-1.021.866-.318.271-.626.555-.959.806-.587.443-1.205.846-1.78,1.3-.67.532-1.335,1.077-1.952,1.668-.441.422-.794.934-1.2,1.4a6.781,6.781,0,0,1-.561.54c-.073.067-.187.1-.247.17a4.28,4.28,0,0,1-1.94,1.067,2.283,2.283,0,0,1-1.935-.092,3.043,3.043,0,0,0-.705-.087c-.383-.073-.761-.171-1.2-.273l.075.388a1.7,1.7,0,0,0-.637.2,1.575,1.575,0,0,0-.372.652c-.228.656-.43,1.32-.637,1.983-.265.849-.521,1.7-.79,2.549-.219.692-.508,1.367-.666,2.073a20.965,20.965,0,0,1-.7,2.224c-.33.964-.531,1.97-.795,2.956-.208.781-.45,1.553-.634,2.339s-.3,1.615-.484,2.415c-.1.438-.285.855-.408,1.289-.054.19-.031.4-.075.6-.124.543-.283,1.079-.4,1.625-.132.646-.223,1.3-.341,1.949-.109.595-.25,1.185-.34,1.783-.162,1.075-.291,2.156-.449,3.232a.9.9,0,0,1-.237.658c-.116.1-.037.41-.07.62a8.976,8.976,0,0,0-.207,1.244,2,2,0,0,1-.148.962.816.816,0,0,0-.065.291,3.052,3.052,0,0,1-.167,1.114,6.892,6.892,0,0,0-.3,1.689c-.109.613-.247,1.222-.361,1.835-.108.577-.2,1.158-.3,1.736-.146.8-.315,1.591-.445,2.39-.113.693-.178,1.394-.284,2.088a7.585,7.585,0,0,1-.2.792Zm-2.486-60.557c0,.04-.023.161.022.2a.818.818,0,0,1,.2.741.824.824,0,0,0,.075.332c.206.505.422,1.007.631,1.513.146.352.3.7.422,1.063q.436,1.32.839,2.652c.225.748.43,1.5.641,2.254.257.913.51,1.828.769,2.741a3.771,3.771,0,0,0,.386,1.163,3.408,3.408,0,0,1,.242,1.187q.17.9.35,1.8a2.1,2.1,0,0,0,.114.443c.382.861.359,1.821.7,2.7a20.539,20.539,0,0,1,.676,2.6c.19.783.37,1.568.547,2.354.13.58.233,1.166.372,1.744.148.624.345,1.236.479,1.861.14.655.23,1.32.34,1.981.2,1.164.386,2.33.59,3.493a2.832,2.832,0,0,0,.181.486,2.007,2.007,0,0,0,.32-1.6c-.008-.548-.018-1.1-.045-1.643-.11-2.239-.236-4.477-.334-6.716-.052-1.184-.023-2.371-.092-3.554-.133-2.273-.308-4.544-.47-6.815-.1-1.333-.178-2.667-.3-4-.121-1.278-.284-2.552-.445-3.826-.079-.623-.2-1.242-.3-1.864-.093-.6-.176-1.206-.266-1.809s-.173-1.183-.284-1.771a.87.87,0,0,0-.248-.528c-.1-.068-.35.048-.516.12-.32.142-.624.323-.945.465-.378.167-.783.277-1.145.47a1.438,1.438,0,0,1-1.706-.332c-.307-.427-.319-.419-.832-.214C1535.933,1011.23,1535.612,1011.3,1535.268,1011.409Zm11.908,11.389.1-.019c.017-.182.045-.363.05-.544.013-.5,0-1,.027-1.49.085-1.469.186-2.936.28-4.4q.131-2.055.259-4.11c.043-.7.13-1.4.1-2.09-.092-2.535-.2-5.069-.347-7.6-.083-1.433-.26-2.861-.369-4.293-.09-1.181-.141-2.364-.212-3.547-.03-.5-.067-.994-.107-1.576-.235.142-.37.229-.51.307a8.154,8.154,0,0,1-1.178.629c-.579.2-1.19.319-1.788.471a.733.733,0,0,1-.724-.2c-.132-.116-.46-.211-.555-.135-.342.277-.734.181-1.125.242-.018.112-.075.236-.044.332.124.38.293.75,0,1.13-.017.023,0,.077.008.112.116.332.225.667.355.993a9.918,9.918,0,0,1,.481,1.144c.3,1.164.567,2.339.827,3.513.216.975.432,1.951.595,2.936.1.608.322,1.178.4,1.8.2,1.681.534,3.348.814,5.02.117.7.237,1.4.35,2.1.211,1.306.493,2.606.6,3.921a25.531,25.531,0,0,0,.655,2.94.8.8,0,0,0,.045.146q.427,1,.858,2C1547.076,1022.619,1547.129,1022.707,1547.177,1022.8Zm6.259-23.372c-.06.476-.13.884-.161,1.3-.085,1.142-.182,2.284-.221,3.429-.034,1.024-.154,2.038-.107,3.076.059,1.335-.173,2.68-.238,4.023-.086,1.768-.12,3.539-.2,5.306-.094,2.163-.238,4.323-.307,6.486-.067,2.1-.07,4.195-.1,6.292-.01.8-.01,1.6,0,2.405a.742.742,0,0,0,.1.247c.069-.062.168-.111.2-.19a1.159,1.159,0,0,0,.149-.506,5.775,5.775,0,0,1,.479-2.259c.214-.632.457-1.256.7-1.878.137-.35.341-.678.444-1.035.244-.844.45-1.7.661-2.554.109-.443.2-.89.287-1.336a.42.42,0,0,0-.023-.224c-.227-.584-.5-1.152-.681-1.75a8.54,8.54,0,0,1-.373-1.812,5.984,5.984,0,0,1,.617-3.221,4.3,4.3,0,0,1,.6-.911c.658-.731,1.346-1.434,2.027-2.145.124-.13.33-.219.389-.369.133-.348.189-.723.294-1.082.264-.911.531-1.822.811-2.729.176-.568.364-1.134.575-1.691.225-.592.482-1.172.7-1.685a3.6,3.6,0,0,1-.176-.7c-.033-.719-.021-.716-.7-.916-.471-.139-.944-.276-1.406-.443a1.418,1.418,0,0,1-.375-.3,6.427,6.427,0,0,0-.713-.607c-.7-.441-1.441-.828-2.134-1.281A12.083,12.083,0,0,1,1553.435,999.426Zm.518,51.074.169.062a1.025,1.025,0,0,0,.18-.27c.217-.831.4-1.671.636-2.5.257-.9.56-1.779.84-2.668.164-.523.307-1.054.483-1.573.371-1.1.773-2.188,1.132-3.29.318-.977.58-1.972.893-2.95q.753-2.352,1.542-4.692c.312-.931.6-1.875.991-2.772.252-.578.471-1.17.683-1.758a4.648,4.648,0,0,0,.1-1.359c0-.064-.07-.132-.1-.2-.309-.589-.945-.734-1.458-1.018-.6-.332-1.283-.522-1.916-.806a3.585,3.585,0,0,1-.656-.46c-.2-.157-.351-.067-.4.13-.076.3-.084.625-.151.932-.193.887-.428,1.765-.6,2.655-.185.988-.336,1.984-.461,2.98-.147,1.172-.262,2.348-.37,3.524-.057.62-.039,1.249-.114,1.867-.085.692-.254,1.375-.353,2.066-.093.645-.149,1.3-.211,1.947-.069.718-.141,1.435-.184,2.155s-.024,1.462-.087,2.189c-.059.687-.218,1.366-.284,2.054C1554.137,1048,1554.053,1049.249,1553.953,1050.5Zm-4.281-47.618.139.027a.762.762,0,0,0,.122-.235c.072-.606.132-1.213.2-1.82.116-1.1.254-2.194.341-3.294a6.222,6.222,0,0,0-.024-2.753,4.382,4.382,0,0,1-.191-.647,12.775,12.775,0,0,1-.11-3.269,5.472,5.472,0,0,0-.045-.663c-.114.054-.17.064-.2.1-.522.6-1.048,1.191-1.552,1.8a.628.628,0,0,0-.113.442c.143.952.322,1.9.465,2.851.152,1.016.282,2.036.412,3.055.156,1.223.3,2.448.45,3.672C1549.593,1002.392,1549.636,1002.638,1549.672,1002.883Zm3.983-30.318a1.66,1.66,0,0,0,.006,1.71c.133.229.2.4-.061.582a.351.351,0,0,0-.1.212c-.1.53-.2,1.061-.3,1.592a11.4,11.4,0,0,1-.36-1.689,3.065,3.065,0,0,0-.078-.331c-.2-.723-.386-1.448-.595-2.168a2.112,2.112,0,0,0-.236-.427l-.058.048,1.215,5.564c.071-.084.13-.124.143-.174.146-.589.281-1.181.425-1.77a11.788,11.788,0,0,1,.341-1.278,3.407,3.407,0,0,1,.431-.608.246.246,0,0,0,.021-.222.308.308,0,0,0-.226-.061,1.379,1.379,0,0,0-.307.126Z" transform="translate(-1499.533 -905.71)"/></g><path class="e" d="M1828.435,1262.383H1444.671l46.114-41.227H1780.4Z" transform="translate(-0.716 -123.17)"/><g transform="translate(1465.982 1072.53)"><g transform="translate(0.906)"><path class="f" d="M1488.27,1210.793s-2.383,4.512-2.3,6.3-1.362,7.321-1.362,7.321l-1.7,4.426-6.895,5.959h5.022s8.682-1.021,9.279-1.277,2.043.766,4.171,1.7a19.83,19.83,0,0,0,8.682,1.447,21.677,21.677,0,0,0,5.788-1.447l4.6-1.192,2.043-.6,4,1.362s9.022,4,17.28,4,20,.6,29.453-4.682,11.082-6.862,12-11.236c1.217-5.781,1.3-14.548-8.741-22.634s-23.365-15.577-39.523-13.544c-13.233,1.665-27.495,11.152-27.495,11.152l-9.279,6.214s-1.532-.085-1.957-.17-2.639-.17-2.639-.17l-1.277.937.255,3.489,1.106,2.213Z" transform="translate(-1476.013 -1186.365)"/></g><path class="g" d="M1487.16,1211.443s-1.4.766,0,3.575,0,3.83,0,3.83-2.043,4.6-1.788,7.278-1.788,6.767-1.788,6.767l-3.575,4.724-5.235,4.341h4.341s7.4-.894,9.831-1.4,1.4.51,6.895,1.4,9.831,1.149,12.129,0,5.49-1.149,7.277-2.936a6.8,6.8,0,0,0,1.916-5.363c-.128-1.277-.128-3.32-1.66-4.341s1.688-2.233,1.688-2.233.1,3.255,1.632,5.042,4.214,6.129,7.661,6.256,9.065-.638,10.086-2.043" transform="translate(-1474.775 -1193.094)"/><path class="g" d="M1512.737,1250.031l1.986-2.043,1.135-.511" transform="translate(-1484.96 -1202.762)"/><path class="g" d="M1520.621,1233.7l-.284,2.182.284,1.486" transform="translate(-1487 -1199.065)"/></g><g transform="translate(1685.511 942.613)"><g transform="translate(61.354 121.373)"><path class="c" d="M1878.987,1233.847h0c-11.229,0-20.333-2.879-20.332-14.79V1190.71c0-11.912,9.1-16.022,20.333-16.022h0c11.23,0,20.333,4.111,20.332,16.023v28.347C1899.32,1230.969,1890.217,1233.847,1878.987,1233.847Z" transform="translate(-1858.655 -1174.688)"/><ellipse class="d" cx="11.754" cy="3.839" rx="11.754" ry="3.839" transform="translate(8.615 3.583)"/></g><path class="h" d="M1929.71,1071.076c-.021-.024-.086-.011-.143-.01v.187C1929.62,1071.192,1929.732,1071.1,1929.71,1071.076Z" transform="translate(-1816.327 -1025.512)"/><path class="h" d="M1929.585,1072.032c.007-.027,0-.039-.018-.045v.13A.694.694,0,0,1,1929.585,1072.032Z" transform="translate(-1816.327 -1025.76)"/><path class="d" d="M1929.333,1071.953c.034.031.129,0,.171.015v-.054C1929.4,1071.923,1929.312,1071.935,1929.333,1071.953Z" transform="translate(-1816.263 -1025.74)"/><path class="d" d="M1929.557,1071.375v-.052c-.023.026-.037.049-.02.056S1929.551,1071.375,1929.557,1071.375Z" transform="translate(-1816.317 -1025.582)"/><path class="d" d="M1929.45,1071.013c.015.021.048.023.084.023v-.089C1929.477,1070.964,1929.431,1070.985,1929.45,1071.013Z" transform="translate(-1816.295 -1025.481)"/><path class="d" d="M1929.566,1072.236v-.071A.176.176,0,0,0,1929.566,1072.236Z" transform="translate(-1816.326 -1025.808)"/><path class="d" d="M1929.107,1072.6c.011.086-.34.06-.265.125s.429.059.438.162-.063.227,0,.2.005.157.064.13a.139.139,0,0,0,.025-.017v-.584C1929.239,1072.622,1929.1,1072.516,1929.107,1072.6Z" transform="translate(-1816.13 -1025.916)"/><path class="d" d="M1866.6,1136.683h-19.536a2.537,2.537,0,0,0,.115-.568,12.714,12.714,0,0,1-.081-1.764c.206-1.773.485-3.537.729-5.306a1.653,1.653,0,0,0-.015-.552c-.136-.631-.264-1.267-.447-1.885q-1.724-5.81-3.486-11.61a.7.7,0,0,0-.455-.411c-1.718-.276-3.437-.56-5.167-.746a3.334,3.334,0,0,1-1.812-.806,16.086,16.086,0,0,0-2.269-1.537c-.445-.246-.92-.334-.92-.986a1.239,1.239,0,0,1,.834-1.34,3.668,3.668,0,0,1,1.3-.152,11.025,11.025,0,0,1,5.988,2.488c.477.385.984.733,1.477,1.1l.176-.172a6.887,6.887,0,0,0-.544-.637c-.581-.539-1.231-1.01-1.758-1.6a13.044,13.044,0,0,0-3.665-2.978,6.333,6.333,0,0,1-1.6-1.342c-.476-.507-.388-.778.228-1.106.588-.313,1.186-.607,1.813-.927-.163-.141-.284-.252-.413-.354a5.174,5.174,0,0,1-2.191-2.752.62.62,0,0,0-.336-.334,40.417,40.417,0,0,1-6.485-3.408c-1.035-.7-2.118-1.32-3.155-2.012-.563-.377-1.045-.882-1.623-1.231-.486-.292-.547-.576-.211-1.072a9.781,9.781,0,0,1,1.5.781,20.162,20.162,0,0,0,5.091,3.166c.825.3,1.636.649,2.453.975l.033-.078-4.125-3.628,1.2-.714c-.119-.084-.174-.127-.233-.164a14.728,14.728,0,0,0-6.72-1.824c-2.206-.183-4.425-.2-6.638-.278-3.116-.1-6.233-.212-9.35-.282-2.025-.046-3.948-.841-5.988-.769a2.967,2.967,0,0,1-.924-.16c-2-.593-4.006-1.2-6.008-1.8a15.3,15.3,0,0,0-2.046-.612c-1.289-.2-2.6-.22-3.89-.434-1.7-.284-3.388-.653-5.068-1.041a8.653,8.653,0,0,1-3.762-1.327c-.826-.674-1.552-1.469-2.342-2.188a3.613,3.613,0,0,1-1.367-2.734c0-.055-.07-.11-.108-.165v-.555a1.866,1.866,0,0,1,.526-.348,44.945,44.945,0,0,1,4.938-1.055,25.735,25.735,0,0,1,3.918.143c.487.02.975,0,1.305,0,.225-1.3.417-2.527.657-3.749.171-.874.255-.905,1.161-1a5.344,5.344,0,0,0,1.032-.191,11.881,11.881,0,0,1,3.51-.615,8.377,8.377,0,0,1,4.791,1.275c.667.443,1.245,1.019,1.887,1.5a.813.813,0,0,0,.561.1c.216-.455.628-.438,1.022-.522.662-.142,1.314-.332,1.971-.5a3.938,3.938,0,0,1,.857-.2c1.65-.031,2.711.037,3,2a6.8,6.8,0,0,0,1.81,3.836,7.045,7.045,0,0,1,1.842,3.458,6.908,6.908,0,0,0,.377.969l.8-.879c-.172-.177-.294-.315-.43-.44a5.45,5.45,0,0,1-1.013-5.746c.661-1.083,1.36-2.143,2.071-3.195a.523.523,0,0,1,.5-.057c1.34.8,2.663,1.623,4,2.434.145.089.364.235.465.185.549-.269,1.073-.59,1.713-.956-1.035-1.023-2.026-2.011-3.034-2.982-.1-.1-.31-.089-.469-.13l-2.776-.7a1.3,1.3,0,0,1-1.019-1.261,2.776,2.776,0,0,1,1.764-.216c2.624.345,4.637,1.879,6.643,3.424.193.149.384.3.577.449a1.278,1.278,0,0,0-.138-.674,6.893,6.893,0,0,1-.661-4.138,8.25,8.25,0,0,1,2.9-4.708,1.08,1.08,0,0,1,1.055-.269,5.265,5.265,0,0,1,2.922,1.446,1.671,1.671,0,0,1,.464.888c.086.974.078,1.955.112,2.933a3.054,3.054,0,0,0,.056.373l.146.045a9.538,9.538,0,0,1,4.206-4.736c.3.015.563.046.827.037.959-.036,1.922-.162,2.876-.114a28.014,28.014,0,0,1,8.314,1.91c.461.171.932.315,1.4.471l.121-.194a9.389,9.389,0,0,0-.59-.731,1.919,1.919,0,0,1-.586-2.392c.362.274.689.566,1.056.8a14.122,14.122,0,0,0,4.659,2.161c.533.108.732-.031.864-.5a5.236,5.236,0,0,1,1.343-2.39,18.431,18.431,0,0,1,1.537-1.2c-.224-.137-.392-.253-.571-.348a13.273,13.273,0,0,0-1.954-1.009c-2.611-.868-5.229-1.719-7.874-2.475-1.467-.42-3.011-.566-4.485-.968a18.307,18.307,0,0,0-6.068-.74.766.766,0,0,1-.835-.411c-.438-.923-.869-1.848-1.312-2.792.285-.124.465-.218.656-.282.68-.228,1.358-.466,2.048-.659a6.481,6.481,0,0,1,1.912-.417,50.232,50.232,0,0,1,5.336.452,23.959,23.959,0,0,1,9.655,3.776,9.583,9.583,0,0,1,3.165,3.131,1.642,1.642,0,0,1,.112,1.095c-.073.32-.177.568.17.732.528.249,1.064.16,1.226-.195a14.984,14.984,0,0,1,.856-1.9,3.365,3.365,0,0,0,.484-1.886c.007-.624.089-1.249.076-1.873a1.553,1.553,0,0,0-.271-.783c-.44-.657-.934-1.278-1.385-1.929-.439-.634-.831-1.3-1.288-1.921a.82.82,0,0,0-.61-.266,8.947,8.947,0,0,1-4.092-.983q-2.37-1.043-4.768-2.029a20.993,20.993,0,0,1-5.535-3.272c-.451-.378-.833-.844-1.3-1.2a10.358,10.358,0,0,1-2.951-3.74,1.738,1.738,0,0,1-.066-.47c3.1-.05,6.052-1.143,9.153-.776a3.015,3.015,0,0,0-1.013-.413,5.831,5.831,0,0,1-3.731-2.262,4.984,4.984,0,0,1-1.271-2.4.84.84,0,0,1,.293-.869,7.767,7.767,0,0,1,4.632-1.554,15.537,15.537,0,0,1,3.479.1,19.347,19.347,0,0,1,4.013.893,7.487,7.487,0,0,1,4.215,3.134,2.827,2.827,0,0,1,.541,2.644.839.839,0,0,0,.228.725,14.719,14.719,0,0,1,2.074,2.84c.029.042.077.083.081.129.024.291.021.291.422.308.1-1.687.209-3.377.291-5.067.007-.14-.155-.306-.27-.43-.4-.432-.964-.629-1.395-1.082-.741-.78-1.367-1.627-2.024-2.467-1.305-1.67-2.707-3.265-4.053-4.9-1.005-1.226-2-2.461-2.971-3.715-.7-.9-1.334-1.845-2.018-2.753-.394-.523-.828-1.016-1.345-1.645,2.349.6,4,2.076,5.837,3.278a1.119,1.119,0,0,0-.085-.612c-1.348-2.342-.094-5.955,1.5-7.432a3.636,3.636,0,0,1,1.366-.893,4.158,4.158,0,0,1,2.563.02c1.519.557,3.143.926,4.289,2.269.07-.135.131-.243.184-.355.456-.963.858-1.956,1.375-2.884a9.076,9.076,0,0,1,5.22-4.339c.1-.035.185-.143.277-.217h1.665c.032,1.994.075,3.988.087,5.982a4.23,4.23,0,0,1-.163,1.425c-.5,1.4-1.062,2.784-1.63,4.162a11.234,11.234,0,0,1-3.448,4.867,4.059,4.059,0,0,0-1.466,2.22c-.028.089-.077.17-.1.258-.208.82-.411,1.641-.616,2.462l.17.084c.169-.129.328-.274.508-.386a10.2,10.2,0,0,1,2.31-1.373c2.811-.812,5.644-1.575,8.64-1.063a7.072,7.072,0,0,1,3.281,1.34.773.773,0,0,1,.282.392,3.161,3.161,0,0,1-1.195,3.585,12.914,12.914,0,0,1-2.124,1.018c-.554.247-1.123.461-1.684.69l.084.223c2.439-.709,4.988-1.039,7.436-2.356.067,1.035.148,1.943.167,2.853a.644.644,0,0,1-.376.5,7.637,7.637,0,0,0-2.887,1.329c-.97.631-1.838,1.427-2.826,2.025-2.156,1.305-4.368,2.518-6.542,3.795a31.188,31.188,0,0,1-3.01,1.853,6.479,6.479,0,0,0-2.938,2.816,8.19,8.19,0,0,0-.423.95,3.029,3.029,0,0,0,.883-.369,38.676,38.676,0,0,1,3.613-1.9,10.8,10.8,0,0,0,4.618-3.4,9.18,9.18,0,0,1,1.34-1.169l1.5,2.614c-.141.1-.188.123-.231.156a14.266,14.266,0,0,0-2.025,1.61c-1.32,1.488-2.491,3.107-3.8,4.6-1.877,2.137-3.847,4.194-5.729,6.326a3.507,3.507,0,0,0-.74,1.573c-.033.162.626.443.938.7a.6.6,0,0,0,.8.045c.45-.318.9-.639,1.319-1,.606-.522,1.183-1.078,1.814-1.659.7.9,1.286,1.722,1.935,2.49a15.286,15.286,0,0,1,2.628,3.675,3.133,3.133,0,0,1,.307,1.362c-.091,1.5-1.437,1.888-2.453,2.5a8.139,8.139,0,0,1-2.08.694c-1.313.353-2.636.662-3.951,1a2.938,2.938,0,0,0-.552.277c.468.2.894.226,1.276.368a6.567,6.567,0,0,1,1.163.631c.474.3.618.257.764-.3.1-.386.18-.779.265-1.155,1.263.336,2.478.63,3.673.991.479.145.762.054.971-.379a.553.553,0,0,1,.208-.248c.1-.055.316-.105.346-.063a.764.764,0,0,1,.138.446c0,.108-.118.222-.2.313-.3.326-.147.547.139.772a21.443,21.443,0,0,1,1.711,1.393,11.746,11.746,0,0,1,3.669,6.7,5.031,5.031,0,0,0,.186.646l3.652-1.75a1.2,1.2,0,0,0-.075-.273c-.667-1.575-1.293-3.17-2.023-4.716q-1.216-2.577-2.6-5.074c-.6-1.091-1.357-2.1-2.014-3.163a.609.609,0,0,1,.063-.557c.293-.363.326-.963.918-1.059.043-.007.1.051.145.075.763.364,1.557.676,2.283,1.1a15.562,15.562,0,0,1,3.9,3.4,11.316,11.316,0,0,1,2.65,6.443c.052.508.1,1.017.14,1.493,1.1,0,2.147.016,3.195-.015a.911.911,0,0,0,.539-.332c.747-.839,1.477-1.692,2.2-2.548a.627.627,0,0,0,.16-.395,7.626,7.626,0,0,0-.218-1.916,9.016,9.016,0,0,0-1.017-1.74c-.332-.529-.658-1.066-1.032-1.565-1.283-1.708-2.658-3.353-3.858-5.117a3.757,3.757,0,0,1-.183-4.509,5.164,5.164,0,0,1,1.806-1.378c.278-.15.765.054,1.147.142a8.784,8.784,0,0,1,1.214.37c.884.345,1.758.716,2.652,1.082.041-.57.083-1.169.127-1.769a8.023,8.023,0,0,1,1.684-4.761,8.177,8.177,0,0,1,4.031-2.6.941.941,0,0,1,.752.106,22.88,22.88,0,0,1,1.789,1.655c.667.679,1.294,1.4,1.97,2.131.1-.173.184-.311.267-.448a10.9,10.9,0,0,1,2.977-3.457,27.624,27.624,0,0,1,6.32-2.87.55.55,0,0,1,.492.192c.574.979,1.156,1.959,1.652,2.978.427.877.373.848,1.382.754,1.242-.115,2.492-.132,3.879-.2a5.062,5.062,0,0,1-.46.734c-.643.688-1.31,1.354-1.962,2.033-2.224,2.319-4.427,4.658-6.676,6.953-1.161,1.185-2.387,2.309-3.612,3.431-.894.818-1.837,1.583-2.749,2.381a1.191,1.191,0,0,0-.362.461c-.19.556-.343,1.125-.5,1.693a8.833,8.833,0,0,1-1.575,3.137c-.749.959-1.933,1.07-3,1.382a5.511,5.511,0,0,1-.983.112l-.838.082c.024.409.161.782.031.957a4.288,4.288,0,0,1-.944.737c-1.125.836-2.326,1.589-3.358,2.528-1.718,1.564-3.331,3.242-4.978,4.884-.384.384-.724.812-1.074,1.21.418.394.82.72,1.154,1.106.241.278.427.655.05.975-.883.751-1.77,1.5-2.682,2.21-.539.423-1.128.782-1.761,1.215,2.015.635,3.862,1.349,5.963,1.131-.319,1.341-.506,2.57-1.663,3.337a.616.616,0,0,0-.159.514c.151.909.314,1.817.522,2.713.145.625.368,1.232.591,1.96.282-.312.473-.506.646-.717.887-1.087,1.779-2.17,2.652-3.269.281-.354.555-.5.978-.234a7.755,7.755,0,0,0,.776.4c.9-.535.772-1.223.44-1.954-.418-.921-.8-1.862-1.245-2.768-.588-1.189-1.213-2.362-1.854-3.524a9.414,9.414,0,0,0-.789-1.059c2.106.717,3.785,2.11,5.646,3.33.1-.312.194-.566.277-.822a13.85,13.85,0,0,1,2.414-4.448.587.587,0,0,1,.931-.149,15.788,15.788,0,0,1,1.51,1.2c.815.79,1.58,1.633,2.384,2.474a1.239,1.239,0,0,0,.159-.247c.519-1.415,1.02-2.836,1.556-4.245.116-.3.321-.765.541-.8.7-.108.994-.629,1.381-1.08a8.909,8.909,0,0,1,7.02-3.283.607.607,0,0,1,.462.326,8.426,8.426,0,0,1,.514,3.694c-.1.689-.171,1.383-.273,2.22a13.775,13.775,0,0,1,5.546-2.712c2.331-.529,5.364-.724,6.005-.394-.217.244-.434.519-.684.761a28.434,28.434,0,0,0-2.232,2.145,16.462,16.462,0,0,1-3.859,3.454c-.349.221-.694.446-1.18.759.833.389.727,1,.762,1.623a3.1,3.1,0,0,0,.481,1.312c.315.538.774.992,1.083,1.532a1.98,1.98,0,0,1-.665,2.783,7.7,7.7,0,0,1-2.642.673,31.334,31.334,0,0,1-4.4-.391,9.444,9.444,0,0,1-2-.572c-.768-.286-1.293.353-1.965.448a6.612,6.612,0,0,0-2.087.633c-1.726.893-3.407,1.874-5.1,2.827-1.385.779-2.8,1.507-4.133,2.37a24.075,24.075,0,0,0-2.7,2.177c-.545.478-.982,1.078-1.525,1.56-.438.388-1.027.615-1.438,1.025-2.114,2.114-4.192,4.264-6.279,6.4-.026.026,0,.1,0,.27l2.461-.686a19.2,19.2,0,0,1-.921,2.043,4.664,4.664,0,0,1-1.205,1.469,13.5,13.5,0,0,0-3.891,4.256c-.229.383-.479.754-.774,1.215l5.162.342a6.281,6.281,0,0,1-1.448,4.175c-1.065,1.314-2.276,2.512-3.461,3.725a14.614,14.614,0,0,1-2.041,1.82,20.669,20.669,0,0,1-5.315,3.024.846.846,0,0,0-.428.455c-.452,1.092-.88,2.194-1.306,3.3-.156.4-.283.819-.418,1.212ZM1837.626,1078l.045.127c1.211.277,2.419.569,3.636.819a1.128,1.128,0,0,0,.727-.135,12.122,12.122,0,0,1,3.642-1.352.662.662,0,0,1,.541.267,2.648,2.648,0,0,1,.412,2.163,2.783,2.783,0,0,1,.425.05c1.1.328,2.222.623,3.3,1.011a.793.793,0,0,1,.494,1.166c-.154.432-.041.588.424.623.809.06,1.614.184,2.493.29-.026.058.031-.021.044-.1.075-.533.137-1.069.211-1.6a.97.97,0,0,0-.617-1.151,17.447,17.447,0,0,1-2.226-1.311c-1.347-.916-2.7-1.829-3.981-2.834-1.082-.849-2.074-1.815-3.084-2.753-.592-.549-1.136-1.15-1.718-1.711a1.988,1.988,0,0,0-.5-.255.68.68,0,0,0-.023.15c.055.155.11.31.169.465a3.06,3.06,0,0,1-.621,3.482,12.6,12.6,0,0,1-1.87,1.456C1838.939,1077.282,1838.271,1077.626,1837.626,1078Zm-3.429-2.853a33.234,33.234,0,0,1,2.66-2.453c1.127-.841,2.374-1.52,3.566-2.274.241-.152.468-.328.7-.492v-.214c.97.624,1.962,1.218,2.906,1.88a7.857,7.857,0,0,0,4.656,1.814c.222,0,.446.03.748.052a4.779,4.779,0,0,0-2.828-2.352c-4.132-1.274-8.25-2.589-12.378-3.876-.542-.169-1.106-.263-1.66-.392l-.078.133c.2.321.4.651.613.962a2.454,2.454,0,0,1,.143,2.8c-.61,1.095-1.225,2.187-1.832,3.284a2.322,2.322,0,0,0-.123.419A3.051,3.051,0,0,1,1834.2,1075.151Zm12.617-34.862a2.642,2.642,0,0,0,.381.295,14.61,14.61,0,0,1,4.318,3.5c1.694,1.883,2.543,3.984,1.437,6.514a.888.888,0,0,0,.169.717c.443.6.95,1.149,1.414,1.732a3.873,3.873,0,0,1,.389.662,2.1,2.1,0,0,1,.11.375c.085-.135.232-.264.246-.406.159-1.662.3-3.327.442-4.992a23.769,23.769,0,0,0,.194-2.515c-.024-1.2.414-2.534-.764-3.5-.052-.042-.059-.135-.1-.192-.714-.931-1.427-1.861-2.149-2.786a.609.609,0,0,0-.829-.161,4.612,4.612,0,0,1-1.269.341C1849.506,1040.033,1848.206,1040.147,1846.814,1040.289Zm-6.941,40.363c-1.329-.251-2.556-.492-3.788-.7a.618.618,0,0,0-.451.212c-.523.572-1.014,1.174-1.534,1.75a11.01,11.01,0,0,0-2.264,3.768c-.291.834-.215,1,.453,1.537a3.141,3.141,0,0,1,1.339,3.08,1.372,1.372,0,0,0,.427.918,3.161,3.161,0,0,0,.866.484c.348-.484.7-.953,1.02-1.442.056-.083-.011-.252-.031-.38a5.558,5.558,0,0,1-.2-1.391,10.1,10.1,0,0,1,2.016-4.9C1838.422,1082.632,1839.118,1081.681,1839.873,1080.652Zm26.413-44.819-.04-.11a1.052,1.052,0,0,0-.19-.02c-1.212.1-2.423.221-3.637.28a6.731,6.731,0,0,1-1.807-.125.788.788,0,0,0-.9.29,12.691,12.691,0,0,0-2.21,4.229,4.848,4.848,0,0,0-.325,1.146c-.09.917-.139,1.84-.161,2.76-.026,1.08-.006,2.161-.006,3.309l1.219-1.4c-.217-.334-.512-.579-.491-.793a6,6,0,0,1,.435-2.135,17.314,17.314,0,0,1,2.017-3.023,14.879,14.879,0,0,1,5.414-4.018C1865.844,1036.111,1866.061,1035.962,1866.287,1035.833Zm-43.584,53.306a2.91,2.91,0,0,0-2.6-1.059,9.266,9.266,0,0,1-5.278-1.685c-.664-.413-1.324-.832-1.966-1.237,0,.965,0,1.864,0,2.763a.817.817,0,0,0,.091.257,1.436,1.436,0,0,0,1.182.846,18.293,18.293,0,0,0,4.866.749C1820.489,1089.731,1822.927,1089.434,1822.7,1089.139Zm33.69-53.49c.067-.312.1-.415.11-.519.087-1.176.193-2.351.24-3.528a4.165,4.165,0,0,0-.194-1.225c-.185-.683-.439-1.347-.618-2.031-.1-.391-.19-.76-.632-.885-.68-.194-1.373-.351-2.042-.577a8.929,8.929,0,0,1-1.135-.563.649.649,0,0,0,.161.465,11.57,11.57,0,0,1,2.208,3.852c.322.973.535,1.944-.451,2.688Zm-14.8,63.467a2.8,2.8,0,0,1-.455-2.9c-.475-.514-.95-1.029-1.43-1.537a.886.886,0,0,0-.126.089l-1.038-1.512a3.424,3.424,0,0,0-1.515,2.835,2.4,2.4,0,0,0,.844,1.461c.838.646,1.817,1.106,2.719,1.673A.676.676,0,0,0,1841.6,1099.116Zm27.744-.688c2.282-1.021,4.343-2.209,6.717-2.24-.284-.934-.546-1.805-.819-2.673-.022-.071-.144-.179-.185-.165-.647.214-1.395.04-1.962.583a10.733,10.733,0,0,1-2.019,1.718C1869.979,1096.265,1869.74,1097.279,1869.34,1098.428Zm-17.292-1.558a8.8,8.8,0,0,0-3.729-2.458c-.389.906-.8,1.828-1.169,2.766a.549.549,0,0,0,.18.465c.564.474,1.146.93,1.743,1.361a.53.53,0,0,0,.492.032C1850.4,1098.338,1851.207,1097.61,1852.048,1096.87Zm8.712-19.823c-1.165.393-1.514,1.605-2.133,2.489,1.182.709,2.306,1.364,3.407,2.054a1.579,1.579,0,0,0,1.767-.047Zm-4.679,45.757-.2-.018c-.16.23-.459.464-.452.688a10.321,10.321,0,0,0,.264,2.125c.408,1.658.878,3.3,1.33,4.947a5.981,5.981,0,0,0,.233.6l.172-.032c.138-1.261.314-2.52.39-3.785a3.482,3.482,0,0,0-.329-1.3c-.08-.223-.315-.388-.4-.61C1856.732,1124.554,1856.412,1123.677,1856.08,1122.8Zm7.831-21.256c.386-.06.787-.105,1.179-.193.14-.031.358-.158.366-.257a7.336,7.336,0,0,0,.038-1.556,14.181,14.181,0,0,0-.416-1.933c-.187-.7-.745-.864-1.292-.375a7.3,7.3,0,0,0-.99,1.038.808.808,0,0,0-.091.675C1863.068,1099.807,1863.487,1100.645,1863.911,1101.547Zm2.941-11.994c1.017-.525,1.993-1.024,2.962-1.535a.388.388,0,0,0,.165-.26,2.186,2.186,0,0,0-1.544-1.82.476.476,0,0,0-.212.043c-.643.273-1.289.542-1.922.835-.1.045-.214.23-.19.312C1866.34,1087.934,1866.6,1088.733,1866.852,1089.554Zm-9.647,32c-.126.119-.246.187-.294.289-.072.154-.187.39-.123.49.47.746.979,1.468,1.5,2.229a2.457,2.457,0,0,0,.115-.35c.2-1.068.354-2.144.594-3.2a2.177,2.177,0,0,0-.312-1.785c-.159-.241-.313-.487-.56-.869a3.283,3.283,0,0,0-.647.73c-.219.5-.308,1.059-.509,1.571C1856.822,1121.025,1856.77,1121.319,1857.206,1121.557Zm-12.621-33.135c.422.26.794.462,1.134.708.262.189.426.127.669-.054,1.013-.758,2.052-1.484,3.079-2.224.095-.069.179-.153.344-.295-.437-.2-.808-.356-1.157-.547a.821.821,0,0,0-1.008.057c-.923.7-1.875,1.359-2.81,2.041A1.814,1.814,0,0,0,1844.585,1088.422Zm4.446,38.407c.9-.435,1.045-.659.772-1.339-.617-1.534-1.26-3.057-1.908-4.577a2.9,2.9,0,0,0-.4-.545l-.176.078C1847.885,1122.556,1848.451,1124.666,1849.031,1126.829Zm-6.123-28.528c-.391.6-.713,1.085-1.013,1.579-.043.072.007.2.025.307.085.5.156,1.009.271,1.505a.628.628,0,0,0,.3.409c.1.038.334-.094.416-.214.363-.531.708-1.076,1.025-1.636a.647.647,0,0,0,.058-.542C1843.7,1099.267,1843.352,1098.866,1842.907,1098.3Z" transform="translate(-1774.803 -1008.809)"/></g><g transform="translate(1570.175 764.092)"><path class="i" d="M1673.8,778.878a2.645,2.645,0,0,1-2.341,1.414h-.825l-.912,3.434a.919.919,0,0,1-.331.5v59.645h-1.734V784.23a.914.914,0,0,1-.349-.507l-.9-3.432h-.895a2.645,2.645,0,0,1-2.345-1.422l-6.733-12.909a2.645,2.645,0,0,1,2.345-3.869h19.478a2.645,2.645,0,0,1,2.341,3.877Z" transform="translate(-1637.627 -762.092)"/><path class="i" d="M1650.98,889.2l6.657-14.763a.785.785,0,0,1,.7-.493h6.883a.787.787,0,0,1,.7.5l6.6,14.766a30.925,30.925,0,0,1,20.123,28.03.923.923,0,0,1-.923.947h-22.691c.012.17.026.34.026.513a7.312,7.312,0,1,1-14.624,0c0-.173.014-.342.026-.513h-22.691a.923.923,0,0,1-.924-.947A30.925,30.925,0,0,1,1650.98,889.2Z" transform="translate(-1630.842 -792.103)"/></g><g transform="translate(1556.964 1041.925)"><path class="j" d="M1750.516,1218.923H1610.5l-11.3-67.784a5.67,5.67,0,0,1,5.592-6.6h128.525a5.669,5.669,0,0,1,5.592,4.738Z" transform="translate(-1599.12 -1144.537)"/><path class="k" d="M1755.028,1239.782H1618.654l15.315-17.5h136.374Z" transform="translate(-1604.361 -1165.396)"/></g><g transform="translate(1719.564 1084.08)"><path class="l" d="M1806.756,1256.891h0c-6.418,0-11.812-2.423-12.534-8.8l-3.624-32.027h32.242l-3.547,32C1818.584,1254.452,1813.185,1256.891,1806.756,1256.891Z" transform="translate(-1790.094 -1205.884)"/><path class="m" d="M1823.206,1210.542c-.577-1.665-7.6-2.981-16.446-2.981s-16.216,1.316-16.792,2.981c0,0-.059,3.334-.059,3.461,0,1.765,7.476,3.2,16.7,3.2,8.634,0,15.737-1.254,16.607-2.863Z" transform="translate(-1789.909 -1203.602)"/><path class="n" d="M1822.549,1206.367h-31.02v4.092h.013c0,.007,0,.015,0,.022,0,1.638,6.942,2.967,15.505,2.967s15.5-1.329,15.5-2.967c0-.007,0-.015,0-.022h0Z" transform="translate(-1790.344 -1203.282)"/><ellipse class="o" cx="15.505" cy="2.967" rx="15.505" ry="2.967" transform="translate(1.264 0)"/><path class="i" d="M1825.525,1205.774c0,.491-1.767.889-1.767.889v-1.778S1825.525,1205.283,1825.525,1205.774Z" transform="translate(-1798.991 -1202.884)"/></g><path class="p" d="M1687.178,1238.856c.038-.05.1-.1.11-.149a.611.611,0,0,1,.389-.517,12.56,12.56,0,0,1,3.868-1.272,4.224,4.224,0,0,1,2.036.266,7.18,7.18,0,0,0,.82.3,1.453,1.453,0,0,0,.524-.01c.857-.108,1.713-.229,2.57-.334.57-.07,1.143-.112,1.713-.182.689-.084,1.373-.193,2.062-.275.6-.071,1.2-.115,1.8-.18.813-.089,1.624-.192,2.437-.279.46-.05.922-.078,1.382-.121.781-.073,1.56-.152,2.34-.224.264-.025.527-.046.792-.06,1.138-.06,2.276-.123,3.413-.173a11.55,11.55,0,0,1,5.712,1.248q3.654,1.805,7.3,3.629l.075.042c.626.344.658.455.334,1.1-.136.272-.255.553-.386.828a.279.279,0,0,1-.445.138c-.692-.412-1.384-.822-2.07-1.242a1.851,1.851,0,0,1-.339-.3,15.222,15.222,0,0,0-3.409-2.582,18.621,18.621,0,0,0-3.5-1.606,9.639,9.639,0,0,0-3.952-.348c-2.425.241-4.845.536-7.266.819-.983.114-1.962.255-2.943.384l-5.2.685c-.345.046-.689.1-1.083.155.218.192.42.346.593.527q1,1.045,1.973,2.108a.522.522,0,0,0,.583.2,4.148,4.148,0,0,1,2.04.156c.6.154,1.175.376,1.766.552a.4.4,0,0,0,.322-.053,8.023,8.023,0,0,1,4-1.894,7.9,7.9,0,0,1,2.6.045,20.391,20.391,0,0,1,6.692,2.641,18.13,18.13,0,0,0,3.7,1.629,4.424,4.424,0,0,0,1.135.062,3.061,3.061,0,0,0,1.258-.159,4.325,4.325,0,0,1,.771-.126c.786-.175,1.568-.373,2.355-.544,1.148-.249,2.3-.475,3.448-.725.67-.146,1.335-.32,2-.482.978-.238,1.956-.483,2.936-.714,1.191-.282,2.379-.571,3.576-.823,1.591-.334,3.188-.637,4.783-.949.885-.174,1.766-.378,2.66-.495a6.425,6.425,0,0,1,3.072.172,2.948,2.948,0,0,1,.987.6,31.111,31.111,0,0,1,3.288,3.89.841.841,0,0,1,.148.727c-.085.389-.185.775-.3,1.154-.13.416-.456.506-.753.188a4.015,4.015,0,0,1-1.068-1.626,7.589,7.589,0,0,0-1.253-2.592,15.8,15.8,0,0,0-1.094-1.195,1.821,1.821,0,0,0-1.773-.312c-1.039.164-2.06.446-3.089.675-1.727.384-3.459.746-5.18,1.155-2.646.629-5.285,1.284-7.926,1.938-1.856.459-3.71.931-5.563,1.4-.386.1-.76.249-1.15.326-.6.119-1.209.176-1.808.293s-1.2.272-1.8.417a.311.311,0,0,0-.278.3c-.075.765-.187,1.526-.261,2.291a13.8,13.8,0,0,1-1.275,5.15,5.5,5.5,0,0,1-1.237,1.558,5.844,5.844,0,0,1-1.408,1.087,5.473,5.473,0,0,1-1.967.537.97.97,0,0,0-.188.049H1713c-.45-.063-.9-.1-1.349-.194a9.741,9.741,0,0,1-6.323-4.423,18.96,18.96,0,0,1-2.513-6.019,5.173,5.173,0,0,1-.222-2.254.868.868,0,0,0-.74-1.085c-.351-.08-.7-.157-1.056-.228-.463-.093-.927-.178-1.433-.275.124.394.2.738.339,1.058.228.542.492,1.07.738,1.6a2.777,2.777,0,0,1,.3,1.486,9.132,9.132,0,0,1-1.311,3.643,5.126,5.126,0,0,1-2.568,2.26,3.656,3.656,0,0,1-3.233-.276,8.641,8.641,0,0,1-3.29-3.449,20.816,20.816,0,0,1-2.244-6.836,38.518,38.518,0,0,0-.916-3.79Zm30.734,11.357c-.105-.731-.159-1.474-.325-2.19a7.586,7.586,0,0,0-2.828-4.334,10.889,10.889,0,0,0-7.258-2.4,3.623,3.623,0,0,0-1.826.465,2.663,2.663,0,0,0-.966,1.3c-.557,1.332-.69,2.351.465,3.536a4.066,4.066,0,0,1,1.2,1.91c.176.8.305,1.607.417,2.416a8.767,8.767,0,0,0,.52,2.3,5.214,5.214,0,0,0,2.637,2.648,7.192,7.192,0,0,0,4.386.78,2.754,2.754,0,0,0,1.751-.782,5.722,5.722,0,0,0,.826-1.218A11.585,11.585,0,0,0,1717.912,1250.214Zm-28.3-10.648a.839.839,0,0,0-.031.08,9.44,9.44,0,0,0-.085,3.906,15.276,15.276,0,0,0,1.1,4,11.907,11.907,0,0,0,2.134,3.427,5.941,5.941,0,0,0,2.16,1.6,1.576,1.576,0,0,0,2.112-.388,3.464,3.464,0,0,0,.882-1.512,11.755,11.755,0,0,0,.361-4.992,10.344,10.344,0,0,0-1.032-3.5,8.334,8.334,0,0,0-2.748-3.151.613.613,0,0,0-.348-.149c-.6.066-1.2.156-1.8.247C1691.426,1239.275,1690.534,1239.42,1689.614,1239.565Z" transform="translate(-65.782 -127.056)"/></g></svg>