<svg xmlns="http://www.w3.org/2000/svg" xmlns:xlink="http://www.w3.org/1999/xlink" width="717.498" height="438.71" viewBox="0 0 717.498 438.71"><defs><style>.a{fill:url(#a);}.b,.g,.n{fill:none;}.b,.e,.h{stroke:#04181d;}.b,.d,.e,.f,.g,.h{stroke-miterlimit:10;}.b,.e,.g,.h{stroke-width:4px;}.c,.m{fill:#04181d;}.d,.h{fill:#7b9069;}.e,.f{fill:#fff;}.g{stroke:#f4f4f4;}.i{fill:#cfacbe;}.j{fill:#5d0923;}.k{fill:#f4f4f4;}.l,.m{stroke:none;}</style><linearGradient id="a" y1="0.5" x2="1" y2="0.5" gradientUnits="objectBoundingBox"><stop offset="0.005" stop-color="#9cb189"/><stop offset="1" stop-color="#5e734e"/></linearGradient></defs><g transform="translate(-356.92 -71)"><g transform="translate(31.659 -9.241)"><path class="a" d="M1042.73,340.306C1041.154,258.864,975,192.853,893.558,191.422a153.374,153.374,0,0,0-19.441.889,30.082,30.082,0,0,1-29.311-14.767,151.931,151.931,0,0,0-226.4-42.549,75.47,75.47,0,0,1-47.6,16.135h-.28A82.365,82.365,0,0,0,496.188,198a20.447,20.447,0,0,1-18.509,11.7h-.5A151.92,151.92,0,0,0,325.29,358.609c-1.679,86.338,69.485,157.069,155.811,154.882A151.4,151.4,0,0,0,586.538,467.04a24.753,24.753,0,0,1,34.816-.708,101.337,101.337,0,0,0,141.374-2.444,24.815,24.815,0,0,1,33.1-2.046,151.9,151.9,0,0,0,246.9-121.536Z"/><path class="b" d="M853.288,422.578h91.807l59.045,94.372H364.814l77.656-94.372H477.33"/><path class="c" d="M810.136,459.432l109.728-39.3-3.115-278.158-109.728,39.3Z"/><path class="c" d="M591.766,460.931l109.728-39.3L698.379,143.47l-109.728,39.3Z"/><g class="d"><path class="l" d="M 809.0735473632813 455.6477661132813 L 702.5086059570313 420.1507873535156 L 699.44091796875 146.2242126464844 L 806.0059204101563 181.72119140625 L 809.0735473632813 455.6477661132813 Z"/><path class="m" d="M 807.042236328125 452.8630676269531 L 804.02197265625 183.1683807373047 L 701.4722290039063 149.0088958740234 L 704.4924926757813 418.7035827636719 L 807.042236328125 452.8630676269531 M 811.1048583984375 458.4324035644531 L 700.524658203125 421.5979614257813 L 697.4096069335938 143.4395599365234 L 807.9898071289063 180.2740020751953 L 811.1048583984375 458.4324035644531 Z"/></g><g class="d"><path class="l" d="M 591.285400390625 457.6477661132813 L 484.7203979492188 422.1507873535156 L 481.6527404785156 148.2242126464844 L 588.2177734375 183.72119140625 L 591.285400390625 457.6477661132813 Z"/><path class="m" d="M 589.2540893554688 454.8630676269531 L 586.2338256835938 185.1683807373047 L 483.68408203125 151.0088958740234 L 486.704345703125 420.7035827636719 L 589.2540893554688 454.8630676269531 M 593.3167114257813 460.4324035644531 L 482.7365112304688 423.5979614257813 L 479.6214599609375 145.4395599365234 L 590.20166015625 182.2740020751953 L 593.3167114257813 460.4324035644531 Z"/></g><g class="e" transform="translate(960.251 483.366) rotate(179.844)"><rect class="l" width="50.78" height="129.882"/><rect class="n" x="2" y="2" width="46.78" height="125.882"/></g><g class="f"><path class="l" d="M 908.0648193359375 352.0878295898438 L 902.6073608398438 347.4729309082031 L 939.173095703125 346.257568359375 L 950.8972778320313 351.5888977050781 L 908.0648193359375 352.0878295898438 Z"/><path class="m" d="M 908.7869873046875 350.0792846679688 L 941.897705078125 349.6935729980469 L 938.771484375 348.2720031738281 L 907.8646240234375 349.29931640625 L 908.7869873046875 350.0792846679688 M 907.3426513671875 354.0963745117188 L 897.3501586914063 345.6465759277344 L 939.57470703125 344.2431030273438 L 959.8967895507813 353.4841918945313 L 907.3426513671875 354.0963745117188 Z"/></g><g class="f"><path class="l" d="M 907.5874633789063 478.8671875 L 899.310302734375 470.7975158691406 L 898.9780883789063 349.0721740722656 L 907.2462768554688 353.8241882324219 L 907.5874633789063 478.8671875 Z"/><path class="m" d="M 905.5745239257813 474.1115112304688 L 905.2494506835938 354.9833374023438 L 900.987548828125 352.5338745117188 L 901.3079833984375 469.9519348144531 L 905.5745239257813 474.1115112304688 M 909.6004638671875 483.6229248046875 L 897.3125610351563 471.6430969238281 L 896.9686279296875 345.6104736328125 L 909.2431030273438 352.6650695800781 L 909.6004638671875 483.6229248046875 Z"/></g><path class="g" d="M544.193,315.922c.348,2.593.374,4.243,3.07,6.732s10.205,4.261,10.205,4.261"/><path class="g" d="M546.267,312.811c-.351-.247-1.13,5.23,4.563,8.6a32.254,32.254,0,0,0,6.638,2.8"/><path class="g" d="M724.054,304.118l2.522-.429,3.526-3.215"/><path class="e" d="M471.679,443.218h0c12.111,0,21.929-3.788,21.928-19.462v-37.3c0-15.674-9.818-21.083-21.929-21.082h0c-12.111,0-21.929,5.409-21.928,21.083v37.3C449.75,439.432,459.568,443.218,471.679,443.218Z"/><ellipse class="c" cx="15.564" cy="5.635" rx="15.564" ry="5.635" transform="translate(455.587 370.353)"/><path class="c" d="M463.367,372.4a9.929,9.929,0,0,0-.247-1.591,1.68,1.68,0,0,1,.271-2.019c.317-.338-.094-1.412-.255-2.135a30.053,30.053,0,0,1-1.119-4.89c-.169-3.553-.041-7.119-.036-10.68,0-.8,0-1.6,0-2.7-2.934,2.085-4.924,4.766-8.032,6.116a3.359,3.359,0,0,1-.228-.862c.135-2.55.366-5.1.424-7.648a45.29,45.29,0,0,0-.2-6.4,44.41,44.41,0,0,0-1.368-6.874c-.709-2.5-1.71-4.91-2.592-7.356a.909.909,0,0,0-.263-.381c-.379-.311-.776-.6-1.166-.9a5.3,5.3,0,0,0-.157,1.36c.453,3.127,1.144,6.217.993,9.42-.115,2.46-.008,4.93-.051,7.4a10.924,10.924,0,0,1-4.458,8.911,18,18,0,0,1-5.8,3.46c-1.767.514-3.6.792-5.4,1.193-.889.2-1.769.434-2.733.673-.276-1.218.76-1.749,1.293-2.487.72-1,1.622-1.863,2.341-2.862a11.1,11.1,0,0,0,1.649-5.67c.3-3.245.449-6.505.654-9.76,0-.051-.089-.109-.359-.42a43.926,43.926,0,0,0-2.306,5.673c-.683,2.663-.792,5.475-1.509,8.124a11.289,11.289,0,0,1-5.91,7c-4.04,2.233-7.877,4.832-11.8,7.266a5.832,5.832,0,0,1-.765.339,2.65,2.65,0,0,1-.277-.859,33.046,33.046,0,0,0,.223-4.484,13.7,13.7,0,0,0-1.119-4.058c-1.691-3.916-3.594-7.742-5.225-11.681a5.251,5.251,0,0,1,.855-4.818,14.375,14.375,0,0,1,2.142-2.087,1.315,1.315,0,0,0,.4-.737c.218-3.16.4-6.322.6-9.48l-3.1.7c.327-1.49.713-2.844.9-4.225.183-1.339.088-2.714.252-4.056.188-1.545.6-3.064.772-4.609a11.172,11.172,0,0,0-.064-3.078c-.143-.861-.879-1.016-1.38-.285-.7,1.016-1.532,2-1.457,3.4.142,2.669-.841,5.13-1.438,7.674a13.625,13.625,0,0,1-3.968,6.485c-1.211,1.233-2.3,2.6-3.589,3.738-1.777,1.562-4.047,2.116-6.3,2.615-1.534.34-3.12.506-4.606.985a25.711,25.711,0,0,0-3.578,1.808,11.081,11.081,0,0,1,1.242-1.863,38.314,38.314,0,0,1,3.536-3.121c1.271-.965,4.283-5.746,4.217-7.366a8.412,8.412,0,0,0-3.5,3.235c-1.646,2.213-3.17,4.516-4.739,6.785a22.987,22.987,0,0,0-1.407,2.117,5.152,5.152,0,0,1-3.42,2.716c-3.2.715-5.541,2.768-7.986,4.691a5.068,5.068,0,0,1-3.884,1.343c.56-2.135,1.128-4.285-.09-6.383-.808-1.393-1.75-2.713-2.495-4.139a15.171,15.171,0,0,1-1.606-3.913c-.39-1.962.683-3.6,1.909-5.021,3.464-4.012,8.03-5.914,13.143-6.829a85.381,85.381,0,0,0,9.863-2.41c-2.552-.125-5.113-.421-7.655-.306a13.7,13.7,0,0,0-4.014,1.3c-2.924,1.126-5.822,2.318-8.742,3.452-2.038.791-4.1,1.534-6.146,2.289-.244.09-.509.125-1.034.249,0-1.4-.061-2.678.014-3.948.12-2.031.42-4.054.48-6.086a5.58,5.58,0,0,1,2.567-4.756,2.984,2.984,0,0,0,.947-1.4,12.84,12.84,0,0,1,2.654-4.932,19.832,19.832,0,0,0,1.788-2.249,26.057,26.057,0,0,1,6.46-6.675c.674-.443,1.015-1.379,1.54-2.065a9.668,9.668,0,0,1,4.7-3.623,5.185,5.185,0,0,0,2.214-1.416,15.58,15.58,0,0,1,6.641-4.05,18.632,18.632,0,0,0,3.292-1.848c2.652-1.636,5.738-2.1,8.777-2.62a96.5,96.5,0,0,0,9.741-1.836,7.519,7.519,0,0,1,6.549,1.063c1.2.806,2.314.791,3.9.731-1.767-1.5-3.227-2.954-4.895-4.1a9.989,9.989,0,0,1-3.658-4.471,32.787,32.787,0,0,1-1.785-5.765,3.182,3.182,0,0,1,.755-2.351c1.3-1.505,1.38-3.332,1.83-5.1.437-1.713.806-3.6,2.5-4.623a2.37,2.37,0,0,1,1.785-.072c3.13,1.114,6.143,2.785,9.358,3.359,3.106.554,5.886,2.005,8.958,2.49.337.053.673.109,1.286.208a6.441,6.441,0,0,0-.836-.863c-3.257-2.109-6.529-4.2-9.786-6.3-.611-.4-1.133-.944-1.771-1.28-1.6-.848-3.288-1.55-4.867-2.439-.98-.552-2.092-1.147-1.99-2.582a1.04,1.04,0,0,1,.26-.7c1.879-1.333,3.732-2.711,5.694-3.91,1.345-.821,2.722-.213,2.827,1.291.16,2.281,1.728,3.161,3.393,4.108,2.12,1.206,4.2,2.477,6.285,3.749a6.812,6.812,0,0,1,.99.908l.265-.184c-.537-.779-1.066-1.563-1.611-2.335-1.567-2.22-3.814-3.652-5.935-5.257a11.878,11.878,0,0,1-2.5-2.985c-.49-.739-.063-1.288.874-1.374a9.753,9.753,0,0,1,4.515.722c2.194.861,3.08.625,4.545-1.179.5-.617.851-.809,1.59-.319a7.224,7.224,0,0,0,5.375.693,18.729,18.729,0,0,1,6.091.337,31.114,31.114,0,0,0,4.585.346c-2.056-3.418-4.861-6.374-4.305-10.843-.752-.47-1.636-1.072-2.565-1.6a5.325,5.325,0,0,1-2.78-4.886,30.513,30.513,0,0,1,.522-4.917,2.077,2.077,0,0,0-.378-1.892c-1.1-1.381-1.932-2.973-3.029-4.354a18.2,18.2,0,0,0-2.995-2.987,81.678,81.678,0,0,0-6.693-4.854c-3.743-2.361-7.607-4.53-11.41-6.8-2.348-1.4-4.725-2.759-7-4.266a63.327,63.327,0,0,0-11.457-6.041,40.375,40.375,0,0,1-5.477-2.875,71.559,71.559,0,0,0-12.507-5.881c-4.259-1.517-8.574-2.877-12.862-4.312-.365-.123-.709-.308-1.07-.445-3.468-1.317-6.926-2.66-10.412-3.928-1.175-.427-2.426-.645-3.633-.991a1.723,1.723,0,0,1-.939-.688c.8.1,1.622.134,2.412.3a7.1,7.1,0,0,0,5.8-1.185,8.843,8.843,0,0,1,6.472-1.5c2.771.413,5.56.711,8.407,1.067l-3.555-2.231.011-.25c1.137.135,2.293.187,3.409.422a13,13,0,0,0,6.887-.1c3.43-1.14,6.488-.155,9.352,1.615a55.659,55.659,0,0,0,15.348,6.312,40.539,40.539,0,0,1,5.487,1.5,69.4,69.4,0,0,1,7.22,3.655,73.949,73.949,0,0,0,11.063,4.7c1.864.687,3.959,1.411,5.268,2.773,1.671,1.739,3.715,2.729,5.587,4.059,2.232,1.587,4.42,3.237,6.648,4.83.877.628,1.8,1.19,2.719,1.76.614.382,1.355.843.966,1.591-.2.377-1.121.608-1.662.53a5.527,5.527,0,0,0-4.1,1.114,5.255,5.255,0,0,0-.9,1.1c.425.214.886.662,1.269.6,2.509-.385,5.393.364,7.22-2.35,1.885,2.3,3.863,4.446,5.509,6.818,1.533,2.21,3.66,3.583,5.77,5.071a29.7,29.7,0,0,1,3.724,3.123,35.74,35.74,0,0,1,2.556,3.111c.924-1.383.795-2.112-.358-3.225-1.268-1.224-2.475-2.517-3.637-3.843-1.308-1.492-2.536-3.053-3.8-4.585l-.426.371a2.97,2.97,0,0,1,.626.327c1.4,1.23,3.19,1.009,4.839,1.3,1.326.234,2.663.413,3.982.678a3.679,3.679,0,0,1,1,.634c1.926-7.043,4.025-14.1,7.507-20.622a136.51,136.51,0,0,1,12.166-18.509c-2.159-.024-4.171-.16-5.239,2.289-.335-.851-.335-.851.695-2.065-1.235,0-2.352.019-3.469,0-4.161-.085-7.977-1.521-11.774-3.031A45.9,45.9,0,0,0,475.6,161.7c-2.38-.68-3.368-2.428-3.819-4.611-.649-3.14.185-4.88,2.961-6.668a8.111,8.111,0,0,0,1.478-1.44c.467-.514.977-.8,1.631-.408a23.294,23.294,0,0,0,9.192,2.855c.648.087,1.289.228,1.932.345l.176-.479a12.286,12.286,0,0,0-1.605-.77c-2.773-.882-5.56-1.718-8.338-2.582a6.522,6.522,0,0,1-1.171-.477c-.715-.389-.888-1.244-.256-1.659,2.711-1.779,4.558-4.4,6.731-6.706a24.4,24.4,0,0,1,3.124-2.4c.524,1.833,1.942,1.16,2.935,1.394,4.054.955,7.636-.8,11.276-2.162.5-.188,1.005-.385,1.509-.573.027-.01.071.022.273.089-.974,1.686.576,2.121,1.424,3.054a26.96,26.96,0,0,1,2,3.222,17.328,17.328,0,0,0,1.858,2.286c.872.911,1.823,1.748,2.753,2.6.283.261.61.475.916.71l.345-.226c-.64-1.694-1.243-3.4-1.932-5.077a6.359,6.359,0,0,0-2.686-3.32,5.731,5.731,0,0,1-3.039-3.388,6.5,6.5,0,0,1,4.561-.175,22.78,22.78,0,0,0,11.433-.675,20.475,20.475,0,0,1,3.618-.37c-1.29,3.211-.917,6.239-.335,9.258.063.326.6.561.912.838.245-.3.661-.572.7-.9.163-1.223.155-2.468.3-3.693.2-1.641.425-3.282.75-4.9.188-.931.966-1.209,2.039-.853,2.186.727,4.328,1.624,6.556,2.176a66.988,66.988,0,0,0,6.941,1.159,5.682,5.682,0,0,1,3.716,1.772c-2.538.206-4.166,2.088-6.3,3.016l.018.3c.362.147.8.507,1.071.406a18.079,18.079,0,0,1,3.458-.511,7.5,7.5,0,0,1,3.458.282,5.169,5.169,0,0,0,2.205.045c4.265-.8,8.505-1.743,12.784-2.453a36.316,36.316,0,0,1,6.226-.33,2.31,2.31,0,0,1,1.781.969,4.517,4.517,0,0,1-.065,2.287c-.02.138-.471.279-.735.31a46.24,46.24,0,0,0-4.879.708h5.366c-.235.633-2.588,1.058-5.989,1.187l4.018,1.975-.145.32a5.147,5.147,0,0,1-1.025-.394c-2.3-1.5-4.824-1.349-7.389-1.058-3.222.367-6.452.659-9.678,1a2.833,2.833,0,0,0-1.433.533l11.216-.726-.008.132c-1.729.757-3.43,1.589-5.2,2.245a13.322,13.322,0,0,1-3.519.817c-2.276.185-4.568.272-6.851.239a57.394,57.394,0,0,1-6.114-.451,7.036,7.036,0,0,0-4.118.928,10.8,10.8,0,0,1-1.91.661c-1.419.4-2.846.77-4.39,1.185l16.6,4.808a4.352,4.352,0,0,1-.662.448c-3.546,1.242-7.091,2.486-10.645,3.705a12.147,12.147,0,0,1-9.019-.495c-1.716-.734-3.513-1.279-5.274-1.9a2.817,2.817,0,0,1-.767-.247c-2.151-1.642-3.681.14-5.662.949,3.383,1.6,7.2,1.32,10.4,3.855-2.279.641-4.239,1.354-6.262,1.723-2.918.533-5.876.872-8.828,1.177a13.61,13.61,0,0,1-3.233-.207,2.237,2.237,0,0,0-2.26,1c-2.454,3.43-4.93,6.846-7.277,10.349a70.368,70.368,0,0,0-4.226,7.084c-1.36,2.657-2.509,5.427-3.638,8.194-.945,2.314-1.8,4.671-2.564,7.052-.83,2.592-1.507,5.232-2.251,7.851-.146.516-.324,1.025-.437,1.548-.246,1.128.456,1.712,1.614,1.819,1.784.165,3.547.562,5.316.882,1.59.286,3.169.638,4.763.9,2.851.46,5.74.734,8.558,1.342,2.682.58,5.176.72,7.489-1.055a1.552,1.552,0,0,1,1.213-.206c1.633.494,3.366.8,4.578,2.215.2.234.7.255,1.07.292,1.077.109,2.166.125,3.234.285a2.746,2.746,0,0,1,1.383.821c-8,1.683-16.026,3.046-23.777,6.025a5.4,5.4,0,0,0,5.126.21c2.506-1.712,5.222-1.324,7.953-.95a3.044,3.044,0,0,1,1.237.248c1.361.913,2.083.182,3.038-.785a14.629,14.629,0,0,1,3.129-1.866c1.846-1.085,3.731-2.113,5.513-3.295,1.825-1.212,3.552-2.573,5.31-3.883a13.839,13.839,0,0,1,7.979-2.687,34.163,34.163,0,0,0,11.55-2.563,10.908,10.908,0,0,1,10.46.8,17.03,17.03,0,0,0,8.911,3.05c2.478.047,4.959.2,7.423.455a7.62,7.62,0,0,1,2.911.933,9.913,9.913,0,0,1,2.89,2.294,11.79,11.79,0,0,1,1.412,3.192c.037.1-.344.466-.578.526a5.793,5.793,0,0,1-1.284.024c1.166,1.891-.076,3.549-.171,5.267-.1,1.839.286,2.656,2.051,3.163a4,4,0,0,1,1.033.709l-.152.436c-.744,0-1.488.014-2.231,0a93.264,93.264,0,0,0-10-.128,20.823,20.823,0,0,0-6.142,2.022,16.337,16.337,0,0,1-11.251.98,15.329,15.329,0,0,1-2.86-1.094,5.171,5.171,0,0,0-3.864-.39c-1.663.419-3.376.64-5.066.955-.256.048-.505.137-.821.225,2.3,2.384,3.939,5.288,6.891,6.886.1.054.17.183.273.214,2.832.843,4.034,3.608,6.186,5.251a1.172,1.172,0,0,1,.3.487.385.385,0,0,1,0,.227c-4.1,0-8.185.009-12.27,0-3.645-.01-7.128-.637-10.042-3.021a9.376,9.376,0,0,1-1.45-1.949c-.185-.261-.335-.782-.5-.783-2.216-.017-4.455-.3-6.639.259l-.018.323c.918.1,1.836.2,2.756.286,1.075.1,2.16.117,3.226.273.762.113,1.252.591.786,1.4-1.411,2.454-2.919,4.856-5.673,6.024a5.5,5.5,0,0,1-3.852-.213c-1.388-.426-2.8-.759-4.192-1.188-1.348-.417-1.787.705-2.743,1.517,1.152.389,2.133.717,3.111,1.052.759.259,1.532.487,2.267.8.913.391.963,1.064.076,1.566a9.949,9.949,0,0,1-2.54,1.1c-2.347.554-4.732.942-7.081,1.488a2.361,2.361,0,0,0-1.343.968c-2.854,4.668-5.74,9.32-8.442,14.076a70.685,70.685,0,0,0-6.325,14.925c-1.641,5.555-3.152,11.149-4.722,16.725a3.778,3.778,0,0,0-.1,2.484,4.4,4.4,0,0,1-.475,2.542,23.318,23.318,0,0,0-.922,9.382c.22-1.337.426-2.676.662-4.01.57-3.221,2.593-5.414,5.128-7.258,2.056-1.494,4.347-2.782,6.051-4.612,1.938-2.081,4.368-2.671,6.837-3.376a23.117,23.117,0,0,0,7.3-3.876,9.147,9.147,0,0,1,5.254-1.817l-1.025,1.9a3.385,3.385,0,0,1,3.63-.461c4.247,1.659,8.477,1.121,12.749.125,1.645-.383,3.351-.5,5.029-.742l.112.438a16.993,16.993,0,0,1-1.584.743c-2.993,1.063-4.3,3.435-4.963,6.319-.594,2.573-1.211,5.14-1.779,7.719a6.876,6.876,0,0,0-.015,1.457l.491.114a10.738,10.738,0,0,0,.814-1.4c.875-2.166,1.807-4.316,2.535-6.532,1.129-3.436,3.972-3.972,6.875-3.46a48.42,48.42,0,0,1,6.547,1.762c2.857.932,5.723.636,8.619.4a26.992,26.992,0,0,1,4.564.118c-5.095,2.191-10.158,4.342-13.52,9.19a3.5,3.5,0,0,0,.991-.316c1.708-1.187,3.371-2.438,5.086-3.612,1.3-.89,2.684-1.656,3.981-2.549,3-2.066,5.928-1.729,8.786.248a34.836,34.836,0,0,0,8.955,4.964c1.2.388,2.385.849,3.544,1.352a7.086,7.086,0,0,1,1.244.81l-7.087.795.014.234c1.5,0,3.009.04,4.511-.009a8.938,8.938,0,0,1,6.674,2.364,74.261,74.261,0,0,0,6.841,5.469c1.252.893,2.779,1.4,4.18,2.286a13.621,13.621,0,0,1-2.827-.174,2.833,2.833,0,0,0-2.678.605,1.22,1.22,0,0,1-1.669.149c-2.077-1.631-4.627-1.8-7.061-2.24-3.2-.573-6.433-.947-9.652-1.4-1.588-.225-3.175-.473-4.77-.637a16.1,16.1,0,0,0-2.249.091c5.687,2.848,11.861,3.968,17.686,5.893-2.394.442-4.756.957-7.142,1.3a15.088,15.088,0,0,1-7.524-.843c-4.6-1.732-9.2-3.495-13.809-5.2-2.848-1.054-5.82-.93-8.793-.854a81.519,81.519,0,0,0,8.129,4.737,81.068,81.068,0,0,0,8.92,2.871l0,.309c-1.191.11-2.4.14-3.569.347-2.042.362-4.047,1-6.1,1.207a27.235,27.235,0,0,1-5.38-.165,57.843,57.843,0,0,1-6.175-.914,18.694,18.694,0,0,1-9.84-5.277,2.042,2.042,0,0,0-2.795-.524,11.269,11.269,0,0,1-2.527.657c3.161,4.11,7.889,5.8,12.2,8.776-1.418.22-2.5.421-3.594.548-1.574.183-3.162.256-4.729.479-2.093.3-4.165.741-6.258,1.036-3.148.443-6.17.215-8.818-1.847a5.93,5.93,0,0,1-2.683-4.488c-1.473.037-2.262.873-1.921,2.131.378,1.4.9,2.753,1.4,4.25a16.2,16.2,0,0,1-6.021-.373,4.465,4.465,0,0,1-.99-.278c-1.942-.973-3.568-.334-5.006,1.017a50.916,50.916,0,0,0-4.52,4.5c-1.331,1.61-2.336,3.488-3.525,5.22a60.553,60.553,0,0,0-6.851,13.24,10.012,10.012,0,0,0-.283,2.989q-.264,6.275-.483,12.55c-.048,1.4-.012,2.811-.015,4.217H472.243c.155-1.571.277-3.146.474-4.711.184-1.473.58-2.93.648-4.4.163-3.526.2-7.059.262-10.589a17.726,17.726,0,0,0-.072-3.535c-.732-3.923-1.592-7.823-2.406-11.744a3.472,3.472,0,0,0-.621.517c-1.306,1.766-2.612,3.532-3.872,5.33a2.012,2.012,0,0,0-.222,1.089c-.018,6.335-.055,12.671,0,19.006a8.191,8.191,0,0,0,.678,3.921c.99,1.679.9,3.368.923,5.12Zm11.823-124.47c-.422,1.069.559,1.915.886,2.889.741,2.212,1.582,4.4,2.5,6.544,1.15,2.7,1.022,5.529.881,8.331a9.888,9.888,0,0,1-3.278,7.233c-1.26,1.075-1.855,2.082-1.584,3.652a1.515,1.515,0,0,1-.01.232c.078,3.181.058,6.367.263,9.54.2,3.1,1.117,6.123.949,9.272-.019.348.478.8.836,1.077,1.305,1,2.651,1.943,3.985,2.9.768.551,1.544,1.091,2.183,1.542.257-1.818.73-4.042.858-6.285.264-4.644.393-9.3.488-13.949.1-4.614.075-9.231.118-13.847.034-3.65.1-7.3.125-10.95.021-3.045.005-6.091.005-9.136l-.255-.229c-.316,2.135-1.877,2.27-3.331,2.15C478.951,248.749,477.123,248.283,475.19,247.935Zm11.667,3.855c.184,6.536.48,13.31.537,20.087.058,6.809-.121,13.621-.193,20.124a124.4,124.4,0,0,1,7.446-20.37,151.376,151.376,0,0,1,11.54-18.9c-2.458-.22-4.652-.393-6.84-.619a29.2,29.2,0,0,0-7.5-.276A31.2,31.2,0,0,1,486.857,251.79Zm.385,65.272c-.162,1.421-.328,2.644-.435,3.872-.2,2.308-.375,4.619-.548,6.929a16.272,16.272,0,0,1-.159,2.54,40.776,40.776,0,0,0-1.252,10.747c.039,1.255.006,2.512.006,3.381,1.82-2.893,3.736-6.156,5.868-9.271a34.626,34.626,0,0,1,8.038-8.392c-2.557-1.555-5.144-2.875-6.84-5.54l8.028-.9c-2.461-.309-4.933-.365-7.387-.605C490.535,319.628,488.495,319.284,487.242,317.062Zm-17.765-38.8c-4.734,1.779-9.313,3.106-14.152.243l1.221,3.54c1.965-.428,3.807-.852,5.659-1.225a2.937,2.937,0,0,1,3.586,2.092c.377,1.121-.9,1.523-1.549,2.157a6.193,6.193,0,0,1-.613.533c-1.368,1-2.6,2.35-4.791,1.711a5.2,5.2,0,0,1,.151,4.4,2.144,2.144,0,0,0-.042,1.143c.575,2.3,1.191,4.6,1.725,6.633,1.4-1.2,2.673-2.776,4.327-3.568s3.681-.79,5.347-1.1c0-1.2-.012-2.482,0-3.764a29.092,29.092,0,0,0,.057-3.539c-.209-1.867-.681-3.7-.9-5.571A32.369,32.369,0,0,1,469.477,278.259Zm10.995,70.255a18.029,18.029,0,0,1-.3-2.485c.053-4.264.05-8.534.3-12.788.125-2.147.792-4.257,1.113-6.4.312-2.084.5-4.186.737-6.28a23.966,23.966,0,0,0-2.545,3.639,26.351,26.351,0,0,0-2.1,4.485c-.359,1.107-.047,2.423-.361,3.556-1,3.6-.359,7.074.36,10.612a90.014,90.014,0,0,1,1.351,9.339c.274,2.879.26,5.785.373,8.679a14.149,14.149,0,0,0,.042-9.284C478.922,350.17,478.85,349.364,480.472,348.514Zm-21.58-109.19a63.2,63.2,0,0,0-3.71,5.282,21.876,21.876,0,0,0-1.822,4.791c-.319,1.1.09,1.559,1.177,1.257a8.043,8.043,0,0,0,2.316-1.532c.667-.495,1.294-1.044,2.1-1.7a4.531,4.531,0,0,1,.788-1.249c1.238-1.113,2.653-.493,4.138-.275a14.314,14.314,0,0,0-1.737-3C461.138,241.648,459.99,240.516,458.892,239.324ZM453.746,283.3a17.137,17.137,0,0,1-2.657-8.976c.265,4.141-1.945,6.318-5.35,7.246l-.445,4.555Zm63.044,11.692a6.5,6.5,0,0,0-1.81,5.062c0,.305-.126.611-.109.912a49.589,49.589,0,0,0,.383,5.019c.087.547.81.992,1.243,1.484a7.94,7.94,0,0,0,.8-1.755c.3-1.541.519-3.1.664-4.663C518.157,298.923,518.09,296.818,516.79,294.992Zm-25.141-153.34a14.025,14.025,0,0,0,4.317,5.486c1.65,1.189,3.277,2.408,4.938,3.581.2.138.541.066.817.091-.024-.3.054-.671-.088-.9a38.674,38.674,0,0,0-2.147-3.256A14.466,14.466,0,0,0,491.649,141.652Zm-17.173,86.021c.451-.705.361-1.215-.511-1.761-1.391-.87-2.657-1.943-3.964-2.946-2.87-2.2-6.383-2.891-9.676-4.315C464.633,222.409,469.123,225.675,474.476,227.673ZM420.408,331.094c2.226-1.281,4.47-2.532,6.669-3.857a9.07,9.07,0,0,0,2.145-1.725,1.634,1.634,0,0,0,.212-1.52,1.743,1.743,0,0,0-1.463-.556,6.841,6.841,0,0,0-2.254.84C423.026,325.777,421.6,328.334,420.408,331.094ZM391.244,291l.068.621c1.443-.224,2.88-.544,4.331-.645a15.547,15.547,0,0,1,4.43.082c3.356.762,6.649,1.8,9.977,2.69,1.064.284,2.16.443,3.242.659l.132-.46a32.15,32.15,0,0,0-10.154-3.856A31.311,31.311,0,0,0,391.244,291Zm74.1-78.523-.115.462a5.414,5.414,0,0,1,.672.606c.937,1.179,2.992,1.345,3.034,3.342,0,.085.142.185.237.247,1.022.663,2.01,1.393,3.083,1.96,1.238.654,2.553,1.162,3.928,1.776.329-.468.275-.982-.339-1.493a16.1,16.1,0,0,1-1.325-1.314,14.933,14.933,0,0,0-6.4-4.357,13.386,13.386,0,0,1-1.7-.911A6.873,6.873,0,0,0,465.348,212.48ZM497.329,230.1l.015.313a2.5,2.5,0,0,0,.9.172c1.678-.342,3.343-.745,5.017-1.108,2.7-.587,5.382-1.244,8.209-.755a39.284,39.284,0,0,0,4.589.273,10.322,10.322,0,0,0-3-1.526,9.566,9.566,0,0,0-5.443-.344c-2.3.687-4.612,1.355-6.921,2.025C499.575,229.473,498.451,229.782,497.329,230.1Zm-54.271,41.679c-1.343-1.312-11.949-1.15-15.035.007C433.057,273.959,437.91,272.425,443.058,271.777ZM427.2,314.94c1.744,0,3.431.056,5.113-.022a13.1,13.1,0,0,0,2.821-.508,1.219,1.219,0,0,0,.679-.82c.043-.207-.294-.616-.554-.744a9.11,9.11,0,0,0-5.642-.427C428.075,312.663,427.8,313.976,427.2,314.94ZM384.561,303.2l.027.293a16.211,16.211,0,0,0,3.063-.029,28.067,28.067,0,0,1,10.9.214,12.659,12.659,0,0,0,2.386.022l.038-.468c-.335-.09-.666-.206-1.006-.266-2.232-.393-4.487-.679-6.693-1.183C390.122,301.059,387.384,302.288,384.561,303.2ZM419.9,260.526l-.075.321a3.164,3.164,0,0,0,.725.37,26.045,26.045,0,0,0,3.5.683,31.471,31.471,0,0,1,9.715,2.245,24.6,24.6,0,0,0,2.608.752,1.972,1.972,0,0,0-1.763-1.775c-3.949-.906-7.908-1.774-11.881-2.569A14.653,14.653,0,0,0,419.9,260.526Zm83.834-17.151c1.74.688,3.265,1.417,4.865,1.888,1.574.463,3.456,1.657,4.282-1.037C508.923,242.425,507,242.215,503.737,243.375Zm-72.41-55.238c1.331-3.839-1.375-10.146-4.022-10.8a14.859,14.859,0,0,1,1.2,2.409c.712,2.347,1.27,4.74,1.956,7.1A5.173,5.173,0,0,0,431.327,188.137Zm33.128,132.327a33.3,33.3,0,0,0,3.176,12.392C468.309,328.257,466.581,324.307,464.455,320.464Zm7.7-10.533c-.027-1.218-.069-2.127-1.4-2.395a13.549,13.549,0,0,0-7.473.59,4.18,4.18,0,0,0-.931.675A27.231,27.231,0,0,1,472.156,309.931ZM408.719,171.722l-.517.481a15.674,15.674,0,0,1,1.779,1.27,9.4,9.4,0,0,1,1.731,1.987c.8,1.346,1.439,2.784,2.153,4.18.284.554.645.961,1.364.608-.579-1.422-1.217-2.775-1.687-4.185C412.739,173.656,410.879,172.536,408.719,171.722Zm123.84,43.586c.052-.01-.067-.015-.156.035a1.812,1.812,0,0,0-.467.334c-1.458,1.616-3,3.169-4.319,4.891a8.281,8.281,0,0,0-1.143,2.929c-.1.367.257.853.405,1.284a4.437,4.437,0,0,0,.887-1.04,19.218,19.218,0,0,1,.921-2.684C529.9,219.073,531.278,217.187,532.559,215.308Zm-129,85.836c1.529.919,5.934,1.73,7.182,1.443a3.14,3.14,0,0,0,.745-.4c-.208-.232-.383-.618-.63-.671-1.749-.382-3.5-.767-5.28-.99C405.02,300.451,404.4,300.87,403.563,301.144ZM460.746,229.4c.511,1.329,8.148,3.4,10.366,2.821A43.346,43.346,0,0,0,460.746,229.4Zm85.875-16.26c-3.7.325-6.355,2.867-8.642,5.984Zm-82.668,38.8-.32-.269c-2.4.418-5.5,4.378-5.624,6.241Zm68.656,58.114c0-.939-.7-1.2-1.311-1.282-.33-.044-.844.374-1.069.718a2.3,2.3,0,0,0-.449,1.488,2.7,2.7,0,0,0,.948,1.4,1.092,1.092,0,0,0,1.048-.231A13.312,13.312,0,0,0,532.609,310.045ZM443.987,185c-.139.694-.231,1.244-.361,1.786-.251,1.041-.567,2.068-.756,3.12-.052.292.251.648.391.975.268-.173.618-.289.785-.532a9.715,9.715,0,0,0,.643-1.33A3.408,3.408,0,0,0,443.987,185Zm69.543-35.305a3.649,3.649,0,0,0,1.723,2.985,1.7,1.7,0,0,0,1.354-.069c.134-.054.123-.764,0-1.111A2.734,2.734,0,0,0,513.53,149.691Zm-9.135,155.293-4.3-5.656C500.085,301.975,502.451,305.216,504.395,304.984ZM388.367,167.632l6.466,5.157A8.954,8.954,0,0,0,388.367,167.632Zm40.028,133.242c-.735-.155-1.273-.106-1.511-.349-.875-.9-1.545-.3-2.349.124l2.149,2.075Zm63.561-74.056c2.23.02,3.931-1.151,5.592-2.413A8.351,8.351,0,0,0,491.956,226.818ZM481.775,225.7c1.079,1.435,1.842,2.97,3.68,3.6A6,6,0,0,0,481.775,225.7ZM446.34,314.645a1.771,1.771,0,0,0-2.315-1.038c-.3.059-.522.495-.78.759.287.267.587.771.859.757A13.222,13.222,0,0,0,446.34,314.645ZM443.131,292.6l.318-.391c-.332-.4-.589-1.006-1.011-1.158-.957-.347-1.728.219-2.673.95Zm8.321-82.5-2.923-1.545-.2.294,2.07,2.639ZM426.536,283.8l.47-.406c-.744-1.553-2.228-2.391-3.645-3.293Zm130.207-62.012.264.624a24.568,24.568,0,0,0,4.327-2.418l-.125-.265ZM414.1,283.826l-.194.292,4.4,2.363.247-.474Zm67.17-69.193c-.814,1.748-.593,2.152,1.426,2.614Zm-27.781,48c-1.229.055-1.153,1.108-1.493,1.795-.043.087.221.326.343.494.395-.533.814-1.05,1.168-1.609C453.6,263.163,453.5,262.888,453.484,262.634ZM466.523,245.2l.729,2.09,1.2-1.444Zm85.67-28.224-.188-.294-3.792,2.433.164.255Zm-9.525,10.262,1.817-1.364C542.987,225.41,542.533,225.765,542.668,227.235Zm-97.9,96.48-1.888,1.5C444.267,325.667,444.835,325.2,444.771,323.715Zm56.42-89.19.082.6,2.612-.432-.058-.386Z"/><g class="h" transform="translate(401.058 499.067) rotate(-93.077)"><rect class="l" width="50.78" height="129.882"/><rect class="n" x="2" y="2" width="46.78" height="125.882"/></g><g class="d"><path class="l" d="M 398.658203125 490.1885375976563 L 392.6740112304688 478.7837524414063 L 391.8248901367188 442.2077026367188 L 396.7402954101563 447.3961791992188 L 398.658203125 490.1885375976563 Z"/><path class="m" d="M 393.9448852539063 447.3535461425781 L 394.66259765625 478.2691650390625 L 396.2582702636719 481.3102111816406 L 394.7756652832031 448.23046875 L 393.9448852539063 447.3535461425781 M 389.7048950195313 437.0618591308594 L 398.7048950195313 446.5618591308594 L 401.0581359863281 499.0668334960938 L 390.6854248046875 479.29833984375 L 389.7048950195313 437.0618591308594 Z"/></g><g class="d"><path class="l" d="M 398.427734375 446.4809265136719 L 393.2169189453125 438.4939575195313 L 514.7671508789063 431.95947265625 L 523.2908935546875 439.7683410644531 L 398.427734375 446.4809265136719 Z"/><path class="m" d="M 514.03564453125 434.001708984375 L 396.786376953125 440.3049621582031 L 399.4723510742188 444.421875 L 518.42919921875 438.0267944335938 L 514.03564453125 434.001708984375 M 515.4987182617188 429.9172668457031 L 528.152587890625 441.5098571777344 L 397.383056640625 448.5399780273438 L 389.6473388671875 436.6829833984375 L 515.4987182617188 429.9172668457031 Z"/></g><path class="i" d="M599.221,462.259l-8.711,3.319-8.815,7.036s-7.779,5.617-12.134,6.031-6.223,1.867-3.941,3.319,12.86.9,12.86.9h29.868s8.471.341,9.715-1.734-1.73-6.43-1.833-9.645,1.833-4.044,1.833-4.044l1.07-5.186Z"/><path class="i" d="M861.066,468.476s6.652,3.947,7.689,5.036,5.139,4.874,6.125,5.6,11.511,3.209,12.756,3.756a3,3,0,0,1,1.244,3.319c-.39.519-14.778-.23-14.778-.23s-19.549-2.437-24.424-4.511c-2.385-4.3,0-11.512,0-11.512s1.089-4.2,3.734-3.734A65.162,65.162,0,0,1,861.066,468.476Z"/><path class="j" d="M745.451,261.168c17.5-.277,29.478,10.167,32.357,12.756,9.116,8.2,12.4,17.506,17.423,31.735a293.874,293.874,0,0,1,10.578,35.78c3.517,14.783,2.58,17.921,4.978,23.645,4.288,10.233,6.643,10.542,13.69,23.335,3.239,5.88,4.134,4.389,16.49,32.357,10.132,22.935,6.255,18.139,8.711,24.268a130.681,130.681,0,0,0,7.467,16.178c.908,1.64,6.723,7.268,3.112,7.467-6.2.342-9.683,15.668-10.579,12.757a105.63,105.63,0,0,0-7.518-18.131c-1.8-3.506-1.8-3.506-10.838-17.027-9.834-14.71-12.682-14.891-19.29-27.275-5.1-9.552-5.267-6.21-10.267-15.66-7.745-14.638-12.141-17.958-19.083-31.83-1.221-2.44-3.51-5.991-7.674-18.884-2.325-7.2-6.416-11.348-10.267-18.045-3.871-6.731-4-10.035-7.467-10.267-5.916-.4-10.844,8.174-18.979,22.515-15.216,26.823-22.09,35.354-45.425,59A124.675,124.675,0,0,0,677.625,424.2c-7.54,10.783-8.224,11.61-9.334,12.756-7.69,7.948-11.234,5.835-24.579,14.623-13.934,9.177-14.2,14.2-23.023,15.557-4.009.615-8.853.33-10.578,3.422-1.668,2.99.425,6.508-1.867,9.334-1.131,1.394-1.708,3.389-3.422,2.9-2.663-.755-3.177-5.443-6.223-9.749-3.689-5.215-7.836-4.854-8.089-7.467-.327-3.365,6.4-5.532,15.245-11.2,6.169-3.953,10.439-7.925,18.979-15.867,8.522-7.926,12.784-11.89,17.734-18.356,4.588-5.994,6.271-7.64,13.067-12.757,3.7-2.786,13.682-16.451,15.557-18.978,8.567-11.552,5.133-7.535,9.022-18.357C691.636,338,691.16,348,695.671,334.283c7.467-22.713,6.844-37.024,23.334-58.8C719.944,274.24,723.013,261.523,745.451,261.168Z"/><path class="i" d="M740.68,261.375c-1.659-1.348-6.119,2.593-17.941,3.526s-34.847,3.423-34.847,3.423L662.38,264.59l-18.045-9.022-3.734-7.779s1.245-49.78,0-63.469-4.044-34.536-4.044-34.536-4.356-23.023-4.356-23.956-.311-18.357,0-19.6-8.986-23.646-14.138-25.513A6.127,6.127,0,0,0,609.489,86c0,3.111,3.422,15.556,3.422,18.045s-1.867,2.178-3.422.622-5.6-8.089-5.6-8.089-2.178,0-2.178,2.8,3.734,9.956,3.734,9.956,3.733,8.4,7.778,11.512,4.082,9.022,4.841,14.312,2.352,28.934,0,35.468,2.626,33.291,2.626,33.291L621,227.566s-4.978,16.49-5.6,24.579.622,23.957.622,23.957,1.245,9.334.311,10.267-9.645,0-9.645,0,.994-4.354.683-6.532-3.172-4.668-5.661-3.735-15.245-1.7-15.245-1.7a111.048,111.048,0,0,0-17.812.148,48.434,48.434,0,0,0-15.167,4.978s-10.579,4.356-11.823,12.756-1.245,9.334,0,13.379,4.667,6.534,0,8.711-9.956,4.045-7.467,10.579,4.822,11.511,9.178,11.823c2.1.15,7.281-.271,10.423-1.867,3.369-1.712,5.739-6.04,6.222-6.845a4.249,4.249,0,0,1,2.148-1.7,12.711,12.711,0,0,0,2.986,4.5,21.727,21.727,0,0,0,4.045,3.111c3.074,2.064,4.775,3.2,7.311,3.89,2.7.728,5.514.718,5.6.311.057-.267-1.086-.574-3.266-1.556-2.257-1.016-1.955-1.1-8.245-4.667a13.542,13.542,0,0,1-3.267-2.178,10.462,10.462,0,0,1-2.414-3.6,9.843,9.843,0,0,1,4.281,2.2c4.978,4.045,12.6,3.111,14.778,2.178s8.945-4.745,11.823-7.778,2.956-6.845,3.422-7.467,5.289-.311,6.534.311,5.911,9.334,6.534,10.267,3.111,2.178,2.8,5.912-1.354,13.376-1.556,19.6-.933,12.056.389,23.412c.388,3.328,5.317,12.754,5.211,18.59s.038,11.2-1.07,16.178,1,19.882,1.693,28.831c1.037,13.482,3.941,28.935,3.733,31.32s-4.356,5.808-4.356,5.808L608.866,480.2l-13.378,2.667s-8.712,2.514-8.712,3.448,15.557-.2,15.557-.2H612.6l13.067-1.244s7.675-2.178,8.4-4.667-.519-8.815-.519-8.815,1.748-12.03,2.222-20.12,0-56.936,0-56.936-.1-17.1.267-24.786c.407-8.511-.43-13.483-.267-14.727s2.341-7.238,7.008-7.975,15.868,2.167,22.712.612,9.023-9.438,12.757-11.305,10.889-2.489,14-1.866,16.8,1.694,27.379,1.555c31.735-.622,27.38-48.536,28.313-57.558S742.34,262.723,740.68,261.375Z"/><path class="k" d="M662.38,264.59c.933-1.348,27.794.415,28.935,2.074s5.185,15.349,3.111,30.906-2.052,34.925-4.345,36.493-7.021-.483-10.251,1.433-4.5,2.923-7.756,7.594c-5.2,7.457-25.126,8.62-30.954,3.752-5.524-4.613-17.652-15.35-19.912-16.293l-7.445-3.107c.686.286-4.745-.212-5.651-1.352s-.65-6.291,0-7.346,9.951,4.027,9.951,4.027l9.575,4.045s20.914,11.078,25.927.207c8.608-18.668-24.061-35.883-24.061-35.883s-11.882-6.7-12.838-7.862-.846-4.735-.434-5.437,10.991,4.172,10.991,4.172,7.467,3.63,14.726,2.8,8.789-.137,13.974-4.285S661.447,265.938,662.38,264.59Z"/></g></g></svg>