<svg xmlns="http://www.w3.org/2000/svg" xmlns:xlink="http://www.w3.org/1999/xlink" width="371.602" height="319.797" viewBox="0 0 371.602 319.797"><defs><style>.a{fill:url(#a);}.b,.f{fill:none;}.b,.c,.h{stroke:#04181d;}.b,.c,.f,.h{stroke-miterlimit:10;stroke-width:2px;}.c,.g{fill:#fff;}.d{fill:#04181d;}.e{fill:#b4c0d3;}.f{stroke:#fff;}.h{fill:#7b9069;}.i{fill:#5d0923;}</style><linearGradient id="a" y1="0.5" x2="1" y2="0.5" gradientUnits="objectBoundingBox"><stop offset="0.005" stop-color="#9cb189"/><stop offset="1" stop-color="#5e734e"/></linearGradient></defs><g transform="translate(-288.206 40.754)"><path class="a" d="M463.689,74.592c-10.8,21.595-79.308,2.881-88.348,34.822-6.787,23.979-42.379,41.048-52.709,66.85-24.57,61.369,9.353,110.537,74.978,118.48,42.7,5.169,88.211-42.8,120.985-27.763,61.658,28.283,132.688,15.181,114.333-24.769-8.991-19.569,24.463-53.237,22.793-72.947s-15.287-20.405-54.483-33.24c-14.73-4.823-26.811-7.053-22.361-45.619S493.252,15.466,463.689,74.592Z" transform="translate(-15.577 -16.093)"/><path class="b" d="M606.136,305.975c26.644,8.4,43.377,20.523,43.377,34.007,0,25.346-59.123,45.893-132.055,45.893S385.4,365.328,385.4,339.982c0-12.673,14.78-24.146,38.678-32.451" transform="translate(-45.357 -137.229)"/><g transform="translate(289.206 215.786)"><g transform="translate(0)"><path class="c" d="M339.436,407.192c0,8.81-11.244,17.525-25.115,17.525a32.051,32.051,0,0,1-13.735-3.071,22.557,22.557,0,0,1-9.168-7.6,12.357,12.357,0,0,1-2.212-6.85c0-8.81,11.244-12.21,25.115-12.21S339.436,398.382,339.436,407.192Z" transform="translate(-289.206 -394.982)"/><ellipse class="d" cx="22.384" cy="7.432" rx="22.384" ry="7.432" transform="translate(2.731 2.962)"/></g><circle class="b" cx="2.711" cy="2.711" r="2.711" transform="translate(45.842 25.347)"/><circle class="b" cx="1.616" cy="1.616" r="1.616" transform="translate(52.477 21.968)"/><circle class="b" cx="1.325" cy="1.325" r="1.325" transform="translate(54.093 28.118)"/></g><g transform="translate(554.77 199.899)"><circle class="d" cx="10.929" cy="10.929" r="10.929" transform="translate(0 0)"/><circle class="e" cx="2.616" cy="2.616" r="2.616" transform="translate(13.149 3.565)"/></g><g transform="translate(366.422 187.831)"><circle class="f" cx="6.55" cy="6.55" r="6.55" transform="translate(0 0)"/><circle class="g" cx="1.568" cy="1.568" r="1.568" transform="translate(3.429 3.237)"/></g><path class="d" d="M590.045,208.877a13.49,13.49,0,0,0-.538-3.155c-.179-.708-.267-1.438-.426-2.151-.091-.412-.27-.8-.363-1.216-.233-1.027-.427-2.062-.663-3.088-.133-.574-.338-1.131-.477-1.7a18.33,18.33,0,0,0-.389-1.8,4.579,4.579,0,0,0-.585-1.6c-.025-.03-.018-.086-.031-.128q-.3-.983-.6-1.964c-.106-.345-.211-.69-.327-1.031-.177-.519-.362-1.036-.547-1.553-.239-.67-.471-1.342-.722-2.007-.217-.572-.467-1.132-.683-1.7-.2-.531-.361-1.079-.574-1.605s-.46-1.024-.7-1.531c-.383-.8-.746-1.607-1.173-2.38a8.741,8.741,0,0,0-1.131-1.7c-.6-.654-1.318-1.2-1.972-1.8-.238-.22-.435-.483-.659-.719-.421-.446-.844-.89-1.271-1.329-.966-.988-1.982-1.931-2.89-2.97-.925-1.06-1.734-2.22-2.612-3.32a18.244,18.244,0,0,0-2.41-2.824c-.309-.257-.516-.633-.8-.924-.3-.311-.641-.592-.97-.878a21.837,21.837,0,0,0-2.105-1.784c-1.4-.932-2.3-2.352-3.521-3.455-.126-.114-.25-.233-.405-.378.1-.212.125-.538.546-.234.131.094.369.041.594.058-.013-.142.015-.272-.037-.332a8.12,8.12,0,0,0-1.049-1.121c-.761-.591-.967-1.533-1.518-2.252-.162-.211.14-.572.428-.477.314.1.45-.09.666-.2a.856.856,0,0,1,.628-.09,8.884,8.884,0,0,1,1.067.6c.843.48,1.681.971,2.535,1.433a25,25,0,0,0,2.267,1.134,15.02,15.02,0,0,1,1.91,1.19,9.016,9.016,0,0,0,1.143.48l-.339,1.583c.924.319,1.84.64,2.76.948a2.378,2.378,0,0,0,.4.036c.216.033.5,0,.633.13.424.415.974.336,1.464.49a7,7,0,0,1,1.24.632c.438.243.865.5,1.3.754.205.12.42.228.614.363a5.47,5.47,0,0,0,1.265.654c.439.162.762.617,1.162.91.295.217.725.31.923.582a2.92,2.92,0,0,0,1.121.728,1.618,1.618,0,0,1,.869,1.6,12.47,12.47,0,0,0,.018,1.254c.029.36-.17.781.258,1.063.063.041.011.255.013.389l.119-.062.883,1.394a2.5,2.5,0,0,0,.183.276c.264.309.541.607.8.919.208.248.377.532.6.762a2.749,2.749,0,0,1,.6,2.275,2.7,2.7,0,0,1-.074.567c-.065.236-.2.455-.25.693-.074.327-.008.725-.172.986a13.323,13.323,0,0,1-1.3,1.683c-.136.155-.414.183-.66.282a4.973,4.973,0,0,1-.024,1.125c-.049.3.311.68.5,1.015.066.114.2.19.257.307.277.588.562,1.174.8,1.779.257.66.454,1.345.693,2.012.08.224.226.424.317.646.279.676.532,1.364.823,2.036.193.444.451.86.648,1.3.124.277.155.6.295.865a4.774,4.774,0,0,0,.541.7c.033.041.1.071.1.114a6.449,6.449,0,0,0,1.22,2.473,4.513,4.513,0,0,1,.753,1.637c.041.19.2.383.26.617.23.824.521,1.633.805,2.441.237.674.491,1.342.751,2.008.326.836.615,1.692,1.014,2.492a6.258,6.258,0,0,1,.556,2.02,1.645,1.645,0,0,0,.185.421l.159-.045c0-.331,0-.663-.013-.992-.02-.384-.087-.766-.091-1.149-.049-3.988-.08-7.976-.136-11.963-.026-1.878-.071-3.756-.153-5.631-.068-1.555-.2-3.107-.312-4.659-.1-1.358-.192-2.718-.317-4.074-.057-.627-.2-1.247-.276-1.872-.083-.689-.125-1.383-.2-2.072-.156-1.405-.323-2.809-.482-4.213-.043-.382-.076-.766-.106-1.149-.108-1.356-.175-2.717-.332-4.067-.144-1.24-.384-2.468-.584-3.7-.011-.071-.052-.138-.063-.208a12.623,12.623,0,0,0-.431-2.393c-.183-.484-.118-.961-.26-1.427s-.164-.984-.274-1.469c-.214-.942-.451-1.88-.683-2.819q-.3-1.224-.62-2.444c-.166-.633-.349-1.26-.517-1.892-.143-.537-.264-1.081-.417-1.616-.175-.611-.379-1.214-.564-1.823-.114-.372-.223-.745-.318-1.121-.147-.579-.247-1.172-.431-1.738a8.153,8.153,0,0,0-.55-1.122c-.018-.035-.063-.064-.067-.1a1.748,1.748,0,0,0-.253-.856,11.988,11.988,0,0,1-.591-1.576c-.374-.807-.816-1.581-1.218-2.376-.18-.356-.318-.732-.5-1.086-.352-.684-.729-1.355-1.081-2.038-.332-.641-.592-1.326-.979-1.931-.763-1.191-1.583-2.346-2.4-3.5-.532-.756-1.085-1.5-1.65-2.229a8.367,8.367,0,0,1-.857-.984,2.615,2.615,0,0,0-.608-.823,3.585,3.585,0,0,0-.517-.29c.057-.513-.433-.85-.8-1.232-.724-.748-1.472-1.476-2.243-2.176-1.037-.941-2.1-1.855-3.161-2.767-.788-.677-1.592-1.335-2.394-2-.522-.431-1.052-.852-1.579-1.276-.486-.391-.969-.788-1.46-1.171-1.01-.79-2.033-1.563-3.036-2.362-.821-.655-1.6-1.358-2.435-2-.739-.572-1.52-1.087-2.279-1.631-.354-.254-.7-.516-1.05-.775-.8-.6-1.616-1.188-2.409-1.8-.467-.361-.9-.762-1.353-1.142-.529-.443-1.076-.866-1.59-1.325-.7-.624-1.352-1.294-2.059-1.905a1.5,1.5,0,0,1-.6-1.23c0-.156-.135-.316-.217-.47-.149-.28-.127-.549.188-.64a1.945,1.945,0,0,1,.916-.051c.126.028.19.345.251.677,1.443-.07,2.886-.184,4.329-.193.773,0,1.54-.347,2.331.02a15.539,15.539,0,0,0,2.846.724c.164.041.312.277.4.457a1.023,1.023,0,0,1,.016.486c-.035.434.136.606.578.756,1.083.369,2.13.844,3.179,1.3.948.413,1.859.916,2.827,1.275.847.314,1.754.465,2.625.722.712.21,1.409.472,2.115.706a3.939,3.939,0,0,0,.55.148c.625.111.77.406.606,1.007a4.491,4.491,0,0,0-.185,1.47,1.153,1.153,0,0,0,.531.728,6.957,6.957,0,0,0,1.837.928c.926.239,1.709.788,2.625,1.034a3.888,3.888,0,0,1,1.092.549c.217.143.481.352.14.671-.068.064-.019.254.076.3.749.661,1.519,1.3,2.242,1.99s1.388,1.43,2.087,2.14a13.651,13.651,0,0,0,1.384,1.341c.73.557,1.276,1.291,1.958,1.889.353.309.685.647,1.063.92a2.763,2.763,0,0,0,.745.251l.031.375.487.038c.025.234.071.493.311.315a2.383,2.383,0,0,0,.323.4c.716.561,1.435,1.119,2.171,1.653.113.082.316.039.5.056a.781.781,0,0,0,.328.762c.4.389.863.67,1.284,1.014a.278.278,0,0,1,.08.1c.111.27.218.542.335.837a2.178,2.178,0,0,1,.8-.06c.154.048.23.341.394.5a3.557,3.557,0,0,0-.142-1.977,22.959,22.959,0,0,0-.743-2.7c-.162-.389-.08-.842-.307-1.129-.357-.454-.209-.952-.325-1.417a4.088,4.088,0,0,0-.53-1.087,13.686,13.686,0,0,1-1.117-2.774c-.359-1.057-.838-2.075-1.266-3.109-.251-.605-.489-1.217-.76-1.813a1.9,1.9,0,0,0-.4-.539,6.4,6.4,0,0,1-1.1-2.116c-.384-.846-.559-1.793-.984-2.614a22.31,22.31,0,0,1-1.128-3.724,23.387,23.387,0,0,1-.519-2.852c-.172-.949-.365-1.895-.54-2.843-.054-.289-.064-.586-.122-.874a8.547,8.547,0,0,0-.248-.971c-.328-1.011-.684-2.012-1-3.025-.215-.682-.356-1.387-.578-2.066-.253-.769-.559-1.521-.842-2.28a.147.147,0,0,1-.011-.043,22.261,22.261,0,0,0-.813-3.291,10.076,10.076,0,0,0-.68-1.925,24.221,24.221,0,0,1-1-2.75c-.156-.529-.12-1.112-.229-1.658a4.873,4.873,0,0,0-.376-.965c-.138-.316-.3-.621-.444-.935-.249-.545-.514-1.083-.732-1.64-.238-.61-.432-1.237-.642-1.859-.1-.289-.207-.576-.275-.873-.141-.611-.248-1.229-.389-1.84s-.31-1.2-.454-1.8c-.154-.638-.264-1.288-.448-1.916-.166-.565-.414-1.107-.614-1.663a4.041,4.041,0,0,1-.456-1.831c.018-.172-.249-.355-.313-.556-.185-.583-.325-1.18-.5-1.766-.072-.244-.2-.472-.272-.715-.2-.654-.347-1.328-.587-1.967-.5-1.332-1.111-2.626-1.555-3.974a14.3,14.3,0,0,1-.937-5.133,2.554,2.554,0,0,1,2.115-2.694c.339-.083.667-.1.823-.557a.663.663,0,0,1,.912-.293,4.609,4.609,0,0,0,2.2.554c.159-.016.341.139.5.229.559.31,1.116.621,1.667.944a.528.528,0,0,1,.175.248c.272.637.907.869,1.387,1.277.853.723,1.666,1.493,2.486,2.255a8.531,8.531,0,0,1,1.311,1.315,6.876,6.876,0,0,0,1.125,1.113,16.465,16.465,0,0,1,1.516,1.9c.35.441.72.864,1.074,1.3.822,1.011,1.649,2.018,2.455,3.041.214.271.352.6.542.893.233.355.484.7.728,1.047.26.372.514.749.784,1.113.077.1.2.169.24.268.111.2.211.405.336.6.481.741.946,1.494,1.463,2.21.491.679,1.046,1.31,1.558,1.975a6.432,6.432,0,0,1,.36.634c.24.4.465.808.739,1.182.161.219.812-.034.949-.357a1,1,0,0,0,.093-.381,7.361,7.361,0,0,1,.778-2.7c.14-.363.237-.743.355-1.116a3.767,3.767,0,0,1,.137-.414c.525-1.177,1.063-2.349,1.573-3.532a2.072,2.072,0,0,0,.054-.635c.611-.106.441-.724.667-1.092a14.574,14.574,0,0,0,.769-1.591,4.455,4.455,0,0,1,.3-.7,8.873,8.873,0,0,0,1.337-2.488,7.4,7.4,0,0,1,.849-1.438c.221-.377.423-.764.628-1.149s.418-.785.612-1.183c.081-.166.123-.352.191-.526a8.157,8.157,0,0,1,.738-1.767,1.83,1.83,0,0,0,.231-.762l.106.072a11.135,11.135,0,0,0,.74-1.1c.353-.677.63-1.393.984-2.069.249-.476.614-.893.854-1.372a12.663,12.663,0,0,0,.546-1.456,9.489,9.489,0,0,1,.948-1.646,8.784,8.784,0,0,0,.61-1.03,1.682,1.682,0,0,0,.008-.649,4.248,4.248,0,0,0,.549-.609c.335-.555.637-1.131.938-1.706.04-.077-.009-.2-.012-.3s-.036-.224.012-.281c.192-.23.441-.416.61-.66a1.859,1.859,0,0,0,.287-.706c.074-.4.005-.784.51-1.06.32-.175.46-.711.634-1.106.144-.325.183-.647.584-.859.3-.158.475-.591.657-.928.285-.528.506-1.091.8-1.611.108-.188.359-.293.542-.438.054-.043.147-.1.144-.141a3.55,3.55,0,0,1,.238-1.037c.089-.413.253-.515.5-.49.369-.493.66-.955,1.024-1.351a2.611,2.611,0,0,0,.75-1.564c.45-.192.864-.366.911-1.012a1.2,1.2,0,0,1,.82-1.077,1.871,1.871,0,0,0,.617-.48c.337-.329.6-.277.748.15.051.148.144.365.257.394.68.174.589.864.874,1.289a8.81,8.81,0,0,0,1.6,2.312c.064.051.076.174.142.217a1.383,1.383,0,0,0,.553.286c.306.025.45-.2.449-.5,0-.582-.018-1.165-.013-1.748a3.655,3.655,0,0,1,.515-1.715c.158-.29.228-.627.367-.93a1.068,1.068,0,0,0,.156-.68c.29.1.458.053.584-.273.116-.3.336-.087.475.077s.317.493.391.47c.393-.12.87-.178,1.053-.627a5.593,5.593,0,0,0,.343-1.158.849.849,0,0,1,1.167-.592,1.8,1.8,0,0,0,.588.278,1.453,1.453,0,0,1,1.125,1.009.844.844,0,0,0,.962.5c.5-.149,1.008-.293,1.5-.465a.614.614,0,0,0,.367-.294,1.128,1.128,0,0,1,.8-.791.342.342,0,0,0,.189-.106.634.634,0,0,1,.872-.28c.215.12.3.479.44.731l-.09.093.765-.044.061.136a1.009,1.009,0,0,0-.444,1.154l.663-.007a7.931,7.931,0,0,0-.666.7,1.878,1.878,0,0,0-.28.618,9.99,9.99,0,0,0-.342,1.532,11.869,11.869,0,0,1-.525,1.885c-.038.139-.044.322-.135.408a1.531,1.531,0,0,0-.383,1.377,1.309,1.309,0,0,1-.408,1.166.335.335,0,0,0-.112.182c-.063.48-.133.96-.166,1.443a12.913,12.913,0,0,1-.206,2.731c-.191.643-.159,1.283-.309,1.914a12.9,12.9,0,0,0-.169,1.9,1.929,1.929,0,0,1-.066.29c-.139.58-.264,1.165-.424,1.739a16.591,16.591,0,0,1-.542,1.7c-.247.62-.548,1.219-.847,1.816-.187.375-.457.713-.614,1.1-.264.647-.476,1.314-.7,1.977-.36,1.088-.69,2.187-1.071,3.267-.164.464-.462.879-.638,1.339-.356.931-.664,1.879-1.009,2.815a2.269,2.269,0,0,1-.3.424,9.463,9.463,0,0,0-.781,1.68,10.922,10.922,0,0,1-1.755,3.094,16.29,16.29,0,0,0-1.077,1.535c-.235.336-.479.667-.719,1-.363.5-.7,1.034-1.1,1.5a9.186,9.186,0,0,1-.922.768c-.226.2-.421.44-.629.661l.133.179c.361-.163.732-.308,1.08-.494.447-.239.887-.5,1.313-.772.693-.449,1.375-.915,2.055-1.384.814-.562,1.617-1.139,2.432-1.7.51-.352,1.056-.655,1.536-1.042.414-.333.749-.762,1.135-1.132a3.111,3.111,0,0,1,.512-.35c.244-.153.5-.291.736-.453a.507.507,0,0,0,.226-.267c.06-.356.3-.452.6-.588a3.58,3.58,0,0,0,.747-.649c.21-.186.419-.374.64-.545.056-.044.157-.028.333-.054-.4.6-.75,1.142-1.118,1.663a10.026,10.026,0,0,0-.743.972,3.077,3.077,0,0,0-.157.919,1.633,1.633,0,0,0-.172.38c-.123.565-.182,1.147-.343,1.7a10.865,10.865,0,0,1-.647,1.66,4.843,4.843,0,0,0-.491,2.535,25.425,25.425,0,0,1-.132,3.458c-.011.167-.241.31-.342.481a6.173,6.173,0,0,0-1,1.838,17.571,17.571,0,0,0,.058,2.754c0,.691-.106,1.382-.162,2.073a6.34,6.34,0,0,1-.738,2.321,1.38,1.38,0,0,1-.515.607c-.557.289-.566.858-.623,1.305a9.443,9.443,0,0,0-.2,2.753,2.36,2.36,0,0,1-.109.721c-.015.087-.065.185-.041.257.221.661-.309,1.009-.611,1.437a5.892,5.892,0,0,1-.818.884c-.122.114-.354.113-.475.228-.649.62-1.267,1.274-1.922,1.888-.274.257-.628.428-.921.668-.257.211-.477.47-.718.7-.533.512-1.08,1.009-1.6,1.533-.313.315-.583.673-.88,1s-.614.64-.9.978-.55.7-.824,1.053a1.126,1.126,0,0,1-.19.22,4.548,4.548,0,0,0-.946.713c-.546.72-1,1.512-1.518,2.254a8.8,8.8,0,0,1-1.073,1.317c-.254.244-.706.29-.946.542a2.2,2.2,0,0,0-.442.97c-.195.778-.368,1.564-.49,2.355-.144.932-.611,1.83-.288,2.891a2.135,2.135,0,0,0,.42-.257c.326-.313.626-.653.947-.971.082-.081.244-.2.3-.165a.554.554,0,0,1,.29.332,1.692,1.692,0,0,0,.68,1.1c.224.2.309.556.516.789a11.487,11.487,0,0,0,2.436,1.881c.9.583,1.774,1.206,2.625,1.856.829.634,1.612,1.326,2.419,1.987a.758.758,0,0,0,.469.156,1.076,1.076,0,0,0-.116-.359q-.678-.819-1.384-1.614c-.53-.6-1.081-1.184-1.6-1.791a13,13,0,0,1-.79-1.05c-.6-.864-1.189-1.738-1.788-2.6a3.979,3.979,0,0,1-.807-1.925,6.864,6.864,0,0,0-.362-1.574c-.291-.85.279-1.227.817-1.636.221-.169.458-.316.681-.483.333-.248.642-.146.741.229a9.558,9.558,0,0,0,.389,1.246,7.447,7.447,0,0,0,.663,1.278,9.164,9.164,0,0,0,.833.939c.174.194.341.394.579.67,0,0,.213-.041.223-.11a.871.871,0,0,0-.057-.59,6.615,6.615,0,0,1-1.481-3.768c-.041-.768.086-1.03.852-1.249,1.181-.337,2.391-.575,3.56-.945a19.59,19.59,0,0,0,2.038-.932c.284-.128.584-.221.88-.324.864-.3,1.725-.606,2.594-.891.484-.159.99-.254,1.468-.425.735-.264,1.453-.578,2.183-.855a15.136,15.136,0,0,0,1.684-.614,8.769,8.769,0,0,1,1.891-.634,2.918,2.918,0,0,1,1.075-.153c.172.023.325.36.445.578a4.08,4.08,0,0,1,.237.632c.049.136.163.295.129.408-.225.755.284,1.354.4,2.033a4.683,4.683,0,0,0,.19.677c.016.048.1.074.227.159-.174-1.293-.336-2.506-.5-3.749.406-.04.434-.354.477-.677.051-.383.218-.437.519-.2a2.37,2.37,0,0,1,.351.254,1.923,1.923,0,0,1,.388.582,2.179,2.179,0,0,1,.021.646l.155.048a1.8,1.8,0,0,0,.182-.4c.091-.485.308-.6.66-.284a3.669,3.669,0,0,0,2.639.9,20.167,20.167,0,0,1,2.477.153,4.213,4.213,0,0,1,.922.332.809.809,0,0,0,1.072-.374c.425.281.436.379.057.636-.684.464-1.381.911-2.062,1.38a1.022,1.022,0,0,0-.349.488,25.709,25.709,0,0,0,3.219-.555c.377.018.553.285.7.63a4.2,4.2,0,0,1,.21,3.249,1.374,1.374,0,0,0-.042.484c.007.963.045,1.928.018,2.89a3.428,3.428,0,0,1-.266,1.046,5.21,5.21,0,0,1-.625,1.419,3.753,3.753,0,0,0-.506,1.818,3.916,3.916,0,0,1-.336.755c-.266.611-.521,1.227-.791,1.836a2.112,2.112,0,0,1-1.471,1.19c-.912.249-1.822.506-2.742.719-1.307.3-2.621.57-3.934.842-.187.038-.392-.013-.58.024-.249.048-.487.145-.732.212a2.247,2.247,0,0,1-.343.059c-.586.068-1.173.123-1.755.21-.1.015-.18.159-.269.244l.063.124c.423-.041.845-.1,1.268-.12.587-.025,1.177.013,1.762-.033,1.354-.106,2.7-.255,4.058-.366.522-.043,1.05-.021,1.575-.047.473-.023,1.063.093,1.391-.144.61-.441,1.357.038,1.885-.5a1.058,1.058,0,0,1-1.159.538c-.3-.041-.45.091-.606.371a4.346,4.346,0,0,1-2.789,2.4,3.165,3.165,0,0,0-.932.557c-.471.319-.935.648-1.394.984-.37.271-.709.591-1.1.829-.671.409-1.368.773-2.056,1.153a24.81,24.81,0,0,1-2.42,1.307c-1.171.485-2.4.841-3.6,1.263a3.786,3.786,0,0,0-.528.281l.081.205c.585-.117,1.175-.216,1.755-.356.825-.2,1.654-.394,2.461-.653.773-.247,1.519-.579,2.28-.865a7.608,7.608,0,0,0,1.855-.723c.384-.282.845-.283,1.19-.574.077-.065.228-.049.345-.051.022,0,.068.139.068.139-.113.06-.232.1-.34.16-.408.228-.812.46-1.294.735l.545.349c-.4.666-.769,1.334-1.205,1.953a1.847,1.847,0,0,1-.724.454,14.716,14.716,0,0,0-2.71,1.842,16.858,16.858,0,0,1-1.535.965c-.408.258-.819.514-1.213.794-.8.568-1.594,1.148-2.386,1.73-.273.2-.528.426-.8.629-.527.394-1.067.772-1.59,1.171-.375.288-.722.614-1.1.9-.309.234-.65.426-.962.656-.414.306-.814.632-1.221.948q-1.474,1.145-2.948,2.29a3.189,3.189,0,0,0-.408.388c-.231.256-.65.3-.819.5a1.871,1.871,0,0,1-1.4.5,5.976,5.976,0,0,1-.762.014l-.472.5-1.487,4.187.12.107a1.964,1.964,0,0,0,.457-.168,2.942,2.942,0,0,0,.919-.786c.176-.267.6-.371.927-.535.552-.28,1.11-.549,1.764-.871.162.044.277.223.366.542a6.484,6.484,0,0,0,1.349,2.328c.483.59.959,1.185,1.443,1.774.152.183.32.352.481.529l.152-.087a3.713,3.713,0,0,0-.241-.72,4.726,4.726,0,0,0-.5-.595c-.034-.042-.026-.119-.041-.178a1.162,1.162,0,0,0-.126-.44c-.232-.286-.5-.539-.763-.808.3-.4-.041-.724-.149-1.067-.248-.78-.547-1.543-.8-2.322-.1-.311.4-.833.711-.912.529-.133,1.042-.335,1.56-.51.056-.018.1-.066.16-.078.52-.114,1.038-.249,1.564-.33a25.472,25.472,0,0,1,2.629-.335,12.272,12.272,0,0,1,4.121.138,4.821,4.821,0,0,0,.573.064c1.244.206,2.485.43,3.731.62.47.071.952.054,1.426.106a.785.785,0,0,1,.466.2,18.548,18.548,0,0,0,1.676,1.594,8.177,8.177,0,0,1,1.259,1.715,6.13,6.13,0,0,1,.36.707c.234.462.087.742-.436.854-.189.041-.373.106-.56.16l.024.156c.336.069.673.136,1.008.208a1.324,1.324,0,0,1,.378.1,2.46,2.46,0,0,1,.735,2.322,1.4,1.4,0,0,1-.382.4,5.455,5.455,0,0,1-1.8,1,10.36,10.36,0,0,0-1.145.369c-.976.465-1.972.122-2.945.256-.1.014-.221-.023-.31.015a1.7,1.7,0,0,0-.322.231c.115.066.229.189.344.19,1.895.021,3.789.025,5.683.039a5.435,5.435,0,0,1,.578.057c-.082.595-.14,1.123-.232,1.646a10.6,10.6,0,0,1-.378,1.75c-.088.248-.442.408-.687.592a3.408,3.408,0,0,1-.424.24l.315.552a1.271,1.271,0,0,1-.388.112c-.682-.009-1.364-.075-2.044-.054a5.523,5.523,0,0,0-2.207.489c-.094.044-.122.23-.2.384a10.407,10.407,0,0,0,1.315-.028c.273-.039.527-.211.824-.266.029.465-.346.52-.578.688-.445.32-.915.607-1.374.91-.344.228-.7.443-1.024.692-.415.316-.808.662-1.212.994-.378.31-.745.637-1.139.925-.7.507-1.428.967-2.111,1.491-.8.61-1.584,1.235-2.319,1.915-.525.486-.948,1.079-1.431,1.611a8.138,8.138,0,0,1-.667.621c-.088.077-.222.108-.293.195a5,5,0,0,1-2.293,1.211,2.677,2.677,0,0,1-2.265-.146,3.5,3.5,0,0,0-.824-.116c-.447-.093-.887-.216-1.4-.344l.08.456a1.987,1.987,0,0,0-.751.224,1.831,1.831,0,0,0-.448.755c-.281.763-.529,1.538-.785,2.309-.327.989-.643,1.982-.975,2.97-.271.807-.622,1.592-.82,2.415a24.686,24.686,0,0,1-.863,2.59c-.405,1.122-.661,2.3-.988,3.446-.26.91-.559,1.809-.789,2.726-.234.932-.385,1.885-.614,2.819-.126.511-.351,1-.5,1.5-.067.222-.043.47-.1.7-.156.634-.353,1.259-.494,1.9-.167.755-.287,1.519-.439,2.276-.139.695-.316,1.383-.433,2.082-.211,1.256-.383,2.519-.589,3.776a1.052,1.052,0,0,1-.291.766c-.137.117-.051.479-.094.726a10.637,10.637,0,0,0-.267,1.452,2.35,2.35,0,0,1-.191,1.125.971.971,0,0,0-.083.339,3.56,3.56,0,0,1-.217,1.3,8.072,8.072,0,0,0-.384,1.972c-.139.716-.313,1.427-.458,2.142-.138.674-.253,1.352-.388,2.027-.187.931-.4,1.856-.568,2.79-.146.809-.236,1.629-.374,2.439a8.82,8.82,0,0,1-.255.924Zm-1.715-70.965c0,.047-.031.188.022.237a.96.96,0,0,1,.218.871.944.944,0,0,0,.081.39c.231.6.474,1.189.709,1.784.163.416.339.828.472,1.254q.485,1.555.93,3.121c.25.88.473,1.768.707,2.653.282,1.075.561,2.151.846,3.225a4.4,4.4,0,0,0,.43,1.37,3.988,3.988,0,0,1,.26,1.4q.181,1.056.375,2.11a2.514,2.514,0,0,0,.124.522c.431,1.016.385,2.14.769,3.18a23.908,23.908,0,0,1,.741,3.062q.31,1.38.593,2.768c.141.682.251,1.37.4,2.05.162.732.38,1.453.524,2.189.151.769.243,1.55.359,2.326.206,1.368.407,2.737.622,4.1a3.261,3.261,0,0,0,.2.572,2.346,2.346,0,0,0,.406-1.868c0-.642,0-1.285-.021-1.926-.084-2.624-.188-5.247-.259-7.871-.038-1.387.02-2.778-.038-4.164-.111-2.664-.271-5.327-.415-7.99-.085-1.563-.156-3.127-.277-4.686-.117-1.5-.282-2.995-.446-4.49-.08-.732-.209-1.459-.309-2.189-.1-.706-.182-1.415-.277-2.122s-.179-1.39-.3-2.079a1.021,1.021,0,0,0-.28-.624c-.116-.081-.411.049-.607.131-.379.159-.738.366-1.116.526-.445.188-.922.31-1.351.528a1.683,1.683,0,0,1-1.99-.423c-.351-.5-.366-.5-.97-.267C589.111,137.715,588.734,137.8,588.329,137.913Zm13.721,13.572.122-.021c.024-.212.06-.424.07-.637.024-.581.017-1.165.06-1.745.129-1.718.276-3.434.415-5.151q.194-2.4.385-4.808c.063-.815.178-1.632.162-2.446-.058-2.97-.136-5.939-.256-8.907-.067-1.68-.247-3.356-.346-5.034-.082-1.384-.119-2.772-.179-4.157-.025-.584-.059-1.167-.094-1.849-.278.162-.437.261-.6.35a9.621,9.621,0,0,1-1.392.713c-.683.228-1.4.349-2.1.516a.857.857,0,0,1-.843-.252c-.152-.139-.536-.256-.647-.169-.407.318-.863.2-1.323.261-.022.131-.092.276-.057.388.139.447.329.884-.018,1.324-.021.026-.007.09.007.13.129.391.25.786.4,1.171a11.751,11.751,0,0,1,.542,1.349c.33,1.37.617,2.75.9,4.13.233,1.146.467,2.294.638,3.45.106.714.354,1.386.431,2.118.207,1.974.559,3.931.853,5.895.123.821.25,1.642.369,2.464.221,1.534.526,3.062.629,4.6a29.907,29.907,0,0,0,.709,3.455.884.884,0,0,0,.049.172q.48,1.181.965,2.362C601.936,151.273,602,151.378,602.05,151.485Zm7.792-27.246c-.081.555-.17,1.032-.215,1.513-.122,1.336-.258,2.672-.326,4.012-.06,1.2-.22,2.383-.186,3.6.044,1.564-.254,3.135-.357,4.706-.136,2.069-.212,4.141-.336,6.21-.153,2.53-.364,5.057-.488,7.589-.121,2.453-.166,4.911-.238,7.367-.028.939-.042,1.878-.052,2.816a.851.851,0,0,0,.116.29c.083-.071.2-.127.241-.218a1.352,1.352,0,0,0,.184-.589,6.748,6.748,0,0,1,.606-2.636c.263-.736.559-1.462.857-2.186.167-.407.412-.786.54-1.2.3-.985.561-1.982.824-2.978.136-.516.248-1.037.362-1.558a.5.5,0,0,0-.023-.263c-.254-.688-.563-1.36-.762-2.062a10,10,0,0,1-.4-2.13,7,7,0,0,1,.786-3.76,5.053,5.053,0,0,1,.719-1.055c.785-.843,1.6-1.653,2.416-2.472.149-.15.391-.25.462-.424.163-.4.237-.843.366-1.261.328-1.062.657-2.124,1-3.179.218-.662.449-1.321.707-1.968.274-.69.588-1.363.847-1.96a4.249,4.249,0,0,1-.192-.827c-.025-.841-.01-.838-.8-1.086-.549-.172-1.1-.342-1.637-.547a1.656,1.656,0,0,1-.433-.355,7.59,7.59,0,0,0-.823-.724c-.814-.53-1.67-1-2.474-1.543A14.087,14.087,0,0,1,609.842,124.238Zm-.4,59.822.2.075a1.163,1.163,0,0,0,.216-.313c.27-.968.5-1.949.794-2.911.318-1.044.692-2.072,1.036-3.108.2-.609.381-1.227.6-1.833.456-1.279.948-2.547,1.391-3.831.392-1.138.719-2.3,1.1-3.438q.928-2.74,1.9-5.464c.384-1.084.739-2.183,1.215-3.227.306-.673.575-1.361.834-2.046a5.439,5.439,0,0,0,.145-1.589c0-.076-.078-.156-.118-.235-.35-.7-1.093-.879-1.688-1.22-.7-.4-1.493-.637-2.228-.981a4.164,4.164,0,0,1-.759-.552c-.238-.187-.411-.086-.472.145-.095.355-.11.73-.194,1.089-.244,1.034-.537,2.058-.75,3.1-.237,1.152-.432,2.315-.6,3.481-.2,1.369-.352,2.744-.5,4.12-.08.725-.07,1.461-.17,2.183-.113.81-.324,1.605-.455,2.413-.121.754-.2,1.515-.285,2.275-.094.839-.194,1.679-.258,2.521s-.057,1.712-.146,2.561c-.083.8-.282,1.6-.373,2.4C609.7,181.132,609.58,182.6,609.439,184.06Zm-4.074-55.849.163.034a.912.912,0,0,0,.148-.272c.1-.709.179-1.419.266-2.128.157-1.283.341-2.564.464-3.851a7.3,7.3,0,0,0,.026-3.225,4.977,4.977,0,0,1-.21-.761,14.912,14.912,0,0,1-.065-3.831,6.376,6.376,0,0,0-.039-.778c-.136.061-.2.071-.235.11-.623.689-1.25,1.374-1.853,2.08a.735.735,0,0,0-.142.516c.149,1.118.339,2.23.487,3.348.159,1.193.291,2.39.423,3.586.158,1.436.3,2.872.455,4.308C605.284,127.636,605.328,127.924,605.366,128.212Zm5.263-35.426a1.946,1.946,0,0,0-.027,2c.152.27.221.477-.083.68a.412.412,0,0,0-.118.247c-.132.618-.257,1.239-.384,1.859a13.221,13.221,0,0,1-.388-1.986c-.019-.131-.053-.26-.085-.389-.215-.851-.424-1.7-.654-2.55a2.511,2.511,0,0,0-.268-.506l-.069.054c.434,2.161.868,4.323,1.313,6.541.085-.1.155-.142.171-.2.182-.687.352-1.378.533-2.065A13.965,13.965,0,0,1,611,94.983a4.083,4.083,0,0,1,.516-.7.286.286,0,0,0,.029-.259.356.356,0,0,0-.263-.076,1.518,1.518,0,0,0-.362.142Z" transform="translate(-138.592 -55.683)"/><g transform="translate(358.411 82.81)"><g transform="translate(0)"><path class="h" d="M520.4,153.759,477.6,180.184l-41.223-26.953,41.777-8.766Z" transform="translate(-427.801 -143.887)"/><path class="h" d="M474.932,237.569l-43.973-11.795V161.93l43.973,11.795Z" transform="translate(-425.248 -152.122)"/><path class="h" d="M514.163,237.569l43.973-11.795V161.93l-43.973,11.795Z" transform="translate(-464.478 -152.122)"/><path class="b" d="M430.068,152.73l44.585-9.359,43.911,9.359" transform="translate(-424.828 -143.371)"/><g transform="translate(0 10.666)"><path class="g" d="M469.837,175.079l-5.388,25.435-44.3-14.382,5.711-22.58" transform="translate(-420.152 -163.552)"/><path class="b" d="M469.837,175.079l-5.388,25.435-44.3-14.382,5.711-22.58" transform="translate(-420.152 -163.552)"/></g><g transform="translate(50.017 11.018)"><path class="g" d="M514.792,175.636l5.388,25.193,44.3-14.245-5.711-22.365" transform="translate(-514.792 -164.219)"/><path class="b" d="M514.792,175.636l5.388,25.193,8.1-2.606,36.192-11.639-5.711-22.365" transform="translate(-514.792 -164.219)"/></g></g></g><g transform="translate(472.529 100.457)"><path class="h" d="M703.992,248.457l-64.88-25.163,5.628-22.766,5.876-23.769,64.88,25.163Z" transform="translate(-637.511 -176.76)"/><path class="h" d="M761.876,270.907l69.131,7.969,11.5-46.534-69.131-7.969Z" transform="translate(-695.394 -199.209)"/><path class="b" d="M662.8,177.234l68.669,9.838L795.8,210.116" transform="translate(-648.679 -176.984)"/><path class="h" d="M713.829,202.4l-12.9,16.939-64.847-27.414,12.866-14.688" transform="translate(-636.082 -176.984)"/><path class="h" d="M786.085,224.758l3.521,21,70.15,5.962-4.539-18.991" transform="translate(-706.809 -199.391)"/></g><g transform="translate(375.525 131.397)"><g transform="translate(1.564 0)"><path class="i" d="M476.666,277.493s-4.116,7.792-3.97,10.879-2.352,12.643-2.352,12.643l-2.94,7.644L455.5,318.951h8.674s15-1.764,16.025-2.2,3.528,1.323,7.2,2.94a34.233,34.233,0,0,0,15,2.5,37.409,37.409,0,0,0,10-2.5l7.939-2.058,3.528-1.029,6.91,2.352s15.583,6.91,29.844,6.91,34.548,1.029,50.866-8.086,19.138-11.851,20.729-19.406c2.1-9.983,2.249-25.124-15.1-39.09s-40.353-26.9-68.259-23.39c-22.853,2.877-47.485,19.259-47.485,19.259L485.34,265.879s-2.646-.147-3.381-.294-4.557-.294-4.557-.294l-2.205,1.617.441,6.028,1.911,3.822Z" transform="translate(-455.496 -235.305)"/></g><path class="f" d="M473.925,295.269s-2.426,1.323,0,6.174,0,6.615,0,6.615S470.4,316,470.838,320.627s-3.087,11.687-3.087,11.687l-6.174,8.159-9.041,7.5h7.5s12.789-1.544,16.979-2.426,2.426.882,11.908,2.426,16.979,1.984,20.948,0,9.482-1.985,12.569-5.072a11.739,11.739,0,0,0,3.307-9.261c-.22-2.2-.22-5.733-2.867-7.5s2.915-3.856,2.915-3.856.172,5.62,2.818,8.707,7.277,10.584,13.231,10.8,15.656-1.1,17.42-3.528" transform="translate(-452.536 -263.578)"/><path class="f" d="M543.306,385.839l3.43-3.528,1.961-.882" transform="translate(-495.334 -304.203)"/><path class="f" d="M561.97,348.485l-.49,3.769.49,2.567" transform="translate(-503.903 -288.67)"/></g><g transform="translate(561.273 65.234)"><path class="b" d="M906.273,116.047s-22-16.6-34.869,5.738-20.4,27.1-34.426,24.641S813.2,160.019,813.2,160.019" transform="translate(-808.34 -110.113)"/><circle class="d" cx="4.864" cy="4.864" r="4.864" transform="translate(0 45.041)"/></g></g></svg>