<svg xmlns="http://www.w3.org/2000/svg" width="130.321" height="130.321" viewBox="0 0 130.321 130.321"><defs><style>.a{fill:none;}.b,.d{fill:#fff;}.b{font-size:16px;font-family:Lato-Bold, Lato;font-weight:700;}.c,.d{stroke:none;}</style></defs><g class="a" transform="matrix(0.999, -0.035, 0.035, 0.999, 0, 4.397)"><path class="c" d="M0,63a63,63,0,1,1,111.734,39.928l5.73,20.057L95.8,116.8A63.013,63.013,0,0,1,0,63Z"/><path class="d" d="M 62.99977111816406 2.999992370605469 C 54.89864349365234 2.999992370605469 47.04138946533203 4.585968017578125 39.64626312255859 7.713897705078125 C 36.09168243408203 9.217369079589844 32.66304016113281 11.07842254638672 29.45560455322266 13.24533081054688 C 26.27786254882813 15.39218902587891 23.28955078125 17.85780334472656 20.57367706298828 20.57367706298828 C 17.85780334472656 23.28955078125 15.39218902587891 26.27786254882813 13.24533081054688 29.45560455322266 C 11.07842254638672 32.66304016113281 9.217369079589844 36.09168243408203 7.713897705078125 39.64626312255859 C 4.585968017578125 47.04138946533203 2.999992370605469 54.89864349365234 2.999992370605469 62.99977111816406 C 2.999992370605469 71.10107421875 4.585968017578125 78.95849609375 7.713897705078125 86.35372924804688 C 9.217369079589844 89.90837097167969 11.07842254638672 93.33704376220703 13.24535369873047 96.54451751708984 C 15.39220428466797 99.72229766845703 17.85780334472656 102.7106475830078 20.57367706298828 105.4265365600586 C 23.28955078125 108.1424255371094 26.27786254882813 110.6080627441406 29.45560455322266 112.7549133300781 C 32.66304016113281 114.9218444824219 36.09168243408203 116.7828979492188 39.64626312255859 118.2863922119141 C 47.04137420654297 121.4143142700195 54.89864349365234 123.0002975463867 62.99977111816406 123.0002975463867 C 68.60958862304688 123.0002975463867 74.16182708740234 122.227424621582 79.50225830078125 120.7031173706055 C 84.67648315429688 119.2262649536133 89.63504028320313 117.0504989624023 94.24018859863281 114.2362594604492 L 95.36322784423828 113.5499725341797 L 96.62870025634766 113.9115524291992 L 113.0962905883789 118.6165771484375 L 108.8494415283203 103.7522048950195 L 108.4176254272461 102.2407913208008 L 109.4145202636719 101.0254592895508 C 113.7210083007813 95.77535247802734 117.0778274536133 89.89369964599609 119.391731262207 83.54388427734375 C 121.7862091064453 76.9730224609375 123.0002975463867 70.06098937988281 123.0002975463867 62.99977111816406 C 123.0002975463867 54.89864349365234 121.4143142700195 47.04137420654297 118.2863922119141 39.64626312255859 C 116.7828979492188 36.09168243408203 114.9218444824219 32.66304016113281 112.7549133300781 29.45560455322266 C 110.6080627441406 26.27786254882813 108.1424255371094 23.28955078125 105.4265365600586 20.57367706298828 C 102.7106475830078 17.85780334472656 99.72229766845703 15.39220428466797 96.54451751708984 13.24535369873047 C 93.33704376220703 11.07842254638672 89.90837097167969 9.217369079589844 86.35372924804688 7.713897705078125 C 78.95849609375 4.585968017578125 71.10107421875 2.999992370605469 62.99977111816406 2.999992370605469 M 62.99977111816406 -7.62939453125e-06 C 97.79393005371094 -7.62939453125e-06 126.0002975463867 28.20636749267578 126.0002975463867 62.99977111816406 C 126.0002975463867 78.15426635742188 120.6493911743164 92.05918884277344 111.7340240478516 102.9280624389648 L 117.4643173217773 122.9846267700195 L 95.80453491210938 116.7961120605469 C 86.24937438964844 122.6353378295898 75.01760864257813 126.0002975463867 62.99977111816406 126.0002975463867 C 28.20636749267578 126.0002975463867 -7.62939453125e-06 97.79393005371094 -7.62939453125e-06 62.99977111816406 C -7.62939453125e-06 28.20636749267578 28.20636749267578 -7.62939453125e-06 62.99977111816406 -7.62939453125e-06 Z"/></g><text class="b" transform="translate(32.16 72.16)"><tspan x="0" y="0">switch it!</tspan></text></svg>