<svg xmlns="http://www.w3.org/2000/svg" xmlns:xlink="http://www.w3.org/1999/xlink" width="339.381" height="257.475" viewBox="0 0 339.381 257.475"><defs><style>.a{fill:url(#a);}.b{fill:#0e3239;}.c,.g{fill:#fff;}.c,.f{stroke:#04181d;stroke-miterlimit:10;stroke-width:2px;}.d{fill:#04181d;}.e{fill:#416159;}.f{fill:none;}</style><linearGradient id="a" x1="0.001" y1="0.635" x2="0.873" y2="0.397" gradientUnits="objectBoundingBox"><stop offset="0" stop-color="#5e734e"/><stop offset="0.995" stop-color="#9cb189"/></linearGradient></defs><g transform="translate(-39.555 -6.467)"><path class="a" d="M310.8,137.994a12.419,12.419,0,0,1-9.525-9.461l-.019-.084A109.35,109.35,0,0,0,171,45.768C113.165,58.552,75.69,115.99,87.378,174.057A109.35,109.35,0,0,0,218.684,259.2q2.559-.579,5.061-1.269a89.63,89.63,0,0,1,53.234,1.372A63.089,63.089,0,1,0,310.8,137.994Z"/><ellipse class="b" cx="104.135" cy="30.188" rx="104.135" ry="30.188" transform="translate(82.391 200.078)"/><path class="c" d="M146.689,226.5h0c-14.728,0-26.667-2.961-26.667-15.212V182.129c0-12.252,11.94-16.479,26.668-16.479h0c14.727,0,26.667,4.229,26.666,16.48v29.155C173.356,223.537,161.417,226.5,146.689,226.5Z"/><ellipse class="d" cx="15.416" cy="3.949" rx="15.416" ry="3.949" transform="translate(131.322 169.335)"/><path class="e" d="M188.259,66.226c-.027-.031-.112-.015-.188-.014v.246C188.14,66.378,188.288,66.26,188.259,66.226Z"/><path class="e" d="M188.1,67.154c.01-.037,0-.052-.025-.06v.172A.9.9,0,0,1,188.1,67.154Z"/><path class="d" d="M187.848,67.076c.045.04.169,0,.223.018v-.07C187.93,67.037,187.821,67.052,187.848,67.076Z"/><path class="d" d="M188.071,66.526v-.068c-.03.034-.049.064-.025.072C188.052,66.532,188.064,66.526,188.071,66.526Z"/><path class="d" d="M187.961,66.183c.019.028.063.031.11.029V66.1C188,66.119,187.935,66.146,187.961,66.183Z"/><path class="d" d="M188.071,67.359v-.093A.262.262,0,0,0,188.071,67.359Z"/><path class="d" d="M187.727,67.692c.014.113-.446.078-.347.163s.562.078.575.213-.084.3,0,.269.006.205.084.17a.268.268,0,0,0,.032-.022v-.767C187.9,67.724,187.714,67.584,187.727,67.692Z"/><path class="d" d="M159.952,174.177H134.329a3.3,3.3,0,0,0,.151-.745,16.713,16.713,0,0,1-.106-2.314c.27-2.325.637-4.639.956-6.959a2.146,2.146,0,0,0-.02-.724c-.178-.827-.345-1.661-.586-2.471q-2.262-7.622-4.572-15.228a.918.918,0,0,0-.6-.538c-2.253-.362-4.508-.736-6.776-.979a4.374,4.374,0,0,1-2.377-1.058,21.138,21.138,0,0,0-2.976-2.016c-.583-.322-1.207-.436-1.207-1.291a1.625,1.625,0,0,1,1.094-1.758,4.814,4.814,0,0,1,1.711-.2,14.448,14.448,0,0,1,7.854,3.263c.626.5,1.29.961,1.937,1.44l.232-.226a9.248,9.248,0,0,0-.714-.836c-.761-.706-1.615-1.325-2.306-2.092a17.113,17.113,0,0,0-4.807-3.9,8.346,8.346,0,0,1-2.1-1.76c-.625-.665-.509-1.02.3-1.451.771-.411,1.555-.8,2.378-1.216-.214-.184-.372-.331-.542-.464-1.243-.975-2.469-1.958-2.872-3.61a.816.816,0,0,0-.443-.438,53.194,53.194,0,0,1-8.505-4.47c-1.356-.914-2.777-1.731-4.137-2.639-.74-.494-1.37-1.158-2.129-1.614-.637-.383-.718-.755-.277-1.406a12.8,12.8,0,0,1,1.965,1.024,26.454,26.454,0,0,0,6.677,4.152c1.083.4,2.146.851,3.218,1.279l.043-.1c-1.778-1.564-3.556-3.127-5.409-4.758l1.574-.937c-.157-.111-.228-.167-.305-.215-2.7-1.669-5.748-2.137-8.814-2.392-2.892-.24-5.8-.267-8.705-.365-4.087-.137-8.175-.278-12.263-.371-2.656-.06-5.179-1.1-7.854-1.008a3.908,3.908,0,0,1-1.212-.209c-2.629-.777-5.254-1.571-7.879-2.363a20.15,20.15,0,0,0-2.684-.8c-1.69-.259-3.417-.288-5.1-.569-2.23-.372-4.444-.856-6.648-1.366-1.7-.394-3.519-.584-4.934-1.74-1.083-.884-2.036-1.926-3.072-2.871A4.741,4.741,0,0,1,39.7,99.274c0-.072-.092-.145-.142-.217v-.728a2.413,2.413,0,0,1,.69-.457,58.716,58.716,0,0,1,6.477-1.383,33.722,33.722,0,0,1,5.138.187c.638.026,1.279,0,1.713,0,.294-1.7.547-3.315.861-4.918.224-1.145.334-1.187,1.523-1.307a7.026,7.026,0,0,0,1.354-.25,15.568,15.568,0,0,1,4.6-.806A10.974,10.974,0,0,1,68.2,91.07c.874.582,1.632,1.336,2.475,1.97a1.068,1.068,0,0,0,.736.133c.283-.6.824-.575,1.34-.685.869-.187,1.724-.436,2.586-.656a5.118,5.118,0,0,1,1.124-.269c2.163-.041,3.555.049,3.934,2.618a8.915,8.915,0,0,0,2.373,5.032,9.221,9.221,0,0,1,2.416,4.535,9.128,9.128,0,0,0,.5,1.272l1.043-1.153c-.226-.232-.386-.414-.564-.577-1.986-1.825-2.361-5.843-1.329-7.535.867-1.421,1.785-2.812,2.716-4.191a.688.688,0,0,1,.654-.075c1.758,1.046,3.493,2.129,5.24,3.193.19.115.477.308.61.242.72-.352,1.406-.774,2.246-1.253-1.358-1.342-2.657-2.638-3.979-3.911-.134-.129-.406-.117-.614-.17l-3.641-.921a1.7,1.7,0,0,1-1.337-1.653,3.638,3.638,0,0,1,2.313-.283c3.441.453,6.082,2.464,8.713,4.491.253.195.5.392.756.588a1.678,1.678,0,0,0-.18-.884,9.037,9.037,0,0,1-.867-5.427,10.816,10.816,0,0,1,3.808-6.175,1.413,1.413,0,0,1,1.384-.351,6.9,6.9,0,0,1,3.833,1.9,2.183,2.183,0,0,1,.608,1.164c.112,1.277.1,2.564.147,3.847a4.34,4.34,0,0,0,.073.489l.192.059a12.5,12.5,0,0,1,5.516-6.211c.392.019.739.06,1.084.047,1.258-.046,2.52-.212,3.772-.149a36.714,36.714,0,0,1,10.9,2.506c.6.224,1.223.412,1.834.618l.159-.255c-.257-.321-.489-.666-.775-.959-.805-.822-1.457-1.842-.768-3.136.474.36.9.741,1.384,1.042a18.5,18.5,0,0,0,6.112,2.835c.7.141.959-.042,1.132-.658a6.874,6.874,0,0,1,1.761-3.135,24.094,24.094,0,0,1,2.015-1.572c-.294-.18-.514-.332-.749-.457a17.371,17.371,0,0,0-2.562-1.323c-3.424-1.139-6.858-2.255-10.326-3.247-1.925-.55-3.95-.742-5.883-1.269a23.991,23.991,0,0,0-7.958-.97,1,1,0,0,1-1.1-.539c-.574-1.209-1.139-2.423-1.72-3.662.374-.162.61-.285.86-.369.892-.3,1.781-.611,2.686-.864a8.493,8.493,0,0,1,2.508-.548,65.732,65.732,0,0,1,7,.594A31.4,31.4,0,0,1,137.054,69.7a12.558,12.558,0,0,1,4.151,4.105,2.15,2.15,0,0,1,.147,1.436c-.1.42-.232.746.224.96.693.327,1.4.209,1.607-.255a19.681,19.681,0,0,1,1.123-2.5,4.426,4.426,0,0,0,.634-2.472c.008-.819.117-1.639.1-2.457a2.036,2.036,0,0,0-.355-1.027c-.577-.862-1.225-1.677-1.816-2.53-.576-.831-1.09-1.707-1.69-2.519a1.071,1.071,0,0,0-.8-.35,11.742,11.742,0,0,1-5.366-1.288q-3.109-1.368-6.253-2.662a27.506,27.506,0,0,1-7.259-4.292c-.593-.5-1.093-1.1-1.705-1.572a13.582,13.582,0,0,1-3.871-4.906,2.248,2.248,0,0,1-.087-.616c4.072-.066,7.937-1.5,12-1.019a3.911,3.911,0,0,0-1.328-.541,7.647,7.647,0,0,1-4.894-2.966,6.546,6.546,0,0,1-1.667-3.143,1.1,1.1,0,0,1,.385-1.14c1.755-1.511,3.916-1.845,6.075-2.037a20.356,20.356,0,0,1,4.561.136,25.54,25.54,0,0,1,5.264,1.171,9.819,9.819,0,0,1,5.528,4.111c.607,1.059,1.267,2.126.709,3.468a1.1,1.1,0,0,0,.3.951,19.238,19.238,0,0,1,2.719,3.724c.038.055.1.11.107.169.032.381.027.381.553.4.132-2.213.275-4.428.381-6.645.009-.184-.2-.4-.354-.564-.527-.567-1.264-.824-1.829-1.419-.972-1.023-1.793-2.134-2.654-3.236-1.712-2.191-3.551-4.282-5.316-6.432-1.319-1.608-2.623-3.228-3.9-4.873-.913-1.18-1.749-2.418-2.647-3.611-.516-.686-1.085-1.331-1.763-2.157,3.08.785,5.25,2.723,7.655,4.3a1.475,1.475,0,0,0-.112-.8c-1.767-3.072-.124-7.811,1.974-9.747a4.767,4.767,0,0,1,1.792-1.172,5.456,5.456,0,0,1,3.362.027c1.992.73,4.121,1.214,5.625,2.976.092-.177.172-.319.241-.465.6-1.263,1.124-2.566,1.8-3.784a11.909,11.909,0,0,1,6.846-5.69,1.39,1.39,0,0,0,.363-.284h2.184c.042,2.615.1,5.23.114,7.846a5.53,5.53,0,0,1-.214,1.87c-.659,1.838-1.392,3.651-2.137,5.457a14.73,14.73,0,0,1-4.522,6.384,5.328,5.328,0,0,0-1.924,2.912c-.035.115-.1.222-.13.339-.273,1.075-.54,2.152-.809,3.228l.223.111a8.282,8.282,0,0,1,.666-.506,13.4,13.4,0,0,1,3.029-1.8c3.687-1.065,7.4-2.066,11.332-1.394a9.282,9.282,0,0,1,4.3,1.757,1.019,1.019,0,0,1,.371.514c.383,1.815.149,3.518-1.568,4.7a16.973,16.973,0,0,1-2.786,1.336c-.726.323-1.471.6-2.208.9l.111.292c3.2-.929,6.541-1.362,9.751-3.09.089,1.358.195,2.55.219,3.743a.843.843,0,0,1-.493.649,10.007,10.007,0,0,0-3.786,1.743c-1.273.828-2.411,1.871-3.707,2.656-2.828,1.712-5.729,3.3-8.579,4.976a40.977,40.977,0,0,1-3.949,2.432,8.482,8.482,0,0,0-3.852,3.693,10.73,10.73,0,0,0-.556,1.246,3.953,3.953,0,0,0,1.159-.484,50.76,50.76,0,0,1,4.738-2.494,14.161,14.161,0,0,0,6.057-4.459,12.041,12.041,0,0,1,1.757-1.533l1.972,3.428c-.185.124-.246.161-.3.2a18.868,18.868,0,0,0-2.657,2.111c-1.731,1.952-3.267,4.075-4.989,6.036-2.463,2.8-5.045,5.5-7.515,8.3a4.588,4.588,0,0,0-.97,2.063c-.044.213.821.581,1.23.924a.78.78,0,0,0,1.051.059c.591-.418,1.183-.839,1.73-1.311.795-.684,1.551-1.414,2.379-2.175.914,1.183,1.685,2.258,2.538,3.265a20.027,20.027,0,0,1,3.446,4.819,4.1,4.1,0,0,1,.4,1.787c-.119,1.97-1.885,2.476-3.218,3.273a10.723,10.723,0,0,1-2.727.91c-1.721.462-3.457.868-5.182,1.317a3.76,3.76,0,0,0-.723.362c.613.262,1.171.3,1.673.483a8.64,8.64,0,0,1,1.525.828c.622.389.81.337,1-.39.134-.507.235-1.022.347-1.514,1.657.44,3.251.825,4.818,1.3.627.19,1,.071,1.273-.5a.733.733,0,0,1,.272-.325c.137-.072.414-.138.454-.082a1,1,0,0,1,.182.584c-.006.141-.155.291-.268.411-.4.427-.192.718.183,1.012a28.291,28.291,0,0,1,2.245,1.827,15.407,15.407,0,0,1,4.811,8.793,6.537,6.537,0,0,0,.244.847l4.79-2.295a1.619,1.619,0,0,0-.1-.357c-.875-2.067-1.7-4.159-2.653-6.187q-1.6-3.378-3.406-6.654c-.792-1.431-1.78-2.753-2.641-4.149a.8.8,0,0,1,.083-.73c.385-.476.428-1.263,1.2-1.39.057-.009.125.068.19.1,1,.477,2.042.887,3,1.445a20.407,20.407,0,0,1,5.119,4.454,14.841,14.841,0,0,1,3.476,8.45c.068.667.126,1.334.184,1.959,1.44,0,2.816.021,4.19-.02a1.2,1.2,0,0,0,.707-.436c.98-1.1,1.937-2.218,2.889-3.342a.819.819,0,0,0,.208-.518,9.953,9.953,0,0,0-.285-2.512,11.806,11.806,0,0,0-1.334-2.283c-.436-.694-.863-1.4-1.354-2.052-1.682-2.241-3.485-4.4-5.059-6.711-1.254-1.844-1.617-3.956-.24-5.914a6.767,6.767,0,0,1,2.369-1.808c.364-.2,1,.072,1.5.187a11.463,11.463,0,0,1,1.592.485c1.159.451,2.3.938,3.479,1.419.053-.748.109-1.534.166-2.32a10.527,10.527,0,0,1,2.209-6.244,10.726,10.726,0,0,1,5.286-3.41,1.233,1.233,0,0,1,.987.14,30.077,30.077,0,0,1,2.347,2.17c.874.891,1.7,1.831,2.584,2.795.135-.227.241-.408.35-.588a14.283,14.283,0,0,1,3.9-4.533c2.528-1.774,5.446-2.689,8.289-3.765a.723.723,0,0,1,.645.252c.753,1.284,1.516,2.568,2.167,3.906.559,1.149.489,1.112,1.812.989,1.629-.151,3.269-.173,5.088-.26a6.534,6.534,0,0,1-.6.962c-.842.9-1.717,1.776-2.572,2.667-2.917,3.041-5.806,6.109-8.756,9.119-1.523,1.554-3.13,3.029-4.736,4.5-1.172,1.074-2.409,2.077-3.606,3.123a1.578,1.578,0,0,0-.475.6c-.249.73-.45,1.477-.653,2.222a11.6,11.6,0,0,1-2.065,4.113c-.983,1.258-2.536,1.4-3.935,1.812a7.115,7.115,0,0,1-1.288.146c-.4.041-.81.08-1.1.108.032.537.212,1.026.042,1.255a5.628,5.628,0,0,1-1.238.967c-1.476,1.1-3.051,2.084-4.4,3.316-2.253,2.051-4.369,4.252-6.528,6.405-.505.5-.949,1.065-1.409,1.586.547.517,1.075.945,1.513,1.45.316.365.56.859.065,1.28-1.157.984-2.321,1.962-3.517,2.9-.707.554-1.479,1.025-2.31,1.594,2.644.832,5.065,1.769,7.82,1.483-.418,1.759-.662,3.37-2.18,4.376a.806.806,0,0,0-.209.674c.2,1.191.412,2.382.685,3.558.19.82.483,1.616.776,2.571.369-.409.62-.665.846-.941,1.165-1.424,2.334-2.846,3.478-4.287.369-.465.727-.659,1.282-.307a10.39,10.39,0,0,0,1.017.518c1.186-.7,1.012-1.6.577-2.564-.549-1.208-1.045-2.441-1.633-3.629-.771-1.56-1.59-3.1-2.431-4.622a12.365,12.365,0,0,0-1.035-1.39c2.762.941,4.964,2.768,7.406,4.367.137-.408.254-.742.362-1.078a18.189,18.189,0,0,1,3.166-5.834.771.771,0,0,1,1.221-.2,20.877,20.877,0,0,1,1.981,1.573c1.069,1.036,2.071,2.142,3.126,3.244a1.637,1.637,0,0,0,.209-.325c.68-1.855,1.338-3.719,2.041-5.566.151-.4.421-1,.709-1.049.922-.143,1.3-.825,1.812-1.417a11.689,11.689,0,0,1,9.207-4.306.8.8,0,0,1,.606.429,11.049,11.049,0,0,1,.675,4.844c-.127.9-.225,1.814-.359,2.913a18.089,18.089,0,0,1,7.274-3.559c3.057-.693,7.035-.948,7.876-.516-.285.32-.569.682-.9,1a37.3,37.3,0,0,0-2.928,2.813,21.578,21.578,0,0,1-5.061,4.531c-.457.289-.911.585-1.548.994,1.092.51.954,1.316,1,2.129a4.065,4.065,0,0,0,.63,1.721c.413.706,1.016,1.3,1.421,2.01.76,1.33.354,3.165-.873,3.65a10.067,10.067,0,0,1-3.464.882,41.009,41.009,0,0,1-5.766-.513,12.364,12.364,0,0,1-2.628-.749c-1.008-.375-1.7.462-2.577.587a8.711,8.711,0,0,0-2.737.83c-2.264,1.172-4.469,2.458-6.692,3.707-1.816,1.021-3.676,1.976-5.42,3.109a31.716,31.716,0,0,0-3.541,2.854c-.715.628-1.288,1.415-2,2.046-.575.509-1.348.807-1.886,1.345-2.773,2.772-5.5,5.592-8.235,8.4-.034.035,0,.133,0,.354l3.226-.9a25.159,25.159,0,0,1-1.207,2.68,6.123,6.123,0,0,1-1.581,1.926,17.718,17.718,0,0,0-5.1,5.582c-.3.5-.629.988-1.016,1.594l6.77.449a8.229,8.229,0,0,1-1.9,5.475c-1.4,1.724-2.985,3.3-4.539,4.886a19.076,19.076,0,0,1-2.676,2.387,27.125,27.125,0,0,1-6.971,3.967,1.108,1.108,0,0,0-.561.6c-.594,1.432-1.155,2.878-1.713,4.324-.205.53-.372,1.074-.549,1.589Zm-38-76.959.06.167c1.588.363,3.172.746,4.768,1.073a1.471,1.471,0,0,0,.953-.177,15.908,15.908,0,0,1,4.776-1.774.871.871,0,0,1,.709.35,3.478,3.478,0,0,1,.541,2.838,3.405,3.405,0,0,1,.557.065c1.449.43,2.914.816,4.335,1.326a1.04,1.04,0,0,1,.647,1.529c-.2.567-.054.771.556.816,1.061.079,2.116.242,3.269.381-.034.076.042-.026.058-.137.1-.7.181-1.4.278-2.1a1.274,1.274,0,0,0-.81-1.509,22.735,22.735,0,0,1-2.92-1.72c-1.767-1.2-3.543-2.4-5.221-3.716-1.419-1.114-2.719-2.381-4.045-3.61-.776-.721-1.49-1.508-2.253-2.244a2.592,2.592,0,0,0-.653-.335.9.9,0,0,0-.03.2c.072.2.145.407.222.609a4.011,4.011,0,0,1-.814,4.567,16.478,16.478,0,0,1-2.452,1.91C123.671,96.271,122.8,96.723,121.949,97.218Zm-4.5-3.742a43.978,43.978,0,0,1,3.488-3.218c1.478-1.1,3.114-1.993,4.677-2.982.316-.2.614-.43.92-.646l0-.28c1.273.819,2.573,1.6,3.811,2.465,1.848,1.295,3.746,2.415,6.106,2.379.292,0,.585.039.981.068a6.266,6.266,0,0,0-3.709-3.085c-5.419-1.671-10.821-3.4-16.234-5.084-.711-.221-1.451-.345-2.178-.513l-.1.174c.267.422.518.854.8,1.262a3.219,3.219,0,0,1,.188,3.673c-.8,1.436-1.607,2.869-2.4,4.307a3.1,3.1,0,0,0-.161.55A4,4,0,0,1,117.451,93.476ZM134,47.753a3.505,3.505,0,0,0,.5.387,19.151,19.151,0,0,1,5.663,4.588c2.222,2.469,3.336,5.224,1.885,8.543a1.167,1.167,0,0,0,.221.941c.582.784,1.246,1.506,1.855,2.271a4.984,4.984,0,0,1,.511.868,2.667,2.667,0,0,1,.143.493c.112-.177.305-.347.323-.533.209-2.181.392-4.364.58-6.547a31.6,31.6,0,0,0,.254-3.3c-.031-1.579.543-3.324-1-4.585-.068-.056-.077-.178-.135-.253-.936-1.22-1.872-2.441-2.819-3.654a.8.8,0,0,0-1.086-.211,6.073,6.073,0,0,1-1.665.448C137.529,47.418,135.824,47.568,134,47.753Zm-9.1,52.937c-1.743-.329-3.352-.645-4.968-.92a.815.815,0,0,0-.591.278c-.687.751-1.33,1.541-2.011,2.3a14.44,14.44,0,0,0-2.971,4.942c-.382,1.093-.282,1.309.595,2.015a4.123,4.123,0,0,1,1.756,4.039,1.792,1.792,0,0,0,.56,1.2,4.127,4.127,0,0,0,1.135.636c.456-.635.917-1.25,1.338-1.891.073-.11-.015-.331-.04-.5a7.3,7.3,0,0,1-.266-1.824,13.261,13.261,0,0,1,2.644-6.432C122.992,103.288,123.906,102.04,124.9,100.69Zm34.642-58.78-.052-.146a1.322,1.322,0,0,0-.249-.025c-1.59.125-3.179.289-4.771.366a8.822,8.822,0,0,1-2.37-.164,1.032,1.032,0,0,0-1.176.38,16.607,16.607,0,0,0-2.9,5.547,6.326,6.326,0,0,0-.427,1.5c-.118,1.2-.182,2.411-.211,3.619-.034,1.417-.008,2.834-.008,4.34l1.6-1.841c-.285-.438-.673-.76-.644-1.041a7.859,7.859,0,0,1,.57-2.8,22.718,22.718,0,0,1,2.646-3.964,19.511,19.511,0,0,1,7.1-5.269C158.957,42.275,159.242,42.079,159.538,41.91Zm-57.162,69.911a3.813,3.813,0,0,0-3.408-1.388,12.161,12.161,0,0,1-6.923-2.21c-.871-.541-1.736-1.092-2.579-1.622,0,1.266,0,2.445,0,3.624a1.073,1.073,0,0,0,.119.337,1.884,1.884,0,0,0,1.551,1.109,23.919,23.919,0,0,0,6.382.983C99.474,112.6,102.67,112.208,102.376,111.821Zm44.186-70.153c.088-.408.134-.543.144-.681.114-1.542.254-3.083.316-4.627a5.5,5.5,0,0,0-.254-1.608c-.242-.9-.576-1.766-.812-2.663-.134-.513-.248-1-.828-1.161-.892-.254-1.8-.46-2.678-.757a11.826,11.826,0,0,1-1.488-.738.85.85,0,0,0,.212.609,15.205,15.205,0,0,1,2.9,5.053c.422,1.276.7,2.549-.593,3.525Zm-19.406,83.239c-1.1-1.137-.947-2.46-.6-3.809-.623-.675-1.245-1.35-1.876-2.017a1.033,1.033,0,0,0-.166.117l-1.36-1.985a4.491,4.491,0,0,0-1.988,3.718,3.145,3.145,0,0,0,1.106,1.916c1.1.848,2.383,1.452,3.566,2.195A.889.889,0,0,0,127.156,124.907Zm36.387-.9c2.992-1.339,5.7-2.9,8.809-2.936-.373-1.225-.716-2.368-1.074-3.506-.03-.093-.19-.235-.244-.217-.848.28-1.828.052-2.573.765a14.1,14.1,0,0,1-2.649,2.253C164.381,121.167,164.066,122.5,163.543,124Zm-22.68-2.043a11.523,11.523,0,0,0-4.89-3.223c-.51,1.189-1.047,2.4-1.534,3.627a.726.726,0,0,0,.236.609c.741.622,1.5,1.22,2.288,1.786a.7.7,0,0,0,.646.041C138.7,123.886,139.761,122.932,140.863,121.961Zm11.426-26c-1.528.515-1.985,2.1-2.8,3.264,1.55.93,3.025,1.789,4.47,2.694a2.072,2.072,0,0,0,2.317-.061Zm-6.137,60.012-.263-.025c-.209.3-.6.608-.593.9a13.521,13.521,0,0,0,.347,2.787c.534,2.174,1.151,4.328,1.744,6.488a7.671,7.671,0,0,0,.305.785l.226-.042c.18-1.654.412-3.3.511-4.964a4.575,4.575,0,0,0-.431-1.7c-.1-.292-.413-.509-.531-.8C147.007,158.269,146.587,157.119,146.152,155.975Zm10.27-27.879c.507-.079,1.033-.138,1.547-.253.183-.042.469-.207.481-.338a9.623,9.623,0,0,0,.05-2.041,18.767,18.767,0,0,0-.546-2.535c-.246-.921-.977-1.132-1.695-.492a9.538,9.538,0,0,0-1.3,1.361,1.053,1.053,0,0,0-.119.885C155.317,125.813,155.865,126.912,156.422,128.1Zm3.858-15.731c1.334-.688,2.614-1.342,3.885-2.013a.509.509,0,0,0,.216-.34,2.868,2.868,0,0,0-2.025-2.388.631.631,0,0,0-.278.058c-.843.358-1.69.71-2.521,1.1-.125.058-.281.3-.25.409C159.608,110.242,159.945,111.288,160.28,112.365Zm-12.652,41.974c-.165.156-.323.245-.386.379-.1.2-.244.511-.161.643.616.979,1.284,1.925,1.963,2.923a3.184,3.184,0,0,0,.151-.46c.259-1.4.465-2.811.778-4.2a2.859,2.859,0,0,0-.409-2.342c-.21-.316-.411-.638-.734-1.139a4.246,4.246,0,0,0-.849.957c-.287.659-.4,1.39-.668,2.061C147.124,153.642,147.056,154.027,147.628,154.339Zm-16.552-43.458c.553.341,1.04.606,1.486.928.344.249.559.168.878-.07,1.329-.995,2.69-1.947,4.037-2.917.126-.09.236-.2.452-.387-.573-.268-1.059-.468-1.518-.718a1.079,1.079,0,0,0-1.323.075c-1.209.918-2.458,1.783-3.685,2.677A2.3,2.3,0,0,0,131.076,110.881Zm5.83,50.372c1.184-.571,1.372-.865,1.013-1.756-.809-2.011-1.652-4.009-2.5-6a3.837,3.837,0,0,0-.524-.714l-.23.1C135.4,155.649,136.146,158.416,136.906,161.253Zm-8.03-37.415c-.513.791-.935,1.423-1.33,2.071-.056.094.01.268.033.4.111.659.2,1.323.355,1.973a.825.825,0,0,0,.4.537c.132.05.438-.124.546-.281.476-.7.928-1.412,1.344-2.145a.851.851,0,0,0,.076-.712C129.917,125.105,129.458,124.579,128.876,123.838Z"/><rect class="c" width="169.111" height="116.543" rx="8.755" transform="translate(160.59 239.044) rotate(-90)"/><circle class="c" cx="4.557" cy="4.557" r="4.557" transform="translate(214.305 220.793)"/><line class="c" x2="118.284" transform="translate(159.719 213.376)"/><rect class="f" width="169.111" height="116.543" rx="8.755" transform="translate(160.59 239.044) rotate(-90)"/><path class="d" d="M245.4,225.6c.077-.1.21-.2.222-.3a1.241,1.241,0,0,1,.79-1.049,25.549,25.549,0,0,1,7.85-2.582,8.568,8.568,0,0,1,4.132.541,14.639,14.639,0,0,0,1.666.616,2.926,2.926,0,0,0,1.062-.021c1.74-.219,3.477-.464,5.218-.677,1.157-.142,2.32-.227,3.476-.369,1.4-.171,2.788-.391,4.186-.558,1.213-.145,2.433-.233,3.648-.365,1.65-.18,3.3-.389,4.946-.566.933-.1,1.871-.158,2.806-.245,1.583-.148,3.166-.307,4.749-.455.535-.05,1.071-.093,1.607-.121,2.31-.122,4.619-.249,6.929-.353a23.459,23.459,0,0,1,11.594,2.533q7.416,3.664,14.816,7.366c.052.026.1.056.152.084,1.272.7,1.335.922.679,2.233-.276.552-.517,1.122-.784,1.679a.567.567,0,0,1-.9.281c-1.4-.836-2.809-1.668-4.2-2.52a3.763,3.763,0,0,1-.686-.609,30.927,30.927,0,0,0-6.92-5.241,37.8,37.8,0,0,0-7.1-3.26,19.553,19.553,0,0,0-8.021-.705c-4.923.489-9.835,1.089-14.749,1.663-1.994.232-3.982.518-5.973.78q-5.281.695-10.562,1.39c-.7.093-1.4.2-2.2.315.444.391.853.7,1.2,1.07q2.021,2.122,4.006,4.278a1.056,1.056,0,0,0,1.182.4,8.4,8.4,0,0,1,4.14.318c1.211.313,2.385.764,3.585,1.12a.8.8,0,0,0,.653-.108,16.29,16.29,0,0,1,8.114-3.843,16.081,16.081,0,0,1,5.278.092c4.965.693,9.256,3.06,13.582,5.361a36.784,36.784,0,0,0,7.512,3.307,8.942,8.942,0,0,0,2.3.125,6.189,6.189,0,0,0,2.554-.324,8.908,8.908,0,0,1,1.565-.255c1.6-.355,3.182-.758,4.78-1.1,2.33-.506,4.67-.965,7-1.472,1.36-.3,2.709-.649,4.062-.978,1.987-.484,3.971-.981,5.961-1.451,2.415-.571,4.828-1.159,7.257-1.67,3.228-.678,6.47-1.294,9.708-1.927,1.8-.351,3.586-.767,5.4-1a13.046,13.046,0,0,1,6.237.348,5.991,5.991,0,0,1,2,1.227,63.092,63.092,0,0,1,6.675,7.9,1.7,1.7,0,0,1,.3,1.475c-.172.789-.376,1.573-.615,2.343-.262.843-.924,1.026-1.528.381a8.154,8.154,0,0,1-2.166-3.3,15.426,15.426,0,0,0-2.544-5.261,32.163,32.163,0,0,0-2.22-2.426c-1.035-1.087-2.393-.821-3.6-.631-2.109.331-4.181.9-6.27,1.368-3.5.781-7.02,1.513-10.513,2.343-5.37,1.276-10.728,2.608-16.086,3.934-3.768.933-7.53,1.891-11.292,2.848-.784.2-1.544.505-2.335.661-1.214.24-2.453.358-3.669.594s-2.441.551-3.657.846a.633.633,0,0,0-.564.615c-.153,1.553-.381,3.1-.531,4.651a28,28,0,0,1-2.588,10.451,11.16,11.16,0,0,1-2.509,3.164,11.873,11.873,0,0,1-2.859,2.2,11.1,11.1,0,0,1-3.992,1.09,2.058,2.058,0,0,0-.383.1H297.8c-.913-.129-1.835-.211-2.738-.393a19.768,19.768,0,0,1-12.834-8.977,38.488,38.488,0,0,1-5.1-12.217,10.537,10.537,0,0,1-.451-4.574,1.761,1.761,0,0,0-1.5-2.2c-.713-.163-1.427-.32-2.144-.464-.938-.188-1.879-.361-2.907-.558.251.8.413,1.5.687,2.148.463,1.1,1,2.171,1.5,3.257a5.653,5.653,0,0,1,.615,3.016,18.526,18.526,0,0,1-2.661,7.395,10.4,10.4,0,0,1-5.213,4.587,7.418,7.418,0,0,1-6.561-.561,17.527,17.527,0,0,1-6.677-7,42.252,42.252,0,0,1-4.555-13.874,77.7,77.7,0,0,0-1.859-7.694Zm62.379,23.052c-.212-1.484-.321-2.991-.658-4.446a15.4,15.4,0,0,0-5.74-8.8,22.1,22.1,0,0,0-14.731-4.862,7.347,7.347,0,0,0-3.706.943,5.406,5.406,0,0,0-1.959,2.645c-1.13,2.7-1.4,4.772.945,7.176a8.259,8.259,0,0,1,2.433,3.877c.357,1.619.619,3.262.846,4.9a17.755,17.755,0,0,0,1.055,4.662,10.588,10.588,0,0,0,5.353,5.375,14.588,14.588,0,0,0,8.9,1.582,5.583,5.583,0,0,0,3.552-1.587,11.55,11.55,0,0,0,1.678-2.472A23.5,23.5,0,0,0,307.779,248.649Zm-57.435-21.613a1.631,1.631,0,0,0-.063.163,19.165,19.165,0,0,0-.172,7.93,31.022,31.022,0,0,0,2.227,8.123,24.121,24.121,0,0,0,4.332,6.955,12.052,12.052,0,0,0,4.383,3.24c1.891.733,2.66.754,4.287-.788a7.05,7.05,0,0,0,1.789-3.069,23.855,23.855,0,0,0,.732-10.131,20.978,20.978,0,0,0-2.1-7.094,16.9,16.9,0,0,0-5.576-6.4,1.251,1.251,0,0,0-.707-.3c-1.219.134-2.433.317-3.646.5C254.022,226.447,252.212,226.74,250.344,227.036Z"/><path class="b" d="M276.391,212.876V156.187c-5.821,2.237-11.411,6.571-24.06-1.221-22.482-13.85-52.029,16.847-90.765,34.725v23.185Z"/><rect class="f" width="169.111" height="116.543" rx="8.755" transform="translate(160.59 239.044) rotate(-90)"/><path class="d" d="M201.113,163.869l30.79.1a4.194,4.194,0,0,0,3.768-6.063L229.6,145.72a4.192,4.192,0,0,0-3.74-2.324l-30.92-.1a4.193,4.193,0,0,0-3.752,6.1l6.2,12.188A4.194,4.194,0,0,0,201.113,163.869Z"/><path class="g" d="M234.644,169.056l-6.171-12.387a3.7,3.7,0,0,0-3.3-2.048l-35.836-.119a3.7,3.7,0,0,1-3.281-2.018l-15.77-30.943a3.7,3.7,0,0,1,3.293-5.374H262.7a3.7,3.7,0,0,1,3.279,5.4l-24.75,47.546A3.7,3.7,0,0,1,234.644,169.056Z"/><path class="d" d="M237.954,172.631h-.048a5.2,5.2,0,0,1-4.628-2.894l-6.171-12.388a2.159,2.159,0,0,0-1.935-1.2l-35.836-.119a5.2,5.2,0,0,1-4.636-2.851l-15.77-30.943a5.223,5.223,0,0,1,4.653-7.594H262.7a5.222,5.222,0,0,1,4.632,7.634L242.585,169.82A5.2,5.2,0,0,1,237.954,172.631Zm-64.371-54.938a2.17,2.17,0,0,0-1.934,3.155l15.771,30.943a2.162,2.162,0,0,0,1.926,1.185l35.836.118a5.2,5.2,0,0,1,4.657,2.894l6.171,12.388a2.17,2.17,0,0,0,3.867.034l24.75-47.545a2.17,2.17,0,0,0-1.925-3.172Z"/><path class="d" d="M187.655,132.548l3.18-4.554a4.593,4.593,0,0,1,.64-.757v-.023a5.473,5.473,0,0,1-.64.035H189.81a.234.234,0,0,0-.257.256v.454H187.69v-1.607c0-.594.256-.85.85-.85h5.532v1.257l-3.191,4.577a4.6,4.6,0,0,1-.64.757v.024a5.451,5.451,0,0,1,.64-.035h1.258a.233.233,0,0,0,.256-.257v-.454h1.863v1.607c0,.594-.256.851-.85.851h-5.753Z"/><path class="d" d="M195.434,127.5a.233.233,0,0,0-.256-.256h-.5V125.5h1.992c.594,0,.85.256.85.85v4.355a1.34,1.34,0,1,0,2.679,0v-4.355c0-.594.255-.85.849-.85h1.992v1.747h-.5a.233.233,0,0,0-.256.256v3.261a3.432,3.432,0,0,1-6.848,0Z"/><path class="d" d="M207.86,125.362c.99,0,3.191.384,3.191,1.945V128.4h-1.864v-.454c0-.477-.745-.664-1.28-.664a2.1,2.1,0,0,0-2.19,2.3,2.371,2.371,0,0,0,2.236,2.469,3.393,3.393,0,0,0,2.376-1.06l1.06,1.491a4.785,4.785,0,0,1-3.471,1.49,4.3,4.3,0,1,1-.058-8.606Z"/><path class="d" d="M212.739,127.5a.233.233,0,0,0-.256-.256h-.5V125.5h1.992c.593,0,.85.256.85.85v2.481h2.818v-2.481c0-.594.256-.85.85-.85h1.992v1.747h-.5a.233.233,0,0,0-.256.256v6.324h-2.085v-3.261h-2.818v3.261h-2.085Z"/><path class="d" d="M225.444,125.362a4.212,4.212,0,0,1,4.356,4.251,4.355,4.355,0,0,1-8.711,0A4.211,4.211,0,0,1,225.444,125.362Zm0,6.685a2.294,2.294,0,0,0,2.19-2.434,2.194,2.194,0,1,0-4.379,0A2.294,2.294,0,0,0,225.444,132.047Z"/><path class="d" d="M230.754,127.5a.282.282,0,0,0-.326-.256h-.291V125.5h1.49c.571,0,.932.163,1.037.675l.92,4.356a4.81,4.81,0,0,1,.1.873h.023a4.619,4.619,0,0,1,.14-.873l1.269-5.02h1.666l1.258,5.02a4.558,4.558,0,0,1,.139.873h.023a4.81,4.81,0,0,1,.1-.873l.921-4.356c.1-.512.454-.675,1.036-.675h1.49v1.747h-.29a.283.283,0,0,0-.327.256l-1.584,6.324h-2.387l-1.048-3.878a4.068,4.068,0,0,1-.163-.886h-.023a4.146,4.146,0,0,1-.163.886l-1.048,3.878h-2.388Z"/><path class="d" d="M243.017,127.249h-.758V125.5H247.5c.594,0,.85.256.85.85v1.607h-1.863V127.5a.233.233,0,0,0-.256-.256H245.1v1.514h2.376v1.747H245.1v1.315a.233.233,0,0,0,.256.257h1.153a.233.233,0,0,0,.256-.257v-.454h1.864v1.607c0,.594-.256.851-.85.851h-3.913c-.594,0-.85-.257-.85-.851Z"/><path class="d" d="M197.542,140.136a.281.281,0,0,0-.326-.256h-.291v-1.747h1.491c.57,0,.931.163,1.036.675l.92,4.356a4.81,4.81,0,0,1,.105.873h.023a4.619,4.619,0,0,1,.14-.873l1.27-5.02h1.665l1.258,5.02a4.558,4.558,0,0,1,.139.873h.023a4.81,4.81,0,0,1,.105-.873l.921-4.356c.1-.512.454-.675,1.036-.675h1.491v1.747h-.291a.283.283,0,0,0-.327.256l-1.583,6.323h-2.388l-1.048-3.878a4.056,4.056,0,0,1-.163-.885h-.023a4.134,4.134,0,0,1-.163.885l-1.048,3.878h-2.388Z"/><path class="d" d="M209.082,144.713h.874V139.88h-.874v-1.747H212.8v1.747h-.874v4.833h.874v1.746h-3.716Z"/><path class="d" d="M214.242,139.88h-.758v-1.747h5.241c.594,0,.85.256.85.85v1.607h-1.863v-.454a.233.233,0,0,0-.256-.256h-1.13v1.513H218.7v1.747h-2.376v1.316a.234.234,0,0,0,.257.257h1.153a.233.233,0,0,0,.255-.257V144h1.864v1.607c0,.594-.256.85-.85.85h-3.913c-.594,0-.85-.256-.85-.85Z"/><path class="d" d="M221.555,143.769a2.982,2.982,0,0,0,1.91.978c.419,0,.839-.151.839-.617,0-.92-3.774-1.025-3.774-3.633,0-1.5,1.316-2.5,2.97-2.5,1.106,0,2.655.536,2.655,1.805v.908h-1.863v-.361c0-.3-.431-.489-.816-.489-.419,0-.849.175-.849.559,0,1.013,3.773.874,3.773,3.61a2.664,2.664,0,0,1-2.958,2.574,4.069,4.069,0,0,1-3.04-1.374Zm2.166-7.919h1.829l-1.375,1.747h-1.4Z"/><path class="d" d="M231.337,137.993c.99,0,3.192.384,3.192,1.945v1.094h-1.864v-.454c0-.477-.745-.664-1.281-.664a2.1,2.1,0,0,0-2.189,2.295,2.37,2.37,0,0,0,2.236,2.469,3.4,3.4,0,0,0,2.376-1.06l1.059,1.49a4.783,4.783,0,0,1-3.47,1.491,4.3,4.3,0,1,1-.059-8.606Z"/><path class="d" d="M235.495,144.713h.873V139.88h-.873v-1.747h3.715v1.747h-.874v4.833h.874v1.746h-3.715Z"/><path class="g" d="M198.89,159.8l1.077-1.315a2.027,2.027,0,0,1,.2-.215v-.009a1.854,1.854,0,0,1-.215.009h-.421a.092.092,0,0,0-.1.1v.133H198.9v-.417c0-.215.091-.312.311-.312h1.713v.316l-1.077,1.315a2.673,2.673,0,0,1-.2.215v.009a1.32,1.32,0,0,1,.219-.013h.514a.089.089,0,0,0,.1-.1v-.128h.527v.412c0,.22-.092.311-.307.311H198.89Z"/><path class="g" d="M201.505,158.37a.09.09,0,0,0-.1-.1h-.183v-.495h.554c.215,0,.307.1.307.312v1.434a.091.091,0,0,0,.1.1h.183v.49h-.554c-.216,0-.307-.091-.307-.311Zm.027-1.512h.5v.536h-.5Z"/><path class="g" d="M202.855,158.37a.089.089,0,0,0-.1-.1h-.183v-.495h.535c.206,0,.307.1.307.262v.068c0,.051,0,.1,0,.1h.009a.869.869,0,0,1,.756-.485.651.651,0,0,1,.682.481h.009a.9.9,0,0,1,.8-.481c.486,0,.765.274.765.888v.912a.091.091,0,0,0,.1.1h.178v.49h-.549c-.22,0-.312-.091-.312-.311v-1.081c0-.266-.05-.467-.32-.467a.613.613,0,0,0-.559.536,1,1,0,0,0-.037.3v1.026h-.581v-1.392c0-.252-.037-.467-.316-.467a.622.622,0,0,0-.564.54,1.194,1.194,0,0,0-.036.293v1.026h-.578Z"/><path class="g" d="M208.332,158.645h.073v-.019c0-.334-.133-.458-.431-.458-.1,0-.311.028-.311.156v.124h-.54V158.2c0-.436.613-.481.856-.481.779,0,1.008.407,1.008.929v.871a.091.091,0,0,0,.1.1h.184v.49h-.523c-.215,0-.3-.119-.3-.256,0-.06,0-.1,0-.1h-.009a.759.759,0,0,1-.705.412.738.738,0,0,1-.8-.728C206.944,158.7,207.952,158.645,208.332,158.645Zm-.449,1.067a.6.6,0,0,0,.531-.614v-.055h-.1c-.3,0-.783.041-.783.367A.312.312,0,0,0,207.883,159.712Z"/><path class="g" d="M212.311,157.774a.424.424,0,0,0-.472-.421c-.257,0-.426.133-.426.257v.142h-.54v-.321c0-.431.567-.628.989-.628a.973.973,0,0,1,1.053.962c0,1.1-1.571,1.164-1.571,1.755,0,.059.037.082.124.082h.952a.092.092,0,0,0,.1-.1v-.2h.541v.495c0,.22-.092.311-.312.311h-1.694c-.284,0-.335-.123-.335-.43C210.721,158.5,212.311,158.567,212.311,157.774Z"/><path class="g" d="M213.432,158.48c0-.935.289-1.677,1.177-1.677s1.177.742,1.177,1.677-.288,1.685-1.177,1.685S213.432,159.414,213.432,158.48Zm1.75,0c0-.632-.128-1.132-.573-1.132s-.572.5-.572,1.132.128,1.145.572,1.145S215.182,159.121,215.182,158.48Z"/><path class="g" d="M216.234,159.6h.7V157.8c0-.109.005-.219.005-.219h-.009a.763.763,0,0,1-.143.183l-.261.247-.348-.366.816-.784h.54V159.6h.7v.508h-2Z"/><path class="g" d="M218.808,159.52a1.144,1.144,0,0,0,.458.1c.508,0,.783-.431.861-.889h-.01a.812.812,0,0,1-.6.238,1.029,1.029,0,0,1-1.04-1.081,1.05,1.05,0,0,1,1.072-1.09,1.338,1.338,0,0,1,1.255,1.512,1.671,1.671,0,0,1-1.5,1.85,1.527,1.527,0,0,1-.668-.137Zm1.373-1.384a.753.753,0,0,0-.636-.788.5.5,0,0,0-.49.545.563.563,0,0,0,.6.6C219.939,158.489,220.181,158.338,220.181,158.136Z"/><path class="g" d="M222.113,156.694h.5l-1.168,3.609h-.5Z"/><path class="g" d="M224.375,157.774a.423.423,0,0,0-.471-.421c-.257,0-.426.133-.426.257v.142h-.54v-.321c0-.431.567-.628.989-.628a.973.973,0,0,1,1.053.962c0,1.1-1.571,1.164-1.571,1.755,0,.059.037.082.124.082h.953a.091.091,0,0,0,.1-.1v-.2h.541v.495c0,.22-.092.311-.312.311h-1.694c-.284,0-.335-.123-.335-.43C222.786,158.5,224.375,158.567,224.375,157.774Z"/><path class="g" d="M225.5,158.48c0-.935.288-1.677,1.177-1.677s1.177.742,1.177,1.677-.289,1.685-1.177,1.685S225.5,159.414,225.5,158.48Zm1.749,0c0-.632-.128-1.132-.572-1.132s-.573.5-.573,1.132.129,1.145.573,1.145S227.246,159.121,227.246,158.48Z"/></g></svg>